G04 #@! TF.GenerationSoftware,KiCad,Pcbnew,(6.0.0-rc1-dev-557-ge985f797c)*
G04 #@! TF.CreationDate,2019-12-22T20:12:48+01:00*
G04 #@! TF.ProjectId,36C3_Badge_Hardware,333643335F42616467655F4861726477,1.1*
G04 #@! TF.SameCoordinates,Original*
G04 #@! TF.FileFunction,Profile,NP*
%FSLAX46Y46*%
G04 Gerber Fmt 4.6, Leading zero omitted, Abs format (unit mm)*
G04 Created by KiCad (PCBNEW (6.0.0-rc1-dev-557-ge985f797c)) date 12/22/19 20:12:48*
%MOMM*%
%LPD*%
G01*
G04 APERTURE LIST*
%ADD10C,0.200000*%
G04 APERTURE END LIST*
D10*
X31352577Y-90016944D02*
X30396219Y-97531111D01*
X29998791Y-53596497D02*
X29998791Y-56860242D01*
X32429650Y-62568076D02*
X31978205Y-70290602D01*
X29998791Y-56860242D02*
X32429650Y-62568076D01*
X32520602Y-52802747D02*
X29998791Y-53596497D01*
X37803999Y-54981700D02*
X34713886Y-54624514D01*
X39897515Y-55545594D02*
X37803999Y-54981700D01*
X42987078Y-55902783D02*
X39897515Y-55545594D01*
X44657811Y-57512881D02*
X42987078Y-55902783D01*
X59522986Y-61499269D02*
X57897451Y-61789210D01*
X65012539Y-64674269D02*
X62446080Y-64528750D01*
X68781749Y-65610784D02*
X65012539Y-64674269D01*
X74020499Y-65358878D02*
X71298048Y-65127369D01*
X57759648Y-98621415D02*
X58256294Y-99140658D01*
X55213032Y-101018650D02*
X57759648Y-98621415D01*
X32339802Y-108655185D02*
X33842415Y-107583074D01*
X30525203Y-81221201D02*
X31352577Y-90016944D01*
X52825167Y-59052976D02*
X49946721Y-58172135D01*
X57897451Y-61789210D02*
X56329244Y-62069226D01*
X49233999Y-103489748D02*
X55213032Y-101018650D01*
X45188632Y-106566080D02*
X49233999Y-103489748D01*
X29998791Y-107271636D02*
X32339802Y-108655185D01*
X71298048Y-65127369D02*
X68781749Y-65610784D01*
X40926083Y-109231206D02*
X45188632Y-106566080D01*
X30256759Y-72301988D02*
X31796304Y-77841700D01*
X33842415Y-107583074D02*
X40926083Y-109231206D01*
X31796304Y-77841700D02*
X30525203Y-81221201D01*
X31978205Y-70290602D02*
X30256759Y-72301988D01*
X74092158Y-64866643D02*
X74020499Y-65358878D01*
X62446080Y-64528750D02*
X59522986Y-61499269D01*
X56329244Y-62069226D02*
X55381152Y-62238449D01*
X34713886Y-54624514D02*
X32520602Y-52802747D01*
X49946721Y-58172135D02*
X47803045Y-56979856D01*
X47803045Y-56979856D02*
X44657811Y-57512881D01*
X55381152Y-62238449D02*
X52825167Y-59052976D01*
X71298048Y-63998480D02*
X74092158Y-64866643D01*
X32112703Y-100514288D02*
X29998791Y-104953776D01*
X29998791Y-104953776D02*
X29998791Y-107271636D01*
X30396219Y-97531111D02*
X32112703Y-100514288D01*
X68781749Y-63917451D02*
X71298048Y-63998480D01*
X65012539Y-62416492D02*
X68781749Y-63917451D01*
X59522986Y-58112603D02*
X62446080Y-61706528D01*
X40585432Y-33565334D02*
X39441662Y-31766718D01*
X49946721Y-53092135D02*
X52837844Y-53373253D01*
X39897515Y-48207816D02*
X42987078Y-49129450D01*
X29998791Y-44141502D02*
X32520602Y-43771636D01*
X44334246Y-34226793D02*
X42418223Y-34177184D01*
X52655393Y-30004483D02*
X50007906Y-33028449D01*
X30905540Y-37429905D02*
X31435810Y-39744457D01*
X42987078Y-49129450D02*
X44657811Y-51303992D01*
X62446080Y-61706528D02*
X65012539Y-62416492D01*
X55504624Y-58282379D02*
X59522986Y-58112603D01*
X44657811Y-51303992D02*
X47803045Y-51335411D01*
X54971600Y-55645916D02*
X55504624Y-58282379D01*
X52837844Y-53373253D02*
X54971600Y-55645916D01*
X47803045Y-51335411D02*
X49946721Y-53092135D01*
X36634321Y-31130615D02*
X34355597Y-33919766D01*
X34355597Y-33919766D02*
X32790697Y-33818341D01*
X37803999Y-47079478D02*
X39897515Y-48207816D01*
X34713886Y-46157847D02*
X37803999Y-47079478D01*
X32520602Y-43771636D02*
X34713886Y-46157847D01*
X29998791Y-41451018D02*
X29998791Y-44141502D01*
X31435810Y-39744457D02*
X29998791Y-41451018D01*
X39441662Y-31766718D02*
X36634321Y-31130615D01*
X42418223Y-34177184D02*
X40585432Y-33565334D01*
X46340121Y-35715075D02*
X44334246Y-34226793D01*
X50007906Y-33028449D02*
X48176216Y-32423768D01*
X32176643Y-36545753D02*
X30905540Y-37429905D01*
X48176216Y-32423768D02*
X46733135Y-33713061D01*
X32790697Y-33818341D02*
X32176643Y-36545753D01*
X46733135Y-33713061D02*
X46340121Y-35715075D01*
X78430774Y-30901309D02*
X64604090Y-30004483D01*
X52655393Y-30004483D02*
X52655393Y-30004483D01*
X52655393Y-30004483D02*
X52655393Y-30004483D01*
X64604090Y-30004483D02*
X56532091Y-30976276D01*
X56532091Y-30976276D02*
X52655393Y-30004483D01*
X81869254Y-30004483D02*
X78430774Y-30901309D01*
X136977001Y-48355543D02*
X136962664Y-49502071D01*
X134381861Y-44586332D02*
X136615384Y-43109627D01*
X131356252Y-54738063D02*
X132175360Y-51137526D01*
X127715475Y-59935473D02*
X127250802Y-59581592D01*
X140566515Y-43109627D02*
X140326736Y-45683251D01*
X130096175Y-57106636D02*
X127715475Y-59935473D01*
X136962664Y-49502071D02*
X134433137Y-51137526D01*
X133049585Y-54738063D02*
X130096175Y-57106636D01*
X112679432Y-32427073D02*
X110420000Y-31350000D01*
X127250802Y-59581592D02*
X128967286Y-57106636D01*
X124919717Y-30004483D02*
X112679432Y-32427073D01*
X134785921Y-30676965D02*
X124919717Y-30004483D01*
X141130940Y-33333272D02*
X142748756Y-31171407D01*
X137885384Y-40420797D02*
X136776338Y-37336749D01*
X140326736Y-45683251D02*
X137442778Y-47968588D01*
X133384160Y-47964180D02*
X133890726Y-47186965D01*
X140017505Y-30004483D02*
X134785921Y-30676965D01*
X143128012Y-30004483D02*
X140017505Y-30004483D01*
X136776338Y-37336749D02*
X138008856Y-35278511D01*
X133890726Y-47186965D02*
X134381861Y-44586332D01*
X137442778Y-47968588D02*
X136977001Y-48355543D01*
X133391893Y-49701610D02*
X133384160Y-47964180D01*
X132175360Y-51137526D02*
X133391893Y-49701610D01*
X141856358Y-37336749D02*
X142400959Y-40420797D01*
X128967286Y-57106636D02*
X131356252Y-54738063D01*
X142400959Y-40420797D02*
X140566515Y-43109627D01*
X138008856Y-35278511D02*
X141130940Y-33333272D01*
X142748756Y-31171407D02*
X143128012Y-30004483D01*
X136615384Y-43109627D02*
X137885384Y-40420797D01*
X134433137Y-51137526D02*
X133049585Y-54738063D01*
X178961968Y-128132930D02*
X181054380Y-127246574D01*
X36938040Y-130004306D02*
X173396345Y-130004306D01*
X40926083Y-113844879D02*
X33842415Y-113120031D01*
X33842415Y-113120031D02*
X29998791Y-116586073D01*
X188386646Y-123474609D02*
X189998951Y-122916227D01*
X186510859Y-125036754D02*
X188386646Y-123474609D01*
X184464198Y-123468547D02*
X186510859Y-125036754D01*
X173396345Y-130004306D02*
X175302449Y-127262009D01*
X30721985Y-125897199D02*
X32559187Y-126165090D01*
X35767258Y-128694617D02*
X36938040Y-130004306D01*
X34279529Y-128471926D02*
X35767258Y-128694617D01*
X49233999Y-106258503D02*
X45188632Y-110257019D01*
X45188632Y-110257019D02*
X40926083Y-113844879D01*
X185541824Y-104241055D02*
X180214879Y-105668151D01*
X189998951Y-122916227D02*
X189998951Y-107812930D01*
X181054380Y-127246574D02*
X183395391Y-127917955D01*
X55213032Y-102864671D02*
X49233999Y-106258503D01*
X29998791Y-116586073D02*
X29998791Y-122175947D01*
X34485134Y-127216808D02*
X34279529Y-128471926D01*
X32559187Y-126165090D02*
X34161569Y-125696559D01*
X34161569Y-125696559D02*
X34485134Y-127216808D01*
X58256294Y-99140658D02*
X55213032Y-102864671D01*
X29998791Y-122175947D02*
X30859239Y-124302533D01*
X183395391Y-127917955D02*
X184464198Y-123468547D01*
X175302449Y-127262009D02*
X178961968Y-128132930D01*
X30859239Y-124302533D02*
X30721985Y-125897199D01*
X189998951Y-107812930D02*
X185541824Y-104241055D01*
X179307027Y-31787665D02*
X177153429Y-31248025D01*
X189998951Y-70072873D02*
X188096155Y-52737703D01*
X125046497Y-115886579D02*
X127825725Y-116132973D01*
X188867305Y-76006155D02*
X189998951Y-70072873D01*
X163487148Y-110360645D02*
X161134563Y-110777364D01*
X176116042Y-108676132D02*
X172416837Y-107417158D01*
X142206932Y-110860046D02*
X144747482Y-109910854D01*
X156014324Y-113502022D02*
X152234090Y-113068768D01*
X172416837Y-107417158D02*
X168433202Y-108288629D01*
X186689452Y-38992047D02*
X185724275Y-35332531D01*
X188735013Y-39973763D02*
X186689452Y-38992047D01*
X163385175Y-104388781D02*
X165925725Y-103440139D01*
X181573074Y-98752603D02*
X183778485Y-95553351D01*
X158012480Y-112152647D02*
X156014324Y-113502022D01*
X154935044Y-105761857D02*
X159365713Y-106336775D01*
X138459218Y-112731422D02*
X142206932Y-110860046D01*
X158626533Y-111703408D02*
X158012480Y-112152647D01*
X159365713Y-106336775D02*
X163385175Y-104388781D01*
X127820764Y-117673619D02*
X124834830Y-116268573D01*
X180214879Y-105668151D02*
X178196880Y-108335481D01*
X189258668Y-81276875D02*
X189934457Y-78610645D01*
X187816690Y-96823351D02*
X189998951Y-95702178D01*
X175417652Y-98899226D02*
X179304823Y-99625728D01*
X161134563Y-110777364D02*
X158626533Y-111703408D01*
X130957732Y-115866186D02*
X127820764Y-117673619D01*
X143434488Y-113637621D02*
X141081901Y-114053789D01*
X168433202Y-108288629D02*
X163487148Y-110360645D01*
X134157536Y-116385430D02*
X130957732Y-115866186D01*
X147339848Y-33333272D02*
X143653321Y-35278511D01*
X150078838Y-30004483D02*
X149521559Y-31171407D01*
X162215497Y-31050689D02*
X152574190Y-30004483D01*
X189934457Y-78610645D02*
X188867305Y-76006155D01*
X171246608Y-100303171D02*
X175417652Y-98899226D01*
X144747482Y-109910854D02*
X148602683Y-109474293D01*
X184853357Y-33711957D02*
X183196402Y-33489817D01*
X189998951Y-43102461D02*
X188735013Y-39973763D01*
X148602683Y-109474293D02*
X151893989Y-109038282D01*
X183778485Y-95553351D02*
X187816690Y-96823351D01*
X189998951Y-91846978D02*
X189258668Y-81276875D01*
X165925725Y-103440139D02*
X171246608Y-100303171D01*
X151893989Y-109038282D02*
X154935044Y-105761857D01*
X183196402Y-33489817D02*
X182230121Y-32065476D01*
X188096155Y-52737703D02*
X189998951Y-47664318D01*
X130383915Y-114321680D02*
X134907739Y-114255532D01*
X127825725Y-116132973D02*
X130383915Y-114321680D01*
X124834830Y-116268573D02*
X125046497Y-115886579D01*
X147102274Y-113732981D02*
X143434488Y-113637621D01*
X152234090Y-113068768D02*
X150030329Y-114327742D01*
X143653321Y-35278511D02*
X141856358Y-37336749D01*
X150030329Y-114327742D02*
X147102274Y-113732981D01*
X189998951Y-95702178D02*
X189998951Y-91846978D01*
X141081901Y-114053789D02*
X137521603Y-115393241D01*
X174695561Y-32262261D02*
X172138472Y-30004483D01*
X149521559Y-31171407D02*
X147339848Y-33333272D01*
X189998951Y-47664318D02*
X189998951Y-43102461D01*
X152574190Y-30004483D02*
X150078838Y-30004483D01*
X137521603Y-115393241D02*
X134157536Y-116385430D01*
X172138472Y-30004483D02*
X162215497Y-31050689D01*
X179304823Y-99625728D02*
X181573074Y-98752603D01*
X178196880Y-108335481D02*
X176116042Y-108676132D01*
X182230121Y-32065476D02*
X179307027Y-31787665D01*
X134907739Y-114255532D02*
X138459218Y-112731422D01*
X185724275Y-35332531D02*
X184853357Y-33711957D01*
X177153429Y-31248025D02*
X174695561Y-32262261D01*
X92202335Y-42552899D02*
X90680430Y-39921950D01*
X95554275Y-42067279D02*
X95679401Y-44901075D01*
X92886394Y-45305669D02*
X92202335Y-42552899D01*
X99433176Y-30004483D02*
X94385147Y-30004483D01*
X106832690Y-31350000D02*
X99433176Y-30004483D01*
X95699797Y-35201893D02*
X94590751Y-39355298D01*
X95108894Y-56042240D02*
X93862045Y-54004395D01*
X88929218Y-30004483D02*
X81869254Y-30004483D01*
X91231093Y-35849571D02*
X88929218Y-30004483D01*
X90680430Y-39921950D02*
X91231093Y-35849571D01*
X95485373Y-47495645D02*
X95214174Y-51527235D01*
X95214174Y-51527235D02*
X94979357Y-53842891D01*
X93250746Y-47819210D02*
X92886394Y-45305669D01*
X95679401Y-44901075D02*
X95485373Y-47495645D01*
X93858187Y-32332266D02*
X95699797Y-35201893D01*
X94590751Y-39355298D02*
X95554275Y-42067279D01*
X94385147Y-30004483D02*
X93858187Y-32332266D01*
X95584591Y-55826713D02*
X95108894Y-56042240D01*
X93862045Y-54004395D02*
X93538480Y-51770322D01*
X94979357Y-53842891D02*
X95584591Y-55826713D01*
X93538480Y-51770322D02*
X93250746Y-47819210D01*
X110420000Y-31350000D02*
X106832690Y-31350000D01*
M02*
