M48
;DRILL file {KiCad (6.0.0-rc1-dev-557-ge985f797c)} date 12/08/19 22:28:24
;FORMAT={-:-/ absolute / metric / decimal}
FMAT,2
METRIC,TZ
T1C0.300
T2C0.400
T3C0.750
%
G90
G05
M71
T1
X31.2Y-105.5
X31.4Y-41.8
X33.2Y-55.3
X33.2Y-116.2
X33.8Y-119.6
X34.5Y-119.6
X37.5Y-56.8
X38.4Y-115.4
X39.Y-45.6
X39.1Y-107.1
X42.7Y-57.7
X45.1Y-49.4
X45.7Y-103.9
X46.5Y-63.5
X46.8Y-111.3
X47.2Y-63.5
X51.1Y-60.4
X52.Y-39.9
X52.7Y-39.9
X56.1Y-104.5
X56.3Y-56.3
X60.Y-75.
X60.9Y-65.6
X61.Y-39.9
X61.7Y-39.9
X63.Y-78.
X65.5Y-60.5
X70.Y-39.9
X70.7Y-39.9
X72.4Y-66.7
X79.Y-39.9
X79.7Y-39.9
X88.Y-62.
X88.Y-82.
X88.2Y-33.3
X89.Y-62.
X89.Y-78.9
X90.Y-62.
X90.Y-80.
X90.3Y-43.
X90.6Y-114.
X90.6Y-114.7
X91.Y-62.
X91.Y-81.
X91.3Y-114.
X91.3Y-114.7
X91.9Y-52.9
X93.6Y-77.2
X96.7Y-30.9
X97.4Y-36.2
X97.5Y-45.6
X98.2Y-77.2
X98.2Y-78.8
X98.2Y-80.4
X99.1Y-44.7
X99.8Y-44.7
X103.4Y-122.9
X103.9Y-83.5
X104.5Y-122.9
X105.6Y-122.9
X106.5Y-91.1
X106.7Y-122.9
X106.7Y-125.2
X107.1Y-79.6
X107.1Y-81.2
X107.2Y-62.1
X107.2Y-67.7
X107.8Y-122.9
X107.8Y-125.2
X108.Y-62.1
X108.Y-67.7
X108.9Y-82.7
X109.1Y-95.1
X109.6Y-90.
X110.4Y-74.3
X110.4Y-88.
X111.2Y-74.3
X111.2Y-88.
X112.8Y-88.4
X112.8Y-90.
X112.9Y-80.4
X113.9Y-88.4
X113.9Y-90.
X114.Y-122.
X114.7Y-122.
X115.4Y-122.
X118.8Y-83.4
X119.1Y-114.2
X120.5Y-108.2
X121.Y-114.
X121.2Y-108.2
X121.4Y-119.6
X121.7Y-83.4
X121.8Y-78.
X121.9Y-108.2
X122.1Y-119.6
X122.8Y-119.6
X123.1Y-125.
X123.1Y-125.8
X123.1Y-126.6
X123.6Y-118.9
X123.9Y-125.
X123.9Y-125.8
X123.9Y-126.6
X124.3Y-118.9
X124.7Y-125.
X124.7Y-125.8
X124.7Y-126.6
X125.Y-118.9
X125.9Y-123.1
X126.2Y-98.1
X126.2Y-102.
X126.3Y-114.4
X126.6Y-123.1
X127.3Y-123.1
X128.2Y-74.
X128.2Y-76.1
X130.3Y-83.8
X131.5Y-49.6
X131.7Y-122.
X131.8Y-83.8
X132.4Y-122.
X133.1Y-122.
X133.3Y-74.7
X133.3Y-83.8
X133.5Y-118.2
X134.Y-127.
X134.7Y-74.7
X135.Y-42.2
X135.3Y-55.2
X135.6Y-72.9
X135.6Y-73.7
X136.Y-127.
X136.Y-128.
X136.5Y-111.6
X137.7Y-54.8
X138.1Y-50.5
X138.4Y-54.8
X139.4Y-32.6
X140.7Y-47.8
X144.6Y-36.9
X145.8Y-115.5
X148.8Y-107.5
X151.5Y-30.7
X154.8Y-115.2
X155.6Y-52.8
X155.6Y-53.5
X155.6Y-54.2
X157.1Y-104.1
X158.3Y-98.8
X158.3Y-99.5
X162.2Y-103.2
X165.4Y-101.6
X165.9Y-111.4
X170.1Y-118.3
X173.5Y-109.4
X174.5Y-123.7
X174.8Y-114.8
X175.2Y-123.7
X175.5Y-97.
X179.7Y-67.1
X180.3Y-97.2
X180.4Y-67.1
X181.1Y-52.3
X181.1Y-53.5
X181.1Y-54.7
X181.5Y-56.3
X183.2Y-106.8
X183.7Y-115.2
X184.6Y-116.7
X186.7Y-95.
X188.5Y-109.
T2
X68.Y-76.8
X102.8Y-79.6
X117.5Y-79.9
X124.5Y-71.5
X150.Y-71.5
X172.4Y-60.7
X172.4Y-65.5
T3
X66.Y-67.5
X68.Y-67.5
X74.Y-67.5
X76.Y-67.5
X78.Y-67.5
X132.Y-67.5
X134.Y-67.5
X136.Y-67.5
X138.Y-67.5
X140.Y-67.5
X142.Y-67.5
X144.Y-67.5
X146.Y-67.5
X152.Y-67.5
X154.Y-67.5
T0
M30
