G04 #@! TF.GenerationSoftware,KiCad,Pcbnew,(6.0.0-rc1-dev-557-ge985f797c)*
G04 #@! TF.CreationDate,2019-12-08T22:28:22+01:00*
G04 #@! TF.ProjectId,36C3_Badge_Hardware,333643335F42616467655F4861726477,1.0*
G04 #@! TF.SameCoordinates,Original*
G04 #@! TF.FileFunction,Copper,L1,Top,Signal*
G04 #@! TF.FilePolarity,Positive*
%FSLAX46Y46*%
G04 Gerber Fmt 4.6, Leading zero omitted, Abs format (unit mm)*
G04 Created by KiCad (PCBNEW (6.0.0-rc1-dev-557-ge985f797c)) date 12/08/19 22:28:22*
%MOMM*%
%LPD*%
G01*
G04 APERTURE LIST*
G04 #@! TA.AperFunction,ComponentPad*
%ADD10C,1.500000*%
G04 #@! TD*
G04 #@! TA.AperFunction,ViaPad*
%ADD11C,0.500000*%
G04 #@! TD*
G04 #@! TA.AperFunction,ViaPad*
%ADD12C,0.800000*%
G04 #@! TD*
G04 #@! TA.AperFunction,Conductor*
%ADD13C,0.500000*%
G04 #@! TD*
G04 #@! TA.AperFunction,Conductor*
%ADD14C,0.350000*%
G04 #@! TD*
G04 #@! TA.AperFunction,Conductor*
%ADD15C,0.250000*%
G04 #@! TD*
G04 #@! TA.AperFunction,Conductor*
%ADD16C,1.000000*%
G04 #@! TD*
G04 #@! TA.AperFunction,Conductor*
%ADD17C,0.254000*%
G04 #@! TD*
G04 APERTURE END LIST*
D10*
G04 #@! TO.P,VFD1,39*
G04 #@! TO.N,N/C*
X78000000Y-67500000D03*
G04 #@! TO.P,VFD1,40*
X76000000Y-67500000D03*
G04 #@! TO.P,VFD1,41*
X74000000Y-67500000D03*
G04 #@! TO.P,VFD1,44*
G04 #@! TO.N,/FIL+*
X68000000Y-67500000D03*
G04 #@! TO.P,VFD1,45*
X66000000Y-67500000D03*
G04 #@! TO.P,VFD1,12*
G04 #@! TO.N,/VFD_DIN*
X132000000Y-67500000D03*
G04 #@! TO.P,VFD1,11*
G04 #@! TO.N,/VFD_CLK*
X134000000Y-67500000D03*
G04 #@! TO.P,VFD1,10*
G04 #@! TO.N,/VFD_~CS*
X136000000Y-67500000D03*
G04 #@! TO.P,VFD1,9*
G04 #@! TO.N,/VFD_~RST*
X138000000Y-67500000D03*
G04 #@! TO.P,VFD1,8*
G04 #@! TO.N,Net-(C23-Pad1)*
X140000000Y-67500000D03*
G04 #@! TO.P,VFD1,7*
G04 #@! TO.N,GND*
X142000000Y-67500000D03*
G04 #@! TO.P,VFD1,6*
G04 #@! TO.N,+30V*
X144000000Y-67500000D03*
G04 #@! TO.P,VFD1,5*
G04 #@! TO.N,+5V*
X146000000Y-67500000D03*
G04 #@! TO.P,VFD1,2*
G04 #@! TO.N,/FIL-*
X152000000Y-67500000D03*
G04 #@! TO.P,VFD1,1*
X154000000Y-67500000D03*
G04 #@! TD*
D11*
G04 #@! TO.N,GND*
X119100000Y-114200000D03*
X124700000Y-125800000D03*
X123900000Y-125800000D03*
X123900000Y-125000000D03*
X124700000Y-125000000D03*
X124700000Y-126600000D03*
X123900000Y-126600000D03*
X123100000Y-125800000D03*
X123100000Y-125000000D03*
X123100000Y-126600000D03*
X183700000Y-115200000D03*
X174800000Y-114800000D03*
X125000000Y-118900000D03*
X124300000Y-118900000D03*
X123600000Y-118900000D03*
X133100000Y-122000000D03*
X132400000Y-122000000D03*
X131700000Y-122000000D03*
X91300000Y-114000000D03*
X90600000Y-114000000D03*
X91300000Y-114700000D03*
X90600000Y-114700000D03*
X121000000Y-114000000D03*
X121900000Y-108200000D03*
X121200000Y-108200000D03*
X120500000Y-108200000D03*
X170100000Y-118300000D03*
X181500000Y-56300000D03*
X155600000Y-54200000D03*
X155600000Y-53500000D03*
X155600000Y-52800000D03*
X137700000Y-54800000D03*
X138400000Y-54800000D03*
X99100000Y-44700000D03*
X99800000Y-44700000D03*
X46500000Y-63500000D03*
X47200000Y-63500000D03*
X33800000Y-119600000D03*
X34500000Y-119600000D03*
X158300000Y-99500000D03*
X158300000Y-98800000D03*
X93600000Y-77200000D03*
X98200000Y-77200000D03*
X107100000Y-79600000D03*
X107100000Y-81200000D03*
X112900000Y-80400000D03*
X98200000Y-78800000D03*
X98200000Y-80400000D03*
X121800000Y-78000000D03*
X133300000Y-83800000D03*
X130300000Y-83800000D03*
X131800000Y-83800000D03*
X181100000Y-53500000D03*
X79700000Y-39900000D03*
X79000000Y-39900000D03*
X70700000Y-39900000D03*
X70000000Y-39900000D03*
X61700000Y-39900000D03*
X61000000Y-39900000D03*
X52700000Y-39900000D03*
X52000000Y-39900000D03*
X184600000Y-116700000D03*
X175200000Y-123700000D03*
X174500000Y-123700000D03*
X115400000Y-122000000D03*
X114000000Y-122000000D03*
X114700000Y-122000000D03*
D12*
G04 #@! TO.N,+5V*
X117500000Y-79900000D03*
X102800000Y-79600000D03*
D11*
X109600000Y-90000000D03*
G04 #@! TO.N,VCC*
X127300000Y-123100000D03*
X126600000Y-123100000D03*
X125900000Y-123100000D03*
X122100000Y-119600000D03*
X122800000Y-119600000D03*
X121400000Y-119600000D03*
G04 #@! TO.N,/SW_RESET*
X91000000Y-62000000D03*
X108900000Y-82700000D03*
X103900000Y-83500000D03*
X91000000Y-81000000D03*
G04 #@! TO.N,/SW_BTN1*
X90000000Y-62000000D03*
X90000000Y-80000000D03*
G04 #@! TO.N,/SW_BTN2*
X89000000Y-62000000D03*
X89000000Y-78900000D03*
G04 #@! TO.N,/SW_STBY*
X88000000Y-62000000D03*
X88000000Y-82000000D03*
G04 #@! TO.N,/UART_RTS*
X134000000Y-127000000D03*
X105600000Y-122900000D03*
G04 #@! TO.N,/PMIC_~PG*
X106700000Y-125200000D03*
X106700000Y-122900000D03*
X112800000Y-88400000D03*
X112800000Y-90000000D03*
G04 #@! TO.N,/UART_RX*
X103400000Y-122900000D03*
X136000000Y-128000000D03*
G04 #@! TO.N,/UART_TX*
X104500000Y-122900000D03*
X136000000Y-127000000D03*
G04 #@! TO.N,Net-(D10-Pad1)*
X139400000Y-32600000D03*
X135000000Y-42200000D03*
X131500000Y-49600000D03*
X135300000Y-55200000D03*
X140700000Y-47800000D03*
X144600000Y-36900000D03*
X151500000Y-30700000D03*
X138100000Y-50500000D03*
G04 #@! TO.N,Net-(D14-Pad1)*
X33200000Y-55300000D03*
X37500000Y-56800000D03*
X42700000Y-57700000D03*
X51100000Y-60400000D03*
X60900000Y-65600000D03*
X65500000Y-60500000D03*
X56300000Y-56300000D03*
X45100000Y-49400000D03*
X39000000Y-45600000D03*
X31400000Y-41800000D03*
X72400000Y-66700000D03*
G04 #@! TO.N,Net-(D25-Pad1)*
X31200000Y-105500000D03*
X39100000Y-107100000D03*
X45700000Y-103900000D03*
X56100000Y-104500000D03*
X46800000Y-111300000D03*
X38400000Y-115400000D03*
X33200000Y-116200000D03*
G04 #@! TO.N,Net-(D34-Pad1)*
X188500000Y-109000000D03*
X183200000Y-106800000D03*
X173500000Y-109400000D03*
X165900000Y-111400000D03*
X154800000Y-115200000D03*
X145800000Y-115500000D03*
X133500000Y-118200000D03*
X126300000Y-114400000D03*
X136500000Y-111600000D03*
X148800000Y-107500000D03*
X157100000Y-104100000D03*
X165400000Y-101600000D03*
X175500000Y-97000000D03*
X180300000Y-97200000D03*
X186700000Y-95000000D03*
X162200000Y-103200000D03*
G04 #@! TO.N,Net-(D50-Pad1)*
X88200000Y-33300000D03*
X90300000Y-43000000D03*
X91900000Y-52900000D03*
X97500000Y-45600000D03*
X97400000Y-36200000D03*
X96700000Y-30900000D03*
G04 #@! TO.N,Net-(J2-Pad1)*
X134700000Y-74700000D03*
X133300000Y-74700000D03*
G04 #@! TO.N,/VFD_DIN*
X128200000Y-76100000D03*
X128200000Y-74000000D03*
D12*
G04 #@! TO.N,/FIL-*
X172400000Y-60700000D03*
X172400000Y-65500000D03*
G04 #@! TO.N,/FIL+*
X68000000Y-76800000D03*
X150000000Y-71500000D03*
X124500000Y-71500000D03*
D11*
G04 #@! TO.N,/LED_D3*
X108000000Y-62100000D03*
X108000000Y-67700000D03*
G04 #@! TO.N,/LED_D2*
X110400000Y-88000000D03*
X106500000Y-91100000D03*
X63000000Y-78000000D03*
X60000000Y-75000000D03*
G04 #@! TO.N,/LED_D1*
X111200000Y-88000000D03*
X109100000Y-95100000D03*
G04 #@! TO.N,/LED_H2*
X126200000Y-102000000D03*
X126200000Y-98100000D03*
X118800000Y-83400000D03*
X121700000Y-83400000D03*
G04 #@! TO.N,/LED_H1*
X107200000Y-67700000D03*
X107200000Y-62100000D03*
G04 #@! TO.N,/PMIC_STAT1_~LBO*
X107800000Y-125200000D03*
X107800000Y-122900000D03*
X113900000Y-88400000D03*
X113900000Y-90000000D03*
G04 #@! TO.N,/VFD_SUP_CLK_B*
X111200000Y-74300000D03*
X181100000Y-52300000D03*
X179700000Y-67100000D03*
X135600000Y-72900000D03*
G04 #@! TO.N,/VFD_SUP_CLK_A*
X110400000Y-74300000D03*
X181100000Y-54700000D03*
X180400000Y-67100000D03*
X135600000Y-73700000D03*
G04 #@! TD*
D13*
G04 #@! TO.N,+5V*
X117500000Y-79900000D02*
X114100000Y-79900000D01*
X114100000Y-79900000D02*
X113400000Y-79200000D01*
X108700000Y-79200000D02*
X108000000Y-78500000D01*
X108000000Y-78500000D02*
X103900000Y-78500000D01*
X103900000Y-78500000D02*
X102800000Y-79600000D01*
D14*
X109600000Y-90000000D02*
X109600000Y-79200000D01*
D13*
X113400000Y-79200000D02*
X109600000Y-79200000D01*
X109600000Y-79200000D02*
X108700000Y-79200000D01*
G04 #@! TO.N,VCC*
X127300000Y-123100000D02*
X126600000Y-123100000D01*
X126600000Y-123100000D02*
X125900000Y-123100000D01*
X125900000Y-123100000D02*
X124500000Y-123100000D01*
X122800000Y-121400000D02*
X122800000Y-119600000D01*
X124500000Y-123100000D02*
X122800000Y-121400000D01*
X122800000Y-119600000D02*
X122100000Y-119600000D01*
X122100000Y-119600000D02*
X121400000Y-119600000D01*
D14*
G04 #@! TO.N,/SW_RESET*
X91000000Y-62000000D02*
X91000000Y-78900000D01*
X108900000Y-82700000D02*
X108100000Y-83500000D01*
X108100000Y-83500000D02*
X103900000Y-83500000D01*
X91000000Y-78900000D02*
X91000000Y-81000000D01*
G04 #@! TO.N,/SW_BTN1*
X90000000Y-62000000D02*
X90000000Y-78900000D01*
X90000000Y-78900000D02*
X90000000Y-80000000D01*
G04 #@! TO.N,/SW_BTN2*
X89000000Y-62000000D02*
X89000000Y-78900000D01*
X89000000Y-78900000D02*
X89000000Y-78900000D01*
G04 #@! TO.N,/SW_STBY*
X88000000Y-62000000D02*
X88000000Y-78900000D01*
X88000000Y-78900000D02*
X88000000Y-81000000D01*
X88000000Y-81000000D02*
X88000000Y-82000000D01*
G04 #@! TO.N,/UART_RTS*
X105600000Y-125400000D02*
X105600000Y-122900000D01*
X134000000Y-127000000D02*
X133100000Y-127900000D01*
X133100000Y-127900000D02*
X108100000Y-127900000D01*
X108100000Y-127900000D02*
X105600000Y-125400000D01*
D15*
G04 #@! TO.N,/PMIC_~PG*
X106700000Y-125200000D02*
X106700000Y-122900000D01*
D14*
X112800000Y-88400000D02*
X112800000Y-90000000D01*
G04 #@! TO.N,/UART_RX*
X103400000Y-125400000D02*
X103400000Y-122900000D01*
X107100000Y-129100000D02*
X103400000Y-125400000D01*
X136000000Y-128000000D02*
X134900000Y-129100000D01*
X134900000Y-129100000D02*
X107100000Y-129100000D01*
G04 #@! TO.N,/UART_TX*
X134500000Y-128500000D02*
X136000000Y-127000000D01*
X104500000Y-122900000D02*
X104500000Y-125400000D01*
X107600000Y-128500000D02*
X104500000Y-125400000D01*
X134500000Y-128500000D02*
X107600000Y-128500000D01*
G04 #@! TO.N,Net-(D10-Pad1)*
X139400000Y-32600000D02*
X138700000Y-32600000D01*
X138700000Y-32600000D02*
X135900000Y-35400000D01*
X135900000Y-41300000D02*
X135000000Y-42200000D01*
X135900000Y-35400000D02*
X135900000Y-41300000D01*
X132300000Y-48800000D02*
X131500000Y-49600000D01*
X135000000Y-42200000D02*
X132300000Y-44900000D01*
X132300000Y-44900000D02*
X132300000Y-48800000D01*
X131500000Y-49600000D02*
X131500000Y-50200000D01*
X131500000Y-50200000D02*
X130000000Y-51700000D01*
X130000000Y-51700000D02*
X130000000Y-53700000D01*
X130000000Y-53700000D02*
X126200000Y-57500000D01*
X126200000Y-57500000D02*
X126200000Y-60400000D01*
X126200000Y-60400000D02*
X126800000Y-61000000D01*
X126800000Y-61000000D02*
X128200000Y-61000000D01*
X134000000Y-55200000D02*
X135300000Y-55200000D01*
X128200000Y-61000000D02*
X134000000Y-55200000D01*
X135300000Y-55200000D02*
X135300000Y-52200000D01*
X135300000Y-52200000D02*
X137000000Y-50500000D01*
X137000000Y-50500000D02*
X138100000Y-50500000D01*
X138100000Y-50500000D02*
X138900000Y-49700000D01*
X138900000Y-49700000D02*
X138900000Y-49200000D01*
X140300000Y-47800000D02*
X140700000Y-47800000D01*
X138900000Y-49200000D02*
X140300000Y-47800000D01*
X140700000Y-47800000D02*
X141300000Y-47800000D01*
X141300000Y-47800000D02*
X142100000Y-47000000D01*
X142100000Y-47000000D02*
X142100000Y-42700000D01*
X142100000Y-42700000D02*
X143700000Y-41100000D01*
X143700000Y-37800000D02*
X144600000Y-36900000D01*
X143700000Y-41100000D02*
X143700000Y-37800000D01*
X147400000Y-34800000D02*
X151500000Y-30700000D01*
X144600000Y-36900000D02*
X146700000Y-34800000D01*
X146700000Y-34800000D02*
X147400000Y-34800000D01*
G04 #@! TO.N,Net-(D14-Pad1)*
X33200000Y-55300000D02*
X33800000Y-55300000D01*
X35300000Y-56800000D02*
X37500000Y-56800000D01*
X33800000Y-55300000D02*
X35300000Y-56800000D01*
X41800000Y-56800000D02*
X42700000Y-57700000D01*
X37500000Y-56800000D02*
X41800000Y-56800000D01*
X42700000Y-57700000D02*
X43200000Y-57700000D01*
X43200000Y-57700000D02*
X44600000Y-59100000D01*
X49800000Y-59100000D02*
X51100000Y-60400000D01*
X44600000Y-59100000D02*
X49800000Y-59100000D01*
X51100000Y-60400000D02*
X51700000Y-60400000D01*
X51700000Y-60400000D02*
X55100000Y-63800000D01*
X59100000Y-63800000D02*
X60900000Y-65600000D01*
X55100000Y-63800000D02*
X59100000Y-63800000D01*
X60900000Y-65600000D02*
X65900000Y-65600000D01*
X65900000Y-65600000D02*
X66500000Y-66200000D01*
X66500000Y-66200000D02*
X68600000Y-66200000D01*
X65500000Y-60500000D02*
X63100000Y-60500000D01*
X63100000Y-60500000D02*
X59900000Y-57300000D01*
X57300000Y-57300000D02*
X56300000Y-56300000D01*
X59900000Y-57300000D02*
X57300000Y-57300000D01*
X56300000Y-56300000D02*
X56300000Y-55500000D01*
X56300000Y-55500000D02*
X52900000Y-52100000D01*
X52900000Y-52100000D02*
X50600000Y-52100000D01*
X50600000Y-52100000D02*
X48500000Y-50000000D01*
X45700000Y-50000000D02*
X45100000Y-49400000D01*
X48500000Y-50000000D02*
X45700000Y-50000000D01*
X41000000Y-47600000D02*
X39000000Y-45600000D01*
X45100000Y-49400000D02*
X43300000Y-47600000D01*
X43300000Y-47600000D02*
X41000000Y-47600000D01*
X39000000Y-45600000D02*
X35900000Y-45600000D01*
X32100000Y-41800000D02*
X31400000Y-41800000D01*
X35900000Y-45600000D02*
X32100000Y-41800000D01*
X73000000Y-66100000D02*
X72400000Y-66700000D01*
X74500000Y-66100000D02*
X73000000Y-66100000D01*
X67100000Y-62100000D02*
X68500000Y-62100000D01*
X65500000Y-60500000D02*
X67100000Y-62100000D01*
X68500000Y-62100000D02*
X69500000Y-63100000D01*
X69500000Y-63100000D02*
X73800000Y-63100000D01*
X73800000Y-63100000D02*
X75000000Y-64300000D01*
X75000000Y-65600000D02*
X74500000Y-66100000D01*
X75000000Y-64300000D02*
X75000000Y-65600000D01*
X69100000Y-66700000D02*
X69000000Y-66600000D01*
X72400000Y-66700000D02*
X69100000Y-66700000D01*
X68600000Y-66200000D02*
X69000000Y-66600000D01*
G04 #@! TO.N,Net-(D25-Pad1)*
X33200000Y-116200000D02*
X33200000Y-115600000D01*
X33200000Y-115600000D02*
X34400000Y-114400000D01*
X37400000Y-114400000D02*
X38400000Y-115400000D01*
X34400000Y-114400000D02*
X37400000Y-114400000D01*
X42700000Y-115400000D02*
X46800000Y-111300000D01*
X38400000Y-115400000D02*
X42700000Y-115400000D01*
X46800000Y-111300000D02*
X46800000Y-110500000D01*
X46800000Y-110500000D02*
X50900000Y-106400000D01*
X54200000Y-106400000D02*
X56100000Y-104500000D01*
X50900000Y-106400000D02*
X54200000Y-106400000D01*
X56100000Y-104500000D02*
X56100000Y-103500000D01*
X56100000Y-103500000D02*
X59400000Y-100200000D01*
X59400000Y-100200000D02*
X59400000Y-98400000D01*
X59400000Y-98400000D02*
X58700000Y-97700000D01*
X58700000Y-97700000D02*
X56900000Y-97700000D01*
X56900000Y-97700000D02*
X54200000Y-100400000D01*
X54200000Y-100400000D02*
X50300000Y-100400000D01*
X46800000Y-103900000D02*
X45700000Y-103900000D01*
X50300000Y-100400000D02*
X46800000Y-103900000D01*
X45700000Y-103900000D02*
X45100000Y-103900000D01*
X41900000Y-107100000D02*
X39100000Y-107100000D01*
X45100000Y-103900000D02*
X41900000Y-107100000D01*
X39100000Y-107100000D02*
X36400000Y-107100000D01*
X36400000Y-107100000D02*
X36000000Y-106700000D01*
X32400000Y-106700000D02*
X31200000Y-105500000D01*
X36000000Y-106700000D02*
X32400000Y-106700000D01*
G04 #@! TO.N,Net-(D34-Pad1)*
X188500000Y-109000000D02*
X188500000Y-108600000D01*
X186700000Y-106800000D02*
X183200000Y-106800000D01*
X188500000Y-108600000D02*
X186700000Y-106800000D01*
X183200000Y-106800000D02*
X180900000Y-106800000D01*
X178300000Y-109400000D02*
X173500000Y-109400000D01*
X180900000Y-106800000D02*
X178300000Y-109400000D01*
X167900000Y-109400000D02*
X165900000Y-111400000D01*
X173500000Y-109400000D02*
X167900000Y-109400000D01*
X165900000Y-111400000D02*
X161800000Y-111400000D01*
X161800000Y-111400000D02*
X159700000Y-113500000D01*
X159700000Y-113500000D02*
X157400000Y-113500000D01*
X155700000Y-115200000D02*
X154800000Y-115200000D01*
X157400000Y-113500000D02*
X155700000Y-115200000D01*
X146100000Y-115200000D02*
X145800000Y-115500000D01*
X154800000Y-115200000D02*
X146100000Y-115200000D01*
X145800000Y-115500000D02*
X139600000Y-115500000D01*
X139600000Y-115500000D02*
X138100000Y-117000000D01*
X134700000Y-117000000D02*
X133500000Y-118200000D01*
X138100000Y-117000000D02*
X134700000Y-117000000D01*
X133500000Y-118200000D02*
X128900000Y-118200000D01*
X128900000Y-118200000D02*
X128500000Y-118600000D01*
X124900000Y-114400000D02*
X126300000Y-114400000D01*
X123900000Y-115400000D02*
X124900000Y-114400000D01*
X126300000Y-114400000D02*
X128200000Y-114400000D01*
X128200000Y-114400000D02*
X129400000Y-113200000D01*
X134900000Y-113200000D02*
X136500000Y-111600000D01*
X129400000Y-113200000D02*
X134900000Y-113200000D01*
X136500000Y-111600000D02*
X138600000Y-111600000D01*
X138600000Y-111600000D02*
X141200000Y-109000000D01*
X141200000Y-109000000D02*
X146000000Y-109000000D01*
X147500000Y-107500000D02*
X148800000Y-107500000D01*
X146000000Y-109000000D02*
X147500000Y-107500000D01*
X148800000Y-107500000D02*
X151400000Y-107500000D01*
X154800000Y-104100000D02*
X157100000Y-104100000D01*
X151400000Y-107500000D02*
X154800000Y-104100000D01*
X157100000Y-104100000D02*
X161300000Y-104100000D01*
X161300000Y-104100000D02*
X162200000Y-103200000D01*
X163800000Y-103200000D02*
X165400000Y-101600000D01*
X162200000Y-103200000D02*
X163800000Y-103200000D01*
X165400000Y-101600000D02*
X166700000Y-101600000D01*
X166700000Y-101600000D02*
X169600000Y-98700000D01*
X169600000Y-98700000D02*
X172700000Y-98700000D01*
X174400000Y-97000000D02*
X175500000Y-97000000D01*
X172700000Y-98700000D02*
X174400000Y-97000000D01*
X180100000Y-97000000D02*
X180300000Y-97200000D01*
X175500000Y-97000000D02*
X180100000Y-97000000D01*
X180300000Y-97200000D02*
X180800000Y-97200000D01*
X180800000Y-97200000D02*
X183300000Y-94700000D01*
X186400000Y-94700000D02*
X186700000Y-95000000D01*
X183300000Y-94700000D02*
X186400000Y-94700000D01*
X123900000Y-115400000D02*
X123900000Y-116600000D01*
X123900000Y-116600000D02*
X125000000Y-117700000D01*
X125000000Y-117700000D02*
X126000000Y-117700000D01*
X126900000Y-118600000D02*
X128500000Y-118600000D01*
X126000000Y-117700000D02*
X126900000Y-118600000D01*
G04 #@! TO.N,Net-(D50-Pad1)*
X88200000Y-33300000D02*
X88200000Y-34000000D01*
X88200000Y-34000000D02*
X89400000Y-35200000D01*
X89400000Y-42100000D02*
X90300000Y-43000000D01*
X89400000Y-35200000D02*
X89400000Y-42100000D01*
X91900000Y-45700000D02*
X91900000Y-52900000D01*
X90300000Y-43000000D02*
X90300000Y-44100000D01*
X90300000Y-44100000D02*
X91900000Y-45700000D01*
X91900000Y-52900000D02*
X91900000Y-55000000D01*
X91900000Y-55000000D02*
X94100000Y-57200000D01*
X94100000Y-57200000D02*
X95500000Y-57200000D01*
X95500000Y-57200000D02*
X96800000Y-55900000D01*
X96800000Y-55900000D02*
X96800000Y-51700000D01*
X96800000Y-51700000D02*
X96400000Y-51300000D01*
X96400000Y-46700000D02*
X97500000Y-45600000D01*
X96400000Y-51300000D02*
X96400000Y-46700000D01*
X97500000Y-45600000D02*
X97500000Y-42900000D01*
X97500000Y-42900000D02*
X96300000Y-41700000D01*
X96300000Y-37300000D02*
X97400000Y-36200000D01*
X96300000Y-41700000D02*
X96300000Y-37300000D01*
X97400000Y-36200000D02*
X97400000Y-33900000D01*
X96700000Y-33200000D02*
X96700000Y-30900000D01*
X97400000Y-33900000D02*
X96700000Y-33200000D01*
G04 #@! TO.N,Net-(J2-Pad1)*
X134700000Y-74700000D02*
X133300000Y-74700000D01*
G04 #@! TO.N,/VFD_DIN*
X128200000Y-76100000D02*
X128200000Y-74000000D01*
D13*
G04 #@! TO.N,/FIL-*
X172400000Y-60700000D02*
X172400000Y-65500000D01*
D16*
G04 #@! TO.N,/FIL+*
X68000000Y-67500000D02*
X68000000Y-71100000D01*
X68000000Y-71100000D02*
X68000000Y-76800000D01*
X129300000Y-71500000D02*
X150000000Y-71500000D01*
X129300000Y-71500000D02*
X124500000Y-71500000D01*
D14*
G04 #@! TO.N,/LED_D3*
X108000000Y-62100000D02*
X108000000Y-67700000D01*
G04 #@! TO.N,/LED_D2*
X110400000Y-88000000D02*
X110400000Y-90800000D01*
X110400000Y-90800000D02*
X110100000Y-91100000D01*
X110100000Y-91100000D02*
X106500000Y-91100000D01*
X63000000Y-78000000D02*
X60000000Y-75000000D01*
G04 #@! TO.N,/LED_D1*
X111200000Y-88000000D02*
X111200000Y-92800000D01*
X109100000Y-95100000D02*
X111200000Y-93000000D01*
X111200000Y-93000000D02*
X111200000Y-92800000D01*
G04 #@! TO.N,/LED_H2*
X126200000Y-102000000D02*
X126200000Y-98100000D01*
X118800000Y-83400000D02*
X121700000Y-83400000D01*
G04 #@! TO.N,/LED_H1*
X107200000Y-67700000D02*
X107200000Y-62100000D01*
D15*
G04 #@! TO.N,/PMIC_STAT1_~LBO*
X107800000Y-125200000D02*
X107800000Y-122900000D01*
D14*
X113900000Y-88400000D02*
X113900000Y-90000000D01*
G04 #@! TO.N,/VFD_SUP_CLK_B*
X181100000Y-52300000D02*
X179900000Y-53500000D01*
X179900000Y-53500000D02*
X179700000Y-53700000D01*
X179700000Y-67100000D02*
X179700000Y-67100000D01*
X179700000Y-53700000D02*
X179700000Y-67100000D01*
X135600000Y-72900000D02*
X129700000Y-72900000D01*
X129700000Y-72900000D02*
X129300000Y-72500000D01*
X129300000Y-72500000D02*
X127400000Y-72500000D01*
X125600000Y-74300000D02*
X111200000Y-74300000D01*
X127400000Y-72500000D02*
X125600000Y-74300000D01*
G04 #@! TO.N,/VFD_SUP_CLK_A*
X181100000Y-54700000D02*
X180400000Y-55400000D01*
X180400000Y-55400000D02*
X180400000Y-67100000D01*
X180400000Y-67100000D02*
X180400000Y-67100000D01*
X135600000Y-73700000D02*
X129300000Y-73700000D01*
X129300000Y-73700000D02*
X128800000Y-73200000D01*
X128800000Y-73200000D02*
X127600000Y-73200000D01*
X127600000Y-73200000D02*
X125200000Y-75600000D01*
X125200000Y-75600000D02*
X110900000Y-75600000D01*
X110400000Y-75100000D02*
X110400000Y-74300000D01*
X110900000Y-75600000D02*
X110400000Y-75100000D01*
G04 #@! TD*
D17*
G04 #@! TO.N,GND*
G36*
X90737644Y-35909259D02*
X90214265Y-39779865D01*
X90206613Y-39795415D01*
X90201520Y-39874124D01*
X90197420Y-39904442D01*
X90198466Y-39921308D01*
X90194256Y-39986368D01*
X90204339Y-40015990D01*
X90206276Y-40047220D01*
X90234908Y-40105795D01*
X90240352Y-40121790D01*
X90255667Y-40148265D01*
X90290308Y-40219135D01*
X90303300Y-40230609D01*
X91751931Y-42734889D01*
X92413812Y-45398413D01*
X92432372Y-45526457D01*
X92423740Y-45483060D01*
X92423740Y-45483059D01*
X92331871Y-45345568D01*
X92331870Y-45345567D01*
X92300853Y-45299147D01*
X92254434Y-45268131D01*
X90856000Y-43869698D01*
X90856000Y-43306580D01*
X90931000Y-43125514D01*
X90931000Y-42874486D01*
X90834936Y-42642567D01*
X90657433Y-42465064D01*
X90476365Y-42390063D01*
X89956000Y-41869698D01*
X89956000Y-35254752D01*
X89966891Y-35199999D01*
X89956000Y-35145246D01*
X89956000Y-35145242D01*
X89923740Y-34983060D01*
X89800853Y-34799147D01*
X89754431Y-34768129D01*
X88756000Y-33769698D01*
X88756000Y-33606580D01*
X88831000Y-33425514D01*
X88831000Y-33174486D01*
X88734936Y-32942567D01*
X88557433Y-32765064D01*
X88325514Y-32669000D01*
X88074486Y-32669000D01*
X87842567Y-32765064D01*
X87665064Y-32942567D01*
X87569000Y-33174486D01*
X87569000Y-33425514D01*
X87644000Y-33606580D01*
X87644000Y-33945247D01*
X87633109Y-34000000D01*
X87644000Y-34054753D01*
X87644000Y-34054758D01*
X87665828Y-34164491D01*
X87676261Y-34216940D01*
X87768129Y-34354431D01*
X87768131Y-34354433D01*
X87799148Y-34400853D01*
X87845568Y-34431870D01*
X88844000Y-35430302D01*
X88844001Y-42045242D01*
X88833109Y-42100000D01*
X88876261Y-42316940D01*
X88968129Y-42454431D01*
X88968131Y-42454433D01*
X88999148Y-42500853D01*
X89045568Y-42531870D01*
X89690063Y-43176365D01*
X89744000Y-43306581D01*
X89744001Y-44045243D01*
X89733109Y-44100000D01*
X89776261Y-44316940D01*
X89868129Y-44454431D01*
X89868131Y-44454433D01*
X89899148Y-44500853D01*
X89945568Y-44531870D01*
X91344000Y-45930303D01*
X91344001Y-52593418D01*
X91269000Y-52774486D01*
X91269000Y-53025514D01*
X91344000Y-53206580D01*
X91344001Y-54945242D01*
X91333109Y-55000000D01*
X91344001Y-55054758D01*
X91365190Y-55161281D01*
X91376261Y-55216940D01*
X91468129Y-55354431D01*
X91468131Y-55354433D01*
X91499148Y-55400853D01*
X91545568Y-55431870D01*
X93668130Y-57554433D01*
X93699147Y-57600853D01*
X93745567Y-57631870D01*
X93745568Y-57631871D01*
X93761739Y-57642676D01*
X93883060Y-57723740D01*
X94045242Y-57756000D01*
X94045247Y-57756000D01*
X94100000Y-57766891D01*
X94154753Y-57756000D01*
X95445247Y-57756000D01*
X95500000Y-57766891D01*
X95554753Y-57756000D01*
X95554758Y-57756000D01*
X95716940Y-57723740D01*
X95900853Y-57600853D01*
X95931872Y-57554430D01*
X97154434Y-56331869D01*
X97200853Y-56300853D01*
X97231871Y-56254432D01*
X97323740Y-56116941D01*
X97366892Y-55900000D01*
X97356000Y-55845242D01*
X97356000Y-51754752D01*
X97366891Y-51699999D01*
X97356000Y-51645246D01*
X97356000Y-51645242D01*
X97323740Y-51483060D01*
X97200853Y-51299147D01*
X97154430Y-51268128D01*
X96956000Y-51069698D01*
X96956000Y-46930302D01*
X97676367Y-46209936D01*
X97857433Y-46134936D01*
X98034936Y-45957433D01*
X98131000Y-45725514D01*
X98131000Y-45474486D01*
X98056000Y-45293420D01*
X98056000Y-42954752D01*
X98066891Y-42899999D01*
X98056000Y-42845246D01*
X98056000Y-42845242D01*
X98023740Y-42683060D01*
X97900853Y-42499147D01*
X97854430Y-42468128D01*
X96856000Y-41469698D01*
X96856000Y-37530302D01*
X97576367Y-36809936D01*
X97757433Y-36734936D01*
X97934936Y-36557433D01*
X98031000Y-36325514D01*
X98031000Y-36074486D01*
X97956000Y-35893420D01*
X97956000Y-33954752D01*
X97966891Y-33899999D01*
X97956000Y-33845246D01*
X97956000Y-33845242D01*
X97923740Y-33683060D01*
X97800853Y-33499147D01*
X97754430Y-33468128D01*
X97256000Y-32969698D01*
X97256000Y-31206580D01*
X97331000Y-31025514D01*
X97331000Y-30774486D01*
X97234936Y-30542567D01*
X97177852Y-30485483D01*
X99389803Y-30485483D01*
X106742756Y-31822534D01*
X106785317Y-31831000D01*
X106789313Y-31831000D01*
X106793245Y-31831715D01*
X106836635Y-31831000D01*
X110311220Y-31831000D01*
X112397585Y-32825572D01*
X112406579Y-32834583D01*
X112483558Y-32866556D01*
X112515216Y-32881647D01*
X112527236Y-32884697D01*
X112583296Y-32907981D01*
X112619137Y-32908015D01*
X112653874Y-32916829D01*
X112713944Y-32908105D01*
X112726348Y-32908117D01*
X112760757Y-32901307D01*
X112843241Y-32889328D01*
X112854181Y-32882816D01*
X124950591Y-30488703D01*
X134754325Y-31156927D01*
X134800259Y-31160079D01*
X134800364Y-31160065D01*
X134800475Y-31160073D01*
X134847417Y-31154017D01*
X140048300Y-30485483D01*
X142465919Y-30485483D01*
X142315928Y-30946986D01*
X140799940Y-32972781D01*
X137778001Y-34855625D01*
X137716550Y-34884719D01*
X137665457Y-34941137D01*
X137609967Y-34993201D01*
X137581969Y-35055140D01*
X136456000Y-36935449D01*
X136456000Y-35630302D01*
X138930303Y-33156000D01*
X139093420Y-33156000D01*
X139274486Y-33231000D01*
X139525514Y-33231000D01*
X139757433Y-33134936D01*
X139934936Y-32957433D01*
X140031000Y-32725514D01*
X140031000Y-32474486D01*
X139934936Y-32242567D01*
X139757433Y-32065064D01*
X139525514Y-31969000D01*
X139274486Y-31969000D01*
X139093420Y-32044000D01*
X138754753Y-32044000D01*
X138700000Y-32033109D01*
X138645247Y-32044000D01*
X138645242Y-32044000D01*
X138483060Y-32076260D01*
X138451988Y-32097022D01*
X138345568Y-32168129D01*
X138345567Y-32168130D01*
X138299147Y-32199147D01*
X138268130Y-32245567D01*
X135545570Y-34968128D01*
X135499147Y-34999147D01*
X135376260Y-35183061D01*
X135344000Y-35345243D01*
X135344000Y-35345247D01*
X135333109Y-35400000D01*
X135344000Y-35454753D01*
X135344001Y-41069697D01*
X134823635Y-41590063D01*
X134642567Y-41665064D01*
X134465064Y-41842567D01*
X134390064Y-42023633D01*
X131945570Y-44468128D01*
X131899147Y-44499147D01*
X131776260Y-44683061D01*
X131744000Y-44845243D01*
X131744000Y-44845247D01*
X131733109Y-44900000D01*
X131744000Y-44954753D01*
X131744001Y-48569696D01*
X131323634Y-48990064D01*
X131142567Y-49065064D01*
X130965064Y-49242567D01*
X130869000Y-49474486D01*
X130869000Y-49725514D01*
X130944000Y-49906580D01*
X130944000Y-49969698D01*
X129645570Y-51268128D01*
X129599147Y-51299147D01*
X129476260Y-51483061D01*
X129444000Y-51645243D01*
X129444000Y-51645247D01*
X129433109Y-51700000D01*
X129444000Y-51754753D01*
X129444001Y-53469696D01*
X125845570Y-57068128D01*
X125799147Y-57099147D01*
X125676260Y-57283061D01*
X125644000Y-57445243D01*
X125644000Y-57445247D01*
X125633109Y-57500000D01*
X125644000Y-57554753D01*
X125644001Y-60345242D01*
X125633109Y-60400000D01*
X125676261Y-60616940D01*
X125768129Y-60754431D01*
X125768131Y-60754433D01*
X125799148Y-60800853D01*
X125845567Y-60831870D01*
X126368130Y-61354433D01*
X126399147Y-61400853D01*
X126445567Y-61431870D01*
X126445568Y-61431871D01*
X126495245Y-61465064D01*
X126583060Y-61523740D01*
X126745242Y-61556000D01*
X126745246Y-61556000D01*
X126799999Y-61566891D01*
X126854752Y-61556000D01*
X128145247Y-61556000D01*
X128200000Y-61566891D01*
X128254753Y-61556000D01*
X128254758Y-61556000D01*
X128416940Y-61523740D01*
X128600853Y-61400853D01*
X128631872Y-61354430D01*
X129441653Y-60544649D01*
X171619000Y-60544649D01*
X171619000Y-60855351D01*
X171737900Y-61142401D01*
X171769000Y-61173501D01*
X171769001Y-65026498D01*
X171737900Y-65057599D01*
X171619000Y-65344649D01*
X171619000Y-65655351D01*
X171737900Y-65942401D01*
X171957599Y-66162100D01*
X172244649Y-66281000D01*
X172555351Y-66281000D01*
X172842401Y-66162100D01*
X173062100Y-65942401D01*
X173181000Y-65655351D01*
X173181000Y-65344649D01*
X173062100Y-65057599D01*
X173031000Y-65026499D01*
X173031000Y-61173501D01*
X173062100Y-61142401D01*
X173181000Y-60855351D01*
X173181000Y-60544649D01*
X173062100Y-60257599D01*
X172842401Y-60037900D01*
X172555351Y-59919000D01*
X172244649Y-59919000D01*
X171957599Y-60037900D01*
X171737900Y-60257599D01*
X171619000Y-60544649D01*
X129441653Y-60544649D01*
X134230303Y-55756000D01*
X134993420Y-55756000D01*
X135174486Y-55831000D01*
X135425514Y-55831000D01*
X135657433Y-55734936D01*
X135834936Y-55557433D01*
X135931000Y-55325514D01*
X135931000Y-55074486D01*
X135856000Y-54893420D01*
X135856000Y-52430302D01*
X137230303Y-51056000D01*
X137793420Y-51056000D01*
X137974486Y-51131000D01*
X138225514Y-51131000D01*
X138457433Y-51034936D01*
X138634936Y-50857433D01*
X138709936Y-50676366D01*
X139254433Y-50131869D01*
X139300853Y-50100853D01*
X139336942Y-50046843D01*
X139390364Y-49966891D01*
X139423740Y-49916940D01*
X139456000Y-49754758D01*
X139456000Y-49754753D01*
X139466891Y-49700000D01*
X139456000Y-49645247D01*
X139456000Y-49430302D01*
X140490211Y-48396092D01*
X140574486Y-48431000D01*
X140825514Y-48431000D01*
X141006580Y-48356000D01*
X141245247Y-48356000D01*
X141300000Y-48366891D01*
X141354753Y-48356000D01*
X141354758Y-48356000D01*
X141516940Y-48323740D01*
X141700853Y-48200853D01*
X141731872Y-48154430D01*
X142454433Y-47431869D01*
X142500853Y-47400853D01*
X142532371Y-47353684D01*
X142590364Y-47266891D01*
X142623740Y-47216940D01*
X142656000Y-47054758D01*
X142656000Y-47054753D01*
X142666891Y-47000000D01*
X142656000Y-46945247D01*
X142656000Y-42930302D01*
X144054434Y-41531869D01*
X144100853Y-41500853D01*
X144165805Y-41403646D01*
X144223740Y-41316941D01*
X144234401Y-41263342D01*
X144256000Y-41154758D01*
X144256000Y-41154754D01*
X144266891Y-41100000D01*
X144256000Y-41045246D01*
X144256000Y-38030302D01*
X144776365Y-37509937D01*
X144957433Y-37434936D01*
X145134936Y-37257433D01*
X145189441Y-37125846D01*
X177219000Y-37125846D01*
X177219000Y-37874154D01*
X177505365Y-38565501D01*
X178034499Y-39094635D01*
X178725846Y-39381000D01*
X179474154Y-39381000D01*
X180165501Y-39094635D01*
X180694635Y-38565501D01*
X180981000Y-37874154D01*
X180981000Y-37125846D01*
X180694635Y-36434499D01*
X180165501Y-35905365D01*
X179474154Y-35619000D01*
X178725846Y-35619000D01*
X178034499Y-35905365D01*
X177505365Y-36434499D01*
X177219000Y-37125846D01*
X145189441Y-37125846D01*
X145209937Y-37076365D01*
X146930302Y-35356000D01*
X147345247Y-35356000D01*
X147400000Y-35366891D01*
X147454753Y-35356000D01*
X147454758Y-35356000D01*
X147616940Y-35323740D01*
X147800853Y-35200853D01*
X147831872Y-35154430D01*
X151676367Y-31309936D01*
X151857433Y-31234936D01*
X152034936Y-31057433D01*
X152131000Y-30825514D01*
X152131000Y-30574486D01*
X152094134Y-30485483D01*
X152548172Y-30485483D01*
X162072655Y-31519012D01*
X162076362Y-31520961D01*
X162167589Y-31529314D01*
X162210703Y-31533992D01*
X162214763Y-31533633D01*
X162218818Y-31534004D01*
X162261900Y-31529462D01*
X162353199Y-31521383D01*
X162356914Y-31519444D01*
X171978620Y-30505003D01*
X174330107Y-32581246D01*
X174348317Y-32608578D01*
X174401190Y-32644008D01*
X174412711Y-32654181D01*
X174440495Y-32670347D01*
X174507280Y-32715100D01*
X174522729Y-32718195D01*
X174536357Y-32726124D01*
X174616063Y-32736890D01*
X174694906Y-32752683D01*
X174710370Y-32749628D01*
X174725988Y-32751738D01*
X174803722Y-32731190D01*
X174835246Y-32724963D01*
X174849450Y-32719102D01*
X174910987Y-32702835D01*
X174937112Y-32682928D01*
X177190330Y-31753141D01*
X179179480Y-32251575D01*
X179214358Y-32262025D01*
X179225355Y-32263070D01*
X179236066Y-32265754D01*
X179272420Y-32267543D01*
X181959196Y-32522894D01*
X182779387Y-33731893D01*
X182806618Y-33787443D01*
X182868268Y-33841768D01*
X182926813Y-33899496D01*
X182939728Y-33904739D01*
X182950184Y-33913953D01*
X183027958Y-33940560D01*
X183104112Y-33971477D01*
X183165981Y-33971042D01*
X184545959Y-34156049D01*
X185273678Y-35510165D01*
X186217218Y-39087650D01*
X186226768Y-39154643D01*
X186265672Y-39220395D01*
X186299203Y-39289067D01*
X186314092Y-39302228D01*
X186324210Y-39319328D01*
X186385326Y-39365195D01*
X186442574Y-39415798D01*
X186506569Y-39437803D01*
X188358851Y-40326759D01*
X189517952Y-43195951D01*
X189517951Y-47577082D01*
X187656011Y-52541537D01*
X187625291Y-52600584D01*
X187618553Y-52677817D01*
X187606014Y-52754315D01*
X187621202Y-52819114D01*
X189512950Y-70053633D01*
X188395339Y-75913330D01*
X188376886Y-76004278D01*
X188386672Y-76054477D01*
X188387075Y-76105621D01*
X188423269Y-76191088D01*
X189429227Y-78646231D01*
X188808517Y-81095157D01*
X188793572Y-81121312D01*
X188785206Y-81187126D01*
X188780773Y-81204618D01*
X188779246Y-81234018D01*
X188775534Y-81263223D01*
X188776795Y-81281224D01*
X188773354Y-81347477D01*
X188783423Y-81375868D01*
X189517952Y-91863828D01*
X189517951Y-95408532D01*
X187772573Y-96305249D01*
X184436283Y-95256000D01*
X186123049Y-95256000D01*
X186165064Y-95357433D01*
X186342567Y-95534936D01*
X186574486Y-95631000D01*
X186825514Y-95631000D01*
X187057433Y-95534936D01*
X187234936Y-95357433D01*
X187331000Y-95125514D01*
X187331000Y-94874486D01*
X187234936Y-94642567D01*
X187057433Y-94465064D01*
X186876365Y-94390063D01*
X186831872Y-94345570D01*
X186800853Y-94299147D01*
X186616940Y-94176260D01*
X186454758Y-94144000D01*
X186454753Y-94144000D01*
X186400000Y-94133109D01*
X186345247Y-94144000D01*
X183354753Y-94144000D01*
X183300000Y-94133109D01*
X183245247Y-94144000D01*
X183245242Y-94144000D01*
X183083060Y-94176260D01*
X183083058Y-94176261D01*
X183083059Y-94176261D01*
X182945568Y-94268129D01*
X182945567Y-94268130D01*
X182899147Y-94299147D01*
X182868130Y-94345567D01*
X180580500Y-96633197D01*
X180501832Y-96600612D01*
X180500853Y-96599147D01*
X180316940Y-96476260D01*
X180154758Y-96444000D01*
X180154753Y-96444000D01*
X180100000Y-96433109D01*
X180045247Y-96444000D01*
X175806580Y-96444000D01*
X175625514Y-96369000D01*
X175374486Y-96369000D01*
X175193420Y-96444000D01*
X174454752Y-96444000D01*
X174399999Y-96433109D01*
X174345246Y-96444000D01*
X174345242Y-96444000D01*
X174183060Y-96476260D01*
X174121829Y-96517173D01*
X174045568Y-96568129D01*
X174045567Y-96568130D01*
X173999147Y-96599147D01*
X173968130Y-96645567D01*
X172469698Y-98144000D01*
X169654752Y-98144000D01*
X169599999Y-98133109D01*
X169545246Y-98144000D01*
X169545242Y-98144000D01*
X169383060Y-98176260D01*
X169199147Y-98299147D01*
X169168129Y-98345569D01*
X166469698Y-101044000D01*
X165706580Y-101044000D01*
X165525514Y-100969000D01*
X165274486Y-100969000D01*
X165042567Y-101065064D01*
X164865064Y-101242567D01*
X164790064Y-101423633D01*
X163569698Y-102644000D01*
X162506580Y-102644000D01*
X162325514Y-102569000D01*
X162074486Y-102569000D01*
X161842567Y-102665064D01*
X161665064Y-102842567D01*
X161590063Y-103023635D01*
X161069698Y-103544000D01*
X157406580Y-103544000D01*
X157225514Y-103469000D01*
X156974486Y-103469000D01*
X156793420Y-103544000D01*
X154854752Y-103544000D01*
X154799999Y-103533109D01*
X154745246Y-103544000D01*
X154745242Y-103544000D01*
X154583060Y-103576260D01*
X154583058Y-103576261D01*
X154583059Y-103576261D01*
X154445568Y-103668129D01*
X154445567Y-103668130D01*
X154399147Y-103699147D01*
X154368130Y-103745567D01*
X151169698Y-106944000D01*
X149106580Y-106944000D01*
X148925514Y-106869000D01*
X148674486Y-106869000D01*
X148493420Y-106944000D01*
X147554752Y-106944000D01*
X147499999Y-106933109D01*
X147445246Y-106944000D01*
X147445242Y-106944000D01*
X147283060Y-106976260D01*
X147099147Y-107099147D01*
X147068129Y-107145569D01*
X145769698Y-108444000D01*
X141254752Y-108444000D01*
X141199999Y-108433109D01*
X141145246Y-108444000D01*
X141145242Y-108444000D01*
X140983060Y-108476260D01*
X140799147Y-108599147D01*
X140768129Y-108645569D01*
X138369698Y-111044000D01*
X136806580Y-111044000D01*
X136625514Y-110969000D01*
X136374486Y-110969000D01*
X136142567Y-111065064D01*
X135965064Y-111242567D01*
X135890064Y-111423633D01*
X134669698Y-112644000D01*
X129454752Y-112644000D01*
X129399999Y-112633109D01*
X129345246Y-112644000D01*
X129345242Y-112644000D01*
X129183060Y-112676260D01*
X128999147Y-112799147D01*
X128968129Y-112845569D01*
X127969698Y-113844000D01*
X126606580Y-113844000D01*
X126425514Y-113769000D01*
X126174486Y-113769000D01*
X125993420Y-113844000D01*
X124954758Y-113844000D01*
X124900000Y-113833108D01*
X124683059Y-113876260D01*
X124545568Y-113968129D01*
X124545567Y-113968130D01*
X124499147Y-113999147D01*
X124468130Y-114045567D01*
X123545570Y-114968128D01*
X123499147Y-114999147D01*
X123376260Y-115183061D01*
X123344000Y-115345243D01*
X123344000Y-115345247D01*
X123333109Y-115400000D01*
X123344000Y-115454753D01*
X123344001Y-116545243D01*
X123333109Y-116600000D01*
X123376261Y-116816940D01*
X123468129Y-116954431D01*
X123468131Y-116954433D01*
X123499148Y-117000853D01*
X123545568Y-117031870D01*
X124568130Y-118054433D01*
X124599147Y-118100853D01*
X124645567Y-118131870D01*
X124645568Y-118131871D01*
X124650320Y-118135046D01*
X124783060Y-118223740D01*
X124945242Y-118256000D01*
X124945247Y-118256000D01*
X125000000Y-118266891D01*
X125054753Y-118256000D01*
X125769698Y-118256000D01*
X126468128Y-118954430D01*
X126499147Y-119000853D01*
X126683060Y-119123740D01*
X126845242Y-119156000D01*
X126845246Y-119156000D01*
X126899999Y-119166891D01*
X126954752Y-119156000D01*
X128445247Y-119156000D01*
X128500000Y-119166891D01*
X128554753Y-119156000D01*
X128554758Y-119156000D01*
X128716940Y-119123740D01*
X128900853Y-119000853D01*
X128931872Y-118954430D01*
X129130302Y-118756000D01*
X133193420Y-118756000D01*
X133374486Y-118831000D01*
X133625514Y-118831000D01*
X133857433Y-118734936D01*
X134034936Y-118557433D01*
X134109937Y-118376365D01*
X134930302Y-117556000D01*
X138045247Y-117556000D01*
X138100000Y-117566891D01*
X138154753Y-117556000D01*
X138154758Y-117556000D01*
X138316940Y-117523740D01*
X138500853Y-117400853D01*
X138531872Y-117354430D01*
X139830302Y-116056000D01*
X145493420Y-116056000D01*
X145674486Y-116131000D01*
X145925514Y-116131000D01*
X146157433Y-116034936D01*
X146334936Y-115857433D01*
X146376951Y-115756000D01*
X154493420Y-115756000D01*
X154674486Y-115831000D01*
X154925514Y-115831000D01*
X155106580Y-115756000D01*
X155645247Y-115756000D01*
X155700000Y-115766891D01*
X155754753Y-115756000D01*
X155754758Y-115756000D01*
X155916940Y-115723740D01*
X156100853Y-115600853D01*
X156131872Y-115554430D01*
X157630303Y-114056000D01*
X159645247Y-114056000D01*
X159700000Y-114066891D01*
X159754753Y-114056000D01*
X159754758Y-114056000D01*
X159916940Y-114023740D01*
X160100853Y-113900853D01*
X160131872Y-113854430D01*
X162030302Y-111956000D01*
X165593420Y-111956000D01*
X165774486Y-112031000D01*
X166025514Y-112031000D01*
X166257433Y-111934936D01*
X166434936Y-111757433D01*
X166509937Y-111576366D01*
X168130303Y-109956000D01*
X173193420Y-109956000D01*
X173374486Y-110031000D01*
X173625514Y-110031000D01*
X173806580Y-109956000D01*
X178245247Y-109956000D01*
X178300000Y-109966891D01*
X178354753Y-109956000D01*
X178354758Y-109956000D01*
X178516940Y-109923740D01*
X178700853Y-109800853D01*
X178731872Y-109754430D01*
X181130302Y-107356000D01*
X182893420Y-107356000D01*
X183074486Y-107431000D01*
X183325514Y-107431000D01*
X183506580Y-107356000D01*
X186469698Y-107356000D01*
X187903908Y-108790210D01*
X187869000Y-108874486D01*
X187869000Y-109125514D01*
X187965064Y-109357433D01*
X188142567Y-109534936D01*
X188374486Y-109631000D01*
X188625514Y-109631000D01*
X188857433Y-109534936D01*
X189034936Y-109357433D01*
X189131000Y-109125514D01*
X189131000Y-108874486D01*
X189056000Y-108693420D01*
X189056000Y-108654752D01*
X189066891Y-108599999D01*
X189056000Y-108545246D01*
X189056000Y-108545243D01*
X189023740Y-108383060D01*
X188900853Y-108199147D01*
X188854430Y-108168128D01*
X187131872Y-106445570D01*
X187100853Y-106399147D01*
X186916940Y-106276260D01*
X186754758Y-106244000D01*
X186754753Y-106244000D01*
X186700000Y-106233109D01*
X186645247Y-106244000D01*
X183506580Y-106244000D01*
X183325514Y-106169000D01*
X183074486Y-106169000D01*
X182893420Y-106244000D01*
X180954752Y-106244000D01*
X180899999Y-106233109D01*
X180845246Y-106244000D01*
X180845242Y-106244000D01*
X180683060Y-106276260D01*
X180499147Y-106399147D01*
X180468128Y-106445570D01*
X179489376Y-107424322D01*
X180498844Y-106090037D01*
X185431064Y-104768690D01*
X189517952Y-108043861D01*
X189517951Y-122573780D01*
X188281278Y-123002072D01*
X188240909Y-123006341D01*
X188191732Y-123033084D01*
X188184472Y-123035598D01*
X188150153Y-123055694D01*
X188115237Y-123074682D01*
X188109337Y-123079596D01*
X188061027Y-123107885D01*
X188036513Y-123140243D01*
X186498358Y-124421210D01*
X184789470Y-123111815D01*
X184752512Y-123071823D01*
X184671152Y-123034303D01*
X184590800Y-122994747D01*
X184584489Y-122994338D01*
X184578745Y-122991689D01*
X184489216Y-122988160D01*
X184399849Y-122982365D01*
X184393864Y-122984401D01*
X184387540Y-122984152D01*
X184303485Y-123015150D01*
X184218693Y-123043998D01*
X184213939Y-123048173D01*
X184208006Y-123050361D01*
X184142221Y-123111156D01*
X184074913Y-123170266D01*
X184072120Y-123175939D01*
X184067474Y-123180233D01*
X184029953Y-123261595D01*
X183990398Y-123341945D01*
X183986875Y-123396279D01*
X183045045Y-127317089D01*
X181257276Y-126804374D01*
X181238430Y-126791998D01*
X181165943Y-126778180D01*
X181141443Y-126771154D01*
X181119522Y-126769331D01*
X181050462Y-126756167D01*
X181024900Y-126761464D01*
X180998883Y-126759301D01*
X180931929Y-126780731D01*
X180910385Y-126785195D01*
X180886908Y-126795140D01*
X180816637Y-126817631D01*
X180799431Y-126832196D01*
X178919735Y-127628445D01*
X175455430Y-126803984D01*
X175406942Y-126782848D01*
X175315850Y-126781175D01*
X175224772Y-126777777D01*
X175220341Y-126779422D01*
X175215621Y-126779335D01*
X175130813Y-126812652D01*
X175045378Y-126844363D01*
X175041917Y-126847575D01*
X175037518Y-126849303D01*
X174971888Y-126912566D01*
X174905119Y-126974531D01*
X174883071Y-127022607D01*
X173144896Y-129523306D01*
X135267250Y-129523306D01*
X135300853Y-129500853D01*
X135331872Y-129454430D01*
X136176367Y-128609936D01*
X136357433Y-128534936D01*
X136534936Y-128357433D01*
X136631000Y-128125514D01*
X136631000Y-127874486D01*
X136534936Y-127642567D01*
X136392369Y-127500000D01*
X136534936Y-127357433D01*
X136631000Y-127125514D01*
X136631000Y-126874486D01*
X136534936Y-126642567D01*
X136357433Y-126465064D01*
X136125514Y-126369000D01*
X135874486Y-126369000D01*
X135642567Y-126465064D01*
X135465064Y-126642567D01*
X135390063Y-126823635D01*
X134269698Y-127944000D01*
X133842302Y-127944000D01*
X134176365Y-127609937D01*
X134357433Y-127534936D01*
X134534936Y-127357433D01*
X134631000Y-127125514D01*
X134631000Y-126874486D01*
X134534936Y-126642567D01*
X134357433Y-126465064D01*
X134125514Y-126369000D01*
X133874486Y-126369000D01*
X133642567Y-126465064D01*
X133465064Y-126642567D01*
X133390063Y-126823635D01*
X132869698Y-127344000D01*
X108330303Y-127344000D01*
X106817302Y-125831000D01*
X106825514Y-125831000D01*
X107057433Y-125734936D01*
X107234936Y-125557433D01*
X107250000Y-125521065D01*
X107265064Y-125557433D01*
X107442567Y-125734936D01*
X107674486Y-125831000D01*
X107925514Y-125831000D01*
X108157433Y-125734936D01*
X108334936Y-125557433D01*
X108431000Y-125325514D01*
X108431000Y-125074486D01*
X108334936Y-124842567D01*
X108306000Y-124813631D01*
X108306000Y-123286369D01*
X108334936Y-123257433D01*
X108431000Y-123025514D01*
X108431000Y-122774486D01*
X108334936Y-122542567D01*
X108157433Y-122365064D01*
X107925514Y-122269000D01*
X107674486Y-122269000D01*
X107442567Y-122365064D01*
X107265064Y-122542567D01*
X107250000Y-122578935D01*
X107234936Y-122542567D01*
X107057433Y-122365064D01*
X106825514Y-122269000D01*
X106574486Y-122269000D01*
X106342567Y-122365064D01*
X106165064Y-122542567D01*
X106150000Y-122578935D01*
X106134936Y-122542567D01*
X105957433Y-122365064D01*
X105725514Y-122269000D01*
X105474486Y-122269000D01*
X105242567Y-122365064D01*
X105065064Y-122542567D01*
X105050000Y-122578935D01*
X105034936Y-122542567D01*
X104857433Y-122365064D01*
X104625514Y-122269000D01*
X104374486Y-122269000D01*
X104142567Y-122365064D01*
X103965064Y-122542567D01*
X103950000Y-122578935D01*
X103934936Y-122542567D01*
X103757433Y-122365064D01*
X103525514Y-122269000D01*
X103274486Y-122269000D01*
X103042567Y-122365064D01*
X102865064Y-122542567D01*
X102769000Y-122774486D01*
X102769000Y-123025514D01*
X102844001Y-123206582D01*
X102844000Y-125345247D01*
X102833109Y-125400000D01*
X102844000Y-125454753D01*
X102844000Y-125454757D01*
X102876260Y-125616939D01*
X102999147Y-125800853D01*
X103045570Y-125831872D01*
X106668128Y-129454430D01*
X106699147Y-129500853D01*
X106732750Y-129523306D01*
X37153228Y-129523306D01*
X36172504Y-128426226D01*
X36161553Y-128402993D01*
X36109227Y-128355441D01*
X36094288Y-128338730D01*
X36074244Y-128323651D01*
X36019940Y-128274301D01*
X35998327Y-128266536D01*
X35979974Y-128252728D01*
X35908916Y-128234411D01*
X35885313Y-128225930D01*
X35863147Y-128222612D01*
X35794678Y-128204962D01*
X35769246Y-128208556D01*
X34833039Y-128068420D01*
X34951338Y-127346263D01*
X34967369Y-127306051D01*
X34966657Y-127252749D01*
X34967465Y-127247816D01*
X34966025Y-127205457D01*
X34965458Y-127163011D01*
X34964416Y-127158114D01*
X34962605Y-127104846D01*
X34944692Y-127065443D01*
X34638125Y-125625061D01*
X34632282Y-125558924D01*
X34596352Y-125490046D01*
X34565665Y-125418672D01*
X34552365Y-125405723D01*
X34543781Y-125389267D01*
X34484223Y-125339379D01*
X34428561Y-125285185D01*
X34411320Y-125278312D01*
X34397091Y-125266393D01*
X34322985Y-125243096D01*
X34250812Y-125214324D01*
X34232250Y-125214572D01*
X34214545Y-125209006D01*
X34137157Y-125215843D01*
X34059476Y-125216881D01*
X33998482Y-125243105D01*
X32524835Y-125673995D01*
X31240098Y-125486661D01*
X31336016Y-124372255D01*
X31349645Y-124306564D01*
X31335245Y-124230926D01*
X31326755Y-124154402D01*
X31294404Y-124095630D01*
X30479791Y-122082327D01*
X30479791Y-119600000D01*
X120756638Y-119600000D01*
X120769000Y-119662148D01*
X120769000Y-119725514D01*
X120793249Y-119784057D01*
X120805611Y-119846204D01*
X120840815Y-119898891D01*
X120865064Y-119957433D01*
X120909869Y-120002238D01*
X120945074Y-120054926D01*
X120997762Y-120090131D01*
X121042567Y-120134936D01*
X121101109Y-120159185D01*
X121153796Y-120194389D01*
X121215944Y-120206751D01*
X121274486Y-120231000D01*
X122169001Y-120231000D01*
X122169000Y-121337852D01*
X122156638Y-121400000D01*
X122169000Y-121462147D01*
X122205611Y-121646203D01*
X122345074Y-121854926D01*
X122397764Y-121890132D01*
X124009869Y-123502238D01*
X124045074Y-123554926D01*
X124253796Y-123694389D01*
X124437852Y-123731000D01*
X124499999Y-123743362D01*
X124562146Y-123731000D01*
X127425514Y-123731000D01*
X127484056Y-123706751D01*
X127546204Y-123694389D01*
X127598891Y-123659185D01*
X127657433Y-123634936D01*
X127702238Y-123590131D01*
X127754926Y-123554926D01*
X127790131Y-123502238D01*
X127834936Y-123457433D01*
X127859185Y-123398891D01*
X127894389Y-123346204D01*
X127906751Y-123284057D01*
X127931000Y-123225514D01*
X127931000Y-123162148D01*
X127943362Y-123100000D01*
X127931000Y-123037852D01*
X127931000Y-122974486D01*
X127906751Y-122915943D01*
X127894389Y-122853796D01*
X127859185Y-122801109D01*
X127834936Y-122742567D01*
X127790131Y-122697762D01*
X127754926Y-122645074D01*
X127702238Y-122609869D01*
X127657433Y-122565064D01*
X127598891Y-122540815D01*
X127546204Y-122505611D01*
X127484056Y-122493249D01*
X127425514Y-122469000D01*
X124761369Y-122469000D01*
X123431000Y-121138632D01*
X123431000Y-119662148D01*
X123443362Y-119600000D01*
X123431000Y-119537852D01*
X123431000Y-119474486D01*
X123406751Y-119415943D01*
X123394389Y-119353796D01*
X123359185Y-119301109D01*
X123334936Y-119242567D01*
X123290131Y-119197762D01*
X123254926Y-119145074D01*
X123202238Y-119109869D01*
X123157433Y-119065064D01*
X123098891Y-119040815D01*
X123046204Y-119005611D01*
X122984056Y-118993249D01*
X122925514Y-118969000D01*
X122862148Y-118969000D01*
X122800000Y-118956638D01*
X122737852Y-118969000D01*
X121274486Y-118969000D01*
X121215944Y-118993249D01*
X121153796Y-119005611D01*
X121101109Y-119040815D01*
X121042567Y-119065064D01*
X120997762Y-119109869D01*
X120945074Y-119145074D01*
X120909869Y-119197762D01*
X120865064Y-119242567D01*
X120840815Y-119301109D01*
X120805611Y-119353796D01*
X120793249Y-119415943D01*
X120769000Y-119474486D01*
X120769000Y-119537852D01*
X120756638Y-119600000D01*
X30479791Y-119600000D01*
X30479791Y-116800011D01*
X34005922Y-113620274D01*
X36192317Y-113844000D01*
X34454752Y-113844000D01*
X34399999Y-113833109D01*
X34345246Y-113844000D01*
X34345242Y-113844000D01*
X34183060Y-113876260D01*
X33999147Y-113999147D01*
X33968129Y-114045569D01*
X32845568Y-115168130D01*
X32799148Y-115199147D01*
X32768131Y-115245567D01*
X32768129Y-115245569D01*
X32681990Y-115374486D01*
X32676261Y-115383060D01*
X32644000Y-115545242D01*
X32644000Y-115545247D01*
X32633109Y-115600000D01*
X32644000Y-115654753D01*
X32644000Y-115893420D01*
X32569000Y-116074486D01*
X32569000Y-116325514D01*
X32665064Y-116557433D01*
X32842567Y-116734936D01*
X33074486Y-116831000D01*
X33325514Y-116831000D01*
X33557433Y-116734936D01*
X33734936Y-116557433D01*
X33831000Y-116325514D01*
X33831000Y-116074486D01*
X33756000Y-115893420D01*
X33756000Y-115830302D01*
X34630302Y-114956000D01*
X37169698Y-114956000D01*
X37790064Y-115576367D01*
X37865064Y-115757433D01*
X38042567Y-115934936D01*
X38274486Y-116031000D01*
X38525514Y-116031000D01*
X38706580Y-115956000D01*
X42645247Y-115956000D01*
X42700000Y-115966891D01*
X42754753Y-115956000D01*
X42754758Y-115956000D01*
X42916940Y-115923740D01*
X43100853Y-115800853D01*
X43131872Y-115754430D01*
X46976367Y-111909936D01*
X47157433Y-111834936D01*
X47334936Y-111657433D01*
X47431000Y-111425514D01*
X47431000Y-111174486D01*
X47356000Y-110993420D01*
X47356000Y-110730302D01*
X51130303Y-106956000D01*
X54145247Y-106956000D01*
X54200000Y-106966891D01*
X54254753Y-106956000D01*
X54254758Y-106956000D01*
X54416940Y-106923740D01*
X54600853Y-106800853D01*
X54631872Y-106754430D01*
X56276367Y-105109936D01*
X56457433Y-105034936D01*
X56634936Y-104857433D01*
X56731000Y-104625514D01*
X56731000Y-104374486D01*
X56656000Y-104193420D01*
X56656000Y-103730302D01*
X59754434Y-100631869D01*
X59800853Y-100600853D01*
X59900988Y-100450991D01*
X59923740Y-100416941D01*
X59943925Y-100315463D01*
X59956000Y-100254758D01*
X59956000Y-100254754D01*
X59966891Y-100200000D01*
X59956000Y-100145246D01*
X59956000Y-98454752D01*
X59966891Y-98399999D01*
X59956000Y-98345246D01*
X59956000Y-98345242D01*
X59923740Y-98183060D01*
X59800853Y-97999147D01*
X59763946Y-97974486D01*
X125569000Y-97974486D01*
X125569000Y-98225514D01*
X125644001Y-98406582D01*
X125644000Y-101693420D01*
X125569000Y-101874486D01*
X125569000Y-102125514D01*
X125665064Y-102357433D01*
X125842567Y-102534936D01*
X126074486Y-102631000D01*
X126325514Y-102631000D01*
X126557433Y-102534936D01*
X126734936Y-102357433D01*
X126831000Y-102125514D01*
X126831000Y-101874486D01*
X126756000Y-101693420D01*
X126756000Y-98406580D01*
X126831000Y-98225514D01*
X126831000Y-97974486D01*
X126734936Y-97742567D01*
X126557433Y-97565064D01*
X126325514Y-97469000D01*
X126074486Y-97469000D01*
X125842567Y-97565064D01*
X125665064Y-97742567D01*
X125569000Y-97974486D01*
X59763946Y-97974486D01*
X59754430Y-97968128D01*
X59131872Y-97345570D01*
X59100853Y-97299147D01*
X58916940Y-97176260D01*
X58754758Y-97144000D01*
X58754753Y-97144000D01*
X58700000Y-97133109D01*
X58645247Y-97144000D01*
X56954758Y-97144000D01*
X56900000Y-97133108D01*
X56683059Y-97176260D01*
X56545568Y-97268129D01*
X56545567Y-97268130D01*
X56499147Y-97299147D01*
X56468130Y-97345567D01*
X53969698Y-99844000D01*
X50354752Y-99844000D01*
X50299999Y-99833109D01*
X50245246Y-99844000D01*
X50245242Y-99844000D01*
X50083060Y-99876260D01*
X49899147Y-99999147D01*
X49868129Y-100045569D01*
X46569698Y-103344000D01*
X46006580Y-103344000D01*
X45825514Y-103269000D01*
X45574486Y-103269000D01*
X45393420Y-103344000D01*
X45154752Y-103344000D01*
X45099999Y-103333109D01*
X45045246Y-103344000D01*
X45045242Y-103344000D01*
X44883060Y-103376260D01*
X44699147Y-103499147D01*
X44668129Y-103545569D01*
X41669698Y-106544000D01*
X39406580Y-106544000D01*
X39225514Y-106469000D01*
X38974486Y-106469000D01*
X38793420Y-106544000D01*
X36630302Y-106544000D01*
X36431872Y-106345570D01*
X36400853Y-106299147D01*
X36216940Y-106176260D01*
X36054758Y-106144000D01*
X36054753Y-106144000D01*
X36000000Y-106133109D01*
X35945247Y-106144000D01*
X32630302Y-106144000D01*
X31809937Y-105323635D01*
X31734936Y-105142567D01*
X31557433Y-104965064D01*
X31325514Y-104869000D01*
X31074486Y-104869000D01*
X30842567Y-104965064D01*
X30665064Y-105142567D01*
X30569000Y-105374486D01*
X30569000Y-105625514D01*
X30665064Y-105857433D01*
X30842567Y-106034936D01*
X31023635Y-106109937D01*
X31968128Y-107054430D01*
X31999147Y-107100853D01*
X32183060Y-107223740D01*
X32345242Y-107256000D01*
X32345246Y-107256000D01*
X32399999Y-107266891D01*
X32454752Y-107256000D01*
X33472676Y-107256000D01*
X32315151Y-108081892D01*
X30479791Y-106997186D01*
X30479791Y-105062446D01*
X32545425Y-100724347D01*
X32586227Y-100641916D01*
X32589704Y-100590038D01*
X32602471Y-100539630D01*
X32596041Y-100495493D01*
X32599024Y-100450991D01*
X32582381Y-100401724D01*
X32574886Y-100350276D01*
X32527840Y-100271317D01*
X30893788Y-97431405D01*
X31818404Y-90166637D01*
X31821253Y-90161363D01*
X31830457Y-90071941D01*
X31835708Y-90030680D01*
X31835302Y-90024865D01*
X31835899Y-90019062D01*
X31832002Y-89977630D01*
X31825738Y-89887975D01*
X31823064Y-89882610D01*
X31014482Y-81286652D01*
X32216493Y-78090845D01*
X32223277Y-78082963D01*
X32250045Y-78001638D01*
X32263189Y-77966693D01*
X32264836Y-77956702D01*
X32283104Y-77901203D01*
X32280257Y-77863170D01*
X32286460Y-77825546D01*
X32273181Y-77768654D01*
X32272425Y-77758549D01*
X32262422Y-77722555D01*
X32242967Y-77639201D01*
X32236908Y-77630750D01*
X31470913Y-74874486D01*
X59369000Y-74874486D01*
X59369000Y-75125514D01*
X59465064Y-75357433D01*
X59642567Y-75534936D01*
X59823635Y-75609937D01*
X62390064Y-78176367D01*
X62465064Y-78357433D01*
X62642567Y-78534936D01*
X62874486Y-78631000D01*
X63125514Y-78631000D01*
X63357433Y-78534936D01*
X63534936Y-78357433D01*
X63631000Y-78125514D01*
X63631000Y-77874486D01*
X63534936Y-77642567D01*
X63357433Y-77465064D01*
X63176367Y-77390064D01*
X60609937Y-74823635D01*
X60534936Y-74642567D01*
X60357433Y-74465064D01*
X60125514Y-74369000D01*
X59874486Y-74369000D01*
X59642567Y-74465064D01*
X59465064Y-74642567D01*
X59369000Y-74874486D01*
X31470913Y-74874486D01*
X30788805Y-72420073D01*
X32291202Y-70664631D01*
X32304157Y-70657029D01*
X32353082Y-70592329D01*
X32374443Y-70567370D01*
X32381612Y-70554600D01*
X32419572Y-70504400D01*
X32428033Y-70471909D01*
X32444470Y-70442628D01*
X32451932Y-70380129D01*
X32455620Y-70365964D01*
X32457536Y-70333183D01*
X32467154Y-70252624D01*
X32463091Y-70238161D01*
X32908030Y-62626932D01*
X32920049Y-62563212D01*
X32903818Y-62485646D01*
X32892922Y-62407161D01*
X32860107Y-62351239D01*
X30479791Y-56762085D01*
X30479791Y-53949364D01*
X32414942Y-53340268D01*
X34404590Y-54992894D01*
X34475424Y-55053059D01*
X34523943Y-55068677D01*
X34568754Y-55092970D01*
X34661278Y-55102635D01*
X37713339Y-55455423D01*
X39761210Y-56007023D01*
X39795215Y-56017970D01*
X39806843Y-56019314D01*
X39818158Y-56022362D01*
X39853839Y-56024748D01*
X41747104Y-56243631D01*
X41745247Y-56244000D01*
X37806580Y-56244000D01*
X37625514Y-56169000D01*
X37374486Y-56169000D01*
X37193420Y-56244000D01*
X35530302Y-56244000D01*
X34231872Y-54945570D01*
X34200853Y-54899147D01*
X34016940Y-54776260D01*
X33854758Y-54744000D01*
X33854753Y-54744000D01*
X33800000Y-54733109D01*
X33745247Y-54744000D01*
X33506580Y-54744000D01*
X33325514Y-54669000D01*
X33074486Y-54669000D01*
X32842567Y-54765064D01*
X32665064Y-54942567D01*
X32569000Y-55174486D01*
X32569000Y-55425514D01*
X32665064Y-55657433D01*
X32842567Y-55834936D01*
X33074486Y-55931000D01*
X33325514Y-55931000D01*
X33506580Y-55856000D01*
X33569698Y-55856000D01*
X34868128Y-57154430D01*
X34899147Y-57200853D01*
X35083060Y-57323740D01*
X35245242Y-57356000D01*
X35245246Y-57356000D01*
X35299999Y-57366891D01*
X35354752Y-57356000D01*
X37193420Y-57356000D01*
X37374486Y-57431000D01*
X37625514Y-57431000D01*
X37806580Y-57356000D01*
X41569698Y-57356000D01*
X42090063Y-57876365D01*
X42165064Y-58057433D01*
X42342567Y-58234936D01*
X42574486Y-58331000D01*
X42825514Y-58331000D01*
X42980500Y-58266803D01*
X44168130Y-59454433D01*
X44199147Y-59500853D01*
X44245567Y-59531870D01*
X44245568Y-59531871D01*
X44259460Y-59541153D01*
X44383060Y-59623740D01*
X44545242Y-59656000D01*
X44545247Y-59656000D01*
X44600000Y-59666891D01*
X44654753Y-59656000D01*
X49569698Y-59656000D01*
X50490064Y-60576367D01*
X50565064Y-60757433D01*
X50742567Y-60934936D01*
X50974486Y-61031000D01*
X51225514Y-61031000D01*
X51406580Y-60956000D01*
X51469698Y-60956000D01*
X54668130Y-64154433D01*
X54699147Y-64200853D01*
X54745567Y-64231870D01*
X54745568Y-64231871D01*
X54765581Y-64245243D01*
X54883060Y-64323740D01*
X55045242Y-64356000D01*
X55045246Y-64356000D01*
X55099999Y-64366891D01*
X55154752Y-64356000D01*
X58869698Y-64356000D01*
X60290063Y-65776365D01*
X60365064Y-65957433D01*
X60542567Y-66134936D01*
X60774486Y-66231000D01*
X61025514Y-66231000D01*
X61206580Y-66156000D01*
X65669698Y-66156000D01*
X65882697Y-66369000D01*
X65775030Y-66369000D01*
X65359340Y-66541184D01*
X65041184Y-66859340D01*
X64869000Y-67275030D01*
X64869000Y-67724970D01*
X65041184Y-68140660D01*
X65359340Y-68458816D01*
X65775030Y-68631000D01*
X66224970Y-68631000D01*
X66640660Y-68458816D01*
X66958816Y-68140660D01*
X67000000Y-68041233D01*
X67041184Y-68140660D01*
X67119000Y-68218476D01*
X67119001Y-71013229D01*
X67119000Y-71013234D01*
X67119001Y-76886767D01*
X67170118Y-77143749D01*
X67364836Y-77435165D01*
X67656252Y-77629883D01*
X68000000Y-77698259D01*
X68343749Y-77629883D01*
X68635165Y-77435165D01*
X68829883Y-77143749D01*
X68881000Y-76886767D01*
X68881000Y-68218476D01*
X68958816Y-68140660D01*
X69131000Y-67724970D01*
X69131000Y-67275030D01*
X69125526Y-67261813D01*
X69154752Y-67256000D01*
X72093420Y-67256000D01*
X72274486Y-67331000D01*
X72525514Y-67331000D01*
X72757433Y-67234936D01*
X72934936Y-67057433D01*
X73009936Y-66876366D01*
X73230303Y-66656000D01*
X73244524Y-66656000D01*
X73041184Y-66859340D01*
X72869000Y-67275030D01*
X72869000Y-67724970D01*
X73041184Y-68140660D01*
X73359340Y-68458816D01*
X73775030Y-68631000D01*
X74224970Y-68631000D01*
X74640660Y-68458816D01*
X74958816Y-68140660D01*
X75000000Y-68041233D01*
X75041184Y-68140660D01*
X75359340Y-68458816D01*
X75775030Y-68631000D01*
X76224970Y-68631000D01*
X76640660Y-68458816D01*
X76958816Y-68140660D01*
X77000000Y-68041233D01*
X77041184Y-68140660D01*
X77359340Y-68458816D01*
X77775030Y-68631000D01*
X78224970Y-68631000D01*
X78640660Y-68458816D01*
X78958816Y-68140660D01*
X79131000Y-67724970D01*
X79131000Y-67275030D01*
X78958816Y-66859340D01*
X78640660Y-66541184D01*
X78224970Y-66369000D01*
X77775030Y-66369000D01*
X77359340Y-66541184D01*
X77041184Y-66859340D01*
X77000000Y-66958767D01*
X76958816Y-66859340D01*
X76640660Y-66541184D01*
X76224970Y-66369000D01*
X75775030Y-66369000D01*
X75359340Y-66541184D01*
X75041184Y-66859340D01*
X75000000Y-66958767D01*
X74958816Y-66859340D01*
X74720702Y-66621226D01*
X74900853Y-66500853D01*
X74931871Y-66454431D01*
X75354433Y-66031870D01*
X75400853Y-66000853D01*
X75431871Y-65954432D01*
X75523740Y-65816941D01*
X75533449Y-65768129D01*
X75556000Y-65654758D01*
X75556000Y-65654754D01*
X75566891Y-65600000D01*
X75556000Y-65545246D01*
X75556000Y-64354752D01*
X75566891Y-64299999D01*
X75556000Y-64245246D01*
X75556000Y-64245242D01*
X75523740Y-64083060D01*
X75400853Y-63899147D01*
X75354431Y-63868129D01*
X74231872Y-62745570D01*
X74200853Y-62699147D01*
X74016940Y-62576260D01*
X73854758Y-62544000D01*
X73854753Y-62544000D01*
X73800000Y-62533109D01*
X73745247Y-62544000D01*
X69730303Y-62544000D01*
X69060789Y-61874486D01*
X87369000Y-61874486D01*
X87369000Y-62125514D01*
X87444000Y-62306580D01*
X87444001Y-78845238D01*
X87444000Y-78845243D01*
X87444001Y-80945238D01*
X87444000Y-80945243D01*
X87444001Y-81693418D01*
X87369000Y-81874486D01*
X87369000Y-82125514D01*
X87465064Y-82357433D01*
X87642567Y-82534936D01*
X87874486Y-82631000D01*
X88125514Y-82631000D01*
X88357433Y-82534936D01*
X88534936Y-82357433D01*
X88631000Y-82125514D01*
X88631000Y-81874486D01*
X88556000Y-81693420D01*
X88556000Y-79348369D01*
X88642567Y-79434936D01*
X88874486Y-79531000D01*
X89125514Y-79531000D01*
X89357433Y-79434936D01*
X89444000Y-79348369D01*
X89444001Y-79693418D01*
X89369000Y-79874486D01*
X89369000Y-80125514D01*
X89465064Y-80357433D01*
X89642567Y-80534936D01*
X89874486Y-80631000D01*
X90125514Y-80631000D01*
X90357433Y-80534936D01*
X90444001Y-80448368D01*
X90444001Y-80693418D01*
X90369000Y-80874486D01*
X90369000Y-81125514D01*
X90465064Y-81357433D01*
X90642567Y-81534936D01*
X90874486Y-81631000D01*
X91125514Y-81631000D01*
X91357433Y-81534936D01*
X91534936Y-81357433D01*
X91631000Y-81125514D01*
X91631000Y-80874486D01*
X91556000Y-80693420D01*
X91556000Y-79444649D01*
X102019000Y-79444649D01*
X102019000Y-79755351D01*
X102137900Y-80042401D01*
X102357599Y-80262100D01*
X102644649Y-80381000D01*
X102955351Y-80381000D01*
X103242401Y-80262100D01*
X103462100Y-80042401D01*
X103581000Y-79755351D01*
X103581000Y-79711368D01*
X104161369Y-79131000D01*
X107738632Y-79131000D01*
X108209869Y-79602238D01*
X108245074Y-79654926D01*
X108453796Y-79794389D01*
X108637852Y-79831000D01*
X108699999Y-79843362D01*
X108762146Y-79831000D01*
X109044001Y-79831000D01*
X109044001Y-82076657D01*
X109025514Y-82069000D01*
X108774486Y-82069000D01*
X108542567Y-82165064D01*
X108365064Y-82342567D01*
X108290064Y-82523633D01*
X107869698Y-82944000D01*
X104206580Y-82944000D01*
X104025514Y-82869000D01*
X103774486Y-82869000D01*
X103542567Y-82965064D01*
X103365064Y-83142567D01*
X103269000Y-83374486D01*
X103269000Y-83625514D01*
X103365064Y-83857433D01*
X103542567Y-84034936D01*
X103774486Y-84131000D01*
X104025514Y-84131000D01*
X104206580Y-84056000D01*
X108045247Y-84056000D01*
X108100000Y-84066891D01*
X108154753Y-84056000D01*
X108154758Y-84056000D01*
X108316940Y-84023740D01*
X108500853Y-83900853D01*
X108531872Y-83854430D01*
X109044001Y-83342302D01*
X109044000Y-89693420D01*
X108969000Y-89874486D01*
X108969000Y-90125514D01*
X109065064Y-90357433D01*
X109242567Y-90534936D01*
X109264449Y-90544000D01*
X106806580Y-90544000D01*
X106625514Y-90469000D01*
X106374486Y-90469000D01*
X106142567Y-90565064D01*
X105965064Y-90742567D01*
X105869000Y-90974486D01*
X105869000Y-91225514D01*
X105965064Y-91457433D01*
X106142567Y-91634936D01*
X106374486Y-91731000D01*
X106625514Y-91731000D01*
X106806580Y-91656000D01*
X110045247Y-91656000D01*
X110100000Y-91666891D01*
X110154753Y-91656000D01*
X110154758Y-91656000D01*
X110316940Y-91623740D01*
X110500853Y-91500853D01*
X110531872Y-91454430D01*
X110644001Y-91342301D01*
X110644001Y-92745237D01*
X110644000Y-92745242D01*
X110644000Y-92769698D01*
X108923635Y-94490063D01*
X108742567Y-94565064D01*
X108565064Y-94742567D01*
X108469000Y-94974486D01*
X108469000Y-95225514D01*
X108565064Y-95457433D01*
X108742567Y-95634936D01*
X108974486Y-95731000D01*
X109225514Y-95731000D01*
X109457433Y-95634936D01*
X109634936Y-95457433D01*
X109709937Y-95276365D01*
X111554431Y-93431871D01*
X111600853Y-93400853D01*
X111723740Y-93216940D01*
X111756000Y-93054758D01*
X111756000Y-93054754D01*
X111766891Y-93000001D01*
X111756000Y-92945248D01*
X111756000Y-88306580D01*
X111769293Y-88274486D01*
X112169000Y-88274486D01*
X112169000Y-88525514D01*
X112244000Y-88706581D01*
X112244001Y-89693418D01*
X112169000Y-89874486D01*
X112169000Y-90125514D01*
X112265064Y-90357433D01*
X112442567Y-90534936D01*
X112674486Y-90631000D01*
X112925514Y-90631000D01*
X113157433Y-90534936D01*
X113334936Y-90357433D01*
X113350000Y-90321065D01*
X113365064Y-90357433D01*
X113542567Y-90534936D01*
X113774486Y-90631000D01*
X114025514Y-90631000D01*
X114257433Y-90534936D01*
X114434936Y-90357433D01*
X114531000Y-90125514D01*
X114531000Y-89874486D01*
X114456000Y-89693420D01*
X114456000Y-88706580D01*
X114531000Y-88525514D01*
X114531000Y-88274486D01*
X114434936Y-88042567D01*
X114257433Y-87865064D01*
X114025514Y-87769000D01*
X113774486Y-87769000D01*
X113542567Y-87865064D01*
X113365064Y-88042567D01*
X113350000Y-88078935D01*
X113334936Y-88042567D01*
X113157433Y-87865064D01*
X112925514Y-87769000D01*
X112674486Y-87769000D01*
X112442567Y-87865064D01*
X112265064Y-88042567D01*
X112169000Y-88274486D01*
X111769293Y-88274486D01*
X111831000Y-88125514D01*
X111831000Y-87874486D01*
X111734936Y-87642567D01*
X111557433Y-87465064D01*
X111325514Y-87369000D01*
X111074486Y-87369000D01*
X110842567Y-87465064D01*
X110800000Y-87507631D01*
X110757433Y-87465064D01*
X110525514Y-87369000D01*
X110274486Y-87369000D01*
X110156000Y-87418079D01*
X110156000Y-83274486D01*
X118169000Y-83274486D01*
X118169000Y-83525514D01*
X118265064Y-83757433D01*
X118442567Y-83934936D01*
X118674486Y-84031000D01*
X118925514Y-84031000D01*
X119106580Y-83956000D01*
X121393420Y-83956000D01*
X121574486Y-84031000D01*
X121825514Y-84031000D01*
X122057433Y-83934936D01*
X122234936Y-83757433D01*
X122331000Y-83525514D01*
X122331000Y-83274486D01*
X122234936Y-83042567D01*
X122057433Y-82865064D01*
X121825514Y-82769000D01*
X121574486Y-82769000D01*
X121393420Y-82844000D01*
X119106580Y-82844000D01*
X118925514Y-82769000D01*
X118674486Y-82769000D01*
X118442567Y-82865064D01*
X118265064Y-83042567D01*
X118169000Y-83274486D01*
X110156000Y-83274486D01*
X110156000Y-79831000D01*
X113138632Y-79831000D01*
X113609869Y-80302238D01*
X113645074Y-80354926D01*
X113853796Y-80494389D01*
X114037852Y-80531000D01*
X114099999Y-80543362D01*
X114162146Y-80531000D01*
X117026499Y-80531000D01*
X117057599Y-80562100D01*
X117344649Y-80681000D01*
X117655351Y-80681000D01*
X117942401Y-80562100D01*
X118162100Y-80342401D01*
X118281000Y-80055351D01*
X118281000Y-79744649D01*
X118162100Y-79457599D01*
X117942401Y-79237900D01*
X117655351Y-79119000D01*
X117344649Y-79119000D01*
X117057599Y-79237900D01*
X117026499Y-79269000D01*
X114361369Y-79269000D01*
X113890132Y-78797764D01*
X113854926Y-78745074D01*
X113646204Y-78605611D01*
X113462148Y-78569000D01*
X113400000Y-78556638D01*
X113337852Y-78569000D01*
X108961369Y-78569000D01*
X108490132Y-78097764D01*
X108454926Y-78045074D01*
X108246204Y-77905611D01*
X108062148Y-77869000D01*
X108000000Y-77856638D01*
X107937852Y-77869000D01*
X103962148Y-77869000D01*
X103900000Y-77856638D01*
X103837852Y-77869000D01*
X103653796Y-77905611D01*
X103445074Y-78045074D01*
X103409869Y-78097762D01*
X102688632Y-78819000D01*
X102644649Y-78819000D01*
X102357599Y-78937900D01*
X102137900Y-79157599D01*
X102019000Y-79444649D01*
X91556000Y-79444649D01*
X91556000Y-74174486D01*
X109769000Y-74174486D01*
X109769000Y-74425514D01*
X109844000Y-74606580D01*
X109844000Y-75045247D01*
X109833109Y-75100000D01*
X109844000Y-75154753D01*
X109844000Y-75154757D01*
X109876260Y-75316939D01*
X109999147Y-75500853D01*
X110045569Y-75531871D01*
X110468130Y-75954433D01*
X110499147Y-76000853D01*
X110545567Y-76031870D01*
X110545568Y-76031871D01*
X110683059Y-76123740D01*
X110717847Y-76130660D01*
X110845242Y-76156000D01*
X110845246Y-76156000D01*
X110900000Y-76166891D01*
X110954754Y-76156000D01*
X125145247Y-76156000D01*
X125200000Y-76166891D01*
X125254753Y-76156000D01*
X125254758Y-76156000D01*
X125416940Y-76123740D01*
X125600853Y-76000853D01*
X125631872Y-75954430D01*
X127569000Y-74017303D01*
X127569000Y-74125514D01*
X127644001Y-74306582D01*
X127644000Y-75793420D01*
X127569000Y-75974486D01*
X127569000Y-76225514D01*
X127665064Y-76457433D01*
X127842567Y-76634936D01*
X128074486Y-76731000D01*
X128325514Y-76731000D01*
X128557433Y-76634936D01*
X128734936Y-76457433D01*
X128831000Y-76225514D01*
X128831000Y-75974486D01*
X128756000Y-75793420D01*
X128756000Y-74306580D01*
X128831000Y-74125514D01*
X128831000Y-74017303D01*
X128868130Y-74054433D01*
X128899147Y-74100853D01*
X128945567Y-74131870D01*
X128945568Y-74131871D01*
X129083059Y-74223740D01*
X129117847Y-74230660D01*
X129245242Y-74256000D01*
X129245246Y-74256000D01*
X129300000Y-74266891D01*
X129354754Y-74256000D01*
X132851631Y-74256000D01*
X132765064Y-74342567D01*
X132669000Y-74574486D01*
X132669000Y-74825514D01*
X132765064Y-75057433D01*
X132942567Y-75234936D01*
X133174486Y-75331000D01*
X133425514Y-75331000D01*
X133606580Y-75256000D01*
X134393420Y-75256000D01*
X134574486Y-75331000D01*
X134825514Y-75331000D01*
X135057433Y-75234936D01*
X135234936Y-75057433D01*
X135331000Y-74825514D01*
X135331000Y-74574486D01*
X135234936Y-74342567D01*
X135148369Y-74256000D01*
X135293420Y-74256000D01*
X135474486Y-74331000D01*
X135725514Y-74331000D01*
X135957433Y-74234936D01*
X136134936Y-74057433D01*
X136231000Y-73825514D01*
X136231000Y-73574486D01*
X136134936Y-73342567D01*
X136092369Y-73300000D01*
X136134936Y-73257433D01*
X136231000Y-73025514D01*
X136231000Y-72774486D01*
X136134936Y-72542567D01*
X135973369Y-72381000D01*
X150086767Y-72381000D01*
X150343749Y-72329883D01*
X150635165Y-72135165D01*
X150829883Y-71843749D01*
X150898259Y-71500000D01*
X150829883Y-71156251D01*
X150635165Y-70864835D01*
X150343749Y-70670117D01*
X150086767Y-70619000D01*
X124413233Y-70619000D01*
X124156251Y-70670117D01*
X123864835Y-70864835D01*
X123670117Y-71156251D01*
X123601741Y-71500000D01*
X123670117Y-71843749D01*
X123864835Y-72135165D01*
X124156251Y-72329883D01*
X124413233Y-72381000D01*
X126732698Y-72381000D01*
X125369698Y-73744000D01*
X111506580Y-73744000D01*
X111325514Y-73669000D01*
X111074486Y-73669000D01*
X110842567Y-73765064D01*
X110800000Y-73807631D01*
X110757433Y-73765064D01*
X110525514Y-73669000D01*
X110274486Y-73669000D01*
X110042567Y-73765064D01*
X109865064Y-73942567D01*
X109769000Y-74174486D01*
X91556000Y-74174486D01*
X91556000Y-62306580D01*
X91631000Y-62125514D01*
X91631000Y-61974486D01*
X106569000Y-61974486D01*
X106569000Y-62225514D01*
X106644001Y-62406582D01*
X106644000Y-67393420D01*
X106569000Y-67574486D01*
X106569000Y-67825514D01*
X106665064Y-68057433D01*
X106842567Y-68234936D01*
X107074486Y-68331000D01*
X107325514Y-68331000D01*
X107557433Y-68234936D01*
X107600000Y-68192369D01*
X107642567Y-68234936D01*
X107874486Y-68331000D01*
X108125514Y-68331000D01*
X108357433Y-68234936D01*
X108534936Y-68057433D01*
X108631000Y-67825514D01*
X108631000Y-67574486D01*
X108556000Y-67393420D01*
X108556000Y-67275030D01*
X130869000Y-67275030D01*
X130869000Y-67724970D01*
X131041184Y-68140660D01*
X131359340Y-68458816D01*
X131775030Y-68631000D01*
X132224970Y-68631000D01*
X132640660Y-68458816D01*
X132958816Y-68140660D01*
X133000000Y-68041233D01*
X133041184Y-68140660D01*
X133359340Y-68458816D01*
X133775030Y-68631000D01*
X134224970Y-68631000D01*
X134640660Y-68458816D01*
X134958816Y-68140660D01*
X135000000Y-68041233D01*
X135041184Y-68140660D01*
X135359340Y-68458816D01*
X135775030Y-68631000D01*
X136224970Y-68631000D01*
X136640660Y-68458816D01*
X136958816Y-68140660D01*
X137000000Y-68041233D01*
X137041184Y-68140660D01*
X137359340Y-68458816D01*
X137775030Y-68631000D01*
X138224970Y-68631000D01*
X138640660Y-68458816D01*
X138958816Y-68140660D01*
X139000000Y-68041233D01*
X139041184Y-68140660D01*
X139359340Y-68458816D01*
X139775030Y-68631000D01*
X140224970Y-68631000D01*
X140640660Y-68458816D01*
X140958816Y-68140660D01*
X141131000Y-67724970D01*
X141131000Y-67275030D01*
X142869000Y-67275030D01*
X142869000Y-67724970D01*
X143041184Y-68140660D01*
X143359340Y-68458816D01*
X143775030Y-68631000D01*
X144224970Y-68631000D01*
X144640660Y-68458816D01*
X144958816Y-68140660D01*
X145000000Y-68041233D01*
X145041184Y-68140660D01*
X145359340Y-68458816D01*
X145775030Y-68631000D01*
X146224970Y-68631000D01*
X146640660Y-68458816D01*
X146958816Y-68140660D01*
X147131000Y-67724970D01*
X147131000Y-67275030D01*
X150869000Y-67275030D01*
X150869000Y-67724970D01*
X151041184Y-68140660D01*
X151359340Y-68458816D01*
X151775030Y-68631000D01*
X152224970Y-68631000D01*
X152640660Y-68458816D01*
X152958816Y-68140660D01*
X153000000Y-68041233D01*
X153041184Y-68140660D01*
X153359340Y-68458816D01*
X153775030Y-68631000D01*
X154224970Y-68631000D01*
X154640660Y-68458816D01*
X154958816Y-68140660D01*
X155131000Y-67724970D01*
X155131000Y-67275030D01*
X155006511Y-66974486D01*
X179069000Y-66974486D01*
X179069000Y-67225514D01*
X179165064Y-67457433D01*
X179342567Y-67634936D01*
X179574486Y-67731000D01*
X179825514Y-67731000D01*
X180050000Y-67638015D01*
X180274486Y-67731000D01*
X180525514Y-67731000D01*
X180757433Y-67634936D01*
X180934936Y-67457433D01*
X181031000Y-67225514D01*
X181031000Y-66974486D01*
X180956000Y-66793420D01*
X180956000Y-55630302D01*
X181276365Y-55309937D01*
X181457433Y-55234936D01*
X181634936Y-55057433D01*
X181731000Y-54825514D01*
X181731000Y-54574486D01*
X181634936Y-54342567D01*
X181457433Y-54165064D01*
X181225514Y-54069000D01*
X180974486Y-54069000D01*
X180742567Y-54165064D01*
X180565064Y-54342567D01*
X180490063Y-54523635D01*
X180256000Y-54757698D01*
X180256000Y-53930302D01*
X181276365Y-52909937D01*
X181457433Y-52834936D01*
X181634936Y-52657433D01*
X181731000Y-52425514D01*
X181731000Y-52174486D01*
X181634936Y-51942567D01*
X181457433Y-51765064D01*
X181225514Y-51669000D01*
X180974486Y-51669000D01*
X180742567Y-51765064D01*
X180565064Y-51942567D01*
X180490063Y-52123635D01*
X179345570Y-53268128D01*
X179299147Y-53299147D01*
X179176260Y-53483061D01*
X179144000Y-53645243D01*
X179144000Y-53645247D01*
X179133109Y-53700000D01*
X179144000Y-53754753D01*
X179144001Y-66793418D01*
X179069000Y-66974486D01*
X155006511Y-66974486D01*
X154958816Y-66859340D01*
X154640660Y-66541184D01*
X154224970Y-66369000D01*
X153775030Y-66369000D01*
X153359340Y-66541184D01*
X153041184Y-66859340D01*
X153000000Y-66958767D01*
X152958816Y-66859340D01*
X152640660Y-66541184D01*
X152224970Y-66369000D01*
X151775030Y-66369000D01*
X151359340Y-66541184D01*
X151041184Y-66859340D01*
X150869000Y-67275030D01*
X147131000Y-67275030D01*
X146958816Y-66859340D01*
X146640660Y-66541184D01*
X146224970Y-66369000D01*
X145775030Y-66369000D01*
X145359340Y-66541184D01*
X145041184Y-66859340D01*
X145000000Y-66958767D01*
X144958816Y-66859340D01*
X144640660Y-66541184D01*
X144224970Y-66369000D01*
X143775030Y-66369000D01*
X143359340Y-66541184D01*
X143041184Y-66859340D01*
X142869000Y-67275030D01*
X141131000Y-67275030D01*
X140958816Y-66859340D01*
X140640660Y-66541184D01*
X140224970Y-66369000D01*
X139775030Y-66369000D01*
X139359340Y-66541184D01*
X139041184Y-66859340D01*
X139000000Y-66958767D01*
X138958816Y-66859340D01*
X138640660Y-66541184D01*
X138224970Y-66369000D01*
X137775030Y-66369000D01*
X137359340Y-66541184D01*
X137041184Y-66859340D01*
X137000000Y-66958767D01*
X136958816Y-66859340D01*
X136640660Y-66541184D01*
X136224970Y-66369000D01*
X135775030Y-66369000D01*
X135359340Y-66541184D01*
X135041184Y-66859340D01*
X135000000Y-66958767D01*
X134958816Y-66859340D01*
X134640660Y-66541184D01*
X134224970Y-66369000D01*
X133775030Y-66369000D01*
X133359340Y-66541184D01*
X133041184Y-66859340D01*
X133000000Y-66958767D01*
X132958816Y-66859340D01*
X132640660Y-66541184D01*
X132224970Y-66369000D01*
X131775030Y-66369000D01*
X131359340Y-66541184D01*
X131041184Y-66859340D01*
X130869000Y-67275030D01*
X108556000Y-67275030D01*
X108556000Y-62406580D01*
X108631000Y-62225514D01*
X108631000Y-61974486D01*
X108534936Y-61742567D01*
X108357433Y-61565064D01*
X108125514Y-61469000D01*
X107874486Y-61469000D01*
X107642567Y-61565064D01*
X107600000Y-61607631D01*
X107557433Y-61565064D01*
X107325514Y-61469000D01*
X107074486Y-61469000D01*
X106842567Y-61565064D01*
X106665064Y-61742567D01*
X106569000Y-61974486D01*
X91631000Y-61974486D01*
X91631000Y-61874486D01*
X91534936Y-61642567D01*
X91357433Y-61465064D01*
X91125514Y-61369000D01*
X90874486Y-61369000D01*
X90642567Y-61465064D01*
X90500000Y-61607631D01*
X90357433Y-61465064D01*
X90125514Y-61369000D01*
X89874486Y-61369000D01*
X89642567Y-61465064D01*
X89500000Y-61607631D01*
X89357433Y-61465064D01*
X89125514Y-61369000D01*
X88874486Y-61369000D01*
X88642567Y-61465064D01*
X88500000Y-61607631D01*
X88357433Y-61465064D01*
X88125514Y-61369000D01*
X87874486Y-61369000D01*
X87642567Y-61465064D01*
X87465064Y-61642567D01*
X87369000Y-61874486D01*
X69060789Y-61874486D01*
X68931872Y-61745570D01*
X68900853Y-61699147D01*
X68716940Y-61576260D01*
X68554758Y-61544000D01*
X68554753Y-61544000D01*
X68500000Y-61533109D01*
X68445247Y-61544000D01*
X67330303Y-61544000D01*
X66109937Y-60323634D01*
X66034936Y-60142567D01*
X65857433Y-59965064D01*
X65625514Y-59869000D01*
X65374486Y-59869000D01*
X65193420Y-59944000D01*
X63330302Y-59944000D01*
X60331872Y-56945570D01*
X60300853Y-56899147D01*
X60116940Y-56776260D01*
X59954758Y-56744000D01*
X59954753Y-56744000D01*
X59900000Y-56733109D01*
X59845247Y-56744000D01*
X57530303Y-56744000D01*
X56909937Y-56123634D01*
X56856000Y-55993420D01*
X56856000Y-55554752D01*
X56866891Y-55499999D01*
X56856000Y-55445246D01*
X56856000Y-55445242D01*
X56823740Y-55283060D01*
X56782827Y-55221829D01*
X56731871Y-55145568D01*
X56731870Y-55145567D01*
X56700853Y-55099147D01*
X56654433Y-55068130D01*
X53331872Y-51745570D01*
X53300853Y-51699147D01*
X53116940Y-51576260D01*
X52954758Y-51544000D01*
X52954753Y-51544000D01*
X52900000Y-51533109D01*
X52845247Y-51544000D01*
X50830302Y-51544000D01*
X48931872Y-49645570D01*
X48900853Y-49599147D01*
X48716940Y-49476260D01*
X48554758Y-49444000D01*
X48554753Y-49444000D01*
X48500000Y-49433109D01*
X48445247Y-49444000D01*
X45930303Y-49444000D01*
X45709936Y-49223634D01*
X45634936Y-49042567D01*
X45457433Y-48865064D01*
X45276365Y-48790063D01*
X43731872Y-47245570D01*
X43700853Y-47199147D01*
X43516940Y-47076260D01*
X43354758Y-47044000D01*
X43354753Y-47044000D01*
X43300000Y-47033109D01*
X43245247Y-47044000D01*
X41230303Y-47044000D01*
X39609937Y-45423634D01*
X39534936Y-45242567D01*
X39357433Y-45065064D01*
X39125514Y-44969000D01*
X38874486Y-44969000D01*
X38693420Y-45044000D01*
X36130303Y-45044000D01*
X32531872Y-41445570D01*
X32500853Y-41399147D01*
X32316940Y-41276260D01*
X32154758Y-41244000D01*
X32154753Y-41244000D01*
X32100000Y-41233109D01*
X32045247Y-41244000D01*
X31706580Y-41244000D01*
X31525514Y-41169000D01*
X31274486Y-41169000D01*
X31042567Y-41265064D01*
X30865064Y-41442567D01*
X30769000Y-41674486D01*
X30769000Y-41925514D01*
X30865064Y-42157433D01*
X31042567Y-42334936D01*
X31274486Y-42431000D01*
X31525514Y-42431000D01*
X31706580Y-42356000D01*
X31869698Y-42356000D01*
X35363293Y-45849596D01*
X34978346Y-45734785D01*
X32876103Y-43447625D01*
X32813389Y-43378203D01*
X32767872Y-43356584D01*
X32727183Y-43326845D01*
X32682281Y-43315931D01*
X32640542Y-43296106D01*
X32590208Y-43293551D01*
X32541244Y-43281649D01*
X32448857Y-43296013D01*
X30479791Y-43584809D01*
X30479791Y-41626558D01*
X31794971Y-40064691D01*
X31851275Y-40005038D01*
X31873347Y-39947074D01*
X31903278Y-39892740D01*
X31907093Y-39858450D01*
X31919370Y-39826210D01*
X31917580Y-39764208D01*
X31924439Y-39702561D01*
X31901620Y-39623762D01*
X31446957Y-37639225D01*
X32185017Y-37125846D01*
X35619000Y-37125846D01*
X35619000Y-37874154D01*
X35905365Y-38565501D01*
X36434499Y-39094635D01*
X37125846Y-39381000D01*
X37874154Y-39381000D01*
X38565501Y-39094635D01*
X39094635Y-38565501D01*
X39381000Y-37874154D01*
X39381000Y-37125846D01*
X39094635Y-36434499D01*
X38565501Y-35905365D01*
X37874154Y-35619000D01*
X37125846Y-35619000D01*
X36434499Y-35905365D01*
X35905365Y-36434499D01*
X35619000Y-37125846D01*
X32185017Y-37125846D01*
X32403667Y-36973758D01*
X32438787Y-36960233D01*
X32481474Y-36919637D01*
X32490195Y-36913571D01*
X32515767Y-36887024D01*
X32577448Y-36828365D01*
X32581872Y-36818399D01*
X32589439Y-36810544D01*
X32620548Y-36731278D01*
X32635491Y-36697617D01*
X32637822Y-36687263D01*
X32659347Y-36632417D01*
X32658643Y-36594783D01*
X33169686Y-34324912D01*
X34316999Y-34399273D01*
X34404742Y-34407719D01*
X34458178Y-34391381D01*
X34513576Y-34384047D01*
X34548808Y-34363671D01*
X34587733Y-34351770D01*
X34630855Y-34316221D01*
X34679222Y-34288249D01*
X34732823Y-34218291D01*
X36818424Y-31665522D01*
X39142111Y-32192037D01*
X40140599Y-33762192D01*
X40146686Y-33784459D01*
X40191572Y-33842349D01*
X40204969Y-33863416D01*
X40220538Y-33879706D01*
X40263939Y-33935681D01*
X40286143Y-33948351D01*
X40303807Y-33966834D01*
X40368621Y-33995416D01*
X40388186Y-34006580D01*
X40411860Y-34014483D01*
X40478892Y-34044043D01*
X40501972Y-34044566D01*
X42198652Y-34610978D01*
X42218882Y-34625266D01*
X42288733Y-34641050D01*
X42310846Y-34648432D01*
X42334835Y-34651467D01*
X42358417Y-34656796D01*
X42381718Y-34657399D01*
X42452767Y-34666389D01*
X42476659Y-34659858D01*
X44169770Y-34703696D01*
X46025548Y-36080612D01*
X46068679Y-36123528D01*
X46145630Y-36155176D01*
X46220862Y-36190777D01*
X46233736Y-36191412D01*
X46245650Y-36196312D01*
X46328855Y-36196104D01*
X46411984Y-36200204D01*
X46424118Y-36195865D01*
X46437002Y-36195833D01*
X46513786Y-36163802D01*
X46592164Y-36135776D01*
X46601717Y-36127121D01*
X46613605Y-36122162D01*
X46672292Y-36063181D01*
X46733974Y-36007298D01*
X46739485Y-35995651D01*
X46748574Y-35986517D01*
X46780224Y-35909561D01*
X46815823Y-35834333D01*
X46818821Y-35773554D01*
X47174020Y-33964170D01*
X48289393Y-32967662D01*
X49810393Y-33469777D01*
X49850653Y-33492977D01*
X49900365Y-33499479D01*
X49902106Y-33500054D01*
X49947325Y-33505621D01*
X50040389Y-33517794D01*
X50042211Y-33517304D01*
X50044087Y-33517535D01*
X50134486Y-33492497D01*
X50225181Y-33468115D01*
X50226681Y-33466962D01*
X50228497Y-33466459D01*
X50302467Y-33408708D01*
X50338599Y-33380935D01*
X50339806Y-33379557D01*
X50379326Y-33348702D01*
X50402222Y-33308264D01*
X52823623Y-30542536D01*
X56362752Y-31429709D01*
X56399917Y-31448552D01*
X56454671Y-31452751D01*
X56461086Y-31454359D01*
X56501854Y-31456369D01*
X56542550Y-31459490D01*
X56549116Y-31458700D01*
X56603965Y-31461404D01*
X56643202Y-31447372D01*
X64617387Y-30487356D01*
X78334655Y-31377085D01*
X78363523Y-31387099D01*
X78429333Y-31383226D01*
X78446914Y-31384366D01*
X78476514Y-31380449D01*
X78506328Y-31378694D01*
X78523380Y-31374246D01*
X78588730Y-31365598D01*
X78615179Y-31350303D01*
X81930950Y-30485483D01*
X88601688Y-30485483D01*
X90737644Y-35909259D01*
X90737644Y-35909259D01*
G37*
X90737644Y-35909259D02*
X90214265Y-39779865D01*
X90206613Y-39795415D01*
X90201520Y-39874124D01*
X90197420Y-39904442D01*
X90198466Y-39921308D01*
X90194256Y-39986368D01*
X90204339Y-40015990D01*
X90206276Y-40047220D01*
X90234908Y-40105795D01*
X90240352Y-40121790D01*
X90255667Y-40148265D01*
X90290308Y-40219135D01*
X90303300Y-40230609D01*
X91751931Y-42734889D01*
X92413812Y-45398413D01*
X92432372Y-45526457D01*
X92423740Y-45483060D01*
X92423740Y-45483059D01*
X92331871Y-45345568D01*
X92331870Y-45345567D01*
X92300853Y-45299147D01*
X92254434Y-45268131D01*
X90856000Y-43869698D01*
X90856000Y-43306580D01*
X90931000Y-43125514D01*
X90931000Y-42874486D01*
X90834936Y-42642567D01*
X90657433Y-42465064D01*
X90476365Y-42390063D01*
X89956000Y-41869698D01*
X89956000Y-35254752D01*
X89966891Y-35199999D01*
X89956000Y-35145246D01*
X89956000Y-35145242D01*
X89923740Y-34983060D01*
X89800853Y-34799147D01*
X89754431Y-34768129D01*
X88756000Y-33769698D01*
X88756000Y-33606580D01*
X88831000Y-33425514D01*
X88831000Y-33174486D01*
X88734936Y-32942567D01*
X88557433Y-32765064D01*
X88325514Y-32669000D01*
X88074486Y-32669000D01*
X87842567Y-32765064D01*
X87665064Y-32942567D01*
X87569000Y-33174486D01*
X87569000Y-33425514D01*
X87644000Y-33606580D01*
X87644000Y-33945247D01*
X87633109Y-34000000D01*
X87644000Y-34054753D01*
X87644000Y-34054758D01*
X87665828Y-34164491D01*
X87676261Y-34216940D01*
X87768129Y-34354431D01*
X87768131Y-34354433D01*
X87799148Y-34400853D01*
X87845568Y-34431870D01*
X88844000Y-35430302D01*
X88844001Y-42045242D01*
X88833109Y-42100000D01*
X88876261Y-42316940D01*
X88968129Y-42454431D01*
X88968131Y-42454433D01*
X88999148Y-42500853D01*
X89045568Y-42531870D01*
X89690063Y-43176365D01*
X89744000Y-43306581D01*
X89744001Y-44045243D01*
X89733109Y-44100000D01*
X89776261Y-44316940D01*
X89868129Y-44454431D01*
X89868131Y-44454433D01*
X89899148Y-44500853D01*
X89945568Y-44531870D01*
X91344000Y-45930303D01*
X91344001Y-52593418D01*
X91269000Y-52774486D01*
X91269000Y-53025514D01*
X91344000Y-53206580D01*
X91344001Y-54945242D01*
X91333109Y-55000000D01*
X91344001Y-55054758D01*
X91365190Y-55161281D01*
X91376261Y-55216940D01*
X91468129Y-55354431D01*
X91468131Y-55354433D01*
X91499148Y-55400853D01*
X91545568Y-55431870D01*
X93668130Y-57554433D01*
X93699147Y-57600853D01*
X93745567Y-57631870D01*
X93745568Y-57631871D01*
X93761739Y-57642676D01*
X93883060Y-57723740D01*
X94045242Y-57756000D01*
X94045247Y-57756000D01*
X94100000Y-57766891D01*
X94154753Y-57756000D01*
X95445247Y-57756000D01*
X95500000Y-57766891D01*
X95554753Y-57756000D01*
X95554758Y-57756000D01*
X95716940Y-57723740D01*
X95900853Y-57600853D01*
X95931872Y-57554430D01*
X97154434Y-56331869D01*
X97200853Y-56300853D01*
X97231871Y-56254432D01*
X97323740Y-56116941D01*
X97366892Y-55900000D01*
X97356000Y-55845242D01*
X97356000Y-51754752D01*
X97366891Y-51699999D01*
X97356000Y-51645246D01*
X97356000Y-51645242D01*
X97323740Y-51483060D01*
X97200853Y-51299147D01*
X97154430Y-51268128D01*
X96956000Y-51069698D01*
X96956000Y-46930302D01*
X97676367Y-46209936D01*
X97857433Y-46134936D01*
X98034936Y-45957433D01*
X98131000Y-45725514D01*
X98131000Y-45474486D01*
X98056000Y-45293420D01*
X98056000Y-42954752D01*
X98066891Y-42899999D01*
X98056000Y-42845246D01*
X98056000Y-42845242D01*
X98023740Y-42683060D01*
X97900853Y-42499147D01*
X97854430Y-42468128D01*
X96856000Y-41469698D01*
X96856000Y-37530302D01*
X97576367Y-36809936D01*
X97757433Y-36734936D01*
X97934936Y-36557433D01*
X98031000Y-36325514D01*
X98031000Y-36074486D01*
X97956000Y-35893420D01*
X97956000Y-33954752D01*
X97966891Y-33899999D01*
X97956000Y-33845246D01*
X97956000Y-33845242D01*
X97923740Y-33683060D01*
X97800853Y-33499147D01*
X97754430Y-33468128D01*
X97256000Y-32969698D01*
X97256000Y-31206580D01*
X97331000Y-31025514D01*
X97331000Y-30774486D01*
X97234936Y-30542567D01*
X97177852Y-30485483D01*
X99389803Y-30485483D01*
X106742756Y-31822534D01*
X106785317Y-31831000D01*
X106789313Y-31831000D01*
X106793245Y-31831715D01*
X106836635Y-31831000D01*
X110311220Y-31831000D01*
X112397585Y-32825572D01*
X112406579Y-32834583D01*
X112483558Y-32866556D01*
X112515216Y-32881647D01*
X112527236Y-32884697D01*
X112583296Y-32907981D01*
X112619137Y-32908015D01*
X112653874Y-32916829D01*
X112713944Y-32908105D01*
X112726348Y-32908117D01*
X112760757Y-32901307D01*
X112843241Y-32889328D01*
X112854181Y-32882816D01*
X124950591Y-30488703D01*
X134754325Y-31156927D01*
X134800259Y-31160079D01*
X134800364Y-31160065D01*
X134800475Y-31160073D01*
X134847417Y-31154017D01*
X140048300Y-30485483D01*
X142465919Y-30485483D01*
X142315928Y-30946986D01*
X140799940Y-32972781D01*
X137778001Y-34855625D01*
X137716550Y-34884719D01*
X137665457Y-34941137D01*
X137609967Y-34993201D01*
X137581969Y-35055140D01*
X136456000Y-36935449D01*
X136456000Y-35630302D01*
X138930303Y-33156000D01*
X139093420Y-33156000D01*
X139274486Y-33231000D01*
X139525514Y-33231000D01*
X139757433Y-33134936D01*
X139934936Y-32957433D01*
X140031000Y-32725514D01*
X140031000Y-32474486D01*
X139934936Y-32242567D01*
X139757433Y-32065064D01*
X139525514Y-31969000D01*
X139274486Y-31969000D01*
X139093420Y-32044000D01*
X138754753Y-32044000D01*
X138700000Y-32033109D01*
X138645247Y-32044000D01*
X138645242Y-32044000D01*
X138483060Y-32076260D01*
X138451988Y-32097022D01*
X138345568Y-32168129D01*
X138345567Y-32168130D01*
X138299147Y-32199147D01*
X138268130Y-32245567D01*
X135545570Y-34968128D01*
X135499147Y-34999147D01*
X135376260Y-35183061D01*
X135344000Y-35345243D01*
X135344000Y-35345247D01*
X135333109Y-35400000D01*
X135344000Y-35454753D01*
X135344001Y-41069697D01*
X134823635Y-41590063D01*
X134642567Y-41665064D01*
X134465064Y-41842567D01*
X134390064Y-42023633D01*
X131945570Y-44468128D01*
X131899147Y-44499147D01*
X131776260Y-44683061D01*
X131744000Y-44845243D01*
X131744000Y-44845247D01*
X131733109Y-44900000D01*
X131744000Y-44954753D01*
X131744001Y-48569696D01*
X131323634Y-48990064D01*
X131142567Y-49065064D01*
X130965064Y-49242567D01*
X130869000Y-49474486D01*
X130869000Y-49725514D01*
X130944000Y-49906580D01*
X130944000Y-49969698D01*
X129645570Y-51268128D01*
X129599147Y-51299147D01*
X129476260Y-51483061D01*
X129444000Y-51645243D01*
X129444000Y-51645247D01*
X129433109Y-51700000D01*
X129444000Y-51754753D01*
X129444001Y-53469696D01*
X125845570Y-57068128D01*
X125799147Y-57099147D01*
X125676260Y-57283061D01*
X125644000Y-57445243D01*
X125644000Y-57445247D01*
X125633109Y-57500000D01*
X125644000Y-57554753D01*
X125644001Y-60345242D01*
X125633109Y-60400000D01*
X125676261Y-60616940D01*
X125768129Y-60754431D01*
X125768131Y-60754433D01*
X125799148Y-60800853D01*
X125845567Y-60831870D01*
X126368130Y-61354433D01*
X126399147Y-61400853D01*
X126445567Y-61431870D01*
X126445568Y-61431871D01*
X126495245Y-61465064D01*
X126583060Y-61523740D01*
X126745242Y-61556000D01*
X126745246Y-61556000D01*
X126799999Y-61566891D01*
X126854752Y-61556000D01*
X128145247Y-61556000D01*
X128200000Y-61566891D01*
X128254753Y-61556000D01*
X128254758Y-61556000D01*
X128416940Y-61523740D01*
X128600853Y-61400853D01*
X128631872Y-61354430D01*
X129441653Y-60544649D01*
X171619000Y-60544649D01*
X171619000Y-60855351D01*
X171737900Y-61142401D01*
X171769000Y-61173501D01*
X171769001Y-65026498D01*
X171737900Y-65057599D01*
X171619000Y-65344649D01*
X171619000Y-65655351D01*
X171737900Y-65942401D01*
X171957599Y-66162100D01*
X172244649Y-66281000D01*
X172555351Y-66281000D01*
X172842401Y-66162100D01*
X173062100Y-65942401D01*
X173181000Y-65655351D01*
X173181000Y-65344649D01*
X173062100Y-65057599D01*
X173031000Y-65026499D01*
X173031000Y-61173501D01*
X173062100Y-61142401D01*
X173181000Y-60855351D01*
X173181000Y-60544649D01*
X173062100Y-60257599D01*
X172842401Y-60037900D01*
X172555351Y-59919000D01*
X172244649Y-59919000D01*
X171957599Y-60037900D01*
X171737900Y-60257599D01*
X171619000Y-60544649D01*
X129441653Y-60544649D01*
X134230303Y-55756000D01*
X134993420Y-55756000D01*
X135174486Y-55831000D01*
X135425514Y-55831000D01*
X135657433Y-55734936D01*
X135834936Y-55557433D01*
X135931000Y-55325514D01*
X135931000Y-55074486D01*
X135856000Y-54893420D01*
X135856000Y-52430302D01*
X137230303Y-51056000D01*
X137793420Y-51056000D01*
X137974486Y-51131000D01*
X138225514Y-51131000D01*
X138457433Y-51034936D01*
X138634936Y-50857433D01*
X138709936Y-50676366D01*
X139254433Y-50131869D01*
X139300853Y-50100853D01*
X139336942Y-50046843D01*
X139390364Y-49966891D01*
X139423740Y-49916940D01*
X139456000Y-49754758D01*
X139456000Y-49754753D01*
X139466891Y-49700000D01*
X139456000Y-49645247D01*
X139456000Y-49430302D01*
X140490211Y-48396092D01*
X140574486Y-48431000D01*
X140825514Y-48431000D01*
X141006580Y-48356000D01*
X141245247Y-48356000D01*
X141300000Y-48366891D01*
X141354753Y-48356000D01*
X141354758Y-48356000D01*
X141516940Y-48323740D01*
X141700853Y-48200853D01*
X141731872Y-48154430D01*
X142454433Y-47431869D01*
X142500853Y-47400853D01*
X142532371Y-47353684D01*
X142590364Y-47266891D01*
X142623740Y-47216940D01*
X142656000Y-47054758D01*
X142656000Y-47054753D01*
X142666891Y-47000000D01*
X142656000Y-46945247D01*
X142656000Y-42930302D01*
X144054434Y-41531869D01*
X144100853Y-41500853D01*
X144165805Y-41403646D01*
X144223740Y-41316941D01*
X144234401Y-41263342D01*
X144256000Y-41154758D01*
X144256000Y-41154754D01*
X144266891Y-41100000D01*
X144256000Y-41045246D01*
X144256000Y-38030302D01*
X144776365Y-37509937D01*
X144957433Y-37434936D01*
X145134936Y-37257433D01*
X145189441Y-37125846D01*
X177219000Y-37125846D01*
X177219000Y-37874154D01*
X177505365Y-38565501D01*
X178034499Y-39094635D01*
X178725846Y-39381000D01*
X179474154Y-39381000D01*
X180165501Y-39094635D01*
X180694635Y-38565501D01*
X180981000Y-37874154D01*
X180981000Y-37125846D01*
X180694635Y-36434499D01*
X180165501Y-35905365D01*
X179474154Y-35619000D01*
X178725846Y-35619000D01*
X178034499Y-35905365D01*
X177505365Y-36434499D01*
X177219000Y-37125846D01*
X145189441Y-37125846D01*
X145209937Y-37076365D01*
X146930302Y-35356000D01*
X147345247Y-35356000D01*
X147400000Y-35366891D01*
X147454753Y-35356000D01*
X147454758Y-35356000D01*
X147616940Y-35323740D01*
X147800853Y-35200853D01*
X147831872Y-35154430D01*
X151676367Y-31309936D01*
X151857433Y-31234936D01*
X152034936Y-31057433D01*
X152131000Y-30825514D01*
X152131000Y-30574486D01*
X152094134Y-30485483D01*
X152548172Y-30485483D01*
X162072655Y-31519012D01*
X162076362Y-31520961D01*
X162167589Y-31529314D01*
X162210703Y-31533992D01*
X162214763Y-31533633D01*
X162218818Y-31534004D01*
X162261900Y-31529462D01*
X162353199Y-31521383D01*
X162356914Y-31519444D01*
X171978620Y-30505003D01*
X174330107Y-32581246D01*
X174348317Y-32608578D01*
X174401190Y-32644008D01*
X174412711Y-32654181D01*
X174440495Y-32670347D01*
X174507280Y-32715100D01*
X174522729Y-32718195D01*
X174536357Y-32726124D01*
X174616063Y-32736890D01*
X174694906Y-32752683D01*
X174710370Y-32749628D01*
X174725988Y-32751738D01*
X174803722Y-32731190D01*
X174835246Y-32724963D01*
X174849450Y-32719102D01*
X174910987Y-32702835D01*
X174937112Y-32682928D01*
X177190330Y-31753141D01*
X179179480Y-32251575D01*
X179214358Y-32262025D01*
X179225355Y-32263070D01*
X179236066Y-32265754D01*
X179272420Y-32267543D01*
X181959196Y-32522894D01*
X182779387Y-33731893D01*
X182806618Y-33787443D01*
X182868268Y-33841768D01*
X182926813Y-33899496D01*
X182939728Y-33904739D01*
X182950184Y-33913953D01*
X183027958Y-33940560D01*
X183104112Y-33971477D01*
X183165981Y-33971042D01*
X184545959Y-34156049D01*
X185273678Y-35510165D01*
X186217218Y-39087650D01*
X186226768Y-39154643D01*
X186265672Y-39220395D01*
X186299203Y-39289067D01*
X186314092Y-39302228D01*
X186324210Y-39319328D01*
X186385326Y-39365195D01*
X186442574Y-39415798D01*
X186506569Y-39437803D01*
X188358851Y-40326759D01*
X189517952Y-43195951D01*
X189517951Y-47577082D01*
X187656011Y-52541537D01*
X187625291Y-52600584D01*
X187618553Y-52677817D01*
X187606014Y-52754315D01*
X187621202Y-52819114D01*
X189512950Y-70053633D01*
X188395339Y-75913330D01*
X188376886Y-76004278D01*
X188386672Y-76054477D01*
X188387075Y-76105621D01*
X188423269Y-76191088D01*
X189429227Y-78646231D01*
X188808517Y-81095157D01*
X188793572Y-81121312D01*
X188785206Y-81187126D01*
X188780773Y-81204618D01*
X188779246Y-81234018D01*
X188775534Y-81263223D01*
X188776795Y-81281224D01*
X188773354Y-81347477D01*
X188783423Y-81375868D01*
X189517952Y-91863828D01*
X189517951Y-95408532D01*
X187772573Y-96305249D01*
X184436283Y-95256000D01*
X186123049Y-95256000D01*
X186165064Y-95357433D01*
X186342567Y-95534936D01*
X186574486Y-95631000D01*
X186825514Y-95631000D01*
X187057433Y-95534936D01*
X187234936Y-95357433D01*
X187331000Y-95125514D01*
X187331000Y-94874486D01*
X187234936Y-94642567D01*
X187057433Y-94465064D01*
X186876365Y-94390063D01*
X186831872Y-94345570D01*
X186800853Y-94299147D01*
X186616940Y-94176260D01*
X186454758Y-94144000D01*
X186454753Y-94144000D01*
X186400000Y-94133109D01*
X186345247Y-94144000D01*
X183354753Y-94144000D01*
X183300000Y-94133109D01*
X183245247Y-94144000D01*
X183245242Y-94144000D01*
X183083060Y-94176260D01*
X183083058Y-94176261D01*
X183083059Y-94176261D01*
X182945568Y-94268129D01*
X182945567Y-94268130D01*
X182899147Y-94299147D01*
X182868130Y-94345567D01*
X180580500Y-96633197D01*
X180501832Y-96600612D01*
X180500853Y-96599147D01*
X180316940Y-96476260D01*
X180154758Y-96444000D01*
X180154753Y-96444000D01*
X180100000Y-96433109D01*
X180045247Y-96444000D01*
X175806580Y-96444000D01*
X175625514Y-96369000D01*
X175374486Y-96369000D01*
X175193420Y-96444000D01*
X174454752Y-96444000D01*
X174399999Y-96433109D01*
X174345246Y-96444000D01*
X174345242Y-96444000D01*
X174183060Y-96476260D01*
X174121829Y-96517173D01*
X174045568Y-96568129D01*
X174045567Y-96568130D01*
X173999147Y-96599147D01*
X173968130Y-96645567D01*
X172469698Y-98144000D01*
X169654752Y-98144000D01*
X169599999Y-98133109D01*
X169545246Y-98144000D01*
X169545242Y-98144000D01*
X169383060Y-98176260D01*
X169199147Y-98299147D01*
X169168129Y-98345569D01*
X166469698Y-101044000D01*
X165706580Y-101044000D01*
X165525514Y-100969000D01*
X165274486Y-100969000D01*
X165042567Y-101065064D01*
X164865064Y-101242567D01*
X164790064Y-101423633D01*
X163569698Y-102644000D01*
X162506580Y-102644000D01*
X162325514Y-102569000D01*
X162074486Y-102569000D01*
X161842567Y-102665064D01*
X161665064Y-102842567D01*
X161590063Y-103023635D01*
X161069698Y-103544000D01*
X157406580Y-103544000D01*
X157225514Y-103469000D01*
X156974486Y-103469000D01*
X156793420Y-103544000D01*
X154854752Y-103544000D01*
X154799999Y-103533109D01*
X154745246Y-103544000D01*
X154745242Y-103544000D01*
X154583060Y-103576260D01*
X154583058Y-103576261D01*
X154583059Y-103576261D01*
X154445568Y-103668129D01*
X154445567Y-103668130D01*
X154399147Y-103699147D01*
X154368130Y-103745567D01*
X151169698Y-106944000D01*
X149106580Y-106944000D01*
X148925514Y-106869000D01*
X148674486Y-106869000D01*
X148493420Y-106944000D01*
X147554752Y-106944000D01*
X147499999Y-106933109D01*
X147445246Y-106944000D01*
X147445242Y-106944000D01*
X147283060Y-106976260D01*
X147099147Y-107099147D01*
X147068129Y-107145569D01*
X145769698Y-108444000D01*
X141254752Y-108444000D01*
X141199999Y-108433109D01*
X141145246Y-108444000D01*
X141145242Y-108444000D01*
X140983060Y-108476260D01*
X140799147Y-108599147D01*
X140768129Y-108645569D01*
X138369698Y-111044000D01*
X136806580Y-111044000D01*
X136625514Y-110969000D01*
X136374486Y-110969000D01*
X136142567Y-111065064D01*
X135965064Y-111242567D01*
X135890064Y-111423633D01*
X134669698Y-112644000D01*
X129454752Y-112644000D01*
X129399999Y-112633109D01*
X129345246Y-112644000D01*
X129345242Y-112644000D01*
X129183060Y-112676260D01*
X128999147Y-112799147D01*
X128968129Y-112845569D01*
X127969698Y-113844000D01*
X126606580Y-113844000D01*
X126425514Y-113769000D01*
X126174486Y-113769000D01*
X125993420Y-113844000D01*
X124954758Y-113844000D01*
X124900000Y-113833108D01*
X124683059Y-113876260D01*
X124545568Y-113968129D01*
X124545567Y-113968130D01*
X124499147Y-113999147D01*
X124468130Y-114045567D01*
X123545570Y-114968128D01*
X123499147Y-114999147D01*
X123376260Y-115183061D01*
X123344000Y-115345243D01*
X123344000Y-115345247D01*
X123333109Y-115400000D01*
X123344000Y-115454753D01*
X123344001Y-116545243D01*
X123333109Y-116600000D01*
X123376261Y-116816940D01*
X123468129Y-116954431D01*
X123468131Y-116954433D01*
X123499148Y-117000853D01*
X123545568Y-117031870D01*
X124568130Y-118054433D01*
X124599147Y-118100853D01*
X124645567Y-118131870D01*
X124645568Y-118131871D01*
X124650320Y-118135046D01*
X124783060Y-118223740D01*
X124945242Y-118256000D01*
X124945247Y-118256000D01*
X125000000Y-118266891D01*
X125054753Y-118256000D01*
X125769698Y-118256000D01*
X126468128Y-118954430D01*
X126499147Y-119000853D01*
X126683060Y-119123740D01*
X126845242Y-119156000D01*
X126845246Y-119156000D01*
X126899999Y-119166891D01*
X126954752Y-119156000D01*
X128445247Y-119156000D01*
X128500000Y-119166891D01*
X128554753Y-119156000D01*
X128554758Y-119156000D01*
X128716940Y-119123740D01*
X128900853Y-119000853D01*
X128931872Y-118954430D01*
X129130302Y-118756000D01*
X133193420Y-118756000D01*
X133374486Y-118831000D01*
X133625514Y-118831000D01*
X133857433Y-118734936D01*
X134034936Y-118557433D01*
X134109937Y-118376365D01*
X134930302Y-117556000D01*
X138045247Y-117556000D01*
X138100000Y-117566891D01*
X138154753Y-117556000D01*
X138154758Y-117556000D01*
X138316940Y-117523740D01*
X138500853Y-117400853D01*
X138531872Y-117354430D01*
X139830302Y-116056000D01*
X145493420Y-116056000D01*
X145674486Y-116131000D01*
X145925514Y-116131000D01*
X146157433Y-116034936D01*
X146334936Y-115857433D01*
X146376951Y-115756000D01*
X154493420Y-115756000D01*
X154674486Y-115831000D01*
X154925514Y-115831000D01*
X155106580Y-115756000D01*
X155645247Y-115756000D01*
X155700000Y-115766891D01*
X155754753Y-115756000D01*
X155754758Y-115756000D01*
X155916940Y-115723740D01*
X156100853Y-115600853D01*
X156131872Y-115554430D01*
X157630303Y-114056000D01*
X159645247Y-114056000D01*
X159700000Y-114066891D01*
X159754753Y-114056000D01*
X159754758Y-114056000D01*
X159916940Y-114023740D01*
X160100853Y-113900853D01*
X160131872Y-113854430D01*
X162030302Y-111956000D01*
X165593420Y-111956000D01*
X165774486Y-112031000D01*
X166025514Y-112031000D01*
X166257433Y-111934936D01*
X166434936Y-111757433D01*
X166509937Y-111576366D01*
X168130303Y-109956000D01*
X173193420Y-109956000D01*
X173374486Y-110031000D01*
X173625514Y-110031000D01*
X173806580Y-109956000D01*
X178245247Y-109956000D01*
X178300000Y-109966891D01*
X178354753Y-109956000D01*
X178354758Y-109956000D01*
X178516940Y-109923740D01*
X178700853Y-109800853D01*
X178731872Y-109754430D01*
X181130302Y-107356000D01*
X182893420Y-107356000D01*
X183074486Y-107431000D01*
X183325514Y-107431000D01*
X183506580Y-107356000D01*
X186469698Y-107356000D01*
X187903908Y-108790210D01*
X187869000Y-108874486D01*
X187869000Y-109125514D01*
X187965064Y-109357433D01*
X188142567Y-109534936D01*
X188374486Y-109631000D01*
X188625514Y-109631000D01*
X188857433Y-109534936D01*
X189034936Y-109357433D01*
X189131000Y-109125514D01*
X189131000Y-108874486D01*
X189056000Y-108693420D01*
X189056000Y-108654752D01*
X189066891Y-108599999D01*
X189056000Y-108545246D01*
X189056000Y-108545243D01*
X189023740Y-108383060D01*
X188900853Y-108199147D01*
X188854430Y-108168128D01*
X187131872Y-106445570D01*
X187100853Y-106399147D01*
X186916940Y-106276260D01*
X186754758Y-106244000D01*
X186754753Y-106244000D01*
X186700000Y-106233109D01*
X186645247Y-106244000D01*
X183506580Y-106244000D01*
X183325514Y-106169000D01*
X183074486Y-106169000D01*
X182893420Y-106244000D01*
X180954752Y-106244000D01*
X180899999Y-106233109D01*
X180845246Y-106244000D01*
X180845242Y-106244000D01*
X180683060Y-106276260D01*
X180499147Y-106399147D01*
X180468128Y-106445570D01*
X179489376Y-107424322D01*
X180498844Y-106090037D01*
X185431064Y-104768690D01*
X189517952Y-108043861D01*
X189517951Y-122573780D01*
X188281278Y-123002072D01*
X188240909Y-123006341D01*
X188191732Y-123033084D01*
X188184472Y-123035598D01*
X188150153Y-123055694D01*
X188115237Y-123074682D01*
X188109337Y-123079596D01*
X188061027Y-123107885D01*
X188036513Y-123140243D01*
X186498358Y-124421210D01*
X184789470Y-123111815D01*
X184752512Y-123071823D01*
X184671152Y-123034303D01*
X184590800Y-122994747D01*
X184584489Y-122994338D01*
X184578745Y-122991689D01*
X184489216Y-122988160D01*
X184399849Y-122982365D01*
X184393864Y-122984401D01*
X184387540Y-122984152D01*
X184303485Y-123015150D01*
X184218693Y-123043998D01*
X184213939Y-123048173D01*
X184208006Y-123050361D01*
X184142221Y-123111156D01*
X184074913Y-123170266D01*
X184072120Y-123175939D01*
X184067474Y-123180233D01*
X184029953Y-123261595D01*
X183990398Y-123341945D01*
X183986875Y-123396279D01*
X183045045Y-127317089D01*
X181257276Y-126804374D01*
X181238430Y-126791998D01*
X181165943Y-126778180D01*
X181141443Y-126771154D01*
X181119522Y-126769331D01*
X181050462Y-126756167D01*
X181024900Y-126761464D01*
X180998883Y-126759301D01*
X180931929Y-126780731D01*
X180910385Y-126785195D01*
X180886908Y-126795140D01*
X180816637Y-126817631D01*
X180799431Y-126832196D01*
X178919735Y-127628445D01*
X175455430Y-126803984D01*
X175406942Y-126782848D01*
X175315850Y-126781175D01*
X175224772Y-126777777D01*
X175220341Y-126779422D01*
X175215621Y-126779335D01*
X175130813Y-126812652D01*
X175045378Y-126844363D01*
X175041917Y-126847575D01*
X175037518Y-126849303D01*
X174971888Y-126912566D01*
X174905119Y-126974531D01*
X174883071Y-127022607D01*
X173144896Y-129523306D01*
X135267250Y-129523306D01*
X135300853Y-129500853D01*
X135331872Y-129454430D01*
X136176367Y-128609936D01*
X136357433Y-128534936D01*
X136534936Y-128357433D01*
X136631000Y-128125514D01*
X136631000Y-127874486D01*
X136534936Y-127642567D01*
X136392369Y-127500000D01*
X136534936Y-127357433D01*
X136631000Y-127125514D01*
X136631000Y-126874486D01*
X136534936Y-126642567D01*
X136357433Y-126465064D01*
X136125514Y-126369000D01*
X135874486Y-126369000D01*
X135642567Y-126465064D01*
X135465064Y-126642567D01*
X135390063Y-126823635D01*
X134269698Y-127944000D01*
X133842302Y-127944000D01*
X134176365Y-127609937D01*
X134357433Y-127534936D01*
X134534936Y-127357433D01*
X134631000Y-127125514D01*
X134631000Y-126874486D01*
X134534936Y-126642567D01*
X134357433Y-126465064D01*
X134125514Y-126369000D01*
X133874486Y-126369000D01*
X133642567Y-126465064D01*
X133465064Y-126642567D01*
X133390063Y-126823635D01*
X132869698Y-127344000D01*
X108330303Y-127344000D01*
X106817302Y-125831000D01*
X106825514Y-125831000D01*
X107057433Y-125734936D01*
X107234936Y-125557433D01*
X107250000Y-125521065D01*
X107265064Y-125557433D01*
X107442567Y-125734936D01*
X107674486Y-125831000D01*
X107925514Y-125831000D01*
X108157433Y-125734936D01*
X108334936Y-125557433D01*
X108431000Y-125325514D01*
X108431000Y-125074486D01*
X108334936Y-124842567D01*
X108306000Y-124813631D01*
X108306000Y-123286369D01*
X108334936Y-123257433D01*
X108431000Y-123025514D01*
X108431000Y-122774486D01*
X108334936Y-122542567D01*
X108157433Y-122365064D01*
X107925514Y-122269000D01*
X107674486Y-122269000D01*
X107442567Y-122365064D01*
X107265064Y-122542567D01*
X107250000Y-122578935D01*
X107234936Y-122542567D01*
X107057433Y-122365064D01*
X106825514Y-122269000D01*
X106574486Y-122269000D01*
X106342567Y-122365064D01*
X106165064Y-122542567D01*
X106150000Y-122578935D01*
X106134936Y-122542567D01*
X105957433Y-122365064D01*
X105725514Y-122269000D01*
X105474486Y-122269000D01*
X105242567Y-122365064D01*
X105065064Y-122542567D01*
X105050000Y-122578935D01*
X105034936Y-122542567D01*
X104857433Y-122365064D01*
X104625514Y-122269000D01*
X104374486Y-122269000D01*
X104142567Y-122365064D01*
X103965064Y-122542567D01*
X103950000Y-122578935D01*
X103934936Y-122542567D01*
X103757433Y-122365064D01*
X103525514Y-122269000D01*
X103274486Y-122269000D01*
X103042567Y-122365064D01*
X102865064Y-122542567D01*
X102769000Y-122774486D01*
X102769000Y-123025514D01*
X102844001Y-123206582D01*
X102844000Y-125345247D01*
X102833109Y-125400000D01*
X102844000Y-125454753D01*
X102844000Y-125454757D01*
X102876260Y-125616939D01*
X102999147Y-125800853D01*
X103045570Y-125831872D01*
X106668128Y-129454430D01*
X106699147Y-129500853D01*
X106732750Y-129523306D01*
X37153228Y-129523306D01*
X36172504Y-128426226D01*
X36161553Y-128402993D01*
X36109227Y-128355441D01*
X36094288Y-128338730D01*
X36074244Y-128323651D01*
X36019940Y-128274301D01*
X35998327Y-128266536D01*
X35979974Y-128252728D01*
X35908916Y-128234411D01*
X35885313Y-128225930D01*
X35863147Y-128222612D01*
X35794678Y-128204962D01*
X35769246Y-128208556D01*
X34833039Y-128068420D01*
X34951338Y-127346263D01*
X34967369Y-127306051D01*
X34966657Y-127252749D01*
X34967465Y-127247816D01*
X34966025Y-127205457D01*
X34965458Y-127163011D01*
X34964416Y-127158114D01*
X34962605Y-127104846D01*
X34944692Y-127065443D01*
X34638125Y-125625061D01*
X34632282Y-125558924D01*
X34596352Y-125490046D01*
X34565665Y-125418672D01*
X34552365Y-125405723D01*
X34543781Y-125389267D01*
X34484223Y-125339379D01*
X34428561Y-125285185D01*
X34411320Y-125278312D01*
X34397091Y-125266393D01*
X34322985Y-125243096D01*
X34250812Y-125214324D01*
X34232250Y-125214572D01*
X34214545Y-125209006D01*
X34137157Y-125215843D01*
X34059476Y-125216881D01*
X33998482Y-125243105D01*
X32524835Y-125673995D01*
X31240098Y-125486661D01*
X31336016Y-124372255D01*
X31349645Y-124306564D01*
X31335245Y-124230926D01*
X31326755Y-124154402D01*
X31294404Y-124095630D01*
X30479791Y-122082327D01*
X30479791Y-119600000D01*
X120756638Y-119600000D01*
X120769000Y-119662148D01*
X120769000Y-119725514D01*
X120793249Y-119784057D01*
X120805611Y-119846204D01*
X120840815Y-119898891D01*
X120865064Y-119957433D01*
X120909869Y-120002238D01*
X120945074Y-120054926D01*
X120997762Y-120090131D01*
X121042567Y-120134936D01*
X121101109Y-120159185D01*
X121153796Y-120194389D01*
X121215944Y-120206751D01*
X121274486Y-120231000D01*
X122169001Y-120231000D01*
X122169000Y-121337852D01*
X122156638Y-121400000D01*
X122169000Y-121462147D01*
X122205611Y-121646203D01*
X122345074Y-121854926D01*
X122397764Y-121890132D01*
X124009869Y-123502238D01*
X124045074Y-123554926D01*
X124253796Y-123694389D01*
X124437852Y-123731000D01*
X124499999Y-123743362D01*
X124562146Y-123731000D01*
X127425514Y-123731000D01*
X127484056Y-123706751D01*
X127546204Y-123694389D01*
X127598891Y-123659185D01*
X127657433Y-123634936D01*
X127702238Y-123590131D01*
X127754926Y-123554926D01*
X127790131Y-123502238D01*
X127834936Y-123457433D01*
X127859185Y-123398891D01*
X127894389Y-123346204D01*
X127906751Y-123284057D01*
X127931000Y-123225514D01*
X127931000Y-123162148D01*
X127943362Y-123100000D01*
X127931000Y-123037852D01*
X127931000Y-122974486D01*
X127906751Y-122915943D01*
X127894389Y-122853796D01*
X127859185Y-122801109D01*
X127834936Y-122742567D01*
X127790131Y-122697762D01*
X127754926Y-122645074D01*
X127702238Y-122609869D01*
X127657433Y-122565064D01*
X127598891Y-122540815D01*
X127546204Y-122505611D01*
X127484056Y-122493249D01*
X127425514Y-122469000D01*
X124761369Y-122469000D01*
X123431000Y-121138632D01*
X123431000Y-119662148D01*
X123443362Y-119600000D01*
X123431000Y-119537852D01*
X123431000Y-119474486D01*
X123406751Y-119415943D01*
X123394389Y-119353796D01*
X123359185Y-119301109D01*
X123334936Y-119242567D01*
X123290131Y-119197762D01*
X123254926Y-119145074D01*
X123202238Y-119109869D01*
X123157433Y-119065064D01*
X123098891Y-119040815D01*
X123046204Y-119005611D01*
X122984056Y-118993249D01*
X122925514Y-118969000D01*
X122862148Y-118969000D01*
X122800000Y-118956638D01*
X122737852Y-118969000D01*
X121274486Y-118969000D01*
X121215944Y-118993249D01*
X121153796Y-119005611D01*
X121101109Y-119040815D01*
X121042567Y-119065064D01*
X120997762Y-119109869D01*
X120945074Y-119145074D01*
X120909869Y-119197762D01*
X120865064Y-119242567D01*
X120840815Y-119301109D01*
X120805611Y-119353796D01*
X120793249Y-119415943D01*
X120769000Y-119474486D01*
X120769000Y-119537852D01*
X120756638Y-119600000D01*
X30479791Y-119600000D01*
X30479791Y-116800011D01*
X34005922Y-113620274D01*
X36192317Y-113844000D01*
X34454752Y-113844000D01*
X34399999Y-113833109D01*
X34345246Y-113844000D01*
X34345242Y-113844000D01*
X34183060Y-113876260D01*
X33999147Y-113999147D01*
X33968129Y-114045569D01*
X32845568Y-115168130D01*
X32799148Y-115199147D01*
X32768131Y-115245567D01*
X32768129Y-115245569D01*
X32681990Y-115374486D01*
X32676261Y-115383060D01*
X32644000Y-115545242D01*
X32644000Y-115545247D01*
X32633109Y-115600000D01*
X32644000Y-115654753D01*
X32644000Y-115893420D01*
X32569000Y-116074486D01*
X32569000Y-116325514D01*
X32665064Y-116557433D01*
X32842567Y-116734936D01*
X33074486Y-116831000D01*
X33325514Y-116831000D01*
X33557433Y-116734936D01*
X33734936Y-116557433D01*
X33831000Y-116325514D01*
X33831000Y-116074486D01*
X33756000Y-115893420D01*
X33756000Y-115830302D01*
X34630302Y-114956000D01*
X37169698Y-114956000D01*
X37790064Y-115576367D01*
X37865064Y-115757433D01*
X38042567Y-115934936D01*
X38274486Y-116031000D01*
X38525514Y-116031000D01*
X38706580Y-115956000D01*
X42645247Y-115956000D01*
X42700000Y-115966891D01*
X42754753Y-115956000D01*
X42754758Y-115956000D01*
X42916940Y-115923740D01*
X43100853Y-115800853D01*
X43131872Y-115754430D01*
X46976367Y-111909936D01*
X47157433Y-111834936D01*
X47334936Y-111657433D01*
X47431000Y-111425514D01*
X47431000Y-111174486D01*
X47356000Y-110993420D01*
X47356000Y-110730302D01*
X51130303Y-106956000D01*
X54145247Y-106956000D01*
X54200000Y-106966891D01*
X54254753Y-106956000D01*
X54254758Y-106956000D01*
X54416940Y-106923740D01*
X54600853Y-106800853D01*
X54631872Y-106754430D01*
X56276367Y-105109936D01*
X56457433Y-105034936D01*
X56634936Y-104857433D01*
X56731000Y-104625514D01*
X56731000Y-104374486D01*
X56656000Y-104193420D01*
X56656000Y-103730302D01*
X59754434Y-100631869D01*
X59800853Y-100600853D01*
X59900988Y-100450991D01*
X59923740Y-100416941D01*
X59943925Y-100315463D01*
X59956000Y-100254758D01*
X59956000Y-100254754D01*
X59966891Y-100200000D01*
X59956000Y-100145246D01*
X59956000Y-98454752D01*
X59966891Y-98399999D01*
X59956000Y-98345246D01*
X59956000Y-98345242D01*
X59923740Y-98183060D01*
X59800853Y-97999147D01*
X59763946Y-97974486D01*
X125569000Y-97974486D01*
X125569000Y-98225514D01*
X125644001Y-98406582D01*
X125644000Y-101693420D01*
X125569000Y-101874486D01*
X125569000Y-102125514D01*
X125665064Y-102357433D01*
X125842567Y-102534936D01*
X126074486Y-102631000D01*
X126325514Y-102631000D01*
X126557433Y-102534936D01*
X126734936Y-102357433D01*
X126831000Y-102125514D01*
X126831000Y-101874486D01*
X126756000Y-101693420D01*
X126756000Y-98406580D01*
X126831000Y-98225514D01*
X126831000Y-97974486D01*
X126734936Y-97742567D01*
X126557433Y-97565064D01*
X126325514Y-97469000D01*
X126074486Y-97469000D01*
X125842567Y-97565064D01*
X125665064Y-97742567D01*
X125569000Y-97974486D01*
X59763946Y-97974486D01*
X59754430Y-97968128D01*
X59131872Y-97345570D01*
X59100853Y-97299147D01*
X58916940Y-97176260D01*
X58754758Y-97144000D01*
X58754753Y-97144000D01*
X58700000Y-97133109D01*
X58645247Y-97144000D01*
X56954758Y-97144000D01*
X56900000Y-97133108D01*
X56683059Y-97176260D01*
X56545568Y-97268129D01*
X56545567Y-97268130D01*
X56499147Y-97299147D01*
X56468130Y-97345567D01*
X53969698Y-99844000D01*
X50354752Y-99844000D01*
X50299999Y-99833109D01*
X50245246Y-99844000D01*
X50245242Y-99844000D01*
X50083060Y-99876260D01*
X49899147Y-99999147D01*
X49868129Y-100045569D01*
X46569698Y-103344000D01*
X46006580Y-103344000D01*
X45825514Y-103269000D01*
X45574486Y-103269000D01*
X45393420Y-103344000D01*
X45154752Y-103344000D01*
X45099999Y-103333109D01*
X45045246Y-103344000D01*
X45045242Y-103344000D01*
X44883060Y-103376260D01*
X44699147Y-103499147D01*
X44668129Y-103545569D01*
X41669698Y-106544000D01*
X39406580Y-106544000D01*
X39225514Y-106469000D01*
X38974486Y-106469000D01*
X38793420Y-106544000D01*
X36630302Y-106544000D01*
X36431872Y-106345570D01*
X36400853Y-106299147D01*
X36216940Y-106176260D01*
X36054758Y-106144000D01*
X36054753Y-106144000D01*
X36000000Y-106133109D01*
X35945247Y-106144000D01*
X32630302Y-106144000D01*
X31809937Y-105323635D01*
X31734936Y-105142567D01*
X31557433Y-104965064D01*
X31325514Y-104869000D01*
X31074486Y-104869000D01*
X30842567Y-104965064D01*
X30665064Y-105142567D01*
X30569000Y-105374486D01*
X30569000Y-105625514D01*
X30665064Y-105857433D01*
X30842567Y-106034936D01*
X31023635Y-106109937D01*
X31968128Y-107054430D01*
X31999147Y-107100853D01*
X32183060Y-107223740D01*
X32345242Y-107256000D01*
X32345246Y-107256000D01*
X32399999Y-107266891D01*
X32454752Y-107256000D01*
X33472676Y-107256000D01*
X32315151Y-108081892D01*
X30479791Y-106997186D01*
X30479791Y-105062446D01*
X32545425Y-100724347D01*
X32586227Y-100641916D01*
X32589704Y-100590038D01*
X32602471Y-100539630D01*
X32596041Y-100495493D01*
X32599024Y-100450991D01*
X32582381Y-100401724D01*
X32574886Y-100350276D01*
X32527840Y-100271317D01*
X30893788Y-97431405D01*
X31818404Y-90166637D01*
X31821253Y-90161363D01*
X31830457Y-90071941D01*
X31835708Y-90030680D01*
X31835302Y-90024865D01*
X31835899Y-90019062D01*
X31832002Y-89977630D01*
X31825738Y-89887975D01*
X31823064Y-89882610D01*
X31014482Y-81286652D01*
X32216493Y-78090845D01*
X32223277Y-78082963D01*
X32250045Y-78001638D01*
X32263189Y-77966693D01*
X32264836Y-77956702D01*
X32283104Y-77901203D01*
X32280257Y-77863170D01*
X32286460Y-77825546D01*
X32273181Y-77768654D01*
X32272425Y-77758549D01*
X32262422Y-77722555D01*
X32242967Y-77639201D01*
X32236908Y-77630750D01*
X31470913Y-74874486D01*
X59369000Y-74874486D01*
X59369000Y-75125514D01*
X59465064Y-75357433D01*
X59642567Y-75534936D01*
X59823635Y-75609937D01*
X62390064Y-78176367D01*
X62465064Y-78357433D01*
X62642567Y-78534936D01*
X62874486Y-78631000D01*
X63125514Y-78631000D01*
X63357433Y-78534936D01*
X63534936Y-78357433D01*
X63631000Y-78125514D01*
X63631000Y-77874486D01*
X63534936Y-77642567D01*
X63357433Y-77465064D01*
X63176367Y-77390064D01*
X60609937Y-74823635D01*
X60534936Y-74642567D01*
X60357433Y-74465064D01*
X60125514Y-74369000D01*
X59874486Y-74369000D01*
X59642567Y-74465064D01*
X59465064Y-74642567D01*
X59369000Y-74874486D01*
X31470913Y-74874486D01*
X30788805Y-72420073D01*
X32291202Y-70664631D01*
X32304157Y-70657029D01*
X32353082Y-70592329D01*
X32374443Y-70567370D01*
X32381612Y-70554600D01*
X32419572Y-70504400D01*
X32428033Y-70471909D01*
X32444470Y-70442628D01*
X32451932Y-70380129D01*
X32455620Y-70365964D01*
X32457536Y-70333183D01*
X32467154Y-70252624D01*
X32463091Y-70238161D01*
X32908030Y-62626932D01*
X32920049Y-62563212D01*
X32903818Y-62485646D01*
X32892922Y-62407161D01*
X32860107Y-62351239D01*
X30479791Y-56762085D01*
X30479791Y-53949364D01*
X32414942Y-53340268D01*
X34404590Y-54992894D01*
X34475424Y-55053059D01*
X34523943Y-55068677D01*
X34568754Y-55092970D01*
X34661278Y-55102635D01*
X37713339Y-55455423D01*
X39761210Y-56007023D01*
X39795215Y-56017970D01*
X39806843Y-56019314D01*
X39818158Y-56022362D01*
X39853839Y-56024748D01*
X41747104Y-56243631D01*
X41745247Y-56244000D01*
X37806580Y-56244000D01*
X37625514Y-56169000D01*
X37374486Y-56169000D01*
X37193420Y-56244000D01*
X35530302Y-56244000D01*
X34231872Y-54945570D01*
X34200853Y-54899147D01*
X34016940Y-54776260D01*
X33854758Y-54744000D01*
X33854753Y-54744000D01*
X33800000Y-54733109D01*
X33745247Y-54744000D01*
X33506580Y-54744000D01*
X33325514Y-54669000D01*
X33074486Y-54669000D01*
X32842567Y-54765064D01*
X32665064Y-54942567D01*
X32569000Y-55174486D01*
X32569000Y-55425514D01*
X32665064Y-55657433D01*
X32842567Y-55834936D01*
X33074486Y-55931000D01*
X33325514Y-55931000D01*
X33506580Y-55856000D01*
X33569698Y-55856000D01*
X34868128Y-57154430D01*
X34899147Y-57200853D01*
X35083060Y-57323740D01*
X35245242Y-57356000D01*
X35245246Y-57356000D01*
X35299999Y-57366891D01*
X35354752Y-57356000D01*
X37193420Y-57356000D01*
X37374486Y-57431000D01*
X37625514Y-57431000D01*
X37806580Y-57356000D01*
X41569698Y-57356000D01*
X42090063Y-57876365D01*
X42165064Y-58057433D01*
X42342567Y-58234936D01*
X42574486Y-58331000D01*
X42825514Y-58331000D01*
X42980500Y-58266803D01*
X44168130Y-59454433D01*
X44199147Y-59500853D01*
X44245567Y-59531870D01*
X44245568Y-59531871D01*
X44259460Y-59541153D01*
X44383060Y-59623740D01*
X44545242Y-59656000D01*
X44545247Y-59656000D01*
X44600000Y-59666891D01*
X44654753Y-59656000D01*
X49569698Y-59656000D01*
X50490064Y-60576367D01*
X50565064Y-60757433D01*
X50742567Y-60934936D01*
X50974486Y-61031000D01*
X51225514Y-61031000D01*
X51406580Y-60956000D01*
X51469698Y-60956000D01*
X54668130Y-64154433D01*
X54699147Y-64200853D01*
X54745567Y-64231870D01*
X54745568Y-64231871D01*
X54765581Y-64245243D01*
X54883060Y-64323740D01*
X55045242Y-64356000D01*
X55045246Y-64356000D01*
X55099999Y-64366891D01*
X55154752Y-64356000D01*
X58869698Y-64356000D01*
X60290063Y-65776365D01*
X60365064Y-65957433D01*
X60542567Y-66134936D01*
X60774486Y-66231000D01*
X61025514Y-66231000D01*
X61206580Y-66156000D01*
X65669698Y-66156000D01*
X65882697Y-66369000D01*
X65775030Y-66369000D01*
X65359340Y-66541184D01*
X65041184Y-66859340D01*
X64869000Y-67275030D01*
X64869000Y-67724970D01*
X65041184Y-68140660D01*
X65359340Y-68458816D01*
X65775030Y-68631000D01*
X66224970Y-68631000D01*
X66640660Y-68458816D01*
X66958816Y-68140660D01*
X67000000Y-68041233D01*
X67041184Y-68140660D01*
X67119000Y-68218476D01*
X67119001Y-71013229D01*
X67119000Y-71013234D01*
X67119001Y-76886767D01*
X67170118Y-77143749D01*
X67364836Y-77435165D01*
X67656252Y-77629883D01*
X68000000Y-77698259D01*
X68343749Y-77629883D01*
X68635165Y-77435165D01*
X68829883Y-77143749D01*
X68881000Y-76886767D01*
X68881000Y-68218476D01*
X68958816Y-68140660D01*
X69131000Y-67724970D01*
X69131000Y-67275030D01*
X69125526Y-67261813D01*
X69154752Y-67256000D01*
X72093420Y-67256000D01*
X72274486Y-67331000D01*
X72525514Y-67331000D01*
X72757433Y-67234936D01*
X72934936Y-67057433D01*
X73009936Y-66876366D01*
X73230303Y-66656000D01*
X73244524Y-66656000D01*
X73041184Y-66859340D01*
X72869000Y-67275030D01*
X72869000Y-67724970D01*
X73041184Y-68140660D01*
X73359340Y-68458816D01*
X73775030Y-68631000D01*
X74224970Y-68631000D01*
X74640660Y-68458816D01*
X74958816Y-68140660D01*
X75000000Y-68041233D01*
X75041184Y-68140660D01*
X75359340Y-68458816D01*
X75775030Y-68631000D01*
X76224970Y-68631000D01*
X76640660Y-68458816D01*
X76958816Y-68140660D01*
X77000000Y-68041233D01*
X77041184Y-68140660D01*
X77359340Y-68458816D01*
X77775030Y-68631000D01*
X78224970Y-68631000D01*
X78640660Y-68458816D01*
X78958816Y-68140660D01*
X79131000Y-67724970D01*
X79131000Y-67275030D01*
X78958816Y-66859340D01*
X78640660Y-66541184D01*
X78224970Y-66369000D01*
X77775030Y-66369000D01*
X77359340Y-66541184D01*
X77041184Y-66859340D01*
X77000000Y-66958767D01*
X76958816Y-66859340D01*
X76640660Y-66541184D01*
X76224970Y-66369000D01*
X75775030Y-66369000D01*
X75359340Y-66541184D01*
X75041184Y-66859340D01*
X75000000Y-66958767D01*
X74958816Y-66859340D01*
X74720702Y-66621226D01*
X74900853Y-66500853D01*
X74931871Y-66454431D01*
X75354433Y-66031870D01*
X75400853Y-66000853D01*
X75431871Y-65954432D01*
X75523740Y-65816941D01*
X75533449Y-65768129D01*
X75556000Y-65654758D01*
X75556000Y-65654754D01*
X75566891Y-65600000D01*
X75556000Y-65545246D01*
X75556000Y-64354752D01*
X75566891Y-64299999D01*
X75556000Y-64245246D01*
X75556000Y-64245242D01*
X75523740Y-64083060D01*
X75400853Y-63899147D01*
X75354431Y-63868129D01*
X74231872Y-62745570D01*
X74200853Y-62699147D01*
X74016940Y-62576260D01*
X73854758Y-62544000D01*
X73854753Y-62544000D01*
X73800000Y-62533109D01*
X73745247Y-62544000D01*
X69730303Y-62544000D01*
X69060789Y-61874486D01*
X87369000Y-61874486D01*
X87369000Y-62125514D01*
X87444000Y-62306580D01*
X87444001Y-78845238D01*
X87444000Y-78845243D01*
X87444001Y-80945238D01*
X87444000Y-80945243D01*
X87444001Y-81693418D01*
X87369000Y-81874486D01*
X87369000Y-82125514D01*
X87465064Y-82357433D01*
X87642567Y-82534936D01*
X87874486Y-82631000D01*
X88125514Y-82631000D01*
X88357433Y-82534936D01*
X88534936Y-82357433D01*
X88631000Y-82125514D01*
X88631000Y-81874486D01*
X88556000Y-81693420D01*
X88556000Y-79348369D01*
X88642567Y-79434936D01*
X88874486Y-79531000D01*
X89125514Y-79531000D01*
X89357433Y-79434936D01*
X89444000Y-79348369D01*
X89444001Y-79693418D01*
X89369000Y-79874486D01*
X89369000Y-80125514D01*
X89465064Y-80357433D01*
X89642567Y-80534936D01*
X89874486Y-80631000D01*
X90125514Y-80631000D01*
X90357433Y-80534936D01*
X90444001Y-80448368D01*
X90444001Y-80693418D01*
X90369000Y-80874486D01*
X90369000Y-81125514D01*
X90465064Y-81357433D01*
X90642567Y-81534936D01*
X90874486Y-81631000D01*
X91125514Y-81631000D01*
X91357433Y-81534936D01*
X91534936Y-81357433D01*
X91631000Y-81125514D01*
X91631000Y-80874486D01*
X91556000Y-80693420D01*
X91556000Y-79444649D01*
X102019000Y-79444649D01*
X102019000Y-79755351D01*
X102137900Y-80042401D01*
X102357599Y-80262100D01*
X102644649Y-80381000D01*
X102955351Y-80381000D01*
X103242401Y-80262100D01*
X103462100Y-80042401D01*
X103581000Y-79755351D01*
X103581000Y-79711368D01*
X104161369Y-79131000D01*
X107738632Y-79131000D01*
X108209869Y-79602238D01*
X108245074Y-79654926D01*
X108453796Y-79794389D01*
X108637852Y-79831000D01*
X108699999Y-79843362D01*
X108762146Y-79831000D01*
X109044001Y-79831000D01*
X109044001Y-82076657D01*
X109025514Y-82069000D01*
X108774486Y-82069000D01*
X108542567Y-82165064D01*
X108365064Y-82342567D01*
X108290064Y-82523633D01*
X107869698Y-82944000D01*
X104206580Y-82944000D01*
X104025514Y-82869000D01*
X103774486Y-82869000D01*
X103542567Y-82965064D01*
X103365064Y-83142567D01*
X103269000Y-83374486D01*
X103269000Y-83625514D01*
X103365064Y-83857433D01*
X103542567Y-84034936D01*
X103774486Y-84131000D01*
X104025514Y-84131000D01*
X104206580Y-84056000D01*
X108045247Y-84056000D01*
X108100000Y-84066891D01*
X108154753Y-84056000D01*
X108154758Y-84056000D01*
X108316940Y-84023740D01*
X108500853Y-83900853D01*
X108531872Y-83854430D01*
X109044001Y-83342302D01*
X109044000Y-89693420D01*
X108969000Y-89874486D01*
X108969000Y-90125514D01*
X109065064Y-90357433D01*
X109242567Y-90534936D01*
X109264449Y-90544000D01*
X106806580Y-90544000D01*
X106625514Y-90469000D01*
X106374486Y-90469000D01*
X106142567Y-90565064D01*
X105965064Y-90742567D01*
X105869000Y-90974486D01*
X105869000Y-91225514D01*
X105965064Y-91457433D01*
X106142567Y-91634936D01*
X106374486Y-91731000D01*
X106625514Y-91731000D01*
X106806580Y-91656000D01*
X110045247Y-91656000D01*
X110100000Y-91666891D01*
X110154753Y-91656000D01*
X110154758Y-91656000D01*
X110316940Y-91623740D01*
X110500853Y-91500853D01*
X110531872Y-91454430D01*
X110644001Y-91342301D01*
X110644001Y-92745237D01*
X110644000Y-92745242D01*
X110644000Y-92769698D01*
X108923635Y-94490063D01*
X108742567Y-94565064D01*
X108565064Y-94742567D01*
X108469000Y-94974486D01*
X108469000Y-95225514D01*
X108565064Y-95457433D01*
X108742567Y-95634936D01*
X108974486Y-95731000D01*
X109225514Y-95731000D01*
X109457433Y-95634936D01*
X109634936Y-95457433D01*
X109709937Y-95276365D01*
X111554431Y-93431871D01*
X111600853Y-93400853D01*
X111723740Y-93216940D01*
X111756000Y-93054758D01*
X111756000Y-93054754D01*
X111766891Y-93000001D01*
X111756000Y-92945248D01*
X111756000Y-88306580D01*
X111769293Y-88274486D01*
X112169000Y-88274486D01*
X112169000Y-88525514D01*
X112244000Y-88706581D01*
X112244001Y-89693418D01*
X112169000Y-89874486D01*
X112169000Y-90125514D01*
X112265064Y-90357433D01*
X112442567Y-90534936D01*
X112674486Y-90631000D01*
X112925514Y-90631000D01*
X113157433Y-90534936D01*
X113334936Y-90357433D01*
X113350000Y-90321065D01*
X113365064Y-90357433D01*
X113542567Y-90534936D01*
X113774486Y-90631000D01*
X114025514Y-90631000D01*
X114257433Y-90534936D01*
X114434936Y-90357433D01*
X114531000Y-90125514D01*
X114531000Y-89874486D01*
X114456000Y-89693420D01*
X114456000Y-88706580D01*
X114531000Y-88525514D01*
X114531000Y-88274486D01*
X114434936Y-88042567D01*
X114257433Y-87865064D01*
X114025514Y-87769000D01*
X113774486Y-87769000D01*
X113542567Y-87865064D01*
X113365064Y-88042567D01*
X113350000Y-88078935D01*
X113334936Y-88042567D01*
X113157433Y-87865064D01*
X112925514Y-87769000D01*
X112674486Y-87769000D01*
X112442567Y-87865064D01*
X112265064Y-88042567D01*
X112169000Y-88274486D01*
X111769293Y-88274486D01*
X111831000Y-88125514D01*
X111831000Y-87874486D01*
X111734936Y-87642567D01*
X111557433Y-87465064D01*
X111325514Y-87369000D01*
X111074486Y-87369000D01*
X110842567Y-87465064D01*
X110800000Y-87507631D01*
X110757433Y-87465064D01*
X110525514Y-87369000D01*
X110274486Y-87369000D01*
X110156000Y-87418079D01*
X110156000Y-83274486D01*
X118169000Y-83274486D01*
X118169000Y-83525514D01*
X118265064Y-83757433D01*
X118442567Y-83934936D01*
X118674486Y-84031000D01*
X118925514Y-84031000D01*
X119106580Y-83956000D01*
X121393420Y-83956000D01*
X121574486Y-84031000D01*
X121825514Y-84031000D01*
X122057433Y-83934936D01*
X122234936Y-83757433D01*
X122331000Y-83525514D01*
X122331000Y-83274486D01*
X122234936Y-83042567D01*
X122057433Y-82865064D01*
X121825514Y-82769000D01*
X121574486Y-82769000D01*
X121393420Y-82844000D01*
X119106580Y-82844000D01*
X118925514Y-82769000D01*
X118674486Y-82769000D01*
X118442567Y-82865064D01*
X118265064Y-83042567D01*
X118169000Y-83274486D01*
X110156000Y-83274486D01*
X110156000Y-79831000D01*
X113138632Y-79831000D01*
X113609869Y-80302238D01*
X113645074Y-80354926D01*
X113853796Y-80494389D01*
X114037852Y-80531000D01*
X114099999Y-80543362D01*
X114162146Y-80531000D01*
X117026499Y-80531000D01*
X117057599Y-80562100D01*
X117344649Y-80681000D01*
X117655351Y-80681000D01*
X117942401Y-80562100D01*
X118162100Y-80342401D01*
X118281000Y-80055351D01*
X118281000Y-79744649D01*
X118162100Y-79457599D01*
X117942401Y-79237900D01*
X117655351Y-79119000D01*
X117344649Y-79119000D01*
X117057599Y-79237900D01*
X117026499Y-79269000D01*
X114361369Y-79269000D01*
X113890132Y-78797764D01*
X113854926Y-78745074D01*
X113646204Y-78605611D01*
X113462148Y-78569000D01*
X113400000Y-78556638D01*
X113337852Y-78569000D01*
X108961369Y-78569000D01*
X108490132Y-78097764D01*
X108454926Y-78045074D01*
X108246204Y-77905611D01*
X108062148Y-77869000D01*
X108000000Y-77856638D01*
X107937852Y-77869000D01*
X103962148Y-77869000D01*
X103900000Y-77856638D01*
X103837852Y-77869000D01*
X103653796Y-77905611D01*
X103445074Y-78045074D01*
X103409869Y-78097762D01*
X102688632Y-78819000D01*
X102644649Y-78819000D01*
X102357599Y-78937900D01*
X102137900Y-79157599D01*
X102019000Y-79444649D01*
X91556000Y-79444649D01*
X91556000Y-74174486D01*
X109769000Y-74174486D01*
X109769000Y-74425514D01*
X109844000Y-74606580D01*
X109844000Y-75045247D01*
X109833109Y-75100000D01*
X109844000Y-75154753D01*
X109844000Y-75154757D01*
X109876260Y-75316939D01*
X109999147Y-75500853D01*
X110045569Y-75531871D01*
X110468130Y-75954433D01*
X110499147Y-76000853D01*
X110545567Y-76031870D01*
X110545568Y-76031871D01*
X110683059Y-76123740D01*
X110717847Y-76130660D01*
X110845242Y-76156000D01*
X110845246Y-76156000D01*
X110900000Y-76166891D01*
X110954754Y-76156000D01*
X125145247Y-76156000D01*
X125200000Y-76166891D01*
X125254753Y-76156000D01*
X125254758Y-76156000D01*
X125416940Y-76123740D01*
X125600853Y-76000853D01*
X125631872Y-75954430D01*
X127569000Y-74017303D01*
X127569000Y-74125514D01*
X127644001Y-74306582D01*
X127644000Y-75793420D01*
X127569000Y-75974486D01*
X127569000Y-76225514D01*
X127665064Y-76457433D01*
X127842567Y-76634936D01*
X128074486Y-76731000D01*
X128325514Y-76731000D01*
X128557433Y-76634936D01*
X128734936Y-76457433D01*
X128831000Y-76225514D01*
X128831000Y-75974486D01*
X128756000Y-75793420D01*
X128756000Y-74306580D01*
X128831000Y-74125514D01*
X128831000Y-74017303D01*
X128868130Y-74054433D01*
X128899147Y-74100853D01*
X128945567Y-74131870D01*
X128945568Y-74131871D01*
X129083059Y-74223740D01*
X129117847Y-74230660D01*
X129245242Y-74256000D01*
X129245246Y-74256000D01*
X129300000Y-74266891D01*
X129354754Y-74256000D01*
X132851631Y-74256000D01*
X132765064Y-74342567D01*
X132669000Y-74574486D01*
X132669000Y-74825514D01*
X132765064Y-75057433D01*
X132942567Y-75234936D01*
X133174486Y-75331000D01*
X133425514Y-75331000D01*
X133606580Y-75256000D01*
X134393420Y-75256000D01*
X134574486Y-75331000D01*
X134825514Y-75331000D01*
X135057433Y-75234936D01*
X135234936Y-75057433D01*
X135331000Y-74825514D01*
X135331000Y-74574486D01*
X135234936Y-74342567D01*
X135148369Y-74256000D01*
X135293420Y-74256000D01*
X135474486Y-74331000D01*
X135725514Y-74331000D01*
X135957433Y-74234936D01*
X136134936Y-74057433D01*
X136231000Y-73825514D01*
X136231000Y-73574486D01*
X136134936Y-73342567D01*
X136092369Y-73300000D01*
X136134936Y-73257433D01*
X136231000Y-73025514D01*
X136231000Y-72774486D01*
X136134936Y-72542567D01*
X135973369Y-72381000D01*
X150086767Y-72381000D01*
X150343749Y-72329883D01*
X150635165Y-72135165D01*
X150829883Y-71843749D01*
X150898259Y-71500000D01*
X150829883Y-71156251D01*
X150635165Y-70864835D01*
X150343749Y-70670117D01*
X150086767Y-70619000D01*
X124413233Y-70619000D01*
X124156251Y-70670117D01*
X123864835Y-70864835D01*
X123670117Y-71156251D01*
X123601741Y-71500000D01*
X123670117Y-71843749D01*
X123864835Y-72135165D01*
X124156251Y-72329883D01*
X124413233Y-72381000D01*
X126732698Y-72381000D01*
X125369698Y-73744000D01*
X111506580Y-73744000D01*
X111325514Y-73669000D01*
X111074486Y-73669000D01*
X110842567Y-73765064D01*
X110800000Y-73807631D01*
X110757433Y-73765064D01*
X110525514Y-73669000D01*
X110274486Y-73669000D01*
X110042567Y-73765064D01*
X109865064Y-73942567D01*
X109769000Y-74174486D01*
X91556000Y-74174486D01*
X91556000Y-62306580D01*
X91631000Y-62125514D01*
X91631000Y-61974486D01*
X106569000Y-61974486D01*
X106569000Y-62225514D01*
X106644001Y-62406582D01*
X106644000Y-67393420D01*
X106569000Y-67574486D01*
X106569000Y-67825514D01*
X106665064Y-68057433D01*
X106842567Y-68234936D01*
X107074486Y-68331000D01*
X107325514Y-68331000D01*
X107557433Y-68234936D01*
X107600000Y-68192369D01*
X107642567Y-68234936D01*
X107874486Y-68331000D01*
X108125514Y-68331000D01*
X108357433Y-68234936D01*
X108534936Y-68057433D01*
X108631000Y-67825514D01*
X108631000Y-67574486D01*
X108556000Y-67393420D01*
X108556000Y-67275030D01*
X130869000Y-67275030D01*
X130869000Y-67724970D01*
X131041184Y-68140660D01*
X131359340Y-68458816D01*
X131775030Y-68631000D01*
X132224970Y-68631000D01*
X132640660Y-68458816D01*
X132958816Y-68140660D01*
X133000000Y-68041233D01*
X133041184Y-68140660D01*
X133359340Y-68458816D01*
X133775030Y-68631000D01*
X134224970Y-68631000D01*
X134640660Y-68458816D01*
X134958816Y-68140660D01*
X135000000Y-68041233D01*
X135041184Y-68140660D01*
X135359340Y-68458816D01*
X135775030Y-68631000D01*
X136224970Y-68631000D01*
X136640660Y-68458816D01*
X136958816Y-68140660D01*
X137000000Y-68041233D01*
X137041184Y-68140660D01*
X137359340Y-68458816D01*
X137775030Y-68631000D01*
X138224970Y-68631000D01*
X138640660Y-68458816D01*
X138958816Y-68140660D01*
X139000000Y-68041233D01*
X139041184Y-68140660D01*
X139359340Y-68458816D01*
X139775030Y-68631000D01*
X140224970Y-68631000D01*
X140640660Y-68458816D01*
X140958816Y-68140660D01*
X141131000Y-67724970D01*
X141131000Y-67275030D01*
X142869000Y-67275030D01*
X142869000Y-67724970D01*
X143041184Y-68140660D01*
X143359340Y-68458816D01*
X143775030Y-68631000D01*
X144224970Y-68631000D01*
X144640660Y-68458816D01*
X144958816Y-68140660D01*
X145000000Y-68041233D01*
X145041184Y-68140660D01*
X145359340Y-68458816D01*
X145775030Y-68631000D01*
X146224970Y-68631000D01*
X146640660Y-68458816D01*
X146958816Y-68140660D01*
X147131000Y-67724970D01*
X147131000Y-67275030D01*
X150869000Y-67275030D01*
X150869000Y-67724970D01*
X151041184Y-68140660D01*
X151359340Y-68458816D01*
X151775030Y-68631000D01*
X152224970Y-68631000D01*
X152640660Y-68458816D01*
X152958816Y-68140660D01*
X153000000Y-68041233D01*
X153041184Y-68140660D01*
X153359340Y-68458816D01*
X153775030Y-68631000D01*
X154224970Y-68631000D01*
X154640660Y-68458816D01*
X154958816Y-68140660D01*
X155131000Y-67724970D01*
X155131000Y-67275030D01*
X155006511Y-66974486D01*
X179069000Y-66974486D01*
X179069000Y-67225514D01*
X179165064Y-67457433D01*
X179342567Y-67634936D01*
X179574486Y-67731000D01*
X179825514Y-67731000D01*
X180050000Y-67638015D01*
X180274486Y-67731000D01*
X180525514Y-67731000D01*
X180757433Y-67634936D01*
X180934936Y-67457433D01*
X181031000Y-67225514D01*
X181031000Y-66974486D01*
X180956000Y-66793420D01*
X180956000Y-55630302D01*
X181276365Y-55309937D01*
X181457433Y-55234936D01*
X181634936Y-55057433D01*
X181731000Y-54825514D01*
X181731000Y-54574486D01*
X181634936Y-54342567D01*
X181457433Y-54165064D01*
X181225514Y-54069000D01*
X180974486Y-54069000D01*
X180742567Y-54165064D01*
X180565064Y-54342567D01*
X180490063Y-54523635D01*
X180256000Y-54757698D01*
X180256000Y-53930302D01*
X181276365Y-52909937D01*
X181457433Y-52834936D01*
X181634936Y-52657433D01*
X181731000Y-52425514D01*
X181731000Y-52174486D01*
X181634936Y-51942567D01*
X181457433Y-51765064D01*
X181225514Y-51669000D01*
X180974486Y-51669000D01*
X180742567Y-51765064D01*
X180565064Y-51942567D01*
X180490063Y-52123635D01*
X179345570Y-53268128D01*
X179299147Y-53299147D01*
X179176260Y-53483061D01*
X179144000Y-53645243D01*
X179144000Y-53645247D01*
X179133109Y-53700000D01*
X179144000Y-53754753D01*
X179144001Y-66793418D01*
X179069000Y-66974486D01*
X155006511Y-66974486D01*
X154958816Y-66859340D01*
X154640660Y-66541184D01*
X154224970Y-66369000D01*
X153775030Y-66369000D01*
X153359340Y-66541184D01*
X153041184Y-66859340D01*
X153000000Y-66958767D01*
X152958816Y-66859340D01*
X152640660Y-66541184D01*
X152224970Y-66369000D01*
X151775030Y-66369000D01*
X151359340Y-66541184D01*
X151041184Y-66859340D01*
X150869000Y-67275030D01*
X147131000Y-67275030D01*
X146958816Y-66859340D01*
X146640660Y-66541184D01*
X146224970Y-66369000D01*
X145775030Y-66369000D01*
X145359340Y-66541184D01*
X145041184Y-66859340D01*
X145000000Y-66958767D01*
X144958816Y-66859340D01*
X144640660Y-66541184D01*
X144224970Y-66369000D01*
X143775030Y-66369000D01*
X143359340Y-66541184D01*
X143041184Y-66859340D01*
X142869000Y-67275030D01*
X141131000Y-67275030D01*
X140958816Y-66859340D01*
X140640660Y-66541184D01*
X140224970Y-66369000D01*
X139775030Y-66369000D01*
X139359340Y-66541184D01*
X139041184Y-66859340D01*
X139000000Y-66958767D01*
X138958816Y-66859340D01*
X138640660Y-66541184D01*
X138224970Y-66369000D01*
X137775030Y-66369000D01*
X137359340Y-66541184D01*
X137041184Y-66859340D01*
X137000000Y-66958767D01*
X136958816Y-66859340D01*
X136640660Y-66541184D01*
X136224970Y-66369000D01*
X135775030Y-66369000D01*
X135359340Y-66541184D01*
X135041184Y-66859340D01*
X135000000Y-66958767D01*
X134958816Y-66859340D01*
X134640660Y-66541184D01*
X134224970Y-66369000D01*
X133775030Y-66369000D01*
X133359340Y-66541184D01*
X133041184Y-66859340D01*
X133000000Y-66958767D01*
X132958816Y-66859340D01*
X132640660Y-66541184D01*
X132224970Y-66369000D01*
X131775030Y-66369000D01*
X131359340Y-66541184D01*
X131041184Y-66859340D01*
X130869000Y-67275030D01*
X108556000Y-67275030D01*
X108556000Y-62406580D01*
X108631000Y-62225514D01*
X108631000Y-61974486D01*
X108534936Y-61742567D01*
X108357433Y-61565064D01*
X108125514Y-61469000D01*
X107874486Y-61469000D01*
X107642567Y-61565064D01*
X107600000Y-61607631D01*
X107557433Y-61565064D01*
X107325514Y-61469000D01*
X107074486Y-61469000D01*
X106842567Y-61565064D01*
X106665064Y-61742567D01*
X106569000Y-61974486D01*
X91631000Y-61974486D01*
X91631000Y-61874486D01*
X91534936Y-61642567D01*
X91357433Y-61465064D01*
X91125514Y-61369000D01*
X90874486Y-61369000D01*
X90642567Y-61465064D01*
X90500000Y-61607631D01*
X90357433Y-61465064D01*
X90125514Y-61369000D01*
X89874486Y-61369000D01*
X89642567Y-61465064D01*
X89500000Y-61607631D01*
X89357433Y-61465064D01*
X89125514Y-61369000D01*
X88874486Y-61369000D01*
X88642567Y-61465064D01*
X88500000Y-61607631D01*
X88357433Y-61465064D01*
X88125514Y-61369000D01*
X87874486Y-61369000D01*
X87642567Y-61465064D01*
X87465064Y-61642567D01*
X87369000Y-61874486D01*
X69060789Y-61874486D01*
X68931872Y-61745570D01*
X68900853Y-61699147D01*
X68716940Y-61576260D01*
X68554758Y-61544000D01*
X68554753Y-61544000D01*
X68500000Y-61533109D01*
X68445247Y-61544000D01*
X67330303Y-61544000D01*
X66109937Y-60323634D01*
X66034936Y-60142567D01*
X65857433Y-59965064D01*
X65625514Y-59869000D01*
X65374486Y-59869000D01*
X65193420Y-59944000D01*
X63330302Y-59944000D01*
X60331872Y-56945570D01*
X60300853Y-56899147D01*
X60116940Y-56776260D01*
X59954758Y-56744000D01*
X59954753Y-56744000D01*
X59900000Y-56733109D01*
X59845247Y-56744000D01*
X57530303Y-56744000D01*
X56909937Y-56123634D01*
X56856000Y-55993420D01*
X56856000Y-55554752D01*
X56866891Y-55499999D01*
X56856000Y-55445246D01*
X56856000Y-55445242D01*
X56823740Y-55283060D01*
X56782827Y-55221829D01*
X56731871Y-55145568D01*
X56731870Y-55145567D01*
X56700853Y-55099147D01*
X56654433Y-55068130D01*
X53331872Y-51745570D01*
X53300853Y-51699147D01*
X53116940Y-51576260D01*
X52954758Y-51544000D01*
X52954753Y-51544000D01*
X52900000Y-51533109D01*
X52845247Y-51544000D01*
X50830302Y-51544000D01*
X48931872Y-49645570D01*
X48900853Y-49599147D01*
X48716940Y-49476260D01*
X48554758Y-49444000D01*
X48554753Y-49444000D01*
X48500000Y-49433109D01*
X48445247Y-49444000D01*
X45930303Y-49444000D01*
X45709936Y-49223634D01*
X45634936Y-49042567D01*
X45457433Y-48865064D01*
X45276365Y-48790063D01*
X43731872Y-47245570D01*
X43700853Y-47199147D01*
X43516940Y-47076260D01*
X43354758Y-47044000D01*
X43354753Y-47044000D01*
X43300000Y-47033109D01*
X43245247Y-47044000D01*
X41230303Y-47044000D01*
X39609937Y-45423634D01*
X39534936Y-45242567D01*
X39357433Y-45065064D01*
X39125514Y-44969000D01*
X38874486Y-44969000D01*
X38693420Y-45044000D01*
X36130303Y-45044000D01*
X32531872Y-41445570D01*
X32500853Y-41399147D01*
X32316940Y-41276260D01*
X32154758Y-41244000D01*
X32154753Y-41244000D01*
X32100000Y-41233109D01*
X32045247Y-41244000D01*
X31706580Y-41244000D01*
X31525514Y-41169000D01*
X31274486Y-41169000D01*
X31042567Y-41265064D01*
X30865064Y-41442567D01*
X30769000Y-41674486D01*
X30769000Y-41925514D01*
X30865064Y-42157433D01*
X31042567Y-42334936D01*
X31274486Y-42431000D01*
X31525514Y-42431000D01*
X31706580Y-42356000D01*
X31869698Y-42356000D01*
X35363293Y-45849596D01*
X34978346Y-45734785D01*
X32876103Y-43447625D01*
X32813389Y-43378203D01*
X32767872Y-43356584D01*
X32727183Y-43326845D01*
X32682281Y-43315931D01*
X32640542Y-43296106D01*
X32590208Y-43293551D01*
X32541244Y-43281649D01*
X32448857Y-43296013D01*
X30479791Y-43584809D01*
X30479791Y-41626558D01*
X31794971Y-40064691D01*
X31851275Y-40005038D01*
X31873347Y-39947074D01*
X31903278Y-39892740D01*
X31907093Y-39858450D01*
X31919370Y-39826210D01*
X31917580Y-39764208D01*
X31924439Y-39702561D01*
X31901620Y-39623762D01*
X31446957Y-37639225D01*
X32185017Y-37125846D01*
X35619000Y-37125846D01*
X35619000Y-37874154D01*
X35905365Y-38565501D01*
X36434499Y-39094635D01*
X37125846Y-39381000D01*
X37874154Y-39381000D01*
X38565501Y-39094635D01*
X39094635Y-38565501D01*
X39381000Y-37874154D01*
X39381000Y-37125846D01*
X39094635Y-36434499D01*
X38565501Y-35905365D01*
X37874154Y-35619000D01*
X37125846Y-35619000D01*
X36434499Y-35905365D01*
X35905365Y-36434499D01*
X35619000Y-37125846D01*
X32185017Y-37125846D01*
X32403667Y-36973758D01*
X32438787Y-36960233D01*
X32481474Y-36919637D01*
X32490195Y-36913571D01*
X32515767Y-36887024D01*
X32577448Y-36828365D01*
X32581872Y-36818399D01*
X32589439Y-36810544D01*
X32620548Y-36731278D01*
X32635491Y-36697617D01*
X32637822Y-36687263D01*
X32659347Y-36632417D01*
X32658643Y-36594783D01*
X33169686Y-34324912D01*
X34316999Y-34399273D01*
X34404742Y-34407719D01*
X34458178Y-34391381D01*
X34513576Y-34384047D01*
X34548808Y-34363671D01*
X34587733Y-34351770D01*
X34630855Y-34316221D01*
X34679222Y-34288249D01*
X34732823Y-34218291D01*
X36818424Y-31665522D01*
X39142111Y-32192037D01*
X40140599Y-33762192D01*
X40146686Y-33784459D01*
X40191572Y-33842349D01*
X40204969Y-33863416D01*
X40220538Y-33879706D01*
X40263939Y-33935681D01*
X40286143Y-33948351D01*
X40303807Y-33966834D01*
X40368621Y-33995416D01*
X40388186Y-34006580D01*
X40411860Y-34014483D01*
X40478892Y-34044043D01*
X40501972Y-34044566D01*
X42198652Y-34610978D01*
X42218882Y-34625266D01*
X42288733Y-34641050D01*
X42310846Y-34648432D01*
X42334835Y-34651467D01*
X42358417Y-34656796D01*
X42381718Y-34657399D01*
X42452767Y-34666389D01*
X42476659Y-34659858D01*
X44169770Y-34703696D01*
X46025548Y-36080612D01*
X46068679Y-36123528D01*
X46145630Y-36155176D01*
X46220862Y-36190777D01*
X46233736Y-36191412D01*
X46245650Y-36196312D01*
X46328855Y-36196104D01*
X46411984Y-36200204D01*
X46424118Y-36195865D01*
X46437002Y-36195833D01*
X46513786Y-36163802D01*
X46592164Y-36135776D01*
X46601717Y-36127121D01*
X46613605Y-36122162D01*
X46672292Y-36063181D01*
X46733974Y-36007298D01*
X46739485Y-35995651D01*
X46748574Y-35986517D01*
X46780224Y-35909561D01*
X46815823Y-35834333D01*
X46818821Y-35773554D01*
X47174020Y-33964170D01*
X48289393Y-32967662D01*
X49810393Y-33469777D01*
X49850653Y-33492977D01*
X49900365Y-33499479D01*
X49902106Y-33500054D01*
X49947325Y-33505621D01*
X50040389Y-33517794D01*
X50042211Y-33517304D01*
X50044087Y-33517535D01*
X50134486Y-33492497D01*
X50225181Y-33468115D01*
X50226681Y-33466962D01*
X50228497Y-33466459D01*
X50302467Y-33408708D01*
X50338599Y-33380935D01*
X50339806Y-33379557D01*
X50379326Y-33348702D01*
X50402222Y-33308264D01*
X52823623Y-30542536D01*
X56362752Y-31429709D01*
X56399917Y-31448552D01*
X56454671Y-31452751D01*
X56461086Y-31454359D01*
X56501854Y-31456369D01*
X56542550Y-31459490D01*
X56549116Y-31458700D01*
X56603965Y-31461404D01*
X56643202Y-31447372D01*
X64617387Y-30487356D01*
X78334655Y-31377085D01*
X78363523Y-31387099D01*
X78429333Y-31383226D01*
X78446914Y-31384366D01*
X78476514Y-31380449D01*
X78506328Y-31378694D01*
X78523380Y-31374246D01*
X78588730Y-31365598D01*
X78615179Y-31350303D01*
X81930950Y-30485483D01*
X88601688Y-30485483D01*
X90737644Y-35909259D01*
G04 #@! TD*
M02*
