G04 #@! TF.GenerationSoftware,KiCad,Pcbnew,(6.0.0-rc1-dev-557-ge985f797c)*
G04 #@! TF.CreationDate,2019-12-08T22:28:22+01:00*
G04 #@! TF.ProjectId,36C3_Badge_Hardware,333643335F42616467655F4861726477,1.0*
G04 #@! TF.SameCoordinates,Original*
G04 #@! TF.FileFunction,Legend,Bot*
G04 #@! TF.FilePolarity,Positive*
%FSLAX46Y46*%
G04 Gerber Fmt 4.6, Leading zero omitted, Abs format (unit mm)*
G04 Created by KiCad (PCBNEW (6.0.0-rc1-dev-557-ge985f797c)) date 12/08/19 22:28:22*
%MOMM*%
%LPD*%
G01*
G04 APERTURE LIST*
%ADD10C,0.100000*%
%ADD11C,0.300000*%
%ADD12C,0.250000*%
%ADD13C,0.500000*%
%ADD14C,0.150000*%
%ADD15C,0.200000*%
%ADD16C,0.120000*%
G04 APERTURE END LIST*
D10*
X158325000Y-125226785D02*
X158325000Y-124476785D01*
X158146428Y-124476785D01*
X158039285Y-124512500D01*
X157967857Y-124583928D01*
X157932142Y-124655357D01*
X157896428Y-124798214D01*
X157896428Y-124905357D01*
X157932142Y-125048214D01*
X157967857Y-125119642D01*
X158039285Y-125191071D01*
X158146428Y-125226785D01*
X158325000Y-125226785D01*
X157289285Y-125191071D02*
X157360714Y-125226785D01*
X157503571Y-125226785D01*
X157575000Y-125191071D01*
X157610714Y-125119642D01*
X157610714Y-124833928D01*
X157575000Y-124762500D01*
X157503571Y-124726785D01*
X157360714Y-124726785D01*
X157289285Y-124762500D01*
X157253571Y-124833928D01*
X157253571Y-124905357D01*
X157610714Y-124976785D01*
X156967857Y-125191071D02*
X156896428Y-125226785D01*
X156753571Y-125226785D01*
X156682142Y-125191071D01*
X156646428Y-125119642D01*
X156646428Y-125083928D01*
X156682142Y-125012500D01*
X156753571Y-124976785D01*
X156860714Y-124976785D01*
X156932142Y-124941071D01*
X156967857Y-124869642D01*
X156967857Y-124833928D01*
X156932142Y-124762500D01*
X156860714Y-124726785D01*
X156753571Y-124726785D01*
X156682142Y-124762500D01*
X156325000Y-125226785D02*
X156325000Y-124726785D01*
X156325000Y-124476785D02*
X156360714Y-124512500D01*
X156325000Y-124548214D01*
X156289285Y-124512500D01*
X156325000Y-124476785D01*
X156325000Y-124548214D01*
X155646428Y-124726785D02*
X155646428Y-125333928D01*
X155682142Y-125405357D01*
X155717857Y-125441071D01*
X155789285Y-125476785D01*
X155896428Y-125476785D01*
X155967857Y-125441071D01*
X155646428Y-125191071D02*
X155717857Y-125226785D01*
X155860714Y-125226785D01*
X155932142Y-125191071D01*
X155967857Y-125155357D01*
X156003571Y-125083928D01*
X156003571Y-124869642D01*
X155967857Y-124798214D01*
X155932142Y-124762500D01*
X155860714Y-124726785D01*
X155717857Y-124726785D01*
X155646428Y-124762500D01*
X155289285Y-124726785D02*
X155289285Y-125226785D01*
X155289285Y-124798214D02*
X155253571Y-124762500D01*
X155182142Y-124726785D01*
X155075000Y-124726785D01*
X155003571Y-124762500D01*
X154967857Y-124833928D01*
X154967857Y-125226785D01*
X154325000Y-125191071D02*
X154396428Y-125226785D01*
X154539285Y-125226785D01*
X154610714Y-125191071D01*
X154646428Y-125119642D01*
X154646428Y-124833928D01*
X154610714Y-124762500D01*
X154539285Y-124726785D01*
X154396428Y-124726785D01*
X154325000Y-124762500D01*
X154289285Y-124833928D01*
X154289285Y-124905357D01*
X154646428Y-124976785D01*
X153646428Y-125226785D02*
X153646428Y-124476785D01*
X153646428Y-125191071D02*
X153717857Y-125226785D01*
X153860714Y-125226785D01*
X153932142Y-125191071D01*
X153967857Y-125155357D01*
X154003571Y-125083928D01*
X154003571Y-124869642D01*
X153967857Y-124798214D01*
X153932142Y-124762500D01*
X153860714Y-124726785D01*
X153717857Y-124726785D01*
X153646428Y-124762500D01*
X152717857Y-125226785D02*
X152717857Y-124476785D01*
X152717857Y-124762500D02*
X152646428Y-124726785D01*
X152503571Y-124726785D01*
X152432142Y-124762500D01*
X152396428Y-124798214D01*
X152360714Y-124869642D01*
X152360714Y-125083928D01*
X152396428Y-125155357D01*
X152432142Y-125191071D01*
X152503571Y-125226785D01*
X152646428Y-125226785D01*
X152717857Y-125191071D01*
X152110714Y-124726785D02*
X151932142Y-125226785D01*
X151753571Y-124726785D02*
X151932142Y-125226785D01*
X152003571Y-125405357D01*
X152039285Y-125441071D01*
X152110714Y-125476785D01*
X150467857Y-125155357D02*
X150503571Y-125191071D01*
X150610714Y-125226785D01*
X150682142Y-125226785D01*
X150789285Y-125191071D01*
X150860714Y-125119642D01*
X150896428Y-125048214D01*
X150932142Y-124905357D01*
X150932142Y-124798214D01*
X150896428Y-124655357D01*
X150860714Y-124583928D01*
X150789285Y-124512500D01*
X150682142Y-124476785D01*
X150610714Y-124476785D01*
X150503571Y-124512500D01*
X150467857Y-124548214D01*
X149825000Y-125226785D02*
X149825000Y-124833928D01*
X149860714Y-124762500D01*
X149932142Y-124726785D01*
X150075000Y-124726785D01*
X150146428Y-124762500D01*
X149825000Y-125191071D02*
X149896428Y-125226785D01*
X150075000Y-125226785D01*
X150146428Y-125191071D01*
X150182142Y-125119642D01*
X150182142Y-125048214D01*
X150146428Y-124976785D01*
X150075000Y-124941071D01*
X149896428Y-124941071D01*
X149825000Y-124905357D01*
X149575000Y-124726785D02*
X149289285Y-124726785D01*
X149467857Y-124476785D02*
X149467857Y-125119642D01*
X149432142Y-125191071D01*
X149360714Y-125226785D01*
X149289285Y-125226785D01*
X148932142Y-125226785D02*
X149003571Y-125191071D01*
X149039285Y-125155357D01*
X149075000Y-125083928D01*
X149075000Y-124869642D01*
X149039285Y-124798214D01*
X149003571Y-124762500D01*
X148932142Y-124726785D01*
X148825000Y-124726785D01*
X148753571Y-124762500D01*
X148717857Y-124798214D01*
X148682142Y-124869642D01*
X148682142Y-125083928D01*
X148717857Y-125155357D01*
X148753571Y-125191071D01*
X148825000Y-125226785D01*
X148932142Y-125226785D01*
X147789285Y-124941071D02*
X147217857Y-124941071D01*
X145825000Y-124869642D02*
X145860714Y-124833928D01*
X145932142Y-124798214D01*
X146003571Y-124798214D01*
X146075000Y-124833928D01*
X146110714Y-124869642D01*
X146146428Y-124941071D01*
X146146428Y-125012500D01*
X146110714Y-125083928D01*
X146075000Y-125119642D01*
X146003571Y-125155357D01*
X145932142Y-125155357D01*
X145860714Y-125119642D01*
X145825000Y-125083928D01*
X145825000Y-124798214D02*
X145825000Y-125083928D01*
X145789285Y-125119642D01*
X145753571Y-125119642D01*
X145682142Y-125083928D01*
X145646428Y-125012500D01*
X145646428Y-124833928D01*
X145717857Y-124726785D01*
X145825000Y-124655357D01*
X145967857Y-124619642D01*
X146110714Y-124655357D01*
X146217857Y-124726785D01*
X146289285Y-124833928D01*
X146325000Y-124976785D01*
X146289285Y-125119642D01*
X146217857Y-125226785D01*
X146110714Y-125298214D01*
X145967857Y-125333928D01*
X145825000Y-125298214D01*
X145717857Y-125226785D01*
X145325000Y-125226785D02*
X145325000Y-124476785D01*
X145075000Y-125012500D01*
X144825000Y-124476785D01*
X144825000Y-125226785D01*
X144182142Y-125191071D02*
X144253571Y-125226785D01*
X144396428Y-125226785D01*
X144467857Y-125191071D01*
X144503571Y-125119642D01*
X144503571Y-124833928D01*
X144467857Y-124762500D01*
X144396428Y-124726785D01*
X144253571Y-124726785D01*
X144182142Y-124762500D01*
X144146428Y-124833928D01*
X144146428Y-124905357D01*
X144503571Y-124976785D01*
X143896428Y-124726785D02*
X143503571Y-124726785D01*
X143896428Y-125226785D01*
X143503571Y-125226785D01*
X142896428Y-124726785D02*
X142896428Y-125333928D01*
X142932142Y-125405357D01*
X142967857Y-125441071D01*
X143039285Y-125476785D01*
X143146428Y-125476785D01*
X143217857Y-125441071D01*
X142896428Y-125191071D02*
X142967857Y-125226785D01*
X143110714Y-125226785D01*
X143182142Y-125191071D01*
X143217857Y-125155357D01*
X143253571Y-125083928D01*
X143253571Y-124869642D01*
X143217857Y-124798214D01*
X143182142Y-124762500D01*
X143110714Y-124726785D01*
X142967857Y-124726785D01*
X142896428Y-124762500D01*
X142539285Y-125226785D02*
X142539285Y-124726785D01*
X142539285Y-124869642D02*
X142503571Y-124798214D01*
X142467857Y-124762500D01*
X142396428Y-124726785D01*
X142325000Y-124726785D01*
X142075000Y-125226785D02*
X142075000Y-124726785D01*
X142075000Y-124798214D02*
X142039285Y-124762500D01*
X141967857Y-124726785D01*
X141860714Y-124726785D01*
X141789285Y-124762500D01*
X141753571Y-124833928D01*
X141753571Y-125226785D01*
X141753571Y-124833928D02*
X141717857Y-124762500D01*
X141646428Y-124726785D01*
X141539285Y-124726785D01*
X141467857Y-124762500D01*
X141432142Y-124833928D01*
X141432142Y-125226785D01*
X140753571Y-125226785D02*
X140753571Y-124833928D01*
X140789285Y-124762500D01*
X140860714Y-124726785D01*
X141003571Y-124726785D01*
X141075000Y-124762500D01*
X140753571Y-125191071D02*
X140825000Y-125226785D01*
X141003571Y-125226785D01*
X141075000Y-125191071D01*
X141110714Y-125119642D01*
X141110714Y-125048214D01*
X141075000Y-124976785D01*
X141003571Y-124941071D01*
X140825000Y-124941071D01*
X140753571Y-124905357D01*
X140396428Y-124726785D02*
X140396428Y-125226785D01*
X140396428Y-124798214D02*
X140360714Y-124762500D01*
X140289285Y-124726785D01*
X140182142Y-124726785D01*
X140110714Y-124762500D01*
X140075000Y-124833928D01*
X140075000Y-125226785D01*
X155110714Y-126451785D02*
X155360714Y-126094642D01*
X155539285Y-126451785D02*
X155539285Y-125701785D01*
X155253571Y-125701785D01*
X155182142Y-125737500D01*
X155146428Y-125773214D01*
X155110714Y-125844642D01*
X155110714Y-125951785D01*
X155146428Y-126023214D01*
X155182142Y-126058928D01*
X155253571Y-126094642D01*
X155539285Y-126094642D01*
X154503571Y-126416071D02*
X154575000Y-126451785D01*
X154717857Y-126451785D01*
X154789285Y-126416071D01*
X154825000Y-126344642D01*
X154825000Y-126058928D01*
X154789285Y-125987500D01*
X154717857Y-125951785D01*
X154575000Y-125951785D01*
X154503571Y-125987500D01*
X154467857Y-126058928D01*
X154467857Y-126130357D01*
X154825000Y-126201785D01*
X154217857Y-125951785D02*
X154039285Y-126451785D01*
X153860714Y-125951785D01*
X153575000Y-126380357D02*
X153539285Y-126416071D01*
X153575000Y-126451785D01*
X153610714Y-126416071D01*
X153575000Y-126380357D01*
X153575000Y-126451785D01*
X152253571Y-126451785D02*
X152682142Y-126451785D01*
X152467857Y-126451785D02*
X152467857Y-125701785D01*
X152539285Y-125808928D01*
X152610714Y-125880357D01*
X152682142Y-125916071D01*
X151932142Y-126380357D02*
X151896428Y-126416071D01*
X151932142Y-126451785D01*
X151967857Y-126416071D01*
X151932142Y-126380357D01*
X151932142Y-126451785D01*
X151432142Y-125701785D02*
X151360714Y-125701785D01*
X151289285Y-125737500D01*
X151253571Y-125773214D01*
X151217857Y-125844642D01*
X151182142Y-125987500D01*
X151182142Y-126166071D01*
X151217857Y-126308928D01*
X151253571Y-126380357D01*
X151289285Y-126416071D01*
X151360714Y-126451785D01*
X151432142Y-126451785D01*
X151503571Y-126416071D01*
X151539285Y-126380357D01*
X151575000Y-126308928D01*
X151610714Y-126166071D01*
X151610714Y-125987500D01*
X151575000Y-125844642D01*
X151539285Y-125773214D01*
X151503571Y-125737500D01*
X151432142Y-125701785D01*
X149753571Y-125666071D02*
X150396428Y-126630357D01*
X148789285Y-125701785D02*
X148717857Y-125701785D01*
X148646428Y-125737500D01*
X148610714Y-125773214D01*
X148575000Y-125844642D01*
X148539285Y-125987500D01*
X148539285Y-126166071D01*
X148575000Y-126308928D01*
X148610714Y-126380357D01*
X148646428Y-126416071D01*
X148717857Y-126451785D01*
X148789285Y-126451785D01*
X148860714Y-126416071D01*
X148896428Y-126380357D01*
X148932142Y-126308928D01*
X148967857Y-126166071D01*
X148967857Y-125987500D01*
X148932142Y-125844642D01*
X148896428Y-125773214D01*
X148860714Y-125737500D01*
X148789285Y-125701785D01*
X148110714Y-126023214D02*
X148182142Y-125987500D01*
X148217857Y-125951785D01*
X148253571Y-125880357D01*
X148253571Y-125844642D01*
X148217857Y-125773214D01*
X148182142Y-125737500D01*
X148110714Y-125701785D01*
X147967857Y-125701785D01*
X147896428Y-125737500D01*
X147860714Y-125773214D01*
X147825000Y-125844642D01*
X147825000Y-125880357D01*
X147860714Y-125951785D01*
X147896428Y-125987500D01*
X147967857Y-126023214D01*
X148110714Y-126023214D01*
X148182142Y-126058928D01*
X148217857Y-126094642D01*
X148253571Y-126166071D01*
X148253571Y-126308928D01*
X148217857Y-126380357D01*
X148182142Y-126416071D01*
X148110714Y-126451785D01*
X147967857Y-126451785D01*
X147896428Y-126416071D01*
X147860714Y-126380357D01*
X147825000Y-126308928D01*
X147825000Y-126166071D01*
X147860714Y-126094642D01*
X147896428Y-126058928D01*
X147967857Y-126023214D01*
X147503571Y-126380357D02*
X147467857Y-126416071D01*
X147503571Y-126451785D01*
X147539285Y-126416071D01*
X147503571Y-126380357D01*
X147503571Y-126451785D01*
X146753571Y-126451785D02*
X147182142Y-126451785D01*
X146967857Y-126451785D02*
X146967857Y-125701785D01*
X147039285Y-125808928D01*
X147110714Y-125880357D01*
X147182142Y-125916071D01*
X146467857Y-125773214D02*
X146432142Y-125737500D01*
X146360714Y-125701785D01*
X146182142Y-125701785D01*
X146110714Y-125737500D01*
X146075000Y-125773214D01*
X146039285Y-125844642D01*
X146039285Y-125916071D01*
X146075000Y-126023214D01*
X146503571Y-126451785D01*
X146039285Y-126451785D01*
X145717857Y-126380357D02*
X145682142Y-126416071D01*
X145717857Y-126451785D01*
X145753571Y-126416071D01*
X145717857Y-126380357D01*
X145717857Y-126451785D01*
X145396428Y-125773214D02*
X145360714Y-125737500D01*
X145289285Y-125701785D01*
X145110714Y-125701785D01*
X145039285Y-125737500D01*
X145003571Y-125773214D01*
X144967857Y-125844642D01*
X144967857Y-125916071D01*
X145003571Y-126023214D01*
X145432142Y-126451785D01*
X144967857Y-126451785D01*
X144503571Y-125701785D02*
X144432142Y-125701785D01*
X144360714Y-125737500D01*
X144325000Y-125773214D01*
X144289285Y-125844642D01*
X144253571Y-125987500D01*
X144253571Y-126166071D01*
X144289285Y-126308928D01*
X144325000Y-126380357D01*
X144360714Y-126416071D01*
X144432142Y-126451785D01*
X144503571Y-126451785D01*
X144575000Y-126416071D01*
X144610714Y-126380357D01*
X144646428Y-126308928D01*
X144682142Y-126166071D01*
X144682142Y-125987500D01*
X144646428Y-125844642D01*
X144610714Y-125773214D01*
X144575000Y-125737500D01*
X144503571Y-125701785D01*
X143539285Y-126451785D02*
X143967857Y-126451785D01*
X143753571Y-126451785D02*
X143753571Y-125701785D01*
X143825000Y-125808928D01*
X143896428Y-125880357D01*
X143967857Y-125916071D01*
X143182142Y-126451785D02*
X143039285Y-126451785D01*
X142967857Y-126416071D01*
X142932142Y-126380357D01*
X142860714Y-126273214D01*
X142825000Y-126130357D01*
X142825000Y-125844642D01*
X142860714Y-125773214D01*
X142896428Y-125737500D01*
X142967857Y-125701785D01*
X143110714Y-125701785D01*
X143182142Y-125737500D01*
X143217857Y-125773214D01*
X143253571Y-125844642D01*
X143253571Y-126023214D01*
X143217857Y-126094642D01*
X143182142Y-126130357D01*
X143110714Y-126166071D01*
X142967857Y-126166071D01*
X142896428Y-126130357D01*
X142860714Y-126094642D01*
X142825000Y-126023214D01*
D11*
X73142857Y-117678571D02*
X72857142Y-117678571D01*
X72714285Y-117750000D01*
X72571428Y-117892857D01*
X72500000Y-118178571D01*
X72500000Y-118678571D01*
X72571428Y-118964285D01*
X72714285Y-119107142D01*
X72857142Y-119178571D01*
X73142857Y-119178571D01*
X73285714Y-119107142D01*
X73428571Y-118964285D01*
X73500000Y-118678571D01*
X73500000Y-118178571D01*
X73428571Y-117892857D01*
X73285714Y-117750000D01*
X73142857Y-117678571D01*
X73000000Y-115978571D02*
X73000000Y-114478571D01*
D12*
X83057142Y-48678571D02*
X83557142Y-47964285D01*
X83914285Y-48678571D02*
X83914285Y-47178571D01*
X83342857Y-47178571D01*
X83200000Y-47250000D01*
X83128571Y-47321428D01*
X83057142Y-47464285D01*
X83057142Y-47678571D01*
X83128571Y-47821428D01*
X83200000Y-47892857D01*
X83342857Y-47964285D01*
X83914285Y-47964285D01*
X81842857Y-48607142D02*
X81985714Y-48678571D01*
X82271428Y-48678571D01*
X82414285Y-48607142D01*
X82485714Y-48464285D01*
X82485714Y-47892857D01*
X82414285Y-47750000D01*
X82271428Y-47678571D01*
X81985714Y-47678571D01*
X81842857Y-47750000D01*
X81771428Y-47892857D01*
X81771428Y-48035714D01*
X82485714Y-48178571D01*
X81200000Y-48607142D02*
X81057142Y-48678571D01*
X80771428Y-48678571D01*
X80628571Y-48607142D01*
X80557142Y-48464285D01*
X80557142Y-48392857D01*
X80628571Y-48250000D01*
X80771428Y-48178571D01*
X80985714Y-48178571D01*
X81128571Y-48107142D01*
X81200000Y-47964285D01*
X81200000Y-47892857D01*
X81128571Y-47750000D01*
X80985714Y-47678571D01*
X80771428Y-47678571D01*
X80628571Y-47750000D01*
X79342857Y-48607142D02*
X79485714Y-48678571D01*
X79771428Y-48678571D01*
X79914285Y-48607142D01*
X79985714Y-48464285D01*
X79985714Y-47892857D01*
X79914285Y-47750000D01*
X79771428Y-47678571D01*
X79485714Y-47678571D01*
X79342857Y-47750000D01*
X79271428Y-47892857D01*
X79271428Y-48035714D01*
X79985714Y-48178571D01*
X78842857Y-47678571D02*
X78271428Y-47678571D01*
X78628571Y-47178571D02*
X78628571Y-48464285D01*
X78557142Y-48607142D01*
X78414285Y-48678571D01*
X78271428Y-48678571D01*
D13*
X62985714Y-47785714D02*
X62557142Y-47928571D01*
X62414285Y-48071428D01*
X62271428Y-48357142D01*
X62271428Y-48785714D01*
X62414285Y-49071428D01*
X62557142Y-49214285D01*
X62842857Y-49357142D01*
X63985714Y-49357142D01*
X63985714Y-46357142D01*
X62985714Y-46357142D01*
X62700000Y-46500000D01*
X62557142Y-46642857D01*
X62414285Y-46928571D01*
X62414285Y-47214285D01*
X62557142Y-47500000D01*
X62700000Y-47642857D01*
X62985714Y-47785714D01*
X63985714Y-47785714D01*
X72914285Y-48500000D02*
X71485714Y-48500000D01*
X73200000Y-49357142D02*
X72200000Y-46357142D01*
X71200000Y-49357142D01*
D14*
X168346428Y-124489285D02*
X168346428Y-125096428D01*
X168310714Y-125167857D01*
X168275000Y-125203571D01*
X168203571Y-125239285D01*
X168060714Y-125239285D01*
X167989285Y-125203571D01*
X167953571Y-125167857D01*
X167917857Y-125096428D01*
X167917857Y-124489285D01*
X167596428Y-125203571D02*
X167489285Y-125239285D01*
X167310714Y-125239285D01*
X167239285Y-125203571D01*
X167203571Y-125167857D01*
X167167857Y-125096428D01*
X167167857Y-125025000D01*
X167203571Y-124953571D01*
X167239285Y-124917857D01*
X167310714Y-124882142D01*
X167453571Y-124846428D01*
X167525000Y-124810714D01*
X167560714Y-124775000D01*
X167596428Y-124703571D01*
X167596428Y-124632142D01*
X167560714Y-124560714D01*
X167525000Y-124525000D01*
X167453571Y-124489285D01*
X167275000Y-124489285D01*
X167167857Y-124525000D01*
X166596428Y-124846428D02*
X166489285Y-124882142D01*
X166453571Y-124917857D01*
X166417857Y-124989285D01*
X166417857Y-125096428D01*
X166453571Y-125167857D01*
X166489285Y-125203571D01*
X166560714Y-125239285D01*
X166846428Y-125239285D01*
X166846428Y-124489285D01*
X166596428Y-124489285D01*
X166525000Y-124525000D01*
X166489285Y-124560714D01*
X166453571Y-124632142D01*
X166453571Y-124703571D01*
X166489285Y-124775000D01*
X166525000Y-124810714D01*
X166596428Y-124846428D01*
X166846428Y-124846428D01*
D15*
X167800000Y-121700000D02*
X168500000Y-121100000D01*
X168500000Y-121100000D02*
X166300000Y-121100000D01*
X166300000Y-120700000D02*
X168500000Y-120700000D01*
X167000000Y-120100000D02*
X166300000Y-120700000D01*
D13*
G04 #@! TO.C,BT1*
X83100000Y-116800000D02*
X87100000Y-116800000D01*
X91100000Y-116800000D02*
X95100000Y-116800000D01*
X85100000Y-118800000D02*
X85100000Y-114800000D01*
D15*
G04 #@! TO.C,J1*
X190650000Y-119350000D02*
X189600000Y-119350000D01*
X190650000Y-111450000D02*
X189600000Y-111450000D01*
X185550000Y-117050000D02*
X185550000Y-117300000D01*
X185550000Y-113500000D02*
X185550000Y-113750000D01*
X187400000Y-111450000D02*
X186900000Y-111450000D01*
X190650000Y-119350000D02*
X190650000Y-111450000D01*
X186900000Y-119350000D02*
X187400000Y-119350000D01*
D14*
G04 #@! TO.C,Y1*
X101749620Y-71000640D02*
X101749620Y-71849000D01*
X101749620Y-75999360D02*
X101749620Y-75151000D01*
X90050380Y-71000640D02*
X90050380Y-71849000D01*
X90050380Y-75999360D02*
X90050380Y-75151000D01*
X90050380Y-71000640D02*
X101749620Y-71000640D01*
X101749620Y-75999360D02*
X90050380Y-75999360D01*
G04 #@! TO.C,U6*
X106375000Y-83625000D02*
X106375000Y-83400000D01*
X113625000Y-83625000D02*
X113625000Y-83300000D01*
X113625000Y-76375000D02*
X113625000Y-76700000D01*
X106375000Y-76375000D02*
X106375000Y-76700000D01*
X106375000Y-83625000D02*
X106700000Y-83625000D01*
X106375000Y-76375000D02*
X106700000Y-76375000D01*
X113625000Y-76375000D02*
X113300000Y-76375000D01*
X113625000Y-83625000D02*
X113300000Y-83625000D01*
X106375000Y-83400000D02*
X104950000Y-83400000D01*
D10*
G04 #@! TO.C,U5*
X179200000Y-52500000D02*
X179200000Y-52000000D01*
X179700000Y-52500000D02*
X179200000Y-52500000D01*
X179700000Y-55000000D02*
X179700000Y-52000000D01*
X178100000Y-55000000D02*
X179700000Y-55000000D01*
X178100000Y-52000000D02*
X178100000Y-55000000D01*
X179700000Y-52000000D02*
X178100000Y-52000000D01*
D14*
G04 #@! TO.C,U4*
X178075000Y-121775000D02*
X178025000Y-121775000D01*
X178075000Y-117625000D02*
X177930000Y-117625000D01*
X172925000Y-117625000D02*
X173070000Y-117625000D01*
X172925000Y-121775000D02*
X173070000Y-121775000D01*
X178075000Y-121775000D02*
X178075000Y-117625000D01*
X172925000Y-121775000D02*
X172925000Y-117625000D01*
X178025000Y-121775000D02*
X178025000Y-123175000D01*
G04 #@! TO.C,U3*
X121750000Y-123650000D02*
X121750000Y-124425000D01*
X126050000Y-127950000D02*
X126050000Y-127175000D01*
X121750000Y-127950000D02*
X121750000Y-127175000D01*
X126050000Y-123650000D02*
X125275000Y-123650000D01*
X126050000Y-127950000D02*
X125275000Y-127950000D01*
X121750000Y-127950000D02*
X122525000Y-127950000D01*
X121750000Y-123650000D02*
X122525000Y-123650000D01*
D16*
G04 #@! TO.C,U2*
X85900000Y-113510000D02*
X84100000Y-113510000D01*
X84100000Y-110290000D02*
X86550000Y-110290000D01*
G04 #@! TO.C,U1*
X122610000Y-113200000D02*
X122610000Y-115000000D01*
X119390000Y-115000000D02*
X119390000Y-112550000D01*
D14*
G04 #@! TO.C,SW4*
X56900000Y-36850000D02*
X56450000Y-36400000D01*
X55200000Y-35600000D02*
X53200000Y-35600000D01*
X51950000Y-36400000D02*
X51500000Y-36850000D01*
X51500000Y-36850000D02*
X51500000Y-39750000D01*
X51500000Y-39750000D02*
X51950000Y-40200000D01*
X53200000Y-41000000D02*
X55200000Y-41000000D01*
X56450000Y-40200000D02*
X56900000Y-39750000D01*
X56900000Y-39750000D02*
X56900000Y-36850000D01*
X56000000Y-37100000D02*
X55400000Y-36500000D01*
X55400000Y-36500000D02*
X53000000Y-36500000D01*
X53000000Y-36500000D02*
X52400000Y-37100000D01*
X52400000Y-37100000D02*
X52400000Y-39500000D01*
X52400000Y-39500000D02*
X53000000Y-40100000D01*
X53000000Y-40100000D02*
X55400000Y-40100000D01*
X55400000Y-40100000D02*
X56000000Y-39500000D01*
X56000000Y-39500000D02*
X56000000Y-37100000D01*
X55200000Y-38300000D02*
G75*
G03X55200000Y-38300000I-1000000J0D01*
G01*
G04 #@! TO.C,SW3*
X64200000Y-38300000D02*
G75*
G03X64200000Y-38300000I-1000000J0D01*
G01*
X65000000Y-39500000D02*
X65000000Y-37100000D01*
X64400000Y-40100000D02*
X65000000Y-39500000D01*
X62000000Y-40100000D02*
X64400000Y-40100000D01*
X61400000Y-39500000D02*
X62000000Y-40100000D01*
X61400000Y-37100000D02*
X61400000Y-39500000D01*
X62000000Y-36500000D02*
X61400000Y-37100000D01*
X64400000Y-36500000D02*
X62000000Y-36500000D01*
X65000000Y-37100000D02*
X64400000Y-36500000D01*
X65900000Y-39750000D02*
X65900000Y-36850000D01*
X65450000Y-40200000D02*
X65900000Y-39750000D01*
X62200000Y-41000000D02*
X64200000Y-41000000D01*
X60500000Y-39750000D02*
X60950000Y-40200000D01*
X60500000Y-36850000D02*
X60500000Y-39750000D01*
X60950000Y-36400000D02*
X60500000Y-36850000D01*
X64200000Y-35600000D02*
X62200000Y-35600000D01*
X65900000Y-36850000D02*
X65450000Y-36400000D01*
G04 #@! TO.C,SW2*
X73200000Y-38300000D02*
G75*
G03X73200000Y-38300000I-1000000J0D01*
G01*
X74000000Y-39500000D02*
X74000000Y-37100000D01*
X73400000Y-40100000D02*
X74000000Y-39500000D01*
X71000000Y-40100000D02*
X73400000Y-40100000D01*
X70400000Y-39500000D02*
X71000000Y-40100000D01*
X70400000Y-37100000D02*
X70400000Y-39500000D01*
X71000000Y-36500000D02*
X70400000Y-37100000D01*
X73400000Y-36500000D02*
X71000000Y-36500000D01*
X74000000Y-37100000D02*
X73400000Y-36500000D01*
X74900000Y-39750000D02*
X74900000Y-36850000D01*
X74450000Y-40200000D02*
X74900000Y-39750000D01*
X71200000Y-41000000D02*
X73200000Y-41000000D01*
X69500000Y-39750000D02*
X69950000Y-40200000D01*
X69500000Y-36850000D02*
X69500000Y-39750000D01*
X69950000Y-36400000D02*
X69500000Y-36850000D01*
X73200000Y-35600000D02*
X71200000Y-35600000D01*
X74900000Y-36850000D02*
X74450000Y-36400000D01*
G04 #@! TO.C,SW1*
X82200000Y-38300000D02*
G75*
G03X82200000Y-38300000I-1000000J0D01*
G01*
X83000000Y-39500000D02*
X83000000Y-37100000D01*
X82400000Y-40100000D02*
X83000000Y-39500000D01*
X80000000Y-40100000D02*
X82400000Y-40100000D01*
X79400000Y-39500000D02*
X80000000Y-40100000D01*
X79400000Y-37100000D02*
X79400000Y-39500000D01*
X80000000Y-36500000D02*
X79400000Y-37100000D01*
X82400000Y-36500000D02*
X80000000Y-36500000D01*
X83000000Y-37100000D02*
X82400000Y-36500000D01*
X83900000Y-39750000D02*
X83900000Y-36850000D01*
X83450000Y-40200000D02*
X83900000Y-39750000D01*
X80200000Y-41000000D02*
X82200000Y-41000000D01*
X78500000Y-39750000D02*
X78950000Y-40200000D01*
X78500000Y-36850000D02*
X78500000Y-39750000D01*
X78950000Y-36400000D02*
X78500000Y-36850000D01*
X82200000Y-35600000D02*
X80200000Y-35600000D01*
X83900000Y-36850000D02*
X83450000Y-36400000D01*
G04 #@! TO.C,R43*
X110275000Y-90500000D02*
X110275000Y-89500000D01*
X108925000Y-89500000D02*
X108925000Y-90500000D01*
G04 #@! TO.C,R42*
X120500000Y-81325000D02*
X119500000Y-81325000D01*
X119500000Y-82675000D02*
X120500000Y-82675000D01*
G04 #@! TO.C,R41*
X55300000Y-44475000D02*
X56300000Y-44475000D01*
X56300000Y-43125000D02*
X55300000Y-43125000D01*
G04 #@! TO.C,R40*
X64300000Y-44475000D02*
X65300000Y-44475000D01*
X65300000Y-43125000D02*
X64300000Y-43125000D01*
G04 #@! TO.C,R39*
X143425000Y-64000000D02*
X143425000Y-65000000D01*
X144775000Y-65000000D02*
X144775000Y-64000000D01*
G04 #@! TO.C,R38*
X73300000Y-44475000D02*
X74300000Y-44475000D01*
X74300000Y-43125000D02*
X73300000Y-43125000D01*
G04 #@! TO.C,R37*
X82300000Y-44475000D02*
X83300000Y-44475000D01*
X83300000Y-43125000D02*
X82300000Y-43125000D01*
G04 #@! TO.C,R36*
X101600000Y-42075000D02*
X102600000Y-42075000D01*
X102600000Y-40725000D02*
X101600000Y-40725000D01*
G04 #@! TO.C,R35*
X154425000Y-48300000D02*
X154425000Y-49300000D01*
X155775000Y-49300000D02*
X155775000Y-48300000D01*
G04 #@! TO.C,R34*
X100700000Y-36725000D02*
X101500000Y-36725000D01*
X100700000Y-33475000D02*
X101500000Y-33475000D01*
G04 #@! TO.C,R33*
X87500000Y-45575000D02*
X86700000Y-45575000D01*
X87500000Y-48825000D02*
X86700000Y-48825000D01*
G04 #@! TO.C,R32*
X161900000Y-64775000D02*
X162900000Y-64775000D01*
X162900000Y-63425000D02*
X161900000Y-63425000D01*
G04 #@! TO.C,R31*
X161900000Y-59775000D02*
X162900000Y-59775000D01*
X162900000Y-58425000D02*
X161900000Y-58425000D01*
G04 #@! TO.C,R30*
X157200000Y-100425000D02*
X156200000Y-100425000D01*
X156200000Y-101775000D02*
X157200000Y-101775000D01*
G04 #@! TO.C,R29*
X174675000Y-110700000D02*
X174675000Y-111500000D01*
X177925000Y-110700000D02*
X177925000Y-111500000D01*
G04 #@! TO.C,R28*
X147575000Y-120400000D02*
X147575000Y-121200000D01*
X150825000Y-120400000D02*
X150825000Y-121200000D01*
G04 #@! TO.C,R27*
X145225000Y-104300000D02*
X145225000Y-103500000D01*
X141975000Y-104300000D02*
X141975000Y-103500000D01*
G04 #@! TO.C,R26*
X180125000Y-92400000D02*
X180125000Y-91600000D01*
X176875000Y-92400000D02*
X176875000Y-91600000D01*
G04 #@! TO.C,R25*
X35425000Y-120700000D02*
X35425000Y-121700000D01*
X36775000Y-121700000D02*
X36775000Y-120700000D01*
G04 #@! TO.C,R24*
X40925000Y-102500000D02*
X40925000Y-101700000D01*
X37675000Y-102500000D02*
X37675000Y-101700000D01*
G04 #@! TO.C,R23*
X40275000Y-118300000D02*
X40275000Y-119100000D01*
X43525000Y-118300000D02*
X43525000Y-119100000D01*
G04 #@! TO.C,R22*
X175500000Y-63425000D02*
X174500000Y-63425000D01*
X174500000Y-64775000D02*
X175500000Y-64775000D01*
G04 #@! TO.C,R21*
X175500000Y-56625000D02*
X174500000Y-56625000D01*
X174500000Y-57975000D02*
X175500000Y-57975000D01*
G04 #@! TO.C,R20*
X48125000Y-64500000D02*
X48125000Y-65500000D01*
X49475000Y-65500000D02*
X49475000Y-64500000D01*
G04 #@! TO.C,R19*
X43925000Y-42500000D02*
X43925000Y-41700000D01*
X40675000Y-42500000D02*
X40675000Y-41700000D01*
G04 #@! TO.C,R18*
X74625000Y-59400000D02*
X74625000Y-58600000D01*
X71375000Y-59400000D02*
X71375000Y-58600000D01*
G04 #@! TO.C,R17*
X37475000Y-60100000D02*
X37475000Y-60900000D01*
X40725000Y-60100000D02*
X40725000Y-60900000D01*
G04 #@! TO.C,R16*
X139325000Y-56000000D02*
X139325000Y-57000000D01*
X140675000Y-57000000D02*
X140675000Y-56000000D01*
G04 #@! TO.C,R15*
X149100000Y-43925000D02*
X149900000Y-43925000D01*
X149100000Y-40675000D02*
X149900000Y-40675000D01*
G04 #@! TO.C,R14*
X127800000Y-39575000D02*
X127000000Y-39575000D01*
X127800000Y-42825000D02*
X127000000Y-42825000D01*
G04 #@! TO.C,R12*
X163600000Y-119775000D02*
X164600000Y-119775000D01*
X164600000Y-118425000D02*
X163600000Y-118425000D01*
G04 #@! TO.C,R11*
X163600000Y-123375000D02*
X164600000Y-123375000D01*
X164600000Y-122025000D02*
X163600000Y-122025000D01*
G04 #@! TO.C,R10*
X164600000Y-125625000D02*
X163600000Y-125625000D01*
X163600000Y-126975000D02*
X164600000Y-126975000D01*
G04 #@! TO.C,R9*
X124175000Y-109800000D02*
X124175000Y-108800000D01*
X122825000Y-108800000D02*
X122825000Y-109800000D01*
G04 #@! TO.C,R8*
X124175000Y-106500000D02*
X124175000Y-105500000D01*
X122825000Y-105500000D02*
X122825000Y-106500000D01*
G04 #@! TO.C,R7*
X129200000Y-127975000D02*
X130200000Y-127975000D01*
X130200000Y-126625000D02*
X129200000Y-126625000D01*
G04 #@! TO.C,R6*
X118300000Y-126425000D02*
X117300000Y-126425000D01*
X117300000Y-127775000D02*
X118300000Y-127775000D01*
G04 #@! TO.C,R5*
X129200000Y-125775000D02*
X130200000Y-125775000D01*
X130200000Y-124425000D02*
X129200000Y-124425000D01*
G04 #@! TO.C,R4*
X130200000Y-122225000D02*
X129200000Y-122225000D01*
X129200000Y-123575000D02*
X130200000Y-123575000D01*
G04 #@! TO.C,R3*
X87525000Y-110200000D02*
X87525000Y-111200000D01*
X88875000Y-111200000D02*
X88875000Y-110200000D01*
G04 #@! TO.C,R2*
X118300000Y-124325000D02*
X117300000Y-124325000D01*
X117300000Y-125675000D02*
X118300000Y-125675000D01*
G04 #@! TO.C,R1*
X78400000Y-112575000D02*
X79400000Y-112575000D01*
X79400000Y-111225000D02*
X78400000Y-111225000D01*
D16*
G04 #@! TO.C,Q10*
X97640000Y-43980000D02*
X97640000Y-43050000D01*
X97640000Y-40820000D02*
X97640000Y-41750000D01*
X97640000Y-40820000D02*
X99800000Y-40820000D01*
X97640000Y-43980000D02*
X99100000Y-43980000D01*
G04 #@! TO.C,Q9*
X166760000Y-61620000D02*
X166760000Y-62550000D01*
X166760000Y-64780000D02*
X166760000Y-63850000D01*
X166760000Y-64780000D02*
X164600000Y-64780000D01*
X166760000Y-61620000D02*
X165300000Y-61620000D01*
G04 #@! TO.C,Q8*
X166760000Y-56620000D02*
X166760000Y-57550000D01*
X166760000Y-59780000D02*
X166760000Y-58850000D01*
X166760000Y-59780000D02*
X164600000Y-59780000D01*
X166760000Y-56620000D02*
X165300000Y-56620000D01*
G04 #@! TO.C,Q7*
X161260000Y-98520000D02*
X161260000Y-99450000D01*
X161260000Y-101680000D02*
X161260000Y-100750000D01*
X161260000Y-101680000D02*
X159100000Y-101680000D01*
X161260000Y-98520000D02*
X159800000Y-98520000D01*
G04 #@! TO.C,Q6*
X33520000Y-116740000D02*
X34450000Y-116740000D01*
X36680000Y-116740000D02*
X35750000Y-116740000D01*
X36680000Y-116740000D02*
X36680000Y-118900000D01*
X33520000Y-116740000D02*
X33520000Y-118200000D01*
G04 #@! TO.C,Q5*
X172160000Y-61620000D02*
X172160000Y-62550000D01*
X172160000Y-64780000D02*
X172160000Y-63850000D01*
X172160000Y-64780000D02*
X170000000Y-64780000D01*
X172160000Y-61620000D02*
X170700000Y-61620000D01*
G04 #@! TO.C,Q4*
X172160000Y-56620000D02*
X172160000Y-57550000D01*
X172160000Y-59780000D02*
X172160000Y-58850000D01*
X172160000Y-59780000D02*
X170000000Y-59780000D01*
X172160000Y-56620000D02*
X170700000Y-56620000D01*
G04 #@! TO.C,Q3*
X46220000Y-60540000D02*
X47150000Y-60540000D01*
X49380000Y-60540000D02*
X48450000Y-60540000D01*
X49380000Y-60540000D02*
X49380000Y-62700000D01*
X46220000Y-60540000D02*
X46220000Y-62000000D01*
G04 #@! TO.C,Q2*
X137420000Y-51940000D02*
X138350000Y-51940000D01*
X140580000Y-51940000D02*
X139650000Y-51940000D01*
X140580000Y-51940000D02*
X140580000Y-54100000D01*
X137420000Y-51940000D02*
X137420000Y-53400000D01*
D14*
G04 #@! TO.C,Q1*
X89275000Y-115625000D02*
X89275000Y-115525000D01*
X93925000Y-115625000D02*
X93925000Y-115425000D01*
X93925000Y-112375000D02*
X93925000Y-112575000D01*
X89275000Y-112375000D02*
X89275000Y-112575000D01*
X89275000Y-115625000D02*
X93925000Y-115625000D01*
X89275000Y-112375000D02*
X93925000Y-112375000D01*
X89275000Y-115525000D02*
X87925000Y-115525000D01*
D10*
G04 #@! TO.C,L1*
X118700000Y-110200000D02*
X118700000Y-110300000D01*
X115700000Y-110200000D02*
X118700000Y-110200000D01*
X115700000Y-110300000D02*
X115700000Y-110200000D01*
X118700000Y-113200000D02*
X118700000Y-113100000D01*
X115700000Y-113200000D02*
X118700000Y-113200000D01*
X115700000Y-113100000D02*
X115700000Y-113200000D01*
D14*
G04 #@! TO.C,J2*
X137500000Y-76500000D02*
X139925000Y-76500000D01*
X137250000Y-78730000D02*
X132750000Y-78730000D01*
X132500000Y-83810000D02*
X132500000Y-83530000D01*
X132500000Y-83810000D02*
X137500000Y-83810000D01*
X137500000Y-83810000D02*
X137500000Y-83530000D01*
X137500000Y-76190000D02*
X137500000Y-76470000D01*
X132500000Y-76190000D02*
X137500000Y-76190000D01*
X132500000Y-78349000D02*
X132500000Y-78476000D01*
X132500000Y-78476000D02*
X132754000Y-78730000D01*
X132754000Y-78730000D02*
X132500000Y-78984000D01*
X132500000Y-78984000D02*
X132500000Y-79111000D01*
X132500000Y-76190000D02*
X132500000Y-76470000D01*
X132500000Y-80889000D02*
X132500000Y-81016000D01*
X137500000Y-79111000D02*
X137500000Y-78984000D01*
X132754000Y-81270000D02*
X132500000Y-81524000D01*
X137246000Y-78730000D02*
X137500000Y-78476000D01*
X132500000Y-81524000D02*
X132500000Y-81651000D01*
X137500000Y-78476000D02*
X137500000Y-78349000D01*
X132500000Y-81016000D02*
X132754000Y-81270000D01*
X137500000Y-78984000D02*
X137246000Y-78730000D01*
X137500000Y-81651000D02*
X137500000Y-81524000D01*
X137500000Y-81016000D02*
X137500000Y-80889000D01*
X137246000Y-81270000D02*
X137500000Y-81016000D01*
X137500000Y-81524000D02*
X137246000Y-81270000D01*
X137250000Y-81270000D02*
X132750000Y-81270000D01*
D16*
G04 #@! TO.C,D59*
X160250000Y-64600000D02*
X159150000Y-64600000D01*
X159150000Y-64600000D02*
X159150000Y-62500000D01*
X160250000Y-64600000D02*
X160250000Y-62500000D01*
G04 #@! TO.C,D58*
X160250000Y-61200000D02*
X159150000Y-61200000D01*
X159150000Y-61200000D02*
X159150000Y-59100000D01*
X160250000Y-61200000D02*
X160250000Y-59100000D01*
G04 #@! TO.C,D57*
X161100000Y-62150000D02*
X161100000Y-61050000D01*
X161100000Y-61050000D02*
X163200000Y-61050000D01*
X161100000Y-62150000D02*
X163200000Y-62150000D01*
G04 #@! TO.C,D56*
X157250000Y-49800000D02*
X157250000Y-47800000D01*
X157250000Y-47800000D02*
X161150000Y-47800000D01*
X157250000Y-49800000D02*
X161150000Y-49800000D01*
D10*
G04 #@! TO.C,D55*
X94890490Y-31972316D02*
G75*
G03X95265199Y-32571977I487185J-112476D01*
G01*
X95647616Y-30915548D02*
G75*
G03X95047955Y-31290257I-112476J-487185D01*
G01*
X95047955Y-31290257D02*
X94890490Y-31972316D01*
X96179791Y-30833149D02*
X95692606Y-30720674D01*
X95707394Y-32879326D02*
X96179791Y-30833149D01*
X95220209Y-32766851D02*
X95707394Y-32879326D01*
X95692606Y-30720674D02*
X95220209Y-32766851D01*
G04 #@! TO.C,D54*
X95484969Y-37243959D02*
G75*
G03X95838522Y-37856332I482963J-129410D01*
G01*
X96278514Y-36214258D02*
G75*
G03X95666142Y-36567812I-129409J-482963D01*
G01*
X95666142Y-36567812D02*
X95484969Y-37243960D01*
X96813241Y-36150483D02*
X96330279Y-36021073D01*
X96269721Y-38178927D02*
X96813241Y-36150483D01*
X95786759Y-38049517D02*
X96269721Y-38178927D01*
X96330279Y-36021073D02*
X95786759Y-38049517D01*
G04 #@! TO.C,D53*
X95827412Y-46996830D02*
G75*
G03X96291316Y-47530490I498782J-34878D01*
G01*
X96409902Y-45834631D02*
G75*
G03X95876242Y-46298535I-34878J-498782D01*
G01*
X95876242Y-46298535D02*
X95827412Y-46996830D01*
X96922635Y-45669997D02*
X96423853Y-45635119D01*
X96776147Y-47764881D02*
X96922635Y-45669997D01*
X96277365Y-47730003D02*
X96776147Y-47764881D01*
X96423853Y-45635119D02*
X96277365Y-47730003D01*
G04 #@! TO.C,D52*
X93201756Y-51161208D02*
G75*
G03X92644548Y-50725868I-496274J-60934D01*
G01*
X92851726Y-52413197D02*
G75*
G03X93287064Y-51855989I-60935J496273D01*
G01*
X93287064Y-51855989D02*
X93201755Y-51161207D01*
X92379826Y-52672641D02*
X92876099Y-52611706D01*
X92123901Y-50588294D02*
X92379826Y-52672641D01*
X92620174Y-50527359D02*
X92123901Y-50588294D01*
X92876099Y-52611706D02*
X92620174Y-50527359D01*
G04 #@! TO.C,D51*
X90874519Y-40821891D02*
G75*
G03X90191506Y-40638878I-433013J-250000D01*
G01*
X91041506Y-42111122D02*
G75*
G03X91224519Y-41428109I-250000J433013D01*
G01*
X91224519Y-41428109D02*
X90874519Y-40821891D01*
X90708494Y-42534327D02*
X91141506Y-42284327D01*
X89658494Y-40715673D02*
X90708494Y-42534327D01*
X90091506Y-40465673D02*
X89658494Y-40715673D01*
X91141506Y-42284327D02*
X90091506Y-40465673D01*
G04 #@! TO.C,D50*
X89074756Y-31304471D02*
G75*
G03X88428782Y-31016865I-466790J-179184D01*
G01*
X89038008Y-32603951D02*
G75*
G03X89325614Y-31957977I-179184J466790D01*
G01*
X89325614Y-31957977D02*
X89074757Y-31304471D01*
X88642891Y-32969851D02*
X89109681Y-32790667D01*
X87890319Y-31009333D02*
X88642891Y-32969851D01*
X88357109Y-30830149D02*
X87890319Y-31009333D01*
X89109681Y-32790667D02*
X88357109Y-30830149D01*
D16*
G04 #@! TO.C,D49*
X163220000Y-47440000D02*
X164150000Y-47440000D01*
X166380000Y-47440000D02*
X165450000Y-47440000D01*
X166380000Y-47440000D02*
X166380000Y-49600000D01*
X163220000Y-47440000D02*
X163220000Y-48900000D01*
D10*
G04 #@! TO.C,D48*
X188299989Y-106796878D02*
G75*
G03X187596756Y-106870791I-314660J-388573D01*
G01*
X188917904Y-107940636D02*
G75*
G03X188843991Y-107237403I-388573J314660D01*
G01*
X188843991Y-107237403D02*
X188299989Y-106796878D01*
X188758673Y-108455073D02*
X189073333Y-108066500D01*
X187126667Y-107133500D02*
X188758673Y-108455073D01*
X187441327Y-106744927D02*
X187126667Y-107133500D01*
X189073333Y-108066500D02*
X187441327Y-106744927D01*
G04 #@! TO.C,D47*
X181267811Y-105666142D02*
G75*
G03X180914258Y-106278515I129410J-482963D01*
G01*
X182556332Y-105838523D02*
G75*
G03X181943960Y-105484969I-482963J-129409D01*
G01*
X181943960Y-105484969D02*
X181267812Y-105666142D01*
X182878927Y-106269721D02*
X182749517Y-105786759D01*
X180850483Y-106813241D02*
X182878927Y-106269721D01*
X180721073Y-106330279D02*
X180850483Y-106813241D01*
X182749517Y-105786759D02*
X180721073Y-106330279D01*
G04 #@! TO.C,D46*
X171950000Y-107850000D02*
G75*
G03X171450000Y-108350000I0J-500000D01*
G01*
X173150000Y-108350000D02*
G75*
G03X172650000Y-107850000I-500000J0D01*
G01*
X172650000Y-107850000D02*
X171950000Y-107850000D01*
X173350000Y-108850000D02*
X173350000Y-108350000D01*
X171250000Y-108850000D02*
X173350000Y-108850000D01*
X171250000Y-108350000D02*
X171250000Y-108850000D01*
X173350000Y-108350000D02*
X171250000Y-108350000D01*
G04 #@! TO.C,D45*
X163784776Y-110546377D02*
G75*
G03X163519888Y-111201995I195365J-460253D01*
G01*
X165084747Y-110537752D02*
G75*
G03X164429128Y-110272865I-460253J-195366D01*
G01*
X164429128Y-110272865D02*
X163784775Y-110546377D01*
X165464213Y-110919859D02*
X165268847Y-110459606D01*
X163531153Y-111740394D02*
X165464213Y-110919859D01*
X163335787Y-111280141D02*
X163531153Y-111740394D01*
X165268847Y-110459606D02*
X163335787Y-111280141D01*
G04 #@! TO.C,D44*
X153430314Y-113517525D02*
G75*
G03X152880789Y-113962520I-52265J-497260D01*
G01*
X154571475Y-114140218D02*
G75*
G03X154126479Y-113590694I-497260J52264D01*
G01*
X154126479Y-113590694D02*
X153430314Y-113517524D01*
X154718116Y-114658385D02*
X154770380Y-114161124D01*
X152629620Y-114438876D02*
X154718116Y-114658385D01*
X152681884Y-113941615D02*
X152629620Y-114438876D01*
X154770380Y-114161124D02*
X152681884Y-113941615D01*
G04 #@! TO.C,D43*
X144250000Y-113950000D02*
G75*
G03X143750000Y-114450000I0J-500000D01*
G01*
X145450000Y-114450000D02*
G75*
G03X144950000Y-113950000I-500000J0D01*
G01*
X144950000Y-113950000D02*
X144250000Y-113950000D01*
X145650000Y-114950000D02*
X145650000Y-114450000D01*
X143550000Y-114950000D02*
X145650000Y-114950000D01*
X143550000Y-114450000D02*
X143550000Y-114950000D01*
X145650000Y-114450000D02*
X143550000Y-114450000D01*
G04 #@! TO.C,D42*
X132271635Y-116404482D02*
G75*
G03X131699574Y-116820109I-78217J-493844D01*
G01*
X133378644Y-117086047D02*
G75*
G03X132963017Y-116513986I-493844J78217D01*
G01*
X132963017Y-116513986D02*
X132271635Y-116404482D01*
X133497964Y-117611178D02*
X133576181Y-117117334D01*
X131423819Y-117282666D02*
X133497964Y-117611178D01*
X131502036Y-116788822D02*
X131423819Y-117282666D01*
X133576181Y-117117334D02*
X131502036Y-116788822D01*
G04 #@! TO.C,D41*
X128285407Y-115285063D02*
G75*
G03X128584244Y-114644206I-171010J469847D01*
G01*
X126986766Y-115225640D02*
G75*
G03X127627623Y-115524477I469847J171010D01*
G01*
X127627623Y-115524477D02*
X128285408Y-115285062D01*
X126627818Y-114824198D02*
X126798828Y-115294044D01*
X128601172Y-114105956D02*
X126627818Y-114824198D01*
X128772182Y-114575802D02*
X128601172Y-114105956D01*
X126798828Y-115294044D02*
X128772182Y-114575802D01*
G04 #@! TO.C,D40*
X138543357Y-112320666D02*
G75*
G03X138773568Y-111652083I-219186J449397D01*
G01*
X137245618Y-112397313D02*
G75*
G03X137914200Y-112627525I449397J219185D01*
G01*
X137914200Y-112627525D02*
X138543356Y-112320666D01*
X136846673Y-112035591D02*
X137065859Y-112484988D01*
X138734141Y-111115012D02*
X136846673Y-112035591D01*
X138953327Y-111564409D02*
X138734141Y-111115012D01*
X137065859Y-112484988D02*
X138953327Y-111564409D01*
G04 #@! TO.C,D39*
X150538792Y-108901756D02*
G75*
G03X150974132Y-108344548I-60934J496274D01*
G01*
X149286803Y-108551726D02*
G75*
G03X149844011Y-108987064I496273J60935D01*
G01*
X149844011Y-108987064D02*
X150538793Y-108901755D01*
X149027359Y-108079826D02*
X149088294Y-108576099D01*
X151111706Y-107823901D02*
X149027359Y-108079826D01*
X151172641Y-108320174D02*
X151111706Y-107823901D01*
X149088294Y-108576099D02*
X151172641Y-108320174D01*
G04 #@! TO.C,D38*
X158442215Y-105891412D02*
G75*
G03X159006935Y-105465864I69586J495134D01*
G01*
X157323479Y-105229269D02*
G75*
G03X157749026Y-105793990I495134J-69587D01*
G01*
X157749026Y-105793990D02*
X158442214Y-105891412D01*
X157195012Y-104706301D02*
X157125425Y-105201435D01*
X159274575Y-104998565D02*
X157195012Y-104706301D01*
X159204988Y-105493699D02*
X159274575Y-104998565D01*
X157125425Y-105201435D02*
X159204988Y-105493699D01*
G04 #@! TO.C,D37*
X167486287Y-102162612D02*
G75*
G03X167657352Y-101476509I-257519J428584D01*
G01*
X166200167Y-102352074D02*
G75*
G03X166886270Y-102523139I428584J257519D01*
G01*
X166886270Y-102523139D02*
X167486287Y-102162612D01*
X165771215Y-102026498D02*
X166028734Y-102455082D01*
X167571266Y-100944918D02*
X165771215Y-102026498D01*
X167828785Y-101373502D02*
X167571266Y-100944918D01*
X166028734Y-102455082D02*
X167828785Y-101373502D01*
G04 #@! TO.C,D36*
X176700463Y-98803004D02*
G75*
G03X177286681Y-98407594I95404J490814D01*
G01*
X175617915Y-98083220D02*
G75*
G03X176013324Y-98669437I490813J-95404D01*
G01*
X176013324Y-98669437D02*
X176700463Y-98803004D01*
X175516994Y-97554244D02*
X175421589Y-98045057D01*
X177578411Y-97954943D02*
X175516994Y-97554244D01*
X177483006Y-98445756D02*
X177578411Y-97954943D01*
X175421589Y-98045057D02*
X177483006Y-98445756D01*
G04 #@! TO.C,D35*
X182515116Y-96843479D02*
G75*
G03X182392328Y-96147115I-409576J286788D01*
G01*
X181417247Y-97539673D02*
G75*
G03X182113612Y-97416886I286789J409576D01*
G01*
X182113612Y-97416886D02*
X182515116Y-96843479D01*
X180892957Y-97416716D02*
X181302533Y-97703504D01*
X182097467Y-95696496D02*
X180892957Y-97416716D01*
X182507043Y-95983284D02*
X182097467Y-95696496D01*
X181302533Y-97703504D02*
X182507043Y-95983284D01*
G04 #@! TO.C,D34*
X188852345Y-95709358D02*
G75*
G03X189070853Y-95036860I-226995J445503D01*
G01*
X187556141Y-95808644D02*
G75*
G03X188228641Y-96027152I445504J226996D01*
G01*
X188228641Y-96027152D02*
X188852345Y-95709358D01*
X187150946Y-95453938D02*
X187377941Y-95899442D01*
X189022059Y-94500558D02*
X187150946Y-95453938D01*
X189249054Y-94946062D02*
X189022059Y-94500558D01*
X187377941Y-95899442D02*
X189249054Y-94946062D01*
D16*
G04 #@! TO.C,D33*
X168420000Y-47440000D02*
X169350000Y-47440000D01*
X171580000Y-47440000D02*
X170650000Y-47440000D01*
X171580000Y-47440000D02*
X171580000Y-49600000D01*
X168420000Y-47440000D02*
X168420000Y-48900000D01*
G04 #@! TO.C,D32*
X173620000Y-47440000D02*
X174550000Y-47440000D01*
X176780000Y-47440000D02*
X175850000Y-47440000D01*
X176780000Y-47440000D02*
X176780000Y-49600000D01*
X173620000Y-47440000D02*
X173620000Y-48900000D01*
D10*
G04 #@! TO.C,D31*
X31728109Y-107624519D02*
G75*
G03X32411122Y-107441506I250000J433013D01*
G01*
X30938878Y-106591506D02*
G75*
G03X31121891Y-107274519I433013J-250000D01*
G01*
X31121891Y-107274519D02*
X31728109Y-107624519D01*
X31015673Y-106058494D02*
X30765673Y-106491506D01*
X32834327Y-107108494D02*
X31015673Y-106058494D01*
X32584327Y-107541506D02*
X32834327Y-107108494D01*
X30765673Y-106491506D02*
X32584327Y-107541506D01*
G04 #@! TO.C,D30*
X40650000Y-108650000D02*
G75*
G03X41150000Y-108150000I0J500000D01*
G01*
X39450000Y-108150000D02*
G75*
G03X39950000Y-108650000I500000J0D01*
G01*
X39950000Y-108650000D02*
X40650000Y-108650000D01*
X39250000Y-107650000D02*
X39250000Y-108150000D01*
X41350000Y-107650000D02*
X39250000Y-107650000D01*
X41350000Y-108150000D02*
X41350000Y-107650000D01*
X39250000Y-108150000D02*
X41350000Y-108150000D01*
G04 #@! TO.C,D29*
X47830884Y-104188342D02*
G75*
G03X47929294Y-103488116I-300908J399318D01*
G01*
X46571613Y-104511202D02*
G75*
G03X47271839Y-104609612I399318J300908D01*
G01*
X47271839Y-104609612D02*
X47830884Y-104188341D01*
X46110979Y-104232247D02*
X46411886Y-104631565D01*
X47788114Y-102968435D02*
X46110979Y-104232247D01*
X48089021Y-103367753D02*
X47788114Y-102968435D01*
X46411886Y-104631565D02*
X48089021Y-103367753D01*
G04 #@! TO.C,D28*
X54021891Y-103925481D02*
G75*
G03X53838878Y-104608494I250000J-433013D01*
G01*
X55311122Y-103758494D02*
G75*
G03X54628109Y-103575481I-433013J-250000D01*
G01*
X54628109Y-103575481D02*
X54021891Y-103925481D01*
X55734327Y-104091506D02*
X55484327Y-103658494D01*
X53915673Y-105141506D02*
X55734327Y-104091506D01*
X53665673Y-104708494D02*
X53915673Y-105141506D01*
X55484327Y-103658494D02*
X53665673Y-104708494D01*
G04 #@! TO.C,D27*
X44543807Y-111163588D02*
G75*
G03X44494482Y-111868973I328030J-377355D01*
G01*
X45777489Y-110753672D02*
G75*
G03X45072104Y-110704347I-377355J-328030D01*
G01*
X45072104Y-110704347D02*
X44543807Y-111163588D01*
X46256460Y-110999815D02*
X45928430Y-110622461D01*
X44671570Y-112377539D02*
X46256460Y-110999815D01*
X44343540Y-112000185D02*
X44671570Y-112377539D01*
X45928430Y-110622461D02*
X44343540Y-112000185D01*
G04 #@! TO.C,D26*
X37030314Y-113717525D02*
G75*
G03X36480789Y-114162520I-52265J-497260D01*
G01*
X38171474Y-114340217D02*
G75*
G03X37726479Y-113790694I-497259J52264D01*
G01*
X37726479Y-113790694D02*
X37030314Y-113717524D01*
X38318116Y-114858385D02*
X38370380Y-114361124D01*
X36229620Y-114638876D02*
X38318116Y-114858385D01*
X36281884Y-114141615D02*
X36229620Y-114638876D01*
X38370380Y-114361124D02*
X36281884Y-114141615D01*
G04 #@! TO.C,D25*
X31038052Y-116076837D02*
G75*
G03X31001044Y-116782975I334565J-371573D01*
G01*
X32264390Y-115645453D02*
G75*
G03X31558253Y-115608446I-371572J-334565D01*
G01*
X31558253Y-115608446D02*
X31038051Y-116076837D01*
X32747585Y-115883199D02*
X32413019Y-115511627D01*
X31186981Y-117288373D02*
X32747585Y-115883199D01*
X30852415Y-116916801D02*
X31186981Y-117288373D01*
X32413019Y-115511627D02*
X30852415Y-116916801D01*
G04 #@! TO.C,D24*
X32950000Y-43350000D02*
G75*
G03X33450000Y-42850000I0J500000D01*
G01*
X31750000Y-42850000D02*
G75*
G03X32250000Y-43350000I500000J0D01*
G01*
X32250000Y-43350000D02*
X32950000Y-43350000D01*
X31550000Y-42350000D02*
X31550000Y-42850000D01*
X33650000Y-42350000D02*
X31550000Y-42350000D01*
X33650000Y-42850000D02*
X33650000Y-42350000D01*
X31550000Y-42850000D02*
X33650000Y-42850000D01*
G04 #@! TO.C,D23*
X39642509Y-47725648D02*
G75*
G03X40322224Y-47530743I242405J437310D01*
G01*
X38835372Y-46706567D02*
G75*
G03X39030276Y-47386281I437309J-242405D01*
G01*
X39030276Y-47386281D02*
X39642510Y-47725648D01*
X38902852Y-46172295D02*
X38660447Y-46609605D01*
X40739553Y-47190395D02*
X38902852Y-46172295D01*
X40497148Y-47627705D02*
X40739553Y-47190395D01*
X38660447Y-46609605D02*
X40497148Y-47627705D01*
G04 #@! TO.C,D22*
X46650000Y-50950000D02*
G75*
G03X47150000Y-50450000I0J500000D01*
G01*
X45450000Y-50450000D02*
G75*
G03X45950000Y-50950000I500000J0D01*
G01*
X45950000Y-50950000D02*
X46650000Y-50950000D01*
X45250001Y-49950000D02*
X45250000Y-50450000D01*
X47350000Y-49950000D02*
X45250001Y-49950000D01*
X47349999Y-50450000D02*
X47350000Y-49950000D01*
X45250000Y-50450000D02*
X47349999Y-50450000D01*
G04 #@! TO.C,D21*
X57850000Y-57850000D02*
G75*
G03X58350000Y-57350000I0J500000D01*
G01*
X56650000Y-57350000D02*
G75*
G03X57150000Y-57850000I500000J0D01*
G01*
X57150000Y-57850000D02*
X57850000Y-57850000D01*
X56450000Y-56850000D02*
X56450000Y-57350000D01*
X58550000Y-56850000D02*
X56450000Y-56850000D01*
X58550000Y-57350000D02*
X58550000Y-56850000D01*
X56450000Y-57350000D02*
X58550000Y-57350000D01*
G04 #@! TO.C,D20*
X66343559Y-62526500D02*
G75*
G03X66994455Y-62250212I187304J463592D01*
G01*
X65418242Y-61613381D02*
G75*
G03X65694531Y-62264276I463592J-187303D01*
G01*
X65694531Y-62264276D02*
X66343559Y-62526500D01*
X65420109Y-61074867D02*
X65232805Y-61538459D01*
X67367195Y-61861541D02*
X65420109Y-61074867D01*
X67179891Y-62325133D02*
X67367195Y-61861541D01*
X65232805Y-61538459D02*
X67179891Y-62325133D01*
G04 #@! TO.C,D19*
X70513323Y-65530563D02*
G75*
G03X70117915Y-66116781I95405J-490813D01*
G01*
X71786681Y-65792406D02*
G75*
G03X71200463Y-65396996I-490814J-95404D01*
G01*
X71200463Y-65396996D02*
X70513324Y-65530563D01*
X72078411Y-66245057D02*
X71983006Y-65754244D01*
X70016994Y-66645756D02*
X72078411Y-66245057D01*
X69921589Y-66154943D02*
X70016994Y-66645756D01*
X71983006Y-65754244D02*
X69921589Y-66154943D01*
G04 #@! TO.C,D18*
X60909816Y-63432528D02*
G75*
G03X60203140Y-63407850I-365677J-340999D01*
G01*
X61362537Y-64651151D02*
G75*
G03X61387215Y-63944475I-340999J365677D01*
G01*
X61387215Y-63944475D02*
X60909816Y-63432527D01*
X61133260Y-65138421D02*
X61498937Y-64797422D01*
X59701063Y-63602578D02*
X61133260Y-65138421D01*
X60066740Y-63261579D02*
X59701063Y-63602578D01*
X61498937Y-64797422D02*
X60066740Y-63261579D01*
G04 #@! TO.C,D17*
X50084572Y-58480442D02*
G75*
G03X49460234Y-58812408I-146186J-478152D01*
G01*
X51085952Y-59309439D02*
G75*
G03X50753985Y-58685102I-478152J146185D01*
G01*
X50753985Y-58685102D02*
X50084572Y-58480441D01*
X51131027Y-59846066D02*
X51277213Y-59367914D01*
X49122787Y-59232086D02*
X51131027Y-59846066D01*
X49268973Y-58753934D02*
X49122787Y-59232086D01*
X51277213Y-59367914D02*
X49268973Y-58753934D01*
G04 #@! TO.C,D16*
X41344010Y-56012936D02*
G75*
G03X40786803Y-56448275I-60934J-496273D01*
G01*
X42474131Y-56655453D02*
G75*
G03X42038793Y-56098245I-496273J60935D01*
G01*
X42038793Y-56098245D02*
X41344011Y-56012936D01*
X42611706Y-57176099D02*
X42672641Y-56679826D01*
X40527359Y-56920174D02*
X42611706Y-57176099D01*
X40588294Y-56423901D02*
X40527359Y-56920174D01*
X42672641Y-56679826D02*
X40588294Y-56423901D01*
G04 #@! TO.C,D15*
X36144010Y-55112936D02*
G75*
G03X35586803Y-55548275I-60934J-496273D01*
G01*
X37274131Y-55755453D02*
G75*
G03X36838793Y-55198245I-496273J60935D01*
G01*
X36838793Y-55198245D02*
X36144011Y-55112936D01*
X37411706Y-56276099D02*
X37472641Y-55779826D01*
X35327359Y-56020174D02*
X37411706Y-56276099D01*
X35388294Y-55523901D02*
X35327359Y-56020174D01*
X37472641Y-55779826D02*
X35388294Y-55523901D01*
G04 #@! TO.C,D14*
X31650000Y-53750000D02*
G75*
G03X31150000Y-54250000I0J-500000D01*
G01*
X32850000Y-54250000D02*
G75*
G03X32350000Y-53750000I-500000J0D01*
G01*
X32350000Y-53750000D02*
X31650000Y-53750000D01*
X33050000Y-54750000D02*
X33050000Y-54250000D01*
X30950000Y-54750000D02*
X33050000Y-54750000D01*
X30950000Y-54250000D02*
X30950000Y-54750000D01*
X33050000Y-54250000D02*
X30950000Y-54250000D01*
G04 #@! TO.C,D13*
X149950000Y-32250000D02*
G75*
G03X150450000Y-32750000I500000J0D01*
G01*
X150450000Y-31050000D02*
G75*
G03X149950000Y-31550000I0J-500000D01*
G01*
X149950000Y-31550000D02*
X149950000Y-32250000D01*
X150950000Y-30850000D02*
X150450000Y-30850000D01*
X150950000Y-32950000D02*
X150950000Y-30850000D01*
X150450000Y-32950000D02*
X150950000Y-32950000D01*
X150450000Y-30850000D02*
X150450000Y-32950000D01*
G04 #@! TO.C,D12*
X142684969Y-37943959D02*
G75*
G03X143038522Y-38556332I482963J-129410D01*
G01*
X143478514Y-36914258D02*
G75*
G03X142866142Y-37267812I-129409J-482963D01*
G01*
X142866142Y-37267812D02*
X142684969Y-37943960D01*
X144013241Y-36850483D02*
X143530279Y-36721073D01*
X143469721Y-38878927D02*
X144013241Y-36850483D01*
X142986759Y-38749517D02*
X143469721Y-38878927D01*
X143530279Y-36721073D02*
X142986759Y-38749517D01*
G04 #@! TO.C,D11*
X138562450Y-47524473D02*
G75*
G03X138476275Y-48226310I307831J-394006D01*
G01*
X139815894Y-47179686D02*
G75*
G03X139114058Y-47093510I-394006J-307830D01*
G01*
X139114058Y-47093510D02*
X138562450Y-47524473D01*
X140281327Y-47450558D02*
X139973496Y-47056553D01*
X138626504Y-48743447D02*
X140281327Y-47450558D01*
X138318673Y-48349442D02*
X138626504Y-48743447D01*
X139973496Y-47056553D02*
X138318673Y-48349442D01*
G04 #@! TO.C,D10*
X133122183Y-55217158D02*
G75*
G03X133122183Y-55924264I353553J-353553D01*
G01*
X134324264Y-54722182D02*
G75*
G03X133617157Y-54722183I-353553J-353554D01*
G01*
X133617157Y-54722183D02*
X133122183Y-55217157D01*
X134819239Y-54934315D02*
X134465685Y-54580761D01*
X133334315Y-56419239D02*
X134819239Y-54934315D01*
X132980761Y-56065685D02*
X133334315Y-56419239D01*
X134465685Y-54580761D02*
X132980761Y-56065685D01*
G04 #@! TO.C,D9*
X133050000Y-48050000D02*
G75*
G03X132550000Y-47550000I-500000J0D01*
G01*
X132550000Y-49250000D02*
G75*
G03X133050000Y-48750000I0J500000D01*
G01*
X133050000Y-48750000D02*
X133050000Y-48050000D01*
X132050000Y-49450000D02*
X132550000Y-49450000D01*
X132050000Y-47350000D02*
X132050000Y-49450000D01*
X132550000Y-47350000D02*
X132050000Y-47350000D01*
X132550000Y-49450000D02*
X132550000Y-47350000D01*
G04 #@! TO.C,D8*
X137027647Y-41499756D02*
G75*
G03X136785802Y-40835293I-453154J211309D01*
G01*
X136067352Y-42376015D02*
G75*
G03X136731814Y-42134171I211309J453153D01*
G01*
X136731814Y-42134171D02*
X137027647Y-41499756D01*
X135529674Y-42345969D02*
X135982828Y-42557278D01*
X136417172Y-40442722D02*
X135529674Y-42345969D01*
X136870326Y-40654031D02*
X136417172Y-40442722D01*
X135982828Y-42557278D02*
X136870326Y-40654031D01*
G04 #@! TO.C,D7*
X141509611Y-32271839D02*
G75*
G03X141411202Y-31571614I-399317J300908D01*
G01*
X140388116Y-32929293D02*
G75*
G03X141088341Y-32830884I300908J399317D01*
G01*
X141088341Y-32830884D02*
X141509612Y-32271839D01*
X139868435Y-32788114D02*
X140267753Y-33089021D01*
X141132247Y-31110979D02*
X139868435Y-32788114D01*
X141531565Y-31411886D02*
X141132247Y-31110979D01*
X140267753Y-33089021D02*
X141531565Y-31411886D01*
D16*
G04 #@! TO.C,D5*
X168700000Y-118600000D02*
X168700000Y-119600000D01*
X168700000Y-119600000D02*
X166600000Y-119600000D01*
X168700000Y-118600000D02*
X166600000Y-118600000D01*
G04 #@! TO.C,D4*
X168700000Y-122200000D02*
X168700000Y-123200000D01*
X168700000Y-123200000D02*
X166600000Y-123200000D01*
X168700000Y-122200000D02*
X166600000Y-122200000D01*
G04 #@! TO.C,D3*
X168700000Y-125800000D02*
X168700000Y-126800000D01*
X168700000Y-126800000D02*
X166600000Y-126800000D01*
X168700000Y-125800000D02*
X166600000Y-125800000D01*
G04 #@! TO.C,D2*
X116350000Y-102900000D02*
X119650000Y-102900000D01*
X119650000Y-102900000D02*
X119650000Y-108300000D01*
X116350000Y-102900000D02*
X116350000Y-108300000D01*
G04 #@! TO.C,D1*
X182400000Y-117010000D02*
X180600000Y-117010000D01*
X180600000Y-113790000D02*
X183050000Y-113790000D01*
G04 #@! TO.C,C28*
X91450000Y-77800000D02*
X92150000Y-77800000D01*
X92150000Y-76600000D02*
X91450000Y-76600000D01*
G04 #@! TO.C,C27*
X111900000Y-90350000D02*
X111900000Y-89650000D01*
X110700000Y-89650000D02*
X110700000Y-90350000D01*
G04 #@! TO.C,C26*
X99650000Y-77800000D02*
X100350000Y-77800000D01*
X100350000Y-76600000D02*
X99650000Y-76600000D01*
G04 #@! TO.C,C25*
X53050000Y-43200000D02*
X52350000Y-43200000D01*
X52350000Y-44400000D02*
X53050000Y-44400000D01*
G04 #@! TO.C,C24*
X62050000Y-43200000D02*
X61350000Y-43200000D01*
X61350000Y-44400000D02*
X62050000Y-44400000D01*
G04 #@! TO.C,C23*
X141400000Y-64150000D02*
X141400000Y-64850000D01*
X142600000Y-64850000D02*
X142600000Y-64150000D01*
G04 #@! TO.C,C22*
X71050000Y-43200000D02*
X70350000Y-43200000D01*
X70350000Y-44400000D02*
X71050000Y-44400000D01*
G04 #@! TO.C,C21*
X80050000Y-43200000D02*
X79350000Y-43200000D01*
X79350000Y-44400000D02*
X80050000Y-44400000D01*
G04 #@! TO.C,C20*
X119650000Y-78600000D02*
X120350000Y-78600000D01*
X120350000Y-77400000D02*
X119650000Y-77400000D01*
G04 #@! TO.C,C19*
X100350000Y-78200000D02*
X99650000Y-78200000D01*
X99650000Y-79400000D02*
X100350000Y-79400000D01*
G04 #@! TO.C,C18*
X99650000Y-81000000D02*
X100350000Y-81000000D01*
X100350000Y-79800000D02*
X99650000Y-79800000D01*
G04 #@! TO.C,C17*
X156150000Y-53000000D02*
X156150000Y-52000000D01*
X157850000Y-52000000D02*
X157850000Y-53000000D01*
G04 #@! TO.C,C16*
X158750000Y-53000000D02*
X158750000Y-52000000D01*
X160450000Y-52000000D02*
X160450000Y-53000000D01*
G04 #@! TO.C,C15*
X161350000Y-53000000D02*
X161350000Y-52000000D01*
X163050000Y-52000000D02*
X163050000Y-53000000D01*
G04 #@! TO.C,C14*
X163950000Y-53000000D02*
X163950000Y-52000000D01*
X165650000Y-52000000D02*
X165650000Y-53000000D01*
G04 #@! TO.C,C13*
X166550000Y-53000000D02*
X166550000Y-52000000D01*
X168250000Y-52000000D02*
X168250000Y-53000000D01*
G04 #@! TO.C,C12*
X169150000Y-53000000D02*
X169150000Y-52000000D01*
X170850000Y-52000000D02*
X170850000Y-53000000D01*
G04 #@! TO.C,C11*
X171750000Y-53000000D02*
X171750000Y-52000000D01*
X173450000Y-52000000D02*
X173450000Y-53000000D01*
G04 #@! TO.C,C10*
X174350000Y-53000000D02*
X174350000Y-52000000D01*
X176050000Y-52000000D02*
X176050000Y-53000000D01*
G04 #@! TO.C,C9*
X180050000Y-55700000D02*
X179350000Y-55700000D01*
X179350000Y-56900000D02*
X180050000Y-56900000D01*
G04 #@! TO.C,C8*
X117300000Y-121750000D02*
X118300000Y-121750000D01*
X118300000Y-123450000D02*
X117300000Y-123450000D01*
G04 #@! TO.C,C7*
X125750000Y-121500000D02*
X125750000Y-120500000D01*
X127450000Y-120500000D02*
X127450000Y-121500000D01*
G04 #@! TO.C,C6*
X120350000Y-106500000D02*
X120350000Y-105500000D01*
X122050000Y-105500000D02*
X122050000Y-106500000D01*
G04 #@! TO.C,C5*
X176950000Y-114200000D02*
X176250000Y-114200000D01*
X176250000Y-115400000D02*
X176950000Y-115400000D01*
G04 #@! TO.C,C4*
X171800000Y-118050000D02*
X171800000Y-117350000D01*
X170600000Y-117350000D02*
X170600000Y-118050000D01*
G04 #@! TO.C,C3*
X81000000Y-111550000D02*
X81000000Y-112250000D01*
X82200000Y-112250000D02*
X82200000Y-111550000D01*
G04 #@! TO.C,C2*
X116950000Y-115800000D02*
X116950000Y-114800000D01*
X118650000Y-114800000D02*
X118650000Y-115800000D01*
G04 #@! TO.C,C1*
X123450000Y-121500000D02*
X123450000Y-120500000D01*
X125150000Y-120500000D02*
X125150000Y-121500000D01*
D13*
G04 #@! TO.C,REF\002A\002A*
X53452297Y-47031852D02*
G75*
G03X54900000Y-47000000I747703J-1068148D01*
G01*
X54200000Y-46200000D02*
X54200000Y-47600000D01*
G04 #@! TO.C,J1*
D10*
X186366666Y-110126190D02*
X186366666Y-110483333D01*
X186390476Y-110554761D01*
X186438095Y-110602380D01*
X186509523Y-110626190D01*
X186557142Y-110626190D01*
X185866666Y-110626190D02*
X186152380Y-110626190D01*
X186009523Y-110626190D02*
X186009523Y-110126190D01*
X186057142Y-110197619D01*
X186104761Y-110245238D01*
X186152380Y-110269047D01*
G04 #@! TO.C,Y1*
X102938095Y-71288095D02*
X102938095Y-71526190D01*
X103104761Y-71026190D02*
X102938095Y-71288095D01*
X102771428Y-71026190D01*
X102342857Y-71526190D02*
X102628571Y-71526190D01*
X102485714Y-71526190D02*
X102485714Y-71026190D01*
X102533333Y-71097619D01*
X102580952Y-71145238D01*
X102628571Y-71169047D01*
G04 #@! TO.C,U6*
X110380952Y-73926190D02*
X110380952Y-74330952D01*
X110357142Y-74378571D01*
X110333333Y-74402380D01*
X110285714Y-74426190D01*
X110190476Y-74426190D01*
X110142857Y-74402380D01*
X110119047Y-74378571D01*
X110095238Y-74330952D01*
X110095238Y-73926190D01*
X109642857Y-73926190D02*
X109738095Y-73926190D01*
X109785714Y-73950000D01*
X109809523Y-73973809D01*
X109857142Y-74045238D01*
X109880952Y-74140476D01*
X109880952Y-74330952D01*
X109857142Y-74378571D01*
X109833333Y-74402380D01*
X109785714Y-74426190D01*
X109690476Y-74426190D01*
X109642857Y-74402380D01*
X109619047Y-74378571D01*
X109595238Y-74330952D01*
X109595238Y-74211904D01*
X109619047Y-74164285D01*
X109642857Y-74140476D01*
X109690476Y-74116666D01*
X109785714Y-74116666D01*
X109833333Y-74140476D01*
X109857142Y-74164285D01*
X109880952Y-74211904D01*
G04 #@! TO.C,U5*
X179280952Y-51226190D02*
X179280952Y-51630952D01*
X179257142Y-51678571D01*
X179233333Y-51702380D01*
X179185714Y-51726190D01*
X179090476Y-51726190D01*
X179042857Y-51702380D01*
X179019047Y-51678571D01*
X178995238Y-51630952D01*
X178995238Y-51226190D01*
X178519047Y-51226190D02*
X178757142Y-51226190D01*
X178780952Y-51464285D01*
X178757142Y-51440476D01*
X178709523Y-51416666D01*
X178590476Y-51416666D01*
X178542857Y-51440476D01*
X178519047Y-51464285D01*
X178495238Y-51511904D01*
X178495238Y-51630952D01*
X178519047Y-51678571D01*
X178542857Y-51702380D01*
X178590476Y-51726190D01*
X178709523Y-51726190D01*
X178757142Y-51702380D01*
X178780952Y-51678571D01*
G04 #@! TO.C,U4*
X173680952Y-115226190D02*
X173680952Y-115630952D01*
X173657142Y-115678571D01*
X173633333Y-115702380D01*
X173585714Y-115726190D01*
X173490476Y-115726190D01*
X173442857Y-115702380D01*
X173419047Y-115678571D01*
X173395238Y-115630952D01*
X173395238Y-115226190D01*
X172942857Y-115392857D02*
X172942857Y-115726190D01*
X173061904Y-115202380D02*
X173180952Y-115559523D01*
X172871428Y-115559523D01*
G04 #@! TO.C,U3*
X122480952Y-122426190D02*
X122480952Y-122830952D01*
X122457142Y-122878571D01*
X122433333Y-122902380D01*
X122385714Y-122926190D01*
X122290476Y-122926190D01*
X122242857Y-122902380D01*
X122219047Y-122878571D01*
X122195238Y-122830952D01*
X122195238Y-122426190D01*
X122004761Y-122426190D02*
X121695238Y-122426190D01*
X121861904Y-122616666D01*
X121790476Y-122616666D01*
X121742857Y-122640476D01*
X121719047Y-122664285D01*
X121695238Y-122711904D01*
X121695238Y-122830952D01*
X121719047Y-122878571D01*
X121742857Y-122902380D01*
X121790476Y-122926190D01*
X121933333Y-122926190D01*
X121980952Y-122902380D01*
X122004761Y-122878571D01*
G04 #@! TO.C,U2*
X85380952Y-109326190D02*
X85380952Y-109730952D01*
X85357142Y-109778571D01*
X85333333Y-109802380D01*
X85285714Y-109826190D01*
X85190476Y-109826190D01*
X85142857Y-109802380D01*
X85119047Y-109778571D01*
X85095238Y-109730952D01*
X85095238Y-109326190D01*
X84880952Y-109373809D02*
X84857142Y-109350000D01*
X84809523Y-109326190D01*
X84690476Y-109326190D01*
X84642857Y-109350000D01*
X84619047Y-109373809D01*
X84595238Y-109421428D01*
X84595238Y-109469047D01*
X84619047Y-109540476D01*
X84904761Y-109826190D01*
X84595238Y-109826190D01*
G04 #@! TO.C,U1*
X121380952Y-111426190D02*
X121380952Y-111830952D01*
X121357142Y-111878571D01*
X121333333Y-111902380D01*
X121285714Y-111926190D01*
X121190476Y-111926190D01*
X121142857Y-111902380D01*
X121119047Y-111878571D01*
X121095238Y-111830952D01*
X121095238Y-111426190D01*
X120595238Y-111926190D02*
X120880952Y-111926190D01*
X120738095Y-111926190D02*
X120738095Y-111426190D01*
X120785714Y-111497619D01*
X120833333Y-111545238D01*
X120880952Y-111569047D01*
G04 #@! TO.C,SW4*
X54866666Y-35102380D02*
X54795238Y-35126190D01*
X54676190Y-35126190D01*
X54628571Y-35102380D01*
X54604761Y-35078571D01*
X54580952Y-35030952D01*
X54580952Y-34983333D01*
X54604761Y-34935714D01*
X54628571Y-34911904D01*
X54676190Y-34888095D01*
X54771428Y-34864285D01*
X54819047Y-34840476D01*
X54842857Y-34816666D01*
X54866666Y-34769047D01*
X54866666Y-34721428D01*
X54842857Y-34673809D01*
X54819047Y-34650000D01*
X54771428Y-34626190D01*
X54652380Y-34626190D01*
X54580952Y-34650000D01*
X54414285Y-34626190D02*
X54295238Y-35126190D01*
X54200000Y-34769047D01*
X54104761Y-35126190D01*
X53985714Y-34626190D01*
X53580952Y-34792857D02*
X53580952Y-35126190D01*
X53700000Y-34602380D02*
X53819047Y-34959523D01*
X53509523Y-34959523D01*
G04 #@! TO.C,SW3*
X63866666Y-35102380D02*
X63795238Y-35126190D01*
X63676190Y-35126190D01*
X63628571Y-35102380D01*
X63604761Y-35078571D01*
X63580952Y-35030952D01*
X63580952Y-34983333D01*
X63604761Y-34935714D01*
X63628571Y-34911904D01*
X63676190Y-34888095D01*
X63771428Y-34864285D01*
X63819047Y-34840476D01*
X63842857Y-34816666D01*
X63866666Y-34769047D01*
X63866666Y-34721428D01*
X63842857Y-34673809D01*
X63819047Y-34650000D01*
X63771428Y-34626190D01*
X63652380Y-34626190D01*
X63580952Y-34650000D01*
X63414285Y-34626190D02*
X63295238Y-35126190D01*
X63200000Y-34769047D01*
X63104761Y-35126190D01*
X62985714Y-34626190D01*
X62842857Y-34626190D02*
X62533333Y-34626190D01*
X62700000Y-34816666D01*
X62628571Y-34816666D01*
X62580952Y-34840476D01*
X62557142Y-34864285D01*
X62533333Y-34911904D01*
X62533333Y-35030952D01*
X62557142Y-35078571D01*
X62580952Y-35102380D01*
X62628571Y-35126190D01*
X62771428Y-35126190D01*
X62819047Y-35102380D01*
X62842857Y-35078571D01*
G04 #@! TO.C,SW2*
X72866666Y-35102380D02*
X72795238Y-35126190D01*
X72676190Y-35126190D01*
X72628571Y-35102380D01*
X72604761Y-35078571D01*
X72580952Y-35030952D01*
X72580952Y-34983333D01*
X72604761Y-34935714D01*
X72628571Y-34911904D01*
X72676190Y-34888095D01*
X72771428Y-34864285D01*
X72819047Y-34840476D01*
X72842857Y-34816666D01*
X72866666Y-34769047D01*
X72866666Y-34721428D01*
X72842857Y-34673809D01*
X72819047Y-34650000D01*
X72771428Y-34626190D01*
X72652380Y-34626190D01*
X72580952Y-34650000D01*
X72414285Y-34626190D02*
X72295238Y-35126190D01*
X72200000Y-34769047D01*
X72104761Y-35126190D01*
X71985714Y-34626190D01*
X71819047Y-34673809D02*
X71795238Y-34650000D01*
X71747619Y-34626190D01*
X71628571Y-34626190D01*
X71580952Y-34650000D01*
X71557142Y-34673809D01*
X71533333Y-34721428D01*
X71533333Y-34769047D01*
X71557142Y-34840476D01*
X71842857Y-35126190D01*
X71533333Y-35126190D01*
G04 #@! TO.C,SW1*
X81866666Y-35102380D02*
X81795238Y-35126190D01*
X81676190Y-35126190D01*
X81628571Y-35102380D01*
X81604761Y-35078571D01*
X81580952Y-35030952D01*
X81580952Y-34983333D01*
X81604761Y-34935714D01*
X81628571Y-34911904D01*
X81676190Y-34888095D01*
X81771428Y-34864285D01*
X81819047Y-34840476D01*
X81842857Y-34816666D01*
X81866666Y-34769047D01*
X81866666Y-34721428D01*
X81842857Y-34673809D01*
X81819047Y-34650000D01*
X81771428Y-34626190D01*
X81652380Y-34626190D01*
X81580952Y-34650000D01*
X81414285Y-34626190D02*
X81295238Y-35126190D01*
X81200000Y-34769047D01*
X81104761Y-35126190D01*
X80985714Y-34626190D01*
X80533333Y-35126190D02*
X80819047Y-35126190D01*
X80676190Y-35126190D02*
X80676190Y-34626190D01*
X80723809Y-34697619D01*
X80771428Y-34745238D01*
X80819047Y-34769047D01*
G04 #@! TO.C,R43*
X109921428Y-88426190D02*
X110088095Y-88188095D01*
X110207142Y-88426190D02*
X110207142Y-87926190D01*
X110016666Y-87926190D01*
X109969047Y-87950000D01*
X109945238Y-87973809D01*
X109921428Y-88021428D01*
X109921428Y-88092857D01*
X109945238Y-88140476D01*
X109969047Y-88164285D01*
X110016666Y-88188095D01*
X110207142Y-88188095D01*
X109492857Y-88092857D02*
X109492857Y-88426190D01*
X109611904Y-87902380D02*
X109730952Y-88259523D01*
X109421428Y-88259523D01*
X109278571Y-87926190D02*
X108969047Y-87926190D01*
X109135714Y-88116666D01*
X109064285Y-88116666D01*
X109016666Y-88140476D01*
X108992857Y-88164285D01*
X108969047Y-88211904D01*
X108969047Y-88330952D01*
X108992857Y-88378571D01*
X109016666Y-88402380D01*
X109064285Y-88426190D01*
X109207142Y-88426190D01*
X109254761Y-88402380D01*
X109278571Y-88378571D01*
G04 #@! TO.C,R42*
X120321428Y-80926190D02*
X120488095Y-80688095D01*
X120607142Y-80926190D02*
X120607142Y-80426190D01*
X120416666Y-80426190D01*
X120369047Y-80450000D01*
X120345238Y-80473809D01*
X120321428Y-80521428D01*
X120321428Y-80592857D01*
X120345238Y-80640476D01*
X120369047Y-80664285D01*
X120416666Y-80688095D01*
X120607142Y-80688095D01*
X119892857Y-80592857D02*
X119892857Y-80926190D01*
X120011904Y-80402380D02*
X120130952Y-80759523D01*
X119821428Y-80759523D01*
X119654761Y-80473809D02*
X119630952Y-80450000D01*
X119583333Y-80426190D01*
X119464285Y-80426190D01*
X119416666Y-80450000D01*
X119392857Y-80473809D01*
X119369047Y-80521428D01*
X119369047Y-80569047D01*
X119392857Y-80640476D01*
X119678571Y-80926190D01*
X119369047Y-80926190D01*
G04 #@! TO.C,R41*
X56121428Y-45326190D02*
X56288095Y-45088095D01*
X56407142Y-45326190D02*
X56407142Y-44826190D01*
X56216666Y-44826190D01*
X56169047Y-44850000D01*
X56145238Y-44873809D01*
X56121428Y-44921428D01*
X56121428Y-44992857D01*
X56145238Y-45040476D01*
X56169047Y-45064285D01*
X56216666Y-45088095D01*
X56407142Y-45088095D01*
X55692857Y-44992857D02*
X55692857Y-45326190D01*
X55811904Y-44802380D02*
X55930952Y-45159523D01*
X55621428Y-45159523D01*
X55169047Y-45326190D02*
X55454761Y-45326190D01*
X55311904Y-45326190D02*
X55311904Y-44826190D01*
X55359523Y-44897619D01*
X55407142Y-44945238D01*
X55454761Y-44969047D01*
G04 #@! TO.C,R40*
X65121428Y-45326190D02*
X65288095Y-45088095D01*
X65407142Y-45326190D02*
X65407142Y-44826190D01*
X65216666Y-44826190D01*
X65169047Y-44850000D01*
X65145238Y-44873809D01*
X65121428Y-44921428D01*
X65121428Y-44992857D01*
X65145238Y-45040476D01*
X65169047Y-45064285D01*
X65216666Y-45088095D01*
X65407142Y-45088095D01*
X64692857Y-44992857D02*
X64692857Y-45326190D01*
X64811904Y-44802380D02*
X64930952Y-45159523D01*
X64621428Y-45159523D01*
X64335714Y-44826190D02*
X64288095Y-44826190D01*
X64240476Y-44850000D01*
X64216666Y-44873809D01*
X64192857Y-44921428D01*
X64169047Y-45016666D01*
X64169047Y-45135714D01*
X64192857Y-45230952D01*
X64216666Y-45278571D01*
X64240476Y-45302380D01*
X64288095Y-45326190D01*
X64335714Y-45326190D01*
X64383333Y-45302380D01*
X64407142Y-45278571D01*
X64430952Y-45230952D01*
X64454761Y-45135714D01*
X64454761Y-45016666D01*
X64430952Y-44921428D01*
X64407142Y-44873809D01*
X64383333Y-44850000D01*
X64335714Y-44826190D01*
G04 #@! TO.C,R39*
X144421428Y-62926190D02*
X144588095Y-62688095D01*
X144707142Y-62926190D02*
X144707142Y-62426190D01*
X144516666Y-62426190D01*
X144469047Y-62450000D01*
X144445238Y-62473809D01*
X144421428Y-62521428D01*
X144421428Y-62592857D01*
X144445238Y-62640476D01*
X144469047Y-62664285D01*
X144516666Y-62688095D01*
X144707142Y-62688095D01*
X144254761Y-62426190D02*
X143945238Y-62426190D01*
X144111904Y-62616666D01*
X144040476Y-62616666D01*
X143992857Y-62640476D01*
X143969047Y-62664285D01*
X143945238Y-62711904D01*
X143945238Y-62830952D01*
X143969047Y-62878571D01*
X143992857Y-62902380D01*
X144040476Y-62926190D01*
X144183333Y-62926190D01*
X144230952Y-62902380D01*
X144254761Y-62878571D01*
X143707142Y-62926190D02*
X143611904Y-62926190D01*
X143564285Y-62902380D01*
X143540476Y-62878571D01*
X143492857Y-62807142D01*
X143469047Y-62711904D01*
X143469047Y-62521428D01*
X143492857Y-62473809D01*
X143516666Y-62450000D01*
X143564285Y-62426190D01*
X143659523Y-62426190D01*
X143707142Y-62450000D01*
X143730952Y-62473809D01*
X143754761Y-62521428D01*
X143754761Y-62640476D01*
X143730952Y-62688095D01*
X143707142Y-62711904D01*
X143659523Y-62735714D01*
X143564285Y-62735714D01*
X143516666Y-62711904D01*
X143492857Y-62688095D01*
X143469047Y-62640476D01*
G04 #@! TO.C,R38*
X74121428Y-45326190D02*
X74288095Y-45088095D01*
X74407142Y-45326190D02*
X74407142Y-44826190D01*
X74216666Y-44826190D01*
X74169047Y-44850000D01*
X74145238Y-44873809D01*
X74121428Y-44921428D01*
X74121428Y-44992857D01*
X74145238Y-45040476D01*
X74169047Y-45064285D01*
X74216666Y-45088095D01*
X74407142Y-45088095D01*
X73954761Y-44826190D02*
X73645238Y-44826190D01*
X73811904Y-45016666D01*
X73740476Y-45016666D01*
X73692857Y-45040476D01*
X73669047Y-45064285D01*
X73645238Y-45111904D01*
X73645238Y-45230952D01*
X73669047Y-45278571D01*
X73692857Y-45302380D01*
X73740476Y-45326190D01*
X73883333Y-45326190D01*
X73930952Y-45302380D01*
X73954761Y-45278571D01*
X73359523Y-45040476D02*
X73407142Y-45016666D01*
X73430952Y-44992857D01*
X73454761Y-44945238D01*
X73454761Y-44921428D01*
X73430952Y-44873809D01*
X73407142Y-44850000D01*
X73359523Y-44826190D01*
X73264285Y-44826190D01*
X73216666Y-44850000D01*
X73192857Y-44873809D01*
X73169047Y-44921428D01*
X73169047Y-44945238D01*
X73192857Y-44992857D01*
X73216666Y-45016666D01*
X73264285Y-45040476D01*
X73359523Y-45040476D01*
X73407142Y-45064285D01*
X73430952Y-45088095D01*
X73454761Y-45135714D01*
X73454761Y-45230952D01*
X73430952Y-45278571D01*
X73407142Y-45302380D01*
X73359523Y-45326190D01*
X73264285Y-45326190D01*
X73216666Y-45302380D01*
X73192857Y-45278571D01*
X73169047Y-45230952D01*
X73169047Y-45135714D01*
X73192857Y-45088095D01*
X73216666Y-45064285D01*
X73264285Y-45040476D01*
G04 #@! TO.C,R37*
X83121428Y-45326190D02*
X83288095Y-45088095D01*
X83407142Y-45326190D02*
X83407142Y-44826190D01*
X83216666Y-44826190D01*
X83169047Y-44850000D01*
X83145238Y-44873809D01*
X83121428Y-44921428D01*
X83121428Y-44992857D01*
X83145238Y-45040476D01*
X83169047Y-45064285D01*
X83216666Y-45088095D01*
X83407142Y-45088095D01*
X82954761Y-44826190D02*
X82645238Y-44826190D01*
X82811904Y-45016666D01*
X82740476Y-45016666D01*
X82692857Y-45040476D01*
X82669047Y-45064285D01*
X82645238Y-45111904D01*
X82645238Y-45230952D01*
X82669047Y-45278571D01*
X82692857Y-45302380D01*
X82740476Y-45326190D01*
X82883333Y-45326190D01*
X82930952Y-45302380D01*
X82954761Y-45278571D01*
X82478571Y-44826190D02*
X82145238Y-44826190D01*
X82359523Y-45326190D01*
G04 #@! TO.C,R36*
X102421428Y-40326190D02*
X102588095Y-40088095D01*
X102707142Y-40326190D02*
X102707142Y-39826190D01*
X102516666Y-39826190D01*
X102469047Y-39850000D01*
X102445238Y-39873809D01*
X102421428Y-39921428D01*
X102421428Y-39992857D01*
X102445238Y-40040476D01*
X102469047Y-40064285D01*
X102516666Y-40088095D01*
X102707142Y-40088095D01*
X102254761Y-39826190D02*
X101945238Y-39826190D01*
X102111904Y-40016666D01*
X102040476Y-40016666D01*
X101992857Y-40040476D01*
X101969047Y-40064285D01*
X101945238Y-40111904D01*
X101945238Y-40230952D01*
X101969047Y-40278571D01*
X101992857Y-40302380D01*
X102040476Y-40326190D01*
X102183333Y-40326190D01*
X102230952Y-40302380D01*
X102254761Y-40278571D01*
X101516666Y-39826190D02*
X101611904Y-39826190D01*
X101659523Y-39850000D01*
X101683333Y-39873809D01*
X101730952Y-39945238D01*
X101754761Y-40040476D01*
X101754761Y-40230952D01*
X101730952Y-40278571D01*
X101707142Y-40302380D01*
X101659523Y-40326190D01*
X101564285Y-40326190D01*
X101516666Y-40302380D01*
X101492857Y-40278571D01*
X101469047Y-40230952D01*
X101469047Y-40111904D01*
X101492857Y-40064285D01*
X101516666Y-40040476D01*
X101564285Y-40016666D01*
X101659523Y-40016666D01*
X101707142Y-40040476D01*
X101730952Y-40064285D01*
X101754761Y-40111904D01*
G04 #@! TO.C,R35*
X155421428Y-47226190D02*
X155588095Y-46988095D01*
X155707142Y-47226190D02*
X155707142Y-46726190D01*
X155516666Y-46726190D01*
X155469047Y-46750000D01*
X155445238Y-46773809D01*
X155421428Y-46821428D01*
X155421428Y-46892857D01*
X155445238Y-46940476D01*
X155469047Y-46964285D01*
X155516666Y-46988095D01*
X155707142Y-46988095D01*
X155254761Y-46726190D02*
X154945238Y-46726190D01*
X155111904Y-46916666D01*
X155040476Y-46916666D01*
X154992857Y-46940476D01*
X154969047Y-46964285D01*
X154945238Y-47011904D01*
X154945238Y-47130952D01*
X154969047Y-47178571D01*
X154992857Y-47202380D01*
X155040476Y-47226190D01*
X155183333Y-47226190D01*
X155230952Y-47202380D01*
X155254761Y-47178571D01*
X154492857Y-46726190D02*
X154730952Y-46726190D01*
X154754761Y-46964285D01*
X154730952Y-46940476D01*
X154683333Y-46916666D01*
X154564285Y-46916666D01*
X154516666Y-46940476D01*
X154492857Y-46964285D01*
X154469047Y-47011904D01*
X154469047Y-47130952D01*
X154492857Y-47178571D01*
X154516666Y-47202380D01*
X154564285Y-47226190D01*
X154683333Y-47226190D01*
X154730952Y-47202380D01*
X154754761Y-47178571D01*
G04 #@! TO.C,R34*
X101421428Y-33126190D02*
X101588095Y-32888095D01*
X101707142Y-33126190D02*
X101707142Y-32626190D01*
X101516666Y-32626190D01*
X101469047Y-32650000D01*
X101445238Y-32673809D01*
X101421428Y-32721428D01*
X101421428Y-32792857D01*
X101445238Y-32840476D01*
X101469047Y-32864285D01*
X101516666Y-32888095D01*
X101707142Y-32888095D01*
X101254761Y-32626190D02*
X100945238Y-32626190D01*
X101111904Y-32816666D01*
X101040476Y-32816666D01*
X100992857Y-32840476D01*
X100969047Y-32864285D01*
X100945238Y-32911904D01*
X100945238Y-33030952D01*
X100969047Y-33078571D01*
X100992857Y-33102380D01*
X101040476Y-33126190D01*
X101183333Y-33126190D01*
X101230952Y-33102380D01*
X101254761Y-33078571D01*
X100516666Y-32792857D02*
X100516666Y-33126190D01*
X100635714Y-32602380D02*
X100754761Y-32959523D01*
X100445238Y-32959523D01*
G04 #@! TO.C,R33*
X87421428Y-45226190D02*
X87588095Y-44988095D01*
X87707142Y-45226190D02*
X87707142Y-44726190D01*
X87516666Y-44726190D01*
X87469047Y-44750000D01*
X87445238Y-44773809D01*
X87421428Y-44821428D01*
X87421428Y-44892857D01*
X87445238Y-44940476D01*
X87469047Y-44964285D01*
X87516666Y-44988095D01*
X87707142Y-44988095D01*
X87254761Y-44726190D02*
X86945238Y-44726190D01*
X87111904Y-44916666D01*
X87040476Y-44916666D01*
X86992857Y-44940476D01*
X86969047Y-44964285D01*
X86945238Y-45011904D01*
X86945238Y-45130952D01*
X86969047Y-45178571D01*
X86992857Y-45202380D01*
X87040476Y-45226190D01*
X87183333Y-45226190D01*
X87230952Y-45202380D01*
X87254761Y-45178571D01*
X86778571Y-44726190D02*
X86469047Y-44726190D01*
X86635714Y-44916666D01*
X86564285Y-44916666D01*
X86516666Y-44940476D01*
X86492857Y-44964285D01*
X86469047Y-45011904D01*
X86469047Y-45130952D01*
X86492857Y-45178571D01*
X86516666Y-45202380D01*
X86564285Y-45226190D01*
X86707142Y-45226190D01*
X86754761Y-45202380D01*
X86778571Y-45178571D01*
G04 #@! TO.C,R32*
X162721428Y-63026190D02*
X162888095Y-62788095D01*
X163007142Y-63026190D02*
X163007142Y-62526190D01*
X162816666Y-62526190D01*
X162769047Y-62550000D01*
X162745238Y-62573809D01*
X162721428Y-62621428D01*
X162721428Y-62692857D01*
X162745238Y-62740476D01*
X162769047Y-62764285D01*
X162816666Y-62788095D01*
X163007142Y-62788095D01*
X162554761Y-62526190D02*
X162245238Y-62526190D01*
X162411904Y-62716666D01*
X162340476Y-62716666D01*
X162292857Y-62740476D01*
X162269047Y-62764285D01*
X162245238Y-62811904D01*
X162245238Y-62930952D01*
X162269047Y-62978571D01*
X162292857Y-63002380D01*
X162340476Y-63026190D01*
X162483333Y-63026190D01*
X162530952Y-63002380D01*
X162554761Y-62978571D01*
X162054761Y-62573809D02*
X162030952Y-62550000D01*
X161983333Y-62526190D01*
X161864285Y-62526190D01*
X161816666Y-62550000D01*
X161792857Y-62573809D01*
X161769047Y-62621428D01*
X161769047Y-62669047D01*
X161792857Y-62740476D01*
X162078571Y-63026190D01*
X161769047Y-63026190D01*
G04 #@! TO.C,R31*
X162721428Y-58026190D02*
X162888095Y-57788095D01*
X163007142Y-58026190D02*
X163007142Y-57526190D01*
X162816666Y-57526190D01*
X162769047Y-57550000D01*
X162745238Y-57573809D01*
X162721428Y-57621428D01*
X162721428Y-57692857D01*
X162745238Y-57740476D01*
X162769047Y-57764285D01*
X162816666Y-57788095D01*
X163007142Y-57788095D01*
X162554761Y-57526190D02*
X162245238Y-57526190D01*
X162411904Y-57716666D01*
X162340476Y-57716666D01*
X162292857Y-57740476D01*
X162269047Y-57764285D01*
X162245238Y-57811904D01*
X162245238Y-57930952D01*
X162269047Y-57978571D01*
X162292857Y-58002380D01*
X162340476Y-58026190D01*
X162483333Y-58026190D01*
X162530952Y-58002380D01*
X162554761Y-57978571D01*
X161769047Y-58026190D02*
X162054761Y-58026190D01*
X161911904Y-58026190D02*
X161911904Y-57526190D01*
X161959523Y-57597619D01*
X162007142Y-57645238D01*
X162054761Y-57669047D01*
G04 #@! TO.C,R30*
X157021428Y-100026190D02*
X157188095Y-99788095D01*
X157307142Y-100026190D02*
X157307142Y-99526190D01*
X157116666Y-99526190D01*
X157069047Y-99550000D01*
X157045238Y-99573809D01*
X157021428Y-99621428D01*
X157021428Y-99692857D01*
X157045238Y-99740476D01*
X157069047Y-99764285D01*
X157116666Y-99788095D01*
X157307142Y-99788095D01*
X156854761Y-99526190D02*
X156545238Y-99526190D01*
X156711904Y-99716666D01*
X156640476Y-99716666D01*
X156592857Y-99740476D01*
X156569047Y-99764285D01*
X156545238Y-99811904D01*
X156545238Y-99930952D01*
X156569047Y-99978571D01*
X156592857Y-100002380D01*
X156640476Y-100026190D01*
X156783333Y-100026190D01*
X156830952Y-100002380D01*
X156854761Y-99978571D01*
X156235714Y-99526190D02*
X156188095Y-99526190D01*
X156140476Y-99550000D01*
X156116666Y-99573809D01*
X156092857Y-99621428D01*
X156069047Y-99716666D01*
X156069047Y-99835714D01*
X156092857Y-99930952D01*
X156116666Y-99978571D01*
X156140476Y-100002380D01*
X156188095Y-100026190D01*
X156235714Y-100026190D01*
X156283333Y-100002380D01*
X156307142Y-99978571D01*
X156330952Y-99930952D01*
X156354761Y-99835714D01*
X156354761Y-99716666D01*
X156330952Y-99621428D01*
X156307142Y-99573809D01*
X156283333Y-99550000D01*
X156235714Y-99526190D01*
G04 #@! TO.C,R29*
X174021428Y-111326190D02*
X174188095Y-111088095D01*
X174307142Y-111326190D02*
X174307142Y-110826190D01*
X174116666Y-110826190D01*
X174069047Y-110850000D01*
X174045238Y-110873809D01*
X174021428Y-110921428D01*
X174021428Y-110992857D01*
X174045238Y-111040476D01*
X174069047Y-111064285D01*
X174116666Y-111088095D01*
X174307142Y-111088095D01*
X173830952Y-110873809D02*
X173807142Y-110850000D01*
X173759523Y-110826190D01*
X173640476Y-110826190D01*
X173592857Y-110850000D01*
X173569047Y-110873809D01*
X173545238Y-110921428D01*
X173545238Y-110969047D01*
X173569047Y-111040476D01*
X173854761Y-111326190D01*
X173545238Y-111326190D01*
X173307142Y-111326190D02*
X173211904Y-111326190D01*
X173164285Y-111302380D01*
X173140476Y-111278571D01*
X173092857Y-111207142D01*
X173069047Y-111111904D01*
X173069047Y-110921428D01*
X173092857Y-110873809D01*
X173116666Y-110850000D01*
X173164285Y-110826190D01*
X173259523Y-110826190D01*
X173307142Y-110850000D01*
X173330952Y-110873809D01*
X173354761Y-110921428D01*
X173354761Y-111040476D01*
X173330952Y-111088095D01*
X173307142Y-111111904D01*
X173259523Y-111135714D01*
X173164285Y-111135714D01*
X173116666Y-111111904D01*
X173092857Y-111088095D01*
X173069047Y-111040476D01*
G04 #@! TO.C,R28*
X149521428Y-119026190D02*
X149688095Y-118788095D01*
X149807142Y-119026190D02*
X149807142Y-118526190D01*
X149616666Y-118526190D01*
X149569047Y-118550000D01*
X149545238Y-118573809D01*
X149521428Y-118621428D01*
X149521428Y-118692857D01*
X149545238Y-118740476D01*
X149569047Y-118764285D01*
X149616666Y-118788095D01*
X149807142Y-118788095D01*
X149330952Y-118573809D02*
X149307142Y-118550000D01*
X149259523Y-118526190D01*
X149140476Y-118526190D01*
X149092857Y-118550000D01*
X149069047Y-118573809D01*
X149045238Y-118621428D01*
X149045238Y-118669047D01*
X149069047Y-118740476D01*
X149354761Y-119026190D01*
X149045238Y-119026190D01*
X148759523Y-118740476D02*
X148807142Y-118716666D01*
X148830952Y-118692857D01*
X148854761Y-118645238D01*
X148854761Y-118621428D01*
X148830952Y-118573809D01*
X148807142Y-118550000D01*
X148759523Y-118526190D01*
X148664285Y-118526190D01*
X148616666Y-118550000D01*
X148592857Y-118573809D01*
X148569047Y-118621428D01*
X148569047Y-118645238D01*
X148592857Y-118692857D01*
X148616666Y-118716666D01*
X148664285Y-118740476D01*
X148759523Y-118740476D01*
X148807142Y-118764285D01*
X148830952Y-118788095D01*
X148854761Y-118835714D01*
X148854761Y-118930952D01*
X148830952Y-118978571D01*
X148807142Y-119002380D01*
X148759523Y-119026190D01*
X148664285Y-119026190D01*
X148616666Y-119002380D01*
X148592857Y-118978571D01*
X148569047Y-118930952D01*
X148569047Y-118835714D01*
X148592857Y-118788095D01*
X148616666Y-118764285D01*
X148664285Y-118740476D01*
G04 #@! TO.C,R27*
X143921428Y-102126190D02*
X144088095Y-101888095D01*
X144207142Y-102126190D02*
X144207142Y-101626190D01*
X144016666Y-101626190D01*
X143969047Y-101650000D01*
X143945238Y-101673809D01*
X143921428Y-101721428D01*
X143921428Y-101792857D01*
X143945238Y-101840476D01*
X143969047Y-101864285D01*
X144016666Y-101888095D01*
X144207142Y-101888095D01*
X143730952Y-101673809D02*
X143707142Y-101650000D01*
X143659523Y-101626190D01*
X143540476Y-101626190D01*
X143492857Y-101650000D01*
X143469047Y-101673809D01*
X143445238Y-101721428D01*
X143445238Y-101769047D01*
X143469047Y-101840476D01*
X143754761Y-102126190D01*
X143445238Y-102126190D01*
X143278571Y-101626190D02*
X142945238Y-101626190D01*
X143159523Y-102126190D01*
G04 #@! TO.C,R26*
X178821428Y-90226190D02*
X178988095Y-89988095D01*
X179107142Y-90226190D02*
X179107142Y-89726190D01*
X178916666Y-89726190D01*
X178869047Y-89750000D01*
X178845238Y-89773809D01*
X178821428Y-89821428D01*
X178821428Y-89892857D01*
X178845238Y-89940476D01*
X178869047Y-89964285D01*
X178916666Y-89988095D01*
X179107142Y-89988095D01*
X178630952Y-89773809D02*
X178607142Y-89750000D01*
X178559523Y-89726190D01*
X178440476Y-89726190D01*
X178392857Y-89750000D01*
X178369047Y-89773809D01*
X178345238Y-89821428D01*
X178345238Y-89869047D01*
X178369047Y-89940476D01*
X178654761Y-90226190D01*
X178345238Y-90226190D01*
X177916666Y-89726190D02*
X178011904Y-89726190D01*
X178059523Y-89750000D01*
X178083333Y-89773809D01*
X178130952Y-89845238D01*
X178154761Y-89940476D01*
X178154761Y-90130952D01*
X178130952Y-90178571D01*
X178107142Y-90202380D01*
X178059523Y-90226190D01*
X177964285Y-90226190D01*
X177916666Y-90202380D01*
X177892857Y-90178571D01*
X177869047Y-90130952D01*
X177869047Y-90011904D01*
X177892857Y-89964285D01*
X177916666Y-89940476D01*
X177964285Y-89916666D01*
X178059523Y-89916666D01*
X178107142Y-89940476D01*
X178130952Y-89964285D01*
X178154761Y-90011904D01*
G04 #@! TO.C,R25*
X36421428Y-123226190D02*
X36588095Y-122988095D01*
X36707142Y-123226190D02*
X36707142Y-122726190D01*
X36516666Y-122726190D01*
X36469047Y-122750000D01*
X36445238Y-122773809D01*
X36421428Y-122821428D01*
X36421428Y-122892857D01*
X36445238Y-122940476D01*
X36469047Y-122964285D01*
X36516666Y-122988095D01*
X36707142Y-122988095D01*
X36230952Y-122773809D02*
X36207142Y-122750000D01*
X36159523Y-122726190D01*
X36040476Y-122726190D01*
X35992857Y-122750000D01*
X35969047Y-122773809D01*
X35945238Y-122821428D01*
X35945238Y-122869047D01*
X35969047Y-122940476D01*
X36254761Y-123226190D01*
X35945238Y-123226190D01*
X35492857Y-122726190D02*
X35730952Y-122726190D01*
X35754761Y-122964285D01*
X35730952Y-122940476D01*
X35683333Y-122916666D01*
X35564285Y-122916666D01*
X35516666Y-122940476D01*
X35492857Y-122964285D01*
X35469047Y-123011904D01*
X35469047Y-123130952D01*
X35492857Y-123178571D01*
X35516666Y-123202380D01*
X35564285Y-123226190D01*
X35683333Y-123226190D01*
X35730952Y-123202380D01*
X35754761Y-123178571D01*
G04 #@! TO.C,R24*
X39621428Y-100326190D02*
X39788095Y-100088095D01*
X39907142Y-100326190D02*
X39907142Y-99826190D01*
X39716666Y-99826190D01*
X39669047Y-99850000D01*
X39645238Y-99873809D01*
X39621428Y-99921428D01*
X39621428Y-99992857D01*
X39645238Y-100040476D01*
X39669047Y-100064285D01*
X39716666Y-100088095D01*
X39907142Y-100088095D01*
X39430952Y-99873809D02*
X39407142Y-99850000D01*
X39359523Y-99826190D01*
X39240476Y-99826190D01*
X39192857Y-99850000D01*
X39169047Y-99873809D01*
X39145238Y-99921428D01*
X39145238Y-99969047D01*
X39169047Y-100040476D01*
X39454761Y-100326190D01*
X39145238Y-100326190D01*
X38716666Y-99992857D02*
X38716666Y-100326190D01*
X38835714Y-99802380D02*
X38954761Y-100159523D01*
X38645238Y-100159523D01*
G04 #@! TO.C,R23*
X42221428Y-116926190D02*
X42388095Y-116688095D01*
X42507142Y-116926190D02*
X42507142Y-116426190D01*
X42316666Y-116426190D01*
X42269047Y-116450000D01*
X42245238Y-116473809D01*
X42221428Y-116521428D01*
X42221428Y-116592857D01*
X42245238Y-116640476D01*
X42269047Y-116664285D01*
X42316666Y-116688095D01*
X42507142Y-116688095D01*
X42030952Y-116473809D02*
X42007142Y-116450000D01*
X41959523Y-116426190D01*
X41840476Y-116426190D01*
X41792857Y-116450000D01*
X41769047Y-116473809D01*
X41745238Y-116521428D01*
X41745238Y-116569047D01*
X41769047Y-116640476D01*
X42054761Y-116926190D01*
X41745238Y-116926190D01*
X41578571Y-116426190D02*
X41269047Y-116426190D01*
X41435714Y-116616666D01*
X41364285Y-116616666D01*
X41316666Y-116640476D01*
X41292857Y-116664285D01*
X41269047Y-116711904D01*
X41269047Y-116830952D01*
X41292857Y-116878571D01*
X41316666Y-116902380D01*
X41364285Y-116926190D01*
X41507142Y-116926190D01*
X41554761Y-116902380D01*
X41578571Y-116878571D01*
G04 #@! TO.C,R22*
X175321428Y-63026190D02*
X175488095Y-62788095D01*
X175607142Y-63026190D02*
X175607142Y-62526190D01*
X175416666Y-62526190D01*
X175369047Y-62550000D01*
X175345238Y-62573809D01*
X175321428Y-62621428D01*
X175321428Y-62692857D01*
X175345238Y-62740476D01*
X175369047Y-62764285D01*
X175416666Y-62788095D01*
X175607142Y-62788095D01*
X175130952Y-62573809D02*
X175107142Y-62550000D01*
X175059523Y-62526190D01*
X174940476Y-62526190D01*
X174892857Y-62550000D01*
X174869047Y-62573809D01*
X174845238Y-62621428D01*
X174845238Y-62669047D01*
X174869047Y-62740476D01*
X175154761Y-63026190D01*
X174845238Y-63026190D01*
X174654761Y-62573809D02*
X174630952Y-62550000D01*
X174583333Y-62526190D01*
X174464285Y-62526190D01*
X174416666Y-62550000D01*
X174392857Y-62573809D01*
X174369047Y-62621428D01*
X174369047Y-62669047D01*
X174392857Y-62740476D01*
X174678571Y-63026190D01*
X174369047Y-63026190D01*
G04 #@! TO.C,R21*
X175321428Y-56226190D02*
X175488095Y-55988095D01*
X175607142Y-56226190D02*
X175607142Y-55726190D01*
X175416666Y-55726190D01*
X175369047Y-55750000D01*
X175345238Y-55773809D01*
X175321428Y-55821428D01*
X175321428Y-55892857D01*
X175345238Y-55940476D01*
X175369047Y-55964285D01*
X175416666Y-55988095D01*
X175607142Y-55988095D01*
X175130952Y-55773809D02*
X175107142Y-55750000D01*
X175059523Y-55726190D01*
X174940476Y-55726190D01*
X174892857Y-55750000D01*
X174869047Y-55773809D01*
X174845238Y-55821428D01*
X174845238Y-55869047D01*
X174869047Y-55940476D01*
X175154761Y-56226190D01*
X174845238Y-56226190D01*
X174369047Y-56226190D02*
X174654761Y-56226190D01*
X174511904Y-56226190D02*
X174511904Y-55726190D01*
X174559523Y-55797619D01*
X174607142Y-55845238D01*
X174654761Y-55869047D01*
G04 #@! TO.C,R20*
X49121428Y-67026190D02*
X49288095Y-66788095D01*
X49407142Y-67026190D02*
X49407142Y-66526190D01*
X49216666Y-66526190D01*
X49169047Y-66550000D01*
X49145238Y-66573809D01*
X49121428Y-66621428D01*
X49121428Y-66692857D01*
X49145238Y-66740476D01*
X49169047Y-66764285D01*
X49216666Y-66788095D01*
X49407142Y-66788095D01*
X48930952Y-66573809D02*
X48907142Y-66550000D01*
X48859523Y-66526190D01*
X48740476Y-66526190D01*
X48692857Y-66550000D01*
X48669047Y-66573809D01*
X48645238Y-66621428D01*
X48645238Y-66669047D01*
X48669047Y-66740476D01*
X48954761Y-67026190D01*
X48645238Y-67026190D01*
X48335714Y-66526190D02*
X48288095Y-66526190D01*
X48240476Y-66550000D01*
X48216666Y-66573809D01*
X48192857Y-66621428D01*
X48169047Y-66716666D01*
X48169047Y-66835714D01*
X48192857Y-66930952D01*
X48216666Y-66978571D01*
X48240476Y-67002380D01*
X48288095Y-67026190D01*
X48335714Y-67026190D01*
X48383333Y-67002380D01*
X48407142Y-66978571D01*
X48430952Y-66930952D01*
X48454761Y-66835714D01*
X48454761Y-66716666D01*
X48430952Y-66621428D01*
X48407142Y-66573809D01*
X48383333Y-66550000D01*
X48335714Y-66526190D01*
G04 #@! TO.C,R19*
X42621428Y-40326190D02*
X42788095Y-40088095D01*
X42907142Y-40326190D02*
X42907142Y-39826190D01*
X42716666Y-39826190D01*
X42669047Y-39850000D01*
X42645238Y-39873809D01*
X42621428Y-39921428D01*
X42621428Y-39992857D01*
X42645238Y-40040476D01*
X42669047Y-40064285D01*
X42716666Y-40088095D01*
X42907142Y-40088095D01*
X42145238Y-40326190D02*
X42430952Y-40326190D01*
X42288095Y-40326190D02*
X42288095Y-39826190D01*
X42335714Y-39897619D01*
X42383333Y-39945238D01*
X42430952Y-39969047D01*
X41907142Y-40326190D02*
X41811904Y-40326190D01*
X41764285Y-40302380D01*
X41740476Y-40278571D01*
X41692857Y-40207142D01*
X41669047Y-40111904D01*
X41669047Y-39921428D01*
X41692857Y-39873809D01*
X41716666Y-39850000D01*
X41764285Y-39826190D01*
X41859523Y-39826190D01*
X41907142Y-39850000D01*
X41930952Y-39873809D01*
X41954761Y-39921428D01*
X41954761Y-40040476D01*
X41930952Y-40088095D01*
X41907142Y-40111904D01*
X41859523Y-40135714D01*
X41764285Y-40135714D01*
X41716666Y-40111904D01*
X41692857Y-40088095D01*
X41669047Y-40040476D01*
G04 #@! TO.C,R18*
X73321428Y-57226190D02*
X73488095Y-56988095D01*
X73607142Y-57226190D02*
X73607142Y-56726190D01*
X73416666Y-56726190D01*
X73369047Y-56750000D01*
X73345238Y-56773809D01*
X73321428Y-56821428D01*
X73321428Y-56892857D01*
X73345238Y-56940476D01*
X73369047Y-56964285D01*
X73416666Y-56988095D01*
X73607142Y-56988095D01*
X72845238Y-57226190D02*
X73130952Y-57226190D01*
X72988095Y-57226190D02*
X72988095Y-56726190D01*
X73035714Y-56797619D01*
X73083333Y-56845238D01*
X73130952Y-56869047D01*
X72559523Y-56940476D02*
X72607142Y-56916666D01*
X72630952Y-56892857D01*
X72654761Y-56845238D01*
X72654761Y-56821428D01*
X72630952Y-56773809D01*
X72607142Y-56750000D01*
X72559523Y-56726190D01*
X72464285Y-56726190D01*
X72416666Y-56750000D01*
X72392857Y-56773809D01*
X72369047Y-56821428D01*
X72369047Y-56845238D01*
X72392857Y-56892857D01*
X72416666Y-56916666D01*
X72464285Y-56940476D01*
X72559523Y-56940476D01*
X72607142Y-56964285D01*
X72630952Y-56988095D01*
X72654761Y-57035714D01*
X72654761Y-57130952D01*
X72630952Y-57178571D01*
X72607142Y-57202380D01*
X72559523Y-57226190D01*
X72464285Y-57226190D01*
X72416666Y-57202380D01*
X72392857Y-57178571D01*
X72369047Y-57130952D01*
X72369047Y-57035714D01*
X72392857Y-56988095D01*
X72416666Y-56964285D01*
X72464285Y-56940476D01*
G04 #@! TO.C,R17*
X39421428Y-58726190D02*
X39588095Y-58488095D01*
X39707142Y-58726190D02*
X39707142Y-58226190D01*
X39516666Y-58226190D01*
X39469047Y-58250000D01*
X39445238Y-58273809D01*
X39421428Y-58321428D01*
X39421428Y-58392857D01*
X39445238Y-58440476D01*
X39469047Y-58464285D01*
X39516666Y-58488095D01*
X39707142Y-58488095D01*
X38945238Y-58726190D02*
X39230952Y-58726190D01*
X39088095Y-58726190D02*
X39088095Y-58226190D01*
X39135714Y-58297619D01*
X39183333Y-58345238D01*
X39230952Y-58369047D01*
X38778571Y-58226190D02*
X38445238Y-58226190D01*
X38659523Y-58726190D01*
G04 #@! TO.C,R16*
X140321428Y-58526190D02*
X140488095Y-58288095D01*
X140607142Y-58526190D02*
X140607142Y-58026190D01*
X140416666Y-58026190D01*
X140369047Y-58050000D01*
X140345238Y-58073809D01*
X140321428Y-58121428D01*
X140321428Y-58192857D01*
X140345238Y-58240476D01*
X140369047Y-58264285D01*
X140416666Y-58288095D01*
X140607142Y-58288095D01*
X139845238Y-58526190D02*
X140130952Y-58526190D01*
X139988095Y-58526190D02*
X139988095Y-58026190D01*
X140035714Y-58097619D01*
X140083333Y-58145238D01*
X140130952Y-58169047D01*
X139416666Y-58026190D02*
X139511904Y-58026190D01*
X139559523Y-58050000D01*
X139583333Y-58073809D01*
X139630952Y-58145238D01*
X139654761Y-58240476D01*
X139654761Y-58430952D01*
X139630952Y-58478571D01*
X139607142Y-58502380D01*
X139559523Y-58526190D01*
X139464285Y-58526190D01*
X139416666Y-58502380D01*
X139392857Y-58478571D01*
X139369047Y-58430952D01*
X139369047Y-58311904D01*
X139392857Y-58264285D01*
X139416666Y-58240476D01*
X139464285Y-58216666D01*
X139559523Y-58216666D01*
X139607142Y-58240476D01*
X139630952Y-58264285D01*
X139654761Y-58311904D01*
G04 #@! TO.C,R15*
X149821428Y-40326190D02*
X149988095Y-40088095D01*
X150107142Y-40326190D02*
X150107142Y-39826190D01*
X149916666Y-39826190D01*
X149869047Y-39850000D01*
X149845238Y-39873809D01*
X149821428Y-39921428D01*
X149821428Y-39992857D01*
X149845238Y-40040476D01*
X149869047Y-40064285D01*
X149916666Y-40088095D01*
X150107142Y-40088095D01*
X149345238Y-40326190D02*
X149630952Y-40326190D01*
X149488095Y-40326190D02*
X149488095Y-39826190D01*
X149535714Y-39897619D01*
X149583333Y-39945238D01*
X149630952Y-39969047D01*
X148892857Y-39826190D02*
X149130952Y-39826190D01*
X149154761Y-40064285D01*
X149130952Y-40040476D01*
X149083333Y-40016666D01*
X148964285Y-40016666D01*
X148916666Y-40040476D01*
X148892857Y-40064285D01*
X148869047Y-40111904D01*
X148869047Y-40230952D01*
X148892857Y-40278571D01*
X148916666Y-40302380D01*
X148964285Y-40326190D01*
X149083333Y-40326190D01*
X149130952Y-40302380D01*
X149154761Y-40278571D01*
G04 #@! TO.C,R14*
X127721428Y-39226190D02*
X127888095Y-38988095D01*
X128007142Y-39226190D02*
X128007142Y-38726190D01*
X127816666Y-38726190D01*
X127769047Y-38750000D01*
X127745238Y-38773809D01*
X127721428Y-38821428D01*
X127721428Y-38892857D01*
X127745238Y-38940476D01*
X127769047Y-38964285D01*
X127816666Y-38988095D01*
X128007142Y-38988095D01*
X127245238Y-39226190D02*
X127530952Y-39226190D01*
X127388095Y-39226190D02*
X127388095Y-38726190D01*
X127435714Y-38797619D01*
X127483333Y-38845238D01*
X127530952Y-38869047D01*
X126816666Y-38892857D02*
X126816666Y-39226190D01*
X126935714Y-38702380D02*
X127054761Y-39059523D01*
X126745238Y-39059523D01*
G04 #@! TO.C,R12*
X164421428Y-118026190D02*
X164588095Y-117788095D01*
X164707142Y-118026190D02*
X164707142Y-117526190D01*
X164516666Y-117526190D01*
X164469047Y-117550000D01*
X164445238Y-117573809D01*
X164421428Y-117621428D01*
X164421428Y-117692857D01*
X164445238Y-117740476D01*
X164469047Y-117764285D01*
X164516666Y-117788095D01*
X164707142Y-117788095D01*
X163945238Y-118026190D02*
X164230952Y-118026190D01*
X164088095Y-118026190D02*
X164088095Y-117526190D01*
X164135714Y-117597619D01*
X164183333Y-117645238D01*
X164230952Y-117669047D01*
X163754761Y-117573809D02*
X163730952Y-117550000D01*
X163683333Y-117526190D01*
X163564285Y-117526190D01*
X163516666Y-117550000D01*
X163492857Y-117573809D01*
X163469047Y-117621428D01*
X163469047Y-117669047D01*
X163492857Y-117740476D01*
X163778571Y-118026190D01*
X163469047Y-118026190D01*
G04 #@! TO.C,R11*
X164421428Y-121626190D02*
X164588095Y-121388095D01*
X164707142Y-121626190D02*
X164707142Y-121126190D01*
X164516666Y-121126190D01*
X164469047Y-121150000D01*
X164445238Y-121173809D01*
X164421428Y-121221428D01*
X164421428Y-121292857D01*
X164445238Y-121340476D01*
X164469047Y-121364285D01*
X164516666Y-121388095D01*
X164707142Y-121388095D01*
X163945238Y-121626190D02*
X164230952Y-121626190D01*
X164088095Y-121626190D02*
X164088095Y-121126190D01*
X164135714Y-121197619D01*
X164183333Y-121245238D01*
X164230952Y-121269047D01*
X163469047Y-121626190D02*
X163754761Y-121626190D01*
X163611904Y-121626190D02*
X163611904Y-121126190D01*
X163659523Y-121197619D01*
X163707142Y-121245238D01*
X163754761Y-121269047D01*
G04 #@! TO.C,R10*
X164421428Y-125226190D02*
X164588095Y-124988095D01*
X164707142Y-125226190D02*
X164707142Y-124726190D01*
X164516666Y-124726190D01*
X164469047Y-124750000D01*
X164445238Y-124773809D01*
X164421428Y-124821428D01*
X164421428Y-124892857D01*
X164445238Y-124940476D01*
X164469047Y-124964285D01*
X164516666Y-124988095D01*
X164707142Y-124988095D01*
X163945238Y-125226190D02*
X164230952Y-125226190D01*
X164088095Y-125226190D02*
X164088095Y-124726190D01*
X164135714Y-124797619D01*
X164183333Y-124845238D01*
X164230952Y-124869047D01*
X163635714Y-124726190D02*
X163588095Y-124726190D01*
X163540476Y-124750000D01*
X163516666Y-124773809D01*
X163492857Y-124821428D01*
X163469047Y-124916666D01*
X163469047Y-125035714D01*
X163492857Y-125130952D01*
X163516666Y-125178571D01*
X163540476Y-125202380D01*
X163588095Y-125226190D01*
X163635714Y-125226190D01*
X163683333Y-125202380D01*
X163707142Y-125178571D01*
X163730952Y-125130952D01*
X163754761Y-125035714D01*
X163754761Y-124916666D01*
X163730952Y-124821428D01*
X163707142Y-124773809D01*
X163683333Y-124750000D01*
X163635714Y-124726190D01*
G04 #@! TO.C,R9*
X123583333Y-111326190D02*
X123750000Y-111088095D01*
X123869047Y-111326190D02*
X123869047Y-110826190D01*
X123678571Y-110826190D01*
X123630952Y-110850000D01*
X123607142Y-110873809D01*
X123583333Y-110921428D01*
X123583333Y-110992857D01*
X123607142Y-111040476D01*
X123630952Y-111064285D01*
X123678571Y-111088095D01*
X123869047Y-111088095D01*
X123345238Y-111326190D02*
X123250000Y-111326190D01*
X123202380Y-111302380D01*
X123178571Y-111278571D01*
X123130952Y-111207142D01*
X123107142Y-111111904D01*
X123107142Y-110921428D01*
X123130952Y-110873809D01*
X123154761Y-110850000D01*
X123202380Y-110826190D01*
X123297619Y-110826190D01*
X123345238Y-110850000D01*
X123369047Y-110873809D01*
X123392857Y-110921428D01*
X123392857Y-111040476D01*
X123369047Y-111088095D01*
X123345238Y-111111904D01*
X123297619Y-111135714D01*
X123202380Y-111135714D01*
X123154761Y-111111904D01*
X123130952Y-111088095D01*
X123107142Y-111040476D01*
G04 #@! TO.C,R8*
X123583333Y-104426190D02*
X123750000Y-104188095D01*
X123869047Y-104426190D02*
X123869047Y-103926190D01*
X123678571Y-103926190D01*
X123630952Y-103950000D01*
X123607142Y-103973809D01*
X123583333Y-104021428D01*
X123583333Y-104092857D01*
X123607142Y-104140476D01*
X123630952Y-104164285D01*
X123678571Y-104188095D01*
X123869047Y-104188095D01*
X123297619Y-104140476D02*
X123345238Y-104116666D01*
X123369047Y-104092857D01*
X123392857Y-104045238D01*
X123392857Y-104021428D01*
X123369047Y-103973809D01*
X123345238Y-103950000D01*
X123297619Y-103926190D01*
X123202380Y-103926190D01*
X123154761Y-103950000D01*
X123130952Y-103973809D01*
X123107142Y-104021428D01*
X123107142Y-104045238D01*
X123130952Y-104092857D01*
X123154761Y-104116666D01*
X123202380Y-104140476D01*
X123297619Y-104140476D01*
X123345238Y-104164285D01*
X123369047Y-104188095D01*
X123392857Y-104235714D01*
X123392857Y-104330952D01*
X123369047Y-104378571D01*
X123345238Y-104402380D01*
X123297619Y-104426190D01*
X123202380Y-104426190D01*
X123154761Y-104402380D01*
X123130952Y-104378571D01*
X123107142Y-104330952D01*
X123107142Y-104235714D01*
X123130952Y-104188095D01*
X123154761Y-104164285D01*
X123202380Y-104140476D01*
G04 #@! TO.C,R7*
X129783333Y-128826190D02*
X129950000Y-128588095D01*
X130069047Y-128826190D02*
X130069047Y-128326190D01*
X129878571Y-128326190D01*
X129830952Y-128350000D01*
X129807142Y-128373809D01*
X129783333Y-128421428D01*
X129783333Y-128492857D01*
X129807142Y-128540476D01*
X129830952Y-128564285D01*
X129878571Y-128588095D01*
X130069047Y-128588095D01*
X129616666Y-128326190D02*
X129283333Y-128326190D01*
X129497619Y-128826190D01*
G04 #@! TO.C,R6*
X117883333Y-128626190D02*
X118050000Y-128388095D01*
X118169047Y-128626190D02*
X118169047Y-128126190D01*
X117978571Y-128126190D01*
X117930952Y-128150000D01*
X117907142Y-128173809D01*
X117883333Y-128221428D01*
X117883333Y-128292857D01*
X117907142Y-128340476D01*
X117930952Y-128364285D01*
X117978571Y-128388095D01*
X118169047Y-128388095D01*
X117454761Y-128126190D02*
X117550000Y-128126190D01*
X117597619Y-128150000D01*
X117621428Y-128173809D01*
X117669047Y-128245238D01*
X117692857Y-128340476D01*
X117692857Y-128530952D01*
X117669047Y-128578571D01*
X117645238Y-128602380D01*
X117597619Y-128626190D01*
X117502380Y-128626190D01*
X117454761Y-128602380D01*
X117430952Y-128578571D01*
X117407142Y-128530952D01*
X117407142Y-128411904D01*
X117430952Y-128364285D01*
X117454761Y-128340476D01*
X117502380Y-128316666D01*
X117597619Y-128316666D01*
X117645238Y-128340476D01*
X117669047Y-128364285D01*
X117692857Y-128411904D01*
G04 #@! TO.C,R5*
X127883333Y-125326190D02*
X128050000Y-125088095D01*
X128169047Y-125326190D02*
X128169047Y-124826190D01*
X127978571Y-124826190D01*
X127930952Y-124850000D01*
X127907142Y-124873809D01*
X127883333Y-124921428D01*
X127883333Y-124992857D01*
X127907142Y-125040476D01*
X127930952Y-125064285D01*
X127978571Y-125088095D01*
X128169047Y-125088095D01*
X127430952Y-124826190D02*
X127669047Y-124826190D01*
X127692857Y-125064285D01*
X127669047Y-125040476D01*
X127621428Y-125016666D01*
X127502380Y-125016666D01*
X127454761Y-125040476D01*
X127430952Y-125064285D01*
X127407142Y-125111904D01*
X127407142Y-125230952D01*
X127430952Y-125278571D01*
X127454761Y-125302380D01*
X127502380Y-125326190D01*
X127621428Y-125326190D01*
X127669047Y-125302380D01*
X127692857Y-125278571D01*
G04 #@! TO.C,R4*
X129783333Y-121826190D02*
X129950000Y-121588095D01*
X130069047Y-121826190D02*
X130069047Y-121326190D01*
X129878571Y-121326190D01*
X129830952Y-121350000D01*
X129807142Y-121373809D01*
X129783333Y-121421428D01*
X129783333Y-121492857D01*
X129807142Y-121540476D01*
X129830952Y-121564285D01*
X129878571Y-121588095D01*
X130069047Y-121588095D01*
X129354761Y-121492857D02*
X129354761Y-121826190D01*
X129473809Y-121302380D02*
X129592857Y-121659523D01*
X129283333Y-121659523D01*
G04 #@! TO.C,R3*
X88283333Y-109126190D02*
X88450000Y-108888095D01*
X88569047Y-109126190D02*
X88569047Y-108626190D01*
X88378571Y-108626190D01*
X88330952Y-108650000D01*
X88307142Y-108673809D01*
X88283333Y-108721428D01*
X88283333Y-108792857D01*
X88307142Y-108840476D01*
X88330952Y-108864285D01*
X88378571Y-108888095D01*
X88569047Y-108888095D01*
X88116666Y-108626190D02*
X87807142Y-108626190D01*
X87973809Y-108816666D01*
X87902380Y-108816666D01*
X87854761Y-108840476D01*
X87830952Y-108864285D01*
X87807142Y-108911904D01*
X87807142Y-109030952D01*
X87830952Y-109078571D01*
X87854761Y-109102380D01*
X87902380Y-109126190D01*
X88045238Y-109126190D01*
X88092857Y-109102380D01*
X88116666Y-109078571D01*
G04 #@! TO.C,R2*
X115983333Y-125226190D02*
X116150000Y-124988095D01*
X116269047Y-125226190D02*
X116269047Y-124726190D01*
X116078571Y-124726190D01*
X116030952Y-124750000D01*
X116007142Y-124773809D01*
X115983333Y-124821428D01*
X115983333Y-124892857D01*
X116007142Y-124940476D01*
X116030952Y-124964285D01*
X116078571Y-124988095D01*
X116269047Y-124988095D01*
X115792857Y-124773809D02*
X115769047Y-124750000D01*
X115721428Y-124726190D01*
X115602380Y-124726190D01*
X115554761Y-124750000D01*
X115530952Y-124773809D01*
X115507142Y-124821428D01*
X115507142Y-124869047D01*
X115530952Y-124940476D01*
X115816666Y-125226190D01*
X115507142Y-125226190D01*
G04 #@! TO.C,R1*
X78983333Y-110826190D02*
X79150000Y-110588095D01*
X79269047Y-110826190D02*
X79269047Y-110326190D01*
X79078571Y-110326190D01*
X79030952Y-110350000D01*
X79007142Y-110373809D01*
X78983333Y-110421428D01*
X78983333Y-110492857D01*
X79007142Y-110540476D01*
X79030952Y-110564285D01*
X79078571Y-110588095D01*
X79269047Y-110588095D01*
X78507142Y-110826190D02*
X78792857Y-110826190D01*
X78650000Y-110826190D02*
X78650000Y-110326190D01*
X78697619Y-110397619D01*
X78745238Y-110445238D01*
X78792857Y-110469047D01*
G04 #@! TO.C,Q10*
X98685714Y-40473809D02*
X98733333Y-40450000D01*
X98780952Y-40402380D01*
X98852380Y-40330952D01*
X98900000Y-40307142D01*
X98947619Y-40307142D01*
X98923809Y-40426190D02*
X98971428Y-40402380D01*
X99019047Y-40354761D01*
X99042857Y-40259523D01*
X99042857Y-40092857D01*
X99019047Y-39997619D01*
X98971428Y-39950000D01*
X98923809Y-39926190D01*
X98828571Y-39926190D01*
X98780952Y-39950000D01*
X98733333Y-39997619D01*
X98709523Y-40092857D01*
X98709523Y-40259523D01*
X98733333Y-40354761D01*
X98780952Y-40402380D01*
X98828571Y-40426190D01*
X98923809Y-40426190D01*
X98233333Y-40426190D02*
X98519047Y-40426190D01*
X98376190Y-40426190D02*
X98376190Y-39926190D01*
X98423809Y-39997619D01*
X98471428Y-40045238D01*
X98519047Y-40069047D01*
X97923809Y-39926190D02*
X97876190Y-39926190D01*
X97828571Y-39950000D01*
X97804761Y-39973809D01*
X97780952Y-40021428D01*
X97757142Y-40116666D01*
X97757142Y-40235714D01*
X97780952Y-40330952D01*
X97804761Y-40378571D01*
X97828571Y-40402380D01*
X97876190Y-40426190D01*
X97923809Y-40426190D01*
X97971428Y-40402380D01*
X97995238Y-40378571D01*
X98019047Y-40330952D01*
X98042857Y-40235714D01*
X98042857Y-40116666D01*
X98019047Y-40021428D01*
X97995238Y-39973809D01*
X97971428Y-39950000D01*
X97923809Y-39926190D01*
G04 #@! TO.C,Q9*
X166047619Y-61273809D02*
X166095238Y-61250000D01*
X166142857Y-61202380D01*
X166214285Y-61130952D01*
X166261904Y-61107142D01*
X166309523Y-61107142D01*
X166285714Y-61226190D02*
X166333333Y-61202380D01*
X166380952Y-61154761D01*
X166404761Y-61059523D01*
X166404761Y-60892857D01*
X166380952Y-60797619D01*
X166333333Y-60750000D01*
X166285714Y-60726190D01*
X166190476Y-60726190D01*
X166142857Y-60750000D01*
X166095238Y-60797619D01*
X166071428Y-60892857D01*
X166071428Y-61059523D01*
X166095238Y-61154761D01*
X166142857Y-61202380D01*
X166190476Y-61226190D01*
X166285714Y-61226190D01*
X165833333Y-61226190D02*
X165738095Y-61226190D01*
X165690476Y-61202380D01*
X165666666Y-61178571D01*
X165619047Y-61107142D01*
X165595238Y-61011904D01*
X165595238Y-60821428D01*
X165619047Y-60773809D01*
X165642857Y-60750000D01*
X165690476Y-60726190D01*
X165785714Y-60726190D01*
X165833333Y-60750000D01*
X165857142Y-60773809D01*
X165880952Y-60821428D01*
X165880952Y-60940476D01*
X165857142Y-60988095D01*
X165833333Y-61011904D01*
X165785714Y-61035714D01*
X165690476Y-61035714D01*
X165642857Y-61011904D01*
X165619047Y-60988095D01*
X165595238Y-60940476D01*
G04 #@! TO.C,Q8*
X166047619Y-56273809D02*
X166095238Y-56250000D01*
X166142857Y-56202380D01*
X166214285Y-56130952D01*
X166261904Y-56107142D01*
X166309523Y-56107142D01*
X166285714Y-56226190D02*
X166333333Y-56202380D01*
X166380952Y-56154761D01*
X166404761Y-56059523D01*
X166404761Y-55892857D01*
X166380952Y-55797619D01*
X166333333Y-55750000D01*
X166285714Y-55726190D01*
X166190476Y-55726190D01*
X166142857Y-55750000D01*
X166095238Y-55797619D01*
X166071428Y-55892857D01*
X166071428Y-56059523D01*
X166095238Y-56154761D01*
X166142857Y-56202380D01*
X166190476Y-56226190D01*
X166285714Y-56226190D01*
X165785714Y-55940476D02*
X165833333Y-55916666D01*
X165857142Y-55892857D01*
X165880952Y-55845238D01*
X165880952Y-55821428D01*
X165857142Y-55773809D01*
X165833333Y-55750000D01*
X165785714Y-55726190D01*
X165690476Y-55726190D01*
X165642857Y-55750000D01*
X165619047Y-55773809D01*
X165595238Y-55821428D01*
X165595238Y-55845238D01*
X165619047Y-55892857D01*
X165642857Y-55916666D01*
X165690476Y-55940476D01*
X165785714Y-55940476D01*
X165833333Y-55964285D01*
X165857142Y-55988095D01*
X165880952Y-56035714D01*
X165880952Y-56130952D01*
X165857142Y-56178571D01*
X165833333Y-56202380D01*
X165785714Y-56226190D01*
X165690476Y-56226190D01*
X165642857Y-56202380D01*
X165619047Y-56178571D01*
X165595238Y-56130952D01*
X165595238Y-56035714D01*
X165619047Y-55988095D01*
X165642857Y-55964285D01*
X165690476Y-55940476D01*
G04 #@! TO.C,Q7*
X160547619Y-98173809D02*
X160595238Y-98150000D01*
X160642857Y-98102380D01*
X160714285Y-98030952D01*
X160761904Y-98007142D01*
X160809523Y-98007142D01*
X160785714Y-98126190D02*
X160833333Y-98102380D01*
X160880952Y-98054761D01*
X160904761Y-97959523D01*
X160904761Y-97792857D01*
X160880952Y-97697619D01*
X160833333Y-97650000D01*
X160785714Y-97626190D01*
X160690476Y-97626190D01*
X160642857Y-97650000D01*
X160595238Y-97697619D01*
X160571428Y-97792857D01*
X160571428Y-97959523D01*
X160595238Y-98054761D01*
X160642857Y-98102380D01*
X160690476Y-98126190D01*
X160785714Y-98126190D01*
X160404761Y-97626190D02*
X160071428Y-97626190D01*
X160285714Y-98126190D01*
G04 #@! TO.C,Q6*
X35147619Y-115573809D02*
X35195238Y-115550000D01*
X35242857Y-115502380D01*
X35314285Y-115430952D01*
X35361904Y-115407142D01*
X35409523Y-115407142D01*
X35385714Y-115526190D02*
X35433333Y-115502380D01*
X35480952Y-115454761D01*
X35504761Y-115359523D01*
X35504761Y-115192857D01*
X35480952Y-115097619D01*
X35433333Y-115050000D01*
X35385714Y-115026190D01*
X35290476Y-115026190D01*
X35242857Y-115050000D01*
X35195238Y-115097619D01*
X35171428Y-115192857D01*
X35171428Y-115359523D01*
X35195238Y-115454761D01*
X35242857Y-115502380D01*
X35290476Y-115526190D01*
X35385714Y-115526190D01*
X34742857Y-115026190D02*
X34838095Y-115026190D01*
X34885714Y-115050000D01*
X34909523Y-115073809D01*
X34957142Y-115145238D01*
X34980952Y-115240476D01*
X34980952Y-115430952D01*
X34957142Y-115478571D01*
X34933333Y-115502380D01*
X34885714Y-115526190D01*
X34790476Y-115526190D01*
X34742857Y-115502380D01*
X34719047Y-115478571D01*
X34695238Y-115430952D01*
X34695238Y-115311904D01*
X34719047Y-115264285D01*
X34742857Y-115240476D01*
X34790476Y-115216666D01*
X34885714Y-115216666D01*
X34933333Y-115240476D01*
X34957142Y-115264285D01*
X34980952Y-115311904D01*
G04 #@! TO.C,Q5*
X171447619Y-61273809D02*
X171495238Y-61250000D01*
X171542857Y-61202380D01*
X171614285Y-61130952D01*
X171661904Y-61107142D01*
X171709523Y-61107142D01*
X171685714Y-61226190D02*
X171733333Y-61202380D01*
X171780952Y-61154761D01*
X171804761Y-61059523D01*
X171804761Y-60892857D01*
X171780952Y-60797619D01*
X171733333Y-60750000D01*
X171685714Y-60726190D01*
X171590476Y-60726190D01*
X171542857Y-60750000D01*
X171495238Y-60797619D01*
X171471428Y-60892857D01*
X171471428Y-61059523D01*
X171495238Y-61154761D01*
X171542857Y-61202380D01*
X171590476Y-61226190D01*
X171685714Y-61226190D01*
X171019047Y-60726190D02*
X171257142Y-60726190D01*
X171280952Y-60964285D01*
X171257142Y-60940476D01*
X171209523Y-60916666D01*
X171090476Y-60916666D01*
X171042857Y-60940476D01*
X171019047Y-60964285D01*
X170995238Y-61011904D01*
X170995238Y-61130952D01*
X171019047Y-61178571D01*
X171042857Y-61202380D01*
X171090476Y-61226190D01*
X171209523Y-61226190D01*
X171257142Y-61202380D01*
X171280952Y-61178571D01*
G04 #@! TO.C,Q4*
X171447619Y-56273809D02*
X171495238Y-56250000D01*
X171542857Y-56202380D01*
X171614285Y-56130952D01*
X171661904Y-56107142D01*
X171709523Y-56107142D01*
X171685714Y-56226190D02*
X171733333Y-56202380D01*
X171780952Y-56154761D01*
X171804761Y-56059523D01*
X171804761Y-55892857D01*
X171780952Y-55797619D01*
X171733333Y-55750000D01*
X171685714Y-55726190D01*
X171590476Y-55726190D01*
X171542857Y-55750000D01*
X171495238Y-55797619D01*
X171471428Y-55892857D01*
X171471428Y-56059523D01*
X171495238Y-56154761D01*
X171542857Y-56202380D01*
X171590476Y-56226190D01*
X171685714Y-56226190D01*
X171042857Y-55892857D02*
X171042857Y-56226190D01*
X171161904Y-55702380D02*
X171280952Y-56059523D01*
X170971428Y-56059523D01*
G04 #@! TO.C,Q3*
X47847619Y-59373809D02*
X47895238Y-59350000D01*
X47942857Y-59302380D01*
X48014285Y-59230952D01*
X48061904Y-59207142D01*
X48109523Y-59207142D01*
X48085714Y-59326190D02*
X48133333Y-59302380D01*
X48180952Y-59254761D01*
X48204761Y-59159523D01*
X48204761Y-58992857D01*
X48180952Y-58897619D01*
X48133333Y-58850000D01*
X48085714Y-58826190D01*
X47990476Y-58826190D01*
X47942857Y-58850000D01*
X47895238Y-58897619D01*
X47871428Y-58992857D01*
X47871428Y-59159523D01*
X47895238Y-59254761D01*
X47942857Y-59302380D01*
X47990476Y-59326190D01*
X48085714Y-59326190D01*
X47704761Y-58826190D02*
X47395238Y-58826190D01*
X47561904Y-59016666D01*
X47490476Y-59016666D01*
X47442857Y-59040476D01*
X47419047Y-59064285D01*
X47395238Y-59111904D01*
X47395238Y-59230952D01*
X47419047Y-59278571D01*
X47442857Y-59302380D01*
X47490476Y-59326190D01*
X47633333Y-59326190D01*
X47680952Y-59302380D01*
X47704761Y-59278571D01*
G04 #@! TO.C,Q2*
X139047619Y-50773809D02*
X139095238Y-50750000D01*
X139142857Y-50702380D01*
X139214285Y-50630952D01*
X139261904Y-50607142D01*
X139309523Y-50607142D01*
X139285714Y-50726190D02*
X139333333Y-50702380D01*
X139380952Y-50654761D01*
X139404761Y-50559523D01*
X139404761Y-50392857D01*
X139380952Y-50297619D01*
X139333333Y-50250000D01*
X139285714Y-50226190D01*
X139190476Y-50226190D01*
X139142857Y-50250000D01*
X139095238Y-50297619D01*
X139071428Y-50392857D01*
X139071428Y-50559523D01*
X139095238Y-50654761D01*
X139142857Y-50702380D01*
X139190476Y-50726190D01*
X139285714Y-50726190D01*
X138880952Y-50273809D02*
X138857142Y-50250000D01*
X138809523Y-50226190D01*
X138690476Y-50226190D01*
X138642857Y-50250000D01*
X138619047Y-50273809D01*
X138595238Y-50321428D01*
X138595238Y-50369047D01*
X138619047Y-50440476D01*
X138904761Y-50726190D01*
X138595238Y-50726190D01*
G04 #@! TO.C,Q1*
X91647619Y-111973809D02*
X91695238Y-111950000D01*
X91742857Y-111902380D01*
X91814285Y-111830952D01*
X91861904Y-111807142D01*
X91909523Y-111807142D01*
X91885714Y-111926190D02*
X91933333Y-111902380D01*
X91980952Y-111854761D01*
X92004761Y-111759523D01*
X92004761Y-111592857D01*
X91980952Y-111497619D01*
X91933333Y-111450000D01*
X91885714Y-111426190D01*
X91790476Y-111426190D01*
X91742857Y-111450000D01*
X91695238Y-111497619D01*
X91671428Y-111592857D01*
X91671428Y-111759523D01*
X91695238Y-111854761D01*
X91742857Y-111902380D01*
X91790476Y-111926190D01*
X91885714Y-111926190D01*
X91195238Y-111926190D02*
X91480952Y-111926190D01*
X91338095Y-111926190D02*
X91338095Y-111426190D01*
X91385714Y-111497619D01*
X91433333Y-111545238D01*
X91480952Y-111569047D01*
G04 #@! TO.C,L1*
X119683333Y-110726190D02*
X119921428Y-110726190D01*
X119921428Y-110226190D01*
X119254761Y-110726190D02*
X119540476Y-110726190D01*
X119397619Y-110726190D02*
X119397619Y-110226190D01*
X119445238Y-110297619D01*
X119492857Y-110345238D01*
X119540476Y-110369047D01*
G04 #@! TO.C,JP1*
X157916666Y-65026190D02*
X157916666Y-65383333D01*
X157940476Y-65454761D01*
X157988095Y-65502380D01*
X158059523Y-65526190D01*
X158107142Y-65526190D01*
X157678571Y-65526190D02*
X157678571Y-65026190D01*
X157488095Y-65026190D01*
X157440476Y-65050000D01*
X157416666Y-65073809D01*
X157392857Y-65121428D01*
X157392857Y-65192857D01*
X157416666Y-65240476D01*
X157440476Y-65264285D01*
X157488095Y-65288095D01*
X157678571Y-65288095D01*
X156916666Y-65526190D02*
X157202380Y-65526190D01*
X157059523Y-65526190D02*
X157059523Y-65026190D01*
X157107142Y-65097619D01*
X157154761Y-65145238D01*
X157202380Y-65169047D01*
G04 #@! TO.C,J2*
X135166666Y-74926190D02*
X135166666Y-75283333D01*
X135190476Y-75354761D01*
X135238095Y-75402380D01*
X135309523Y-75426190D01*
X135357142Y-75426190D01*
X134952380Y-74973809D02*
X134928571Y-74950000D01*
X134880952Y-74926190D01*
X134761904Y-74926190D01*
X134714285Y-74950000D01*
X134690476Y-74973809D01*
X134666666Y-75021428D01*
X134666666Y-75069047D01*
X134690476Y-75140476D01*
X134976190Y-75426190D01*
X134666666Y-75426190D01*
G04 #@! TO.C,D59*
X160307142Y-65526190D02*
X160307142Y-65026190D01*
X160188095Y-65026190D01*
X160116666Y-65050000D01*
X160069047Y-65097619D01*
X160045238Y-65145238D01*
X160021428Y-65240476D01*
X160021428Y-65311904D01*
X160045238Y-65407142D01*
X160069047Y-65454761D01*
X160116666Y-65502380D01*
X160188095Y-65526190D01*
X160307142Y-65526190D01*
X159569047Y-65026190D02*
X159807142Y-65026190D01*
X159830952Y-65264285D01*
X159807142Y-65240476D01*
X159759523Y-65216666D01*
X159640476Y-65216666D01*
X159592857Y-65240476D01*
X159569047Y-65264285D01*
X159545238Y-65311904D01*
X159545238Y-65430952D01*
X159569047Y-65478571D01*
X159592857Y-65502380D01*
X159640476Y-65526190D01*
X159759523Y-65526190D01*
X159807142Y-65502380D01*
X159830952Y-65478571D01*
X159307142Y-65526190D02*
X159211904Y-65526190D01*
X159164285Y-65502380D01*
X159140476Y-65478571D01*
X159092857Y-65407142D01*
X159069047Y-65311904D01*
X159069047Y-65121428D01*
X159092857Y-65073809D01*
X159116666Y-65050000D01*
X159164285Y-65026190D01*
X159259523Y-65026190D01*
X159307142Y-65050000D01*
X159330952Y-65073809D01*
X159354761Y-65121428D01*
X159354761Y-65240476D01*
X159330952Y-65288095D01*
X159307142Y-65311904D01*
X159259523Y-65335714D01*
X159164285Y-65335714D01*
X159116666Y-65311904D01*
X159092857Y-65288095D01*
X159069047Y-65240476D01*
G04 #@! TO.C,D58*
X160307142Y-58226190D02*
X160307142Y-57726190D01*
X160188095Y-57726190D01*
X160116666Y-57750000D01*
X160069047Y-57797619D01*
X160045238Y-57845238D01*
X160021428Y-57940476D01*
X160021428Y-58011904D01*
X160045238Y-58107142D01*
X160069047Y-58154761D01*
X160116666Y-58202380D01*
X160188095Y-58226190D01*
X160307142Y-58226190D01*
X159569047Y-57726190D02*
X159807142Y-57726190D01*
X159830952Y-57964285D01*
X159807142Y-57940476D01*
X159759523Y-57916666D01*
X159640476Y-57916666D01*
X159592857Y-57940476D01*
X159569047Y-57964285D01*
X159545238Y-58011904D01*
X159545238Y-58130952D01*
X159569047Y-58178571D01*
X159592857Y-58202380D01*
X159640476Y-58226190D01*
X159759523Y-58226190D01*
X159807142Y-58202380D01*
X159830952Y-58178571D01*
X159259523Y-57940476D02*
X159307142Y-57916666D01*
X159330952Y-57892857D01*
X159354761Y-57845238D01*
X159354761Y-57821428D01*
X159330952Y-57773809D01*
X159307142Y-57750000D01*
X159259523Y-57726190D01*
X159164285Y-57726190D01*
X159116666Y-57750000D01*
X159092857Y-57773809D01*
X159069047Y-57821428D01*
X159069047Y-57845238D01*
X159092857Y-57892857D01*
X159116666Y-57916666D01*
X159164285Y-57940476D01*
X159259523Y-57940476D01*
X159307142Y-57964285D01*
X159330952Y-57988095D01*
X159354761Y-58035714D01*
X159354761Y-58130952D01*
X159330952Y-58178571D01*
X159307142Y-58202380D01*
X159259523Y-58226190D01*
X159164285Y-58226190D01*
X159116666Y-58202380D01*
X159092857Y-58178571D01*
X159069047Y-58130952D01*
X159069047Y-58035714D01*
X159092857Y-57988095D01*
X159116666Y-57964285D01*
X159164285Y-57940476D01*
G04 #@! TO.C,D57*
X163007142Y-60726190D02*
X163007142Y-60226190D01*
X162888095Y-60226190D01*
X162816666Y-60250000D01*
X162769047Y-60297619D01*
X162745238Y-60345238D01*
X162721428Y-60440476D01*
X162721428Y-60511904D01*
X162745238Y-60607142D01*
X162769047Y-60654761D01*
X162816666Y-60702380D01*
X162888095Y-60726190D01*
X163007142Y-60726190D01*
X162269047Y-60226190D02*
X162507142Y-60226190D01*
X162530952Y-60464285D01*
X162507142Y-60440476D01*
X162459523Y-60416666D01*
X162340476Y-60416666D01*
X162292857Y-60440476D01*
X162269047Y-60464285D01*
X162245238Y-60511904D01*
X162245238Y-60630952D01*
X162269047Y-60678571D01*
X162292857Y-60702380D01*
X162340476Y-60726190D01*
X162459523Y-60726190D01*
X162507142Y-60702380D01*
X162530952Y-60678571D01*
X162078571Y-60226190D02*
X161745238Y-60226190D01*
X161959523Y-60726190D01*
G04 #@! TO.C,D56*
X160107142Y-47426190D02*
X160107142Y-46926190D01*
X159988095Y-46926190D01*
X159916666Y-46950000D01*
X159869047Y-46997619D01*
X159845238Y-47045238D01*
X159821428Y-47140476D01*
X159821428Y-47211904D01*
X159845238Y-47307142D01*
X159869047Y-47354761D01*
X159916666Y-47402380D01*
X159988095Y-47426190D01*
X160107142Y-47426190D01*
X159369047Y-46926190D02*
X159607142Y-46926190D01*
X159630952Y-47164285D01*
X159607142Y-47140476D01*
X159559523Y-47116666D01*
X159440476Y-47116666D01*
X159392857Y-47140476D01*
X159369047Y-47164285D01*
X159345238Y-47211904D01*
X159345238Y-47330952D01*
X159369047Y-47378571D01*
X159392857Y-47402380D01*
X159440476Y-47426190D01*
X159559523Y-47426190D01*
X159607142Y-47402380D01*
X159630952Y-47378571D01*
X158916666Y-46926190D02*
X159011904Y-46926190D01*
X159059523Y-46950000D01*
X159083333Y-46973809D01*
X159130952Y-47045238D01*
X159154761Y-47140476D01*
X159154761Y-47330952D01*
X159130952Y-47378571D01*
X159107142Y-47402380D01*
X159059523Y-47426190D01*
X158964285Y-47426190D01*
X158916666Y-47402380D01*
X158892857Y-47378571D01*
X158869047Y-47330952D01*
X158869047Y-47211904D01*
X158892857Y-47164285D01*
X158916666Y-47140476D01*
X158964285Y-47116666D01*
X159059523Y-47116666D01*
X159107142Y-47140476D01*
X159130952Y-47164285D01*
X159154761Y-47211904D01*
G04 #@! TO.C,D55*
X97274933Y-31540488D02*
X96787748Y-31428013D01*
X96760968Y-31544009D01*
X96768100Y-31618963D01*
X96803786Y-31676074D01*
X96844829Y-31709985D01*
X96932270Y-31754608D01*
X97001868Y-31770676D01*
X97100021Y-31768901D01*
X97151776Y-31756413D01*
X97208886Y-31720727D01*
X97248153Y-31656485D01*
X97274933Y-31540488D01*
X96621713Y-32147191D02*
X96675273Y-31915198D01*
X96912621Y-31945558D01*
X96884066Y-31963402D01*
X96850155Y-32004444D01*
X96823375Y-32120441D01*
X96835862Y-32172195D01*
X96853706Y-32200751D01*
X96894748Y-32234662D01*
X97010745Y-32261442D01*
X97062499Y-32248954D01*
X97091055Y-32231111D01*
X97124966Y-32190069D01*
X97151746Y-32074072D01*
X97139258Y-32022318D01*
X97121415Y-31993762D01*
X96514593Y-32611177D02*
X96568153Y-32379184D01*
X96805502Y-32409544D01*
X96776947Y-32427388D01*
X96743035Y-32468430D01*
X96716256Y-32584427D01*
X96728743Y-32636181D01*
X96746586Y-32664736D01*
X96787629Y-32698648D01*
X96903625Y-32725427D01*
X96955380Y-32712940D01*
X96983935Y-32695097D01*
X97017846Y-32654054D01*
X97044626Y-32538058D01*
X97032139Y-32486303D01*
X97014295Y-32457748D01*
G04 #@! TO.C,D54*
X97883030Y-36895611D02*
X97400067Y-36766201D01*
X97369255Y-36881193D01*
X97373766Y-36956350D01*
X97407438Y-37014671D01*
X97447272Y-37049994D01*
X97533103Y-37097641D01*
X97602097Y-37116129D01*
X97700253Y-37117780D01*
X97752412Y-37107106D01*
X97810733Y-37073434D01*
X97852218Y-37010602D01*
X97883030Y-36895611D01*
X97209034Y-37479147D02*
X97270657Y-37249164D01*
X97506802Y-37287790D01*
X97477642Y-37304626D01*
X97442319Y-37344460D01*
X97411507Y-37459451D01*
X97422180Y-37511610D01*
X97439016Y-37540770D01*
X97478850Y-37576093D01*
X97593841Y-37606905D01*
X97646000Y-37596231D01*
X97675161Y-37579396D01*
X97710484Y-37539561D01*
X97741296Y-37424570D01*
X97730622Y-37372411D01*
X97713786Y-37343251D01*
X97252937Y-37959250D02*
X97574912Y-38045523D01*
X97099763Y-37794960D02*
X97475548Y-37772404D01*
X97395437Y-38071381D01*
G04 #@! TO.C,D53*
X98114946Y-46197310D02*
X97616164Y-46162432D01*
X97607860Y-46281189D01*
X97626629Y-46354105D01*
X97670810Y-46404929D01*
X97716652Y-46432003D01*
X97809997Y-46462398D01*
X97881252Y-46467380D01*
X97977919Y-46450272D01*
X98027083Y-46429843D01*
X98077908Y-46385661D01*
X98106642Y-46316067D01*
X98114946Y-46197310D01*
X97564677Y-46898729D02*
X97581286Y-46661214D01*
X97820462Y-46654071D01*
X97795050Y-46676161D01*
X97767976Y-46722004D01*
X97759672Y-46840761D01*
X97780102Y-46889925D01*
X97802192Y-46915338D01*
X97848035Y-46942411D01*
X97966792Y-46950715D01*
X98015956Y-46930285D01*
X98041369Y-46908195D01*
X98068442Y-46862353D01*
X98076746Y-46743595D01*
X98056316Y-46694431D01*
X98034226Y-46669019D01*
X97551390Y-47088741D02*
X97529799Y-47397511D01*
X97731437Y-47244537D01*
X97726455Y-47315792D01*
X97746884Y-47364956D01*
X97768975Y-47390368D01*
X97814817Y-47417441D01*
X97933575Y-47425746D01*
X97982739Y-47405316D01*
X98008151Y-47383225D01*
X98035224Y-47337383D01*
X98045190Y-47194874D01*
X98024760Y-47145710D01*
X98002669Y-47120298D01*
G04 #@! TO.C,D52*
X91108804Y-52382519D02*
X91605077Y-52321585D01*
X91590569Y-52203425D01*
X91558232Y-52135430D01*
X91505165Y-52093969D01*
X91454999Y-52076141D01*
X91357569Y-52064115D01*
X91286673Y-52072820D01*
X91195046Y-52108059D01*
X91150684Y-52137494D01*
X91109223Y-52190561D01*
X91094296Y-52264359D01*
X91108804Y-52382519D01*
X91515126Y-51588991D02*
X91544143Y-51825312D01*
X91310724Y-51877960D01*
X91331454Y-51851427D01*
X91349283Y-51801261D01*
X91334775Y-51683101D01*
X91305339Y-51638738D01*
X91278805Y-51618008D01*
X91228640Y-51600179D01*
X91110479Y-51614687D01*
X91066117Y-51644123D01*
X91045387Y-51670656D01*
X91027558Y-51720822D01*
X91042066Y-51838982D01*
X91071501Y-51883345D01*
X91098035Y-51904075D01*
X91441747Y-51382106D02*
X91462477Y-51355572D01*
X91480306Y-51305407D01*
X91465798Y-51187246D01*
X91436363Y-51142884D01*
X91409829Y-51122154D01*
X91359663Y-51104325D01*
X91312399Y-51110128D01*
X91244405Y-51142465D01*
X90995640Y-51460869D01*
X90957918Y-51153653D01*
G04 #@! TO.C,D51*
X89425152Y-42763896D02*
X89858165Y-42513896D01*
X89798641Y-42410798D01*
X89742307Y-42360843D01*
X89677258Y-42343414D01*
X89624114Y-42346604D01*
X89529731Y-42373603D01*
X89467872Y-42409317D01*
X89397298Y-42477556D01*
X89367964Y-42521985D01*
X89350534Y-42587034D01*
X89365628Y-42660798D01*
X89425152Y-42763896D01*
X89489117Y-41874687D02*
X89608165Y-42080883D01*
X89413873Y-42220550D01*
X89422588Y-42188026D01*
X89419398Y-42134882D01*
X89359874Y-42031784D01*
X89315445Y-42002449D01*
X89282921Y-41993734D01*
X89229777Y-41996924D01*
X89126678Y-42056448D01*
X89097344Y-42100877D01*
X89088629Y-42133402D01*
X89091819Y-42186546D01*
X89151343Y-42289644D01*
X89195772Y-42318978D01*
X89228296Y-42327693D01*
X88806105Y-41691674D02*
X88948962Y-41939110D01*
X88877533Y-41815392D02*
X89310546Y-41565392D01*
X89272496Y-41642345D01*
X89255067Y-41707394D01*
X89258257Y-41760538D01*
G04 #@! TO.C,D50*
X87339437Y-32995836D02*
X87806227Y-32816652D01*
X87763564Y-32705511D01*
X87715739Y-32647359D01*
X87654217Y-32619968D01*
X87601228Y-32614805D01*
X87503783Y-32626707D01*
X87437099Y-32652305D01*
X87356719Y-32708664D01*
X87320796Y-32747957D01*
X87293405Y-32809478D01*
X87296774Y-32884695D01*
X87339437Y-32995836D01*
X87541718Y-32127580D02*
X87627043Y-32349861D01*
X87413295Y-32457415D01*
X87426990Y-32426655D01*
X87432153Y-32373666D01*
X87389490Y-32262525D01*
X87350197Y-32226602D01*
X87319437Y-32212906D01*
X87266448Y-32207743D01*
X87155307Y-32250406D01*
X87119384Y-32289699D01*
X87105688Y-32320460D01*
X87100525Y-32373449D01*
X87143188Y-32484589D01*
X87182481Y-32520513D01*
X87213242Y-32534208D01*
X87422262Y-31816387D02*
X87405196Y-31771931D01*
X87365903Y-31736007D01*
X87335143Y-31722312D01*
X87282154Y-31717149D01*
X87184709Y-31729051D01*
X87073568Y-31771714D01*
X86993188Y-31828072D01*
X86957265Y-31867365D01*
X86943569Y-31898126D01*
X86938406Y-31951115D01*
X86955471Y-31995571D01*
X86994765Y-32031495D01*
X87025525Y-32045190D01*
X87078514Y-32050353D01*
X87175959Y-32038451D01*
X87287100Y-31995788D01*
X87367479Y-31939430D01*
X87403403Y-31900136D01*
X87417099Y-31869376D01*
X87422262Y-31816387D01*
G04 #@! TO.C,D49*
X165407142Y-46226190D02*
X165407142Y-45726190D01*
X165288095Y-45726190D01*
X165216666Y-45750000D01*
X165169047Y-45797619D01*
X165145238Y-45845238D01*
X165121428Y-45940476D01*
X165121428Y-46011904D01*
X165145238Y-46107142D01*
X165169047Y-46154761D01*
X165216666Y-46202380D01*
X165288095Y-46226190D01*
X165407142Y-46226190D01*
X164692857Y-45892857D02*
X164692857Y-46226190D01*
X164811904Y-45702380D02*
X164930952Y-46059523D01*
X164621428Y-46059523D01*
X164407142Y-46226190D02*
X164311904Y-46226190D01*
X164264285Y-46202380D01*
X164240476Y-46178571D01*
X164192857Y-46107142D01*
X164169047Y-46011904D01*
X164169047Y-45821428D01*
X164192857Y-45773809D01*
X164216666Y-45750000D01*
X164264285Y-45726190D01*
X164359523Y-45726190D01*
X164407142Y-45750000D01*
X164430952Y-45773809D01*
X164454761Y-45821428D01*
X164454761Y-45940476D01*
X164430952Y-45988095D01*
X164407142Y-46011904D01*
X164359523Y-46035714D01*
X164264285Y-46035714D01*
X164216666Y-46011904D01*
X164192857Y-45988095D01*
X164169047Y-45940476D01*
G04 #@! TO.C,D48*
X187642842Y-109129302D02*
X187957502Y-108740729D01*
X187864985Y-108665810D01*
X187794490Y-108639362D01*
X187727516Y-108646401D01*
X187679045Y-108668424D01*
X187600606Y-108727454D01*
X187555655Y-108782965D01*
X187514223Y-108871963D01*
X187502759Y-108923953D01*
X187509798Y-108990928D01*
X187550324Y-109054383D01*
X187642842Y-109129302D01*
X187297511Y-108420739D02*
X187087738Y-108679787D01*
X187509899Y-108347630D02*
X187377659Y-108700101D01*
X187137114Y-108505312D01*
X187008495Y-108247972D02*
X187060486Y-108259436D01*
X187093973Y-108255917D01*
X187142444Y-108233894D01*
X187157428Y-108215390D01*
X187168892Y-108163399D01*
X187165372Y-108129912D01*
X187143349Y-108081441D01*
X187069335Y-108021506D01*
X187017344Y-108010041D01*
X186983857Y-108013561D01*
X186935386Y-108035584D01*
X186920402Y-108054088D01*
X186908938Y-108106078D01*
X186912458Y-108139566D01*
X186934481Y-108188037D01*
X187008495Y-108247972D01*
X187030518Y-108296443D01*
X187034038Y-108329931D01*
X187022573Y-108381921D01*
X186962638Y-108455935D01*
X186914167Y-108477958D01*
X186880680Y-108481478D01*
X186828689Y-108470014D01*
X186754675Y-108410079D01*
X186732652Y-108361607D01*
X186729132Y-108328120D01*
X186740596Y-108276129D01*
X186800532Y-108202116D01*
X186849003Y-108180092D01*
X186882490Y-108176573D01*
X186934481Y-108188037D01*
G04 #@! TO.C,D47*
X182768521Y-107568750D02*
X182639111Y-107085787D01*
X182524120Y-107116598D01*
X182461288Y-107158084D01*
X182427616Y-107216405D01*
X182416943Y-107268564D01*
X182418594Y-107366719D01*
X182437081Y-107435714D01*
X182484729Y-107521544D01*
X182520051Y-107561378D01*
X182578373Y-107595050D01*
X182653530Y-107599561D01*
X182768521Y-107568750D01*
X181992301Y-107431645D02*
X182078574Y-107753620D01*
X182057993Y-107216847D02*
X182265420Y-107531009D01*
X181966443Y-107611120D01*
X181742180Y-107326119D02*
X181420205Y-107412392D01*
X181756599Y-107839893D01*
G04 #@! TO.C,D46*
X172907142Y-110076190D02*
X172907142Y-109576190D01*
X172788095Y-109576190D01*
X172716666Y-109600000D01*
X172669047Y-109647619D01*
X172645238Y-109695238D01*
X172621428Y-109790476D01*
X172621428Y-109861904D01*
X172645238Y-109957142D01*
X172669047Y-110004761D01*
X172716666Y-110052380D01*
X172788095Y-110076190D01*
X172907142Y-110076190D01*
X172192857Y-109742857D02*
X172192857Y-110076190D01*
X172311904Y-109552380D02*
X172430952Y-109909523D01*
X172121428Y-109909523D01*
X171716666Y-109576190D02*
X171811904Y-109576190D01*
X171859523Y-109600000D01*
X171883333Y-109623809D01*
X171930952Y-109695238D01*
X171954761Y-109790476D01*
X171954761Y-109980952D01*
X171930952Y-110028571D01*
X171907142Y-110052380D01*
X171859523Y-110076190D01*
X171764285Y-110076190D01*
X171716666Y-110052380D01*
X171692857Y-110028571D01*
X171669047Y-109980952D01*
X171669047Y-109861904D01*
X171692857Y-109814285D01*
X171716666Y-109790476D01*
X171764285Y-109766666D01*
X171859523Y-109766666D01*
X171907142Y-109790476D01*
X171930952Y-109814285D01*
X171954761Y-109861904D01*
G04 #@! TO.C,D45*
X165535671Y-112221610D02*
X165340306Y-111761358D01*
X165230722Y-111807874D01*
X165174274Y-111857700D01*
X165149047Y-111920139D01*
X165145737Y-111973276D01*
X165161032Y-112070246D01*
X165188942Y-112135997D01*
X165248071Y-112214361D01*
X165288594Y-112248891D01*
X165351034Y-112274119D01*
X165426087Y-112268126D01*
X165535671Y-112221610D01*
X164747924Y-112193869D02*
X164878168Y-112500704D01*
X164783083Y-111972019D02*
X165032214Y-112254255D01*
X164747295Y-112375196D01*
X164222550Y-112235817D02*
X164441717Y-112142786D01*
X164556665Y-112352651D01*
X164525446Y-112340037D01*
X164472309Y-112336726D01*
X164362725Y-112383242D01*
X164328195Y-112423765D01*
X164315581Y-112454985D01*
X164312270Y-112508122D01*
X164358786Y-112617706D01*
X164399309Y-112652236D01*
X164430529Y-112664850D01*
X164483666Y-112668160D01*
X164593249Y-112621645D01*
X164627780Y-112581122D01*
X164640394Y-112549902D01*
G04 #@! TO.C,D44*
X154149512Y-115831567D02*
X154201776Y-115334306D01*
X154083381Y-115321862D01*
X154009855Y-115338075D01*
X153957519Y-115380455D01*
X153928862Y-115425325D01*
X153895228Y-115517552D01*
X153887762Y-115588589D01*
X153901486Y-115685795D01*
X153920187Y-115735642D01*
X153962568Y-115787977D01*
X154031117Y-115819123D01*
X154149512Y-115831567D01*
X153473982Y-115425396D02*
X153439139Y-115756903D01*
X153612288Y-115248407D02*
X153693352Y-115616037D01*
X153385523Y-115583683D01*
X153000400Y-115375621D02*
X152965557Y-115707128D01*
X153138706Y-115198632D02*
X153219770Y-115566262D01*
X152911942Y-115533908D01*
G04 #@! TO.C,D43*
X145207142Y-116176190D02*
X145207142Y-115676190D01*
X145088095Y-115676190D01*
X145016666Y-115700000D01*
X144969047Y-115747619D01*
X144945238Y-115795238D01*
X144921428Y-115890476D01*
X144921428Y-115961904D01*
X144945238Y-116057142D01*
X144969047Y-116104761D01*
X145016666Y-116152380D01*
X145088095Y-116176190D01*
X145207142Y-116176190D01*
X144492857Y-115842857D02*
X144492857Y-116176190D01*
X144611904Y-115652380D02*
X144730952Y-116009523D01*
X144421428Y-116009523D01*
X144278571Y-115676190D02*
X143969047Y-115676190D01*
X144135714Y-115866666D01*
X144064285Y-115866666D01*
X144016666Y-115890476D01*
X143992857Y-115914285D01*
X143969047Y-115961904D01*
X143969047Y-116080952D01*
X143992857Y-116128571D01*
X144016666Y-116152380D01*
X144064285Y-116176190D01*
X144207142Y-116176190D01*
X144254761Y-116152380D01*
X144278571Y-116128571D01*
G04 #@! TO.C,D42*
X132868740Y-118752993D02*
X132946958Y-118259149D01*
X132829376Y-118240526D01*
X132755102Y-118252868D01*
X132700620Y-118292452D01*
X132669654Y-118335760D01*
X132631239Y-118426101D01*
X132620065Y-118496650D01*
X132628683Y-118594440D01*
X132644750Y-118645198D01*
X132684334Y-118699680D01*
X132751158Y-118734370D01*
X132868740Y-118752993D01*
X132215394Y-118312025D02*
X132163249Y-118641254D01*
X132362773Y-118142517D02*
X132424485Y-118513886D01*
X132118772Y-118465466D01*
X131998853Y-118157197D02*
X131979061Y-118129956D01*
X131935753Y-118098990D01*
X131818171Y-118080367D01*
X131767414Y-118096434D01*
X131740173Y-118116226D01*
X131709207Y-118159534D01*
X131701758Y-118206567D01*
X131714100Y-118280840D01*
X131951601Y-118607733D01*
X131645888Y-118559312D01*
G04 #@! TO.C,D41*
X127920364Y-113530278D02*
X127749354Y-113060432D01*
X127637486Y-113101148D01*
X127578508Y-113147952D01*
X127550047Y-113208986D01*
X127543961Y-113261876D01*
X127554160Y-113359514D01*
X127578590Y-113426635D01*
X127633537Y-113507986D01*
X127672198Y-113544590D01*
X127733231Y-113573051D01*
X127808496Y-113570995D01*
X127920364Y-113530278D01*
X127135148Y-113461347D02*
X127249155Y-113774578D01*
X127181870Y-113241641D02*
X127415888Y-113536529D01*
X127125031Y-113642393D01*
X126756935Y-113953731D02*
X127025419Y-113856011D01*
X126891177Y-113904871D02*
X126720167Y-113435025D01*
X126789344Y-113485859D01*
X126850378Y-113514320D01*
X126903268Y-113520407D01*
G04 #@! TO.C,D40*
X137996887Y-110613651D02*
X137777702Y-110164254D01*
X137670702Y-110216441D01*
X137616940Y-110269153D01*
X137595015Y-110332828D01*
X137594490Y-110386065D01*
X137614840Y-110482102D01*
X137646152Y-110546301D01*
X137709302Y-110621463D01*
X137751576Y-110653826D01*
X137815251Y-110675751D01*
X137889888Y-110665838D01*
X137996887Y-110613651D01*
X137208768Y-110627175D02*
X137354892Y-110926773D01*
X137232268Y-110403790D02*
X137495828Y-110672600D01*
X137217630Y-110808287D01*
X136814708Y-110633938D02*
X136771908Y-110654812D01*
X136739546Y-110697087D01*
X136728584Y-110728924D01*
X136728059Y-110782161D01*
X136748408Y-110878198D01*
X136800595Y-110985198D01*
X136863745Y-111060360D01*
X136906020Y-111092722D01*
X136937857Y-111103684D01*
X136991094Y-111104209D01*
X137033894Y-111083335D01*
X137066256Y-111041060D01*
X137077218Y-111009223D01*
X137077743Y-110955986D01*
X137057394Y-110859949D01*
X137005207Y-110752949D01*
X136942057Y-110677787D01*
X136899782Y-110645425D01*
X136867945Y-110634463D01*
X136814708Y-110633938D01*
G04 #@! TO.C,D39*
X150577845Y-107109829D02*
X150516911Y-106613556D01*
X150398751Y-106628064D01*
X150330756Y-106660401D01*
X150289295Y-106713468D01*
X150271467Y-106763634D01*
X150259441Y-106861064D01*
X150268146Y-106931960D01*
X150303385Y-107023587D01*
X150332820Y-107067949D01*
X150385887Y-107109410D01*
X150459685Y-107124337D01*
X150577845Y-107109829D01*
X150067902Y-106668687D02*
X149760685Y-106706409D01*
X149949323Y-106875153D01*
X149878427Y-106883858D01*
X149834064Y-106913294D01*
X149813334Y-106939828D01*
X149795505Y-106989993D01*
X149810013Y-107108154D01*
X149839449Y-107152516D01*
X149865982Y-107173246D01*
X149916148Y-107191075D01*
X150057940Y-107173665D01*
X150102303Y-107144230D01*
X150123033Y-107117696D01*
X149585299Y-107231698D02*
X149490771Y-107243305D01*
X149440605Y-107225476D01*
X149414072Y-107204746D01*
X149358103Y-107139653D01*
X149322864Y-107048026D01*
X149299651Y-106858970D01*
X149317480Y-106808804D01*
X149338210Y-106782270D01*
X149382572Y-106752835D01*
X149477101Y-106741228D01*
X149527266Y-106759057D01*
X149553800Y-106779788D01*
X149583235Y-106824150D01*
X149597744Y-106942310D01*
X149579915Y-106992476D01*
X149559184Y-107019010D01*
X149514822Y-107048445D01*
X149420294Y-107060052D01*
X149370128Y-107042223D01*
X149343594Y-107021493D01*
X149314159Y-106977130D01*
G04 #@! TO.C,D38*
X158943720Y-104170652D02*
X159013307Y-103675518D01*
X158895418Y-103658949D01*
X158821370Y-103672586D01*
X158767588Y-103713115D01*
X158737382Y-103756957D01*
X158700550Y-103847954D01*
X158690609Y-103918688D01*
X158700932Y-104016313D01*
X158717883Y-104066782D01*
X158758411Y-104120565D01*
X158825831Y-104154083D01*
X158943720Y-104170652D01*
X158565328Y-103612558D02*
X158258817Y-103569481D01*
X158397352Y-103781299D01*
X158326619Y-103771358D01*
X158276149Y-103788309D01*
X158249258Y-103808573D01*
X158219053Y-103852415D01*
X158202485Y-103970304D01*
X158219435Y-104020773D01*
X158239699Y-104047664D01*
X158283541Y-104077870D01*
X158425008Y-104097751D01*
X158475477Y-104080801D01*
X158502369Y-104060537D01*
X157946060Y-103741918D02*
X157996529Y-103724967D01*
X158023421Y-103704703D01*
X158053626Y-103660861D01*
X158056940Y-103637283D01*
X158039989Y-103586814D01*
X158019725Y-103559922D01*
X157975883Y-103529717D01*
X157881572Y-103516463D01*
X157831102Y-103533413D01*
X157804211Y-103553677D01*
X157774006Y-103597519D01*
X157770692Y-103621097D01*
X157787643Y-103671566D01*
X157807907Y-103698458D01*
X157851749Y-103728663D01*
X157946060Y-103741918D01*
X157989902Y-103772123D01*
X158010166Y-103799014D01*
X158027117Y-103849483D01*
X158013862Y-103943795D01*
X157983657Y-103987637D01*
X157956766Y-104007901D01*
X157906296Y-104024851D01*
X157811985Y-104011597D01*
X157768143Y-103981392D01*
X157747879Y-103954500D01*
X157730928Y-103904031D01*
X157744183Y-103809720D01*
X157774388Y-103765878D01*
X157801280Y-103745613D01*
X157851749Y-103728663D01*
G04 #@! TO.C,D37*
X166793121Y-100509722D02*
X166535602Y-100081138D01*
X166433558Y-100142452D01*
X166384595Y-100199649D01*
X166368303Y-100264993D01*
X166372420Y-100318073D01*
X166401063Y-100411971D01*
X166437851Y-100473197D01*
X166507311Y-100542569D01*
X166552245Y-100571124D01*
X166617588Y-100587416D01*
X166691077Y-100571036D01*
X166793121Y-100509722D01*
X166147836Y-100314132D02*
X165882522Y-100473548D01*
X166123486Y-100550978D01*
X166062260Y-100587767D01*
X166033705Y-100632701D01*
X166025559Y-100665373D01*
X166029676Y-100718453D01*
X166090990Y-100820497D01*
X166135924Y-100849052D01*
X166168596Y-100857197D01*
X166221676Y-100853081D01*
X166344129Y-100779504D01*
X166372683Y-100734569D01*
X166380829Y-100701898D01*
X165739661Y-100559388D02*
X165453939Y-100731067D01*
X165895136Y-101049286D01*
G04 #@! TO.C,D36*
X177291339Y-97110849D02*
X177386744Y-96620035D01*
X177269883Y-96597320D01*
X177195224Y-96607062D01*
X177139394Y-96644720D01*
X177106936Y-96686922D01*
X177065391Y-96775867D01*
X177051762Y-96845983D01*
X177056962Y-96944014D01*
X177071248Y-96995302D01*
X177108906Y-97051132D01*
X177174479Y-97088133D01*
X177291339Y-97110849D01*
X176942674Y-96533717D02*
X176638837Y-96474657D01*
X176766097Y-96693435D01*
X176695981Y-96679806D01*
X176644694Y-96694091D01*
X176616779Y-96712920D01*
X176584320Y-96755122D01*
X176561605Y-96871982D01*
X176575891Y-96923269D01*
X176594720Y-96951184D01*
X176636921Y-96983643D01*
X176777154Y-97010901D01*
X176828441Y-96996615D01*
X176856356Y-96977786D01*
X176218140Y-96392881D02*
X176311628Y-96411054D01*
X176353829Y-96443512D01*
X176372658Y-96471427D01*
X176405773Y-96550629D01*
X176410973Y-96648661D01*
X176374629Y-96835637D01*
X176342170Y-96877838D01*
X176314255Y-96896667D01*
X176262968Y-96910953D01*
X176169480Y-96892781D01*
X176127279Y-96860323D01*
X176108450Y-96832408D01*
X176094164Y-96781121D01*
X176116879Y-96664260D01*
X176149337Y-96622059D01*
X176177252Y-96603230D01*
X176228540Y-96588944D01*
X176322028Y-96607116D01*
X176364229Y-96639575D01*
X176383058Y-96667490D01*
X176397344Y-96718777D01*
G04 #@! TO.C,D35*
X181209587Y-95615424D02*
X180800011Y-95328635D01*
X180731728Y-95426154D01*
X180710262Y-95498321D01*
X180721956Y-95564641D01*
X180747306Y-95611458D01*
X180811664Y-95685588D01*
X180870175Y-95726558D01*
X180961846Y-95761681D01*
X181014510Y-95769490D01*
X181080830Y-95757796D01*
X181141304Y-95712942D01*
X181209587Y-95615424D01*
X180540536Y-95699204D02*
X180363000Y-95952751D01*
X180614625Y-95925479D01*
X180573655Y-95983990D01*
X180565846Y-96036653D01*
X180571693Y-96069814D01*
X180597044Y-96116630D01*
X180694562Y-96184913D01*
X180747225Y-96192723D01*
X180780386Y-96186876D01*
X180827202Y-96161525D01*
X180909142Y-96044503D01*
X180916951Y-95991840D01*
X180911104Y-95958679D01*
X180103525Y-96323320D02*
X180240091Y-96128284D01*
X180448784Y-96245346D01*
X180415623Y-96251193D01*
X180368807Y-96276544D01*
X180300524Y-96374062D01*
X180292714Y-96426726D01*
X180298561Y-96459886D01*
X180323912Y-96506703D01*
X180421430Y-96574986D01*
X180474094Y-96582795D01*
X180507254Y-96576948D01*
X180554071Y-96551597D01*
X180622354Y-96454079D01*
X180630163Y-96401416D01*
X180624316Y-96368255D01*
G04 #@! TO.C,D34*
X188276168Y-94012142D02*
X188049173Y-93566638D01*
X187943101Y-93620685D01*
X187890267Y-93674327D01*
X187869456Y-93738375D01*
X187869860Y-93791613D01*
X187891883Y-93887280D01*
X187924311Y-93950923D01*
X187988763Y-94024972D01*
X188031596Y-94056591D01*
X188095643Y-94077402D01*
X188170096Y-94066188D01*
X188276168Y-94012142D01*
X187646098Y-93772015D02*
X187370311Y-93912536D01*
X187605286Y-94006586D01*
X187541643Y-94039014D01*
X187510023Y-94081847D01*
X187499618Y-94113871D01*
X187500022Y-94167109D01*
X187554069Y-94273181D01*
X187596902Y-94304801D01*
X187628926Y-94315206D01*
X187682164Y-94314802D01*
X187809450Y-94249946D01*
X187841070Y-94207113D01*
X187851475Y-94175089D01*
X187064116Y-94255604D02*
X187215446Y-94552606D01*
X187083714Y-94031842D02*
X187351925Y-94296012D01*
X187076138Y-94436533D01*
G04 #@! TO.C,D33*
X170607142Y-46226190D02*
X170607142Y-45726190D01*
X170488095Y-45726190D01*
X170416666Y-45750000D01*
X170369047Y-45797619D01*
X170345238Y-45845238D01*
X170321428Y-45940476D01*
X170321428Y-46011904D01*
X170345238Y-46107142D01*
X170369047Y-46154761D01*
X170416666Y-46202380D01*
X170488095Y-46226190D01*
X170607142Y-46226190D01*
X170154761Y-45726190D02*
X169845238Y-45726190D01*
X170011904Y-45916666D01*
X169940476Y-45916666D01*
X169892857Y-45940476D01*
X169869047Y-45964285D01*
X169845238Y-46011904D01*
X169845238Y-46130952D01*
X169869047Y-46178571D01*
X169892857Y-46202380D01*
X169940476Y-46226190D01*
X170083333Y-46226190D01*
X170130952Y-46202380D01*
X170154761Y-46178571D01*
X169678571Y-45726190D02*
X169369047Y-45726190D01*
X169535714Y-45916666D01*
X169464285Y-45916666D01*
X169416666Y-45940476D01*
X169392857Y-45964285D01*
X169369047Y-46011904D01*
X169369047Y-46130952D01*
X169392857Y-46178571D01*
X169416666Y-46202380D01*
X169464285Y-46226190D01*
X169607142Y-46226190D01*
X169654761Y-46202380D01*
X169678571Y-46178571D01*
G04 #@! TO.C,D32*
X175807142Y-46226190D02*
X175807142Y-45726190D01*
X175688095Y-45726190D01*
X175616666Y-45750000D01*
X175569047Y-45797619D01*
X175545238Y-45845238D01*
X175521428Y-45940476D01*
X175521428Y-46011904D01*
X175545238Y-46107142D01*
X175569047Y-46154761D01*
X175616666Y-46202380D01*
X175688095Y-46226190D01*
X175807142Y-46226190D01*
X175354761Y-45726190D02*
X175045238Y-45726190D01*
X175211904Y-45916666D01*
X175140476Y-45916666D01*
X175092857Y-45940476D01*
X175069047Y-45964285D01*
X175045238Y-46011904D01*
X175045238Y-46130952D01*
X175069047Y-46178571D01*
X175092857Y-46202380D01*
X175140476Y-46226190D01*
X175283333Y-46226190D01*
X175330952Y-46202380D01*
X175354761Y-46178571D01*
X174854761Y-45773809D02*
X174830952Y-45750000D01*
X174783333Y-45726190D01*
X174664285Y-45726190D01*
X174616666Y-45750000D01*
X174592857Y-45773809D01*
X174569047Y-45821428D01*
X174569047Y-45869047D01*
X174592857Y-45940476D01*
X174878571Y-46226190D01*
X174569047Y-46226190D01*
G04 #@! TO.C,D31*
X32837705Y-106216926D02*
X33087705Y-105783913D01*
X32984607Y-105724389D01*
X32910843Y-105709294D01*
X32845795Y-105726724D01*
X32801365Y-105756059D01*
X32733127Y-105826633D01*
X32697412Y-105888492D01*
X32670413Y-105982875D01*
X32667223Y-106036019D01*
X32684653Y-106101068D01*
X32734607Y-106157402D01*
X32837705Y-106216926D01*
X32695932Y-105557722D02*
X32427877Y-105402961D01*
X32476976Y-105651251D01*
X32415117Y-105615537D01*
X32361973Y-105612347D01*
X32329449Y-105621062D01*
X32285019Y-105650396D01*
X32225496Y-105753495D01*
X32222306Y-105806639D01*
X32231021Y-105839163D01*
X32260355Y-105883592D01*
X32384073Y-105955021D01*
X32437217Y-105958211D01*
X32469742Y-105949496D01*
X31765483Y-105597878D02*
X32012919Y-105740735D01*
X31889201Y-105669307D02*
X32139201Y-105236294D01*
X32144726Y-105321962D01*
X32162156Y-105387011D01*
X32191491Y-105431440D01*
G04 #@! TO.C,D30*
X40907142Y-106876190D02*
X40907142Y-106376190D01*
X40788095Y-106376190D01*
X40716666Y-106400000D01*
X40669047Y-106447619D01*
X40645238Y-106495238D01*
X40621428Y-106590476D01*
X40621428Y-106661904D01*
X40645238Y-106757142D01*
X40669047Y-106804761D01*
X40716666Y-106852380D01*
X40788095Y-106876190D01*
X40907142Y-106876190D01*
X40454761Y-106376190D02*
X40145238Y-106376190D01*
X40311904Y-106566666D01*
X40240476Y-106566666D01*
X40192857Y-106590476D01*
X40169047Y-106614285D01*
X40145238Y-106661904D01*
X40145238Y-106780952D01*
X40169047Y-106828571D01*
X40192857Y-106852380D01*
X40240476Y-106876190D01*
X40383333Y-106876190D01*
X40430952Y-106852380D01*
X40454761Y-106828571D01*
X39835714Y-106376190D02*
X39788095Y-106376190D01*
X39740476Y-106400000D01*
X39716666Y-106423809D01*
X39692857Y-106471428D01*
X39669047Y-106566666D01*
X39669047Y-106685714D01*
X39692857Y-106780952D01*
X39716666Y-106828571D01*
X39740476Y-106852380D01*
X39788095Y-106876190D01*
X39835714Y-106876190D01*
X39883333Y-106852380D01*
X39907142Y-106828571D01*
X39930952Y-106780952D01*
X39954761Y-106685714D01*
X39954761Y-106566666D01*
X39930952Y-106471428D01*
X39907142Y-106423809D01*
X39883333Y-106400000D01*
X39835714Y-106376190D01*
G04 #@! TO.C,D29*
X46968741Y-102616962D02*
X46667834Y-102217644D01*
X46572758Y-102289288D01*
X46530042Y-102351290D01*
X46520669Y-102417978D01*
X46530312Y-102470338D01*
X46568612Y-102560727D01*
X46611599Y-102617773D01*
X46687930Y-102679504D01*
X46735603Y-102703205D01*
X46802291Y-102712578D01*
X46873666Y-102688606D01*
X46968741Y-102616962D01*
X46316189Y-102542253D02*
X46282845Y-102537566D01*
X46230486Y-102547209D01*
X46135410Y-102618854D01*
X46111709Y-102666527D01*
X46107022Y-102699871D01*
X46116665Y-102752230D01*
X46145323Y-102790260D01*
X46207325Y-102832977D01*
X46607454Y-102889211D01*
X46360257Y-103075487D01*
X46170106Y-103218777D02*
X46094045Y-103276092D01*
X46041686Y-103285735D01*
X46008342Y-103281049D01*
X45927325Y-103252661D01*
X45850994Y-103190930D01*
X45736363Y-103038809D01*
X45726720Y-102986449D01*
X45731406Y-102953105D01*
X45755107Y-102905432D01*
X45831168Y-102848117D01*
X45883527Y-102838474D01*
X45916871Y-102843160D01*
X45964544Y-102866861D01*
X46036189Y-102961937D01*
X46045832Y-103014296D01*
X46041145Y-103047640D01*
X46017444Y-103095313D01*
X45941383Y-103152629D01*
X45889024Y-103162272D01*
X45855680Y-103157586D01*
X45808007Y-103133884D01*
G04 #@! TO.C,D28*
X55963896Y-105374847D02*
X55713896Y-104941834D01*
X55610798Y-105001358D01*
X55560843Y-105057692D01*
X55543414Y-105122741D01*
X55546604Y-105175885D01*
X55573603Y-105270268D01*
X55609317Y-105332127D01*
X55677556Y-105402701D01*
X55721985Y-105432035D01*
X55787034Y-105449465D01*
X55860798Y-105434371D01*
X55963896Y-105374847D01*
X55325312Y-105221169D02*
X55292788Y-105212454D01*
X55239644Y-105215644D01*
X55136546Y-105275167D01*
X55107211Y-105319597D01*
X55098496Y-105352121D01*
X55101686Y-105405265D01*
X55125496Y-105446504D01*
X55181830Y-105496459D01*
X55572122Y-105601037D01*
X55304067Y-105755799D01*
X54913774Y-105651220D02*
X54943109Y-105606791D01*
X54951823Y-105574267D01*
X54948634Y-105521123D01*
X54936729Y-105500503D01*
X54892300Y-105471169D01*
X54859775Y-105462454D01*
X54806631Y-105465644D01*
X54724153Y-105513263D01*
X54694818Y-105557692D01*
X54686103Y-105590216D01*
X54689293Y-105643360D01*
X54701198Y-105663980D01*
X54745627Y-105693314D01*
X54778151Y-105702029D01*
X54831295Y-105698840D01*
X54913774Y-105651220D01*
X54966918Y-105648031D01*
X54999443Y-105656745D01*
X55043872Y-105686080D01*
X55091491Y-105768559D01*
X55094681Y-105821703D01*
X55085966Y-105854227D01*
X55056631Y-105898656D01*
X54974153Y-105946275D01*
X54921008Y-105949465D01*
X54888484Y-105940750D01*
X54844055Y-105911416D01*
X54796436Y-105828937D01*
X54793246Y-105775793D01*
X54801961Y-105743269D01*
X54831295Y-105698840D01*
G04 #@! TO.C,D27*
X46726684Y-112215773D02*
X46398655Y-111838418D01*
X46308808Y-111916521D01*
X46270521Y-111981351D01*
X46265823Y-112048531D01*
X46279095Y-112100090D01*
X46323608Y-112187587D01*
X46370469Y-112241495D01*
X46450920Y-112297752D01*
X46500130Y-112318070D01*
X46567310Y-112322767D01*
X46636838Y-112293875D01*
X46726684Y-112215773D01*
X46070510Y-112186766D02*
X46036920Y-112184417D01*
X45985361Y-112197689D01*
X45895515Y-112275791D01*
X45875197Y-112325001D01*
X45872848Y-112358591D01*
X45886120Y-112410150D01*
X45917361Y-112446088D01*
X45982191Y-112484376D01*
X46385268Y-112512562D01*
X46151668Y-112715628D01*
X45697853Y-112447616D02*
X45446283Y-112666302D01*
X45936036Y-112903073D01*
G04 #@! TO.C,D26*
X37749512Y-116031567D02*
X37801776Y-115534306D01*
X37683381Y-115521862D01*
X37609855Y-115538075D01*
X37557519Y-115580455D01*
X37528862Y-115625325D01*
X37495228Y-115717552D01*
X37487762Y-115788589D01*
X37501486Y-115885795D01*
X37520187Y-115935642D01*
X37562568Y-115987977D01*
X37631117Y-116019123D01*
X37749512Y-116031567D01*
X37323217Y-115531888D02*
X37302027Y-115505721D01*
X37257157Y-115477064D01*
X37138762Y-115464620D01*
X37088915Y-115483322D01*
X37062747Y-115504512D01*
X37034090Y-115549381D01*
X37029113Y-115596739D01*
X37045325Y-115670266D01*
X37299609Y-115984280D01*
X36991781Y-115951926D01*
X36617822Y-115409867D02*
X36712538Y-115419822D01*
X36757407Y-115448479D01*
X36778598Y-115474647D01*
X36818490Y-115550661D01*
X36832214Y-115647867D01*
X36812303Y-115837299D01*
X36783647Y-115882169D01*
X36757479Y-115903359D01*
X36707632Y-115922061D01*
X36612916Y-115912105D01*
X36568046Y-115883449D01*
X36546856Y-115857281D01*
X36528154Y-115807434D01*
X36540598Y-115689039D01*
X36569255Y-115644169D01*
X36595423Y-115622979D01*
X36645270Y-115604277D01*
X36739986Y-115614232D01*
X36784855Y-115642889D01*
X36806046Y-115669057D01*
X36824747Y-115718904D01*
G04 #@! TO.C,D25*
X33238959Y-117090765D02*
X32904393Y-116719193D01*
X32815924Y-116798851D01*
X32778774Y-116864340D01*
X32775249Y-116931591D01*
X32789418Y-116982911D01*
X32835451Y-117069618D01*
X32883246Y-117122700D01*
X32964667Y-117177544D01*
X33014224Y-117197000D01*
X33081475Y-117200524D01*
X33150489Y-117170423D01*
X33238959Y-117090765D01*
X32582378Y-117073214D02*
X32548753Y-117071452D01*
X32497433Y-117085621D01*
X32408963Y-117165280D01*
X32389507Y-117214837D01*
X32387745Y-117248462D01*
X32401914Y-117299782D01*
X32433778Y-117335170D01*
X32499267Y-117372320D01*
X32902774Y-117393467D01*
X32672753Y-117600579D01*
X32002003Y-117531708D02*
X32178942Y-117372391D01*
X32355953Y-117533399D01*
X32322327Y-117531637D01*
X32271008Y-117545806D01*
X32182538Y-117625465D01*
X32163082Y-117675022D01*
X32161320Y-117708647D01*
X32175489Y-117759967D01*
X32255148Y-117848437D01*
X32304705Y-117867893D01*
X32338331Y-117869655D01*
X32389650Y-117855486D01*
X32478120Y-117775827D01*
X32497576Y-117726270D01*
X32499338Y-117692644D01*
G04 #@! TO.C,D24*
X33207142Y-41576190D02*
X33207142Y-41076190D01*
X33088095Y-41076190D01*
X33016666Y-41100000D01*
X32969047Y-41147619D01*
X32945238Y-41195238D01*
X32921428Y-41290476D01*
X32921428Y-41361904D01*
X32945238Y-41457142D01*
X32969047Y-41504761D01*
X33016666Y-41552380D01*
X33088095Y-41576190D01*
X33207142Y-41576190D01*
X32730952Y-41123809D02*
X32707142Y-41100000D01*
X32659523Y-41076190D01*
X32540476Y-41076190D01*
X32492857Y-41100000D01*
X32469047Y-41123809D01*
X32445238Y-41171428D01*
X32445238Y-41219047D01*
X32469047Y-41290476D01*
X32754761Y-41576190D01*
X32445238Y-41576190D01*
X32016666Y-41242857D02*
X32016666Y-41576190D01*
X32135714Y-41052380D02*
X32254761Y-41409523D01*
X31945238Y-41409523D01*
G04 #@! TO.C,D23*
X40727371Y-46298904D02*
X40969776Y-45861594D01*
X40865655Y-45803879D01*
X40791639Y-45790074D01*
X40726904Y-45808636D01*
X40682994Y-45838741D01*
X40615997Y-45910495D01*
X40581368Y-45972968D01*
X40556020Y-46067809D01*
X40553758Y-46121000D01*
X40572320Y-46185735D01*
X40623250Y-46241188D01*
X40727371Y-46298904D01*
X40530204Y-45672381D02*
X40520923Y-45640013D01*
X40490818Y-45596103D01*
X40386696Y-45538388D01*
X40333505Y-45536126D01*
X40301137Y-45545407D01*
X40257227Y-45575512D01*
X40234141Y-45617161D01*
X40220336Y-45691177D01*
X40331710Y-46079585D01*
X40060994Y-45929525D01*
X40157629Y-45411414D02*
X39886914Y-45261354D01*
X39940339Y-45508749D01*
X39877866Y-45474120D01*
X39824674Y-45471858D01*
X39792307Y-45481139D01*
X39748397Y-45511245D01*
X39690681Y-45615366D01*
X39688419Y-45668558D01*
X39697700Y-45700925D01*
X39727806Y-45744836D01*
X39852752Y-45814094D01*
X39905943Y-45816356D01*
X39938311Y-45807075D01*
G04 #@! TO.C,D22*
X46907142Y-49176190D02*
X46907142Y-48676190D01*
X46788095Y-48676190D01*
X46716666Y-48700000D01*
X46669047Y-48747619D01*
X46645238Y-48795238D01*
X46621428Y-48890476D01*
X46621428Y-48961904D01*
X46645238Y-49057142D01*
X46669047Y-49104761D01*
X46716666Y-49152380D01*
X46788095Y-49176190D01*
X46907142Y-49176190D01*
X46430952Y-48723809D02*
X46407142Y-48700000D01*
X46359523Y-48676190D01*
X46240476Y-48676190D01*
X46192857Y-48700000D01*
X46169047Y-48723809D01*
X46145238Y-48771428D01*
X46145238Y-48819047D01*
X46169047Y-48890476D01*
X46454761Y-49176190D01*
X46145238Y-49176190D01*
X45954761Y-48723809D02*
X45930952Y-48700000D01*
X45883333Y-48676190D01*
X45764285Y-48676190D01*
X45716666Y-48700000D01*
X45692857Y-48723809D01*
X45669047Y-48771428D01*
X45669047Y-48819047D01*
X45692857Y-48890476D01*
X45978571Y-49176190D01*
X45669047Y-49176190D01*
G04 #@! TO.C,D21*
X58107142Y-56076190D02*
X58107142Y-55576190D01*
X57988095Y-55576190D01*
X57916666Y-55600000D01*
X57869047Y-55647619D01*
X57845238Y-55695238D01*
X57821428Y-55790476D01*
X57821428Y-55861904D01*
X57845238Y-55957142D01*
X57869047Y-56004761D01*
X57916666Y-56052380D01*
X57988095Y-56076190D01*
X58107142Y-56076190D01*
X57630952Y-55623809D02*
X57607142Y-55600000D01*
X57559523Y-55576190D01*
X57440476Y-55576190D01*
X57392857Y-55600000D01*
X57369047Y-55623809D01*
X57345238Y-55671428D01*
X57345238Y-55719047D01*
X57369047Y-55790476D01*
X57654761Y-56076190D01*
X57345238Y-56076190D01*
X56869047Y-56076190D02*
X57154761Y-56076190D01*
X57011904Y-56076190D02*
X57011904Y-55576190D01*
X57059523Y-55647619D01*
X57107142Y-55695238D01*
X57154761Y-55719047D01*
G04 #@! TO.C,D20*
X67246458Y-60978179D02*
X67433761Y-60514587D01*
X67323382Y-60469991D01*
X67248236Y-60465310D01*
X67186246Y-60491623D01*
X67146332Y-60526855D01*
X67088579Y-60606239D01*
X67061821Y-60672467D01*
X67048220Y-60769689D01*
X67052458Y-60822760D01*
X67078771Y-60884750D01*
X67136079Y-60933583D01*
X67246458Y-60978179D01*
X66974407Y-60380355D02*
X66961250Y-60349360D01*
X66926018Y-60309446D01*
X66815639Y-60264850D01*
X66762568Y-60269087D01*
X66731573Y-60282244D01*
X66691659Y-60317476D01*
X66673820Y-60361628D01*
X66669139Y-60436774D01*
X66827018Y-60808714D01*
X66540032Y-60692765D01*
X66440350Y-60113223D02*
X66396199Y-60095385D01*
X66343128Y-60099622D01*
X66312133Y-60112779D01*
X66272218Y-60148011D01*
X66214466Y-60227395D01*
X66169870Y-60337774D01*
X66156269Y-60434997D01*
X66160506Y-60488068D01*
X66173663Y-60519063D01*
X66208895Y-60558977D01*
X66253047Y-60576815D01*
X66306118Y-60572578D01*
X66337113Y-60559421D01*
X66377027Y-60524189D01*
X66434780Y-60444805D01*
X66479376Y-60334426D01*
X66492977Y-60237203D01*
X66488739Y-60184132D01*
X66475583Y-60153137D01*
X66440350Y-60113223D01*
G04 #@! TO.C,D19*
X71877658Y-67533220D02*
X71782253Y-67042406D01*
X71665393Y-67065122D01*
X71599820Y-67102123D01*
X71562162Y-67157953D01*
X71547876Y-67209240D01*
X71542676Y-67307272D01*
X71556305Y-67377388D01*
X71597849Y-67466333D01*
X71630308Y-67508534D01*
X71686138Y-67546192D01*
X71760797Y-67555935D01*
X71877658Y-67533220D01*
X71129751Y-67678598D02*
X71410216Y-67624081D01*
X71269984Y-67651340D02*
X71174579Y-67160526D01*
X71234953Y-67221556D01*
X71290783Y-67259214D01*
X71342070Y-67273500D01*
X70896030Y-67724029D02*
X70802542Y-67742201D01*
X70751255Y-67727915D01*
X70723340Y-67709086D01*
X70662966Y-67648056D01*
X70621422Y-67559111D01*
X70585077Y-67372134D01*
X70599363Y-67320847D01*
X70618192Y-67292932D01*
X70660393Y-67260474D01*
X70753882Y-67242301D01*
X70805169Y-67256587D01*
X70833084Y-67275416D01*
X70865542Y-67317617D01*
X70888258Y-67434478D01*
X70873972Y-67485765D01*
X70855143Y-67513680D01*
X70812942Y-67546138D01*
X70719453Y-67564311D01*
X70668166Y-67550025D01*
X70640251Y-67531196D01*
X70607793Y-67488995D01*
G04 #@! TO.C,D18*
X59934453Y-65650795D02*
X60300130Y-65309796D01*
X60218939Y-65222730D01*
X60152812Y-65186729D01*
X60085509Y-65184378D01*
X60034445Y-65199441D01*
X59948554Y-65246980D01*
X59896315Y-65295695D01*
X59842900Y-65378060D01*
X59824312Y-65427949D01*
X59821961Y-65495252D01*
X59853262Y-65563729D01*
X59934453Y-65650795D01*
X59414835Y-65093573D02*
X59609692Y-65302532D01*
X59512263Y-65198052D02*
X59877940Y-64857053D01*
X59858177Y-64940594D01*
X59855826Y-65007896D01*
X59870889Y-65058961D01*
X59428936Y-64689758D02*
X59478826Y-64708347D01*
X59512477Y-64709522D01*
X59563541Y-64694459D01*
X59580955Y-64678221D01*
X59599543Y-64628332D01*
X59600718Y-64594680D01*
X59585655Y-64543616D01*
X59520703Y-64473963D01*
X59470814Y-64455375D01*
X59437162Y-64454200D01*
X59386098Y-64469263D01*
X59368685Y-64485501D01*
X59350096Y-64535390D01*
X59348921Y-64569041D01*
X59363984Y-64620106D01*
X59428936Y-64689758D01*
X59443999Y-64740823D01*
X59442824Y-64774474D01*
X59424236Y-64824363D01*
X59354583Y-64889316D01*
X59303519Y-64904379D01*
X59269868Y-64903203D01*
X59219978Y-64884615D01*
X59155026Y-64814962D01*
X59139963Y-64763898D01*
X59141138Y-64730247D01*
X59159727Y-64680357D01*
X59229379Y-64615405D01*
X59280444Y-64600342D01*
X59314095Y-64601517D01*
X59363984Y-64620106D01*
G04 #@! TO.C,D17*
X50414481Y-60493818D02*
X50560667Y-60015666D01*
X50446821Y-59980859D01*
X50371553Y-59982745D01*
X50312092Y-60014361D01*
X50275400Y-60052938D01*
X50224786Y-60137053D01*
X50203903Y-60205361D01*
X50198827Y-60303399D01*
X50207673Y-60355898D01*
X50239289Y-60415359D01*
X50300636Y-60459012D01*
X50414481Y-60493818D01*
X49685868Y-60271059D02*
X49959098Y-60354593D01*
X49822483Y-60312826D02*
X49968669Y-59834674D01*
X49993324Y-59916903D01*
X50024940Y-59976364D01*
X50063517Y-60013056D01*
X49672670Y-59744178D02*
X49353902Y-59646720D01*
X49412638Y-60187524D01*
G04 #@! TO.C,D16*
X42022714Y-58339179D02*
X42083649Y-57842906D01*
X41965489Y-57828398D01*
X41891691Y-57843325D01*
X41838623Y-57884786D01*
X41809188Y-57929148D01*
X41773949Y-58020775D01*
X41765244Y-58091671D01*
X41777270Y-58189101D01*
X41795099Y-58239266D01*
X41836559Y-58292334D01*
X41904554Y-58324671D01*
X42022714Y-58339179D01*
X41266488Y-58246326D02*
X41550073Y-58281146D01*
X41408281Y-58263736D02*
X41469215Y-57767463D01*
X41507775Y-57844163D01*
X41549235Y-57897230D01*
X41593598Y-57926665D01*
X40902046Y-57697823D02*
X40996574Y-57709430D01*
X41040937Y-57738865D01*
X41061667Y-57765399D01*
X41100226Y-57842099D01*
X41112252Y-57939528D01*
X41089039Y-58128585D01*
X41059603Y-58172947D01*
X41033070Y-58193678D01*
X40982904Y-58211506D01*
X40888376Y-58199900D01*
X40844013Y-58170464D01*
X40823283Y-58143931D01*
X40805454Y-58093765D01*
X40819962Y-57975605D01*
X40849398Y-57931242D01*
X40875931Y-57910512D01*
X40926097Y-57892683D01*
X41020625Y-57904290D01*
X41064988Y-57933725D01*
X41085718Y-57960259D01*
X41103547Y-58010425D01*
G04 #@! TO.C,D15*
X36822714Y-57439179D02*
X36883649Y-56942906D01*
X36765489Y-56928398D01*
X36691691Y-56943325D01*
X36638623Y-56984786D01*
X36609188Y-57029148D01*
X36573949Y-57120775D01*
X36565244Y-57191671D01*
X36577270Y-57289101D01*
X36595099Y-57339266D01*
X36636559Y-57392334D01*
X36704554Y-57424671D01*
X36822714Y-57439179D01*
X36066488Y-57346326D02*
X36350073Y-57381146D01*
X36208281Y-57363736D02*
X36269215Y-56867463D01*
X36307775Y-56944163D01*
X36349235Y-56997230D01*
X36393598Y-57026665D01*
X35678414Y-56794922D02*
X35914735Y-56823938D01*
X35909350Y-57063160D01*
X35888620Y-57036627D01*
X35844257Y-57007191D01*
X35726097Y-56992683D01*
X35675931Y-57010512D01*
X35649398Y-57031242D01*
X35619962Y-57075605D01*
X35605454Y-57193765D01*
X35623283Y-57243931D01*
X35644013Y-57270464D01*
X35688376Y-57299900D01*
X35806536Y-57314408D01*
X35856702Y-57296579D01*
X35883235Y-57275849D01*
G04 #@! TO.C,D14*
X32607142Y-55976190D02*
X32607142Y-55476190D01*
X32488095Y-55476190D01*
X32416666Y-55500000D01*
X32369047Y-55547619D01*
X32345238Y-55595238D01*
X32321428Y-55690476D01*
X32321428Y-55761904D01*
X32345238Y-55857142D01*
X32369047Y-55904761D01*
X32416666Y-55952380D01*
X32488095Y-55976190D01*
X32607142Y-55976190D01*
X31845238Y-55976190D02*
X32130952Y-55976190D01*
X31988095Y-55976190D02*
X31988095Y-55476190D01*
X32035714Y-55547619D01*
X32083333Y-55595238D01*
X32130952Y-55619047D01*
X31416666Y-55642857D02*
X31416666Y-55976190D01*
X31535714Y-55452380D02*
X31654761Y-55809523D01*
X31345238Y-55809523D01*
G04 #@! TO.C,D13*
X152176190Y-31292857D02*
X151676190Y-31292857D01*
X151676190Y-31411904D01*
X151700000Y-31483333D01*
X151747619Y-31530952D01*
X151795238Y-31554761D01*
X151890476Y-31578571D01*
X151961904Y-31578571D01*
X152057142Y-31554761D01*
X152104761Y-31530952D01*
X152152380Y-31483333D01*
X152176190Y-31411904D01*
X152176190Y-31292857D01*
X152176190Y-32054761D02*
X152176190Y-31769047D01*
X152176190Y-31911904D02*
X151676190Y-31911904D01*
X151747619Y-31864285D01*
X151795238Y-31816666D01*
X151819047Y-31769047D01*
X151676190Y-32221428D02*
X151676190Y-32530952D01*
X151866666Y-32364285D01*
X151866666Y-32435714D01*
X151890476Y-32483333D01*
X151914285Y-32507142D01*
X151961904Y-32530952D01*
X152080952Y-32530952D01*
X152128571Y-32507142D01*
X152152380Y-32483333D01*
X152176190Y-32435714D01*
X152176190Y-32292857D01*
X152152380Y-32245238D01*
X152128571Y-32221428D01*
G04 #@! TO.C,D12*
X145083030Y-37595611D02*
X144600067Y-37466201D01*
X144569255Y-37581193D01*
X144573766Y-37656350D01*
X144607438Y-37714671D01*
X144647272Y-37749994D01*
X144733103Y-37797641D01*
X144802097Y-37816129D01*
X144900253Y-37817780D01*
X144952412Y-37807106D01*
X145010733Y-37773434D01*
X145052218Y-37710602D01*
X145083030Y-37595611D01*
X144885834Y-38331554D02*
X144959783Y-38055576D01*
X144922809Y-38193565D02*
X144439846Y-38064155D01*
X144521165Y-38036646D01*
X144579486Y-38002974D01*
X144614809Y-37963140D01*
X144399569Y-38398455D02*
X144370408Y-38415291D01*
X144335086Y-38455125D01*
X144304274Y-38570117D01*
X144314947Y-38622275D01*
X144331783Y-38651436D01*
X144371617Y-38686759D01*
X144417614Y-38699084D01*
X144492771Y-38694573D01*
X144842698Y-38492542D01*
X144762587Y-38791519D01*
G04 #@! TO.C,D11*
X140687268Y-48689459D02*
X140379438Y-48295453D01*
X140285627Y-48368746D01*
X140243999Y-48431484D01*
X140235792Y-48498326D01*
X140246347Y-48550509D01*
X140286219Y-48640216D01*
X140330195Y-48696502D01*
X140407592Y-48756892D01*
X140455671Y-48779758D01*
X140522512Y-48787965D01*
X140593458Y-48762752D01*
X140687268Y-48689459D01*
X140086879Y-49158534D02*
X140312025Y-48982631D01*
X140199452Y-49070582D02*
X139891621Y-48676577D01*
X139973122Y-48703546D01*
X140039963Y-48711753D01*
X140092146Y-48701198D01*
X139711636Y-49451706D02*
X139936782Y-49275803D01*
X139824209Y-49363754D02*
X139516378Y-48969749D01*
X139597878Y-48996718D01*
X139664720Y-49004925D01*
X139716903Y-48994370D01*
G04 #@! TO.C,D10*
X135373138Y-56114508D02*
X135019585Y-55760955D01*
X134935405Y-55845134D01*
X134901734Y-55912478D01*
X134901734Y-55979821D01*
X134918570Y-56030329D01*
X134969077Y-56114508D01*
X135019585Y-56165016D01*
X135103764Y-56215524D01*
X135154272Y-56232360D01*
X135221615Y-56232360D01*
X135288959Y-56198688D01*
X135373138Y-56114508D01*
X134834390Y-56653257D02*
X135036421Y-56451226D01*
X134935405Y-56552241D02*
X134581852Y-56198688D01*
X134666031Y-56215524D01*
X134733375Y-56215524D01*
X134783883Y-56198688D01*
X134261970Y-56518570D02*
X134228299Y-56552241D01*
X134211463Y-56602749D01*
X134211463Y-56636421D01*
X134228299Y-56686928D01*
X134278806Y-56771108D01*
X134362986Y-56855287D01*
X134447165Y-56905795D01*
X134497673Y-56922631D01*
X134531344Y-56922631D01*
X134581852Y-56905795D01*
X134615524Y-56872123D01*
X134632360Y-56821615D01*
X134632360Y-56787944D01*
X134615524Y-56737436D01*
X134565016Y-56653257D01*
X134480837Y-56569077D01*
X134396657Y-56518570D01*
X134346150Y-56501734D01*
X134312478Y-56501734D01*
X134261970Y-56518570D01*
G04 #@! TO.C,D9*
X131276190Y-48030952D02*
X130776190Y-48030952D01*
X130776190Y-48150000D01*
X130800000Y-48221428D01*
X130847619Y-48269047D01*
X130895238Y-48292857D01*
X130990476Y-48316666D01*
X131061904Y-48316666D01*
X131157142Y-48292857D01*
X131204761Y-48269047D01*
X131252380Y-48221428D01*
X131276190Y-48150000D01*
X131276190Y-48030952D01*
X131276190Y-48554761D02*
X131276190Y-48650000D01*
X131252380Y-48697619D01*
X131228571Y-48721428D01*
X131157142Y-48769047D01*
X131061904Y-48792857D01*
X130871428Y-48792857D01*
X130823809Y-48769047D01*
X130800000Y-48745238D01*
X130776190Y-48697619D01*
X130776190Y-48602380D01*
X130800000Y-48554761D01*
X130823809Y-48530952D01*
X130871428Y-48507142D01*
X130990476Y-48507142D01*
X131038095Y-48530952D01*
X131061904Y-48554761D01*
X131085714Y-48602380D01*
X131085714Y-48697619D01*
X131061904Y-48745238D01*
X131038095Y-48769047D01*
X130990476Y-48792857D01*
G04 #@! TO.C,D8*
X135428079Y-40732848D02*
X134974925Y-40521539D01*
X134924613Y-40629433D01*
X134916005Y-40704231D01*
X134939038Y-40767513D01*
X134972133Y-40809217D01*
X135048386Y-40871045D01*
X135113122Y-40901232D01*
X135209499Y-40919903D01*
X135262719Y-40918449D01*
X135326001Y-40895416D01*
X135377767Y-40840742D01*
X135428079Y-40732848D01*
X134927638Y-41129990D02*
X134926184Y-41076770D01*
X134914667Y-41045129D01*
X134881572Y-41003426D01*
X134859993Y-40993363D01*
X134806773Y-40994817D01*
X134775132Y-41006334D01*
X134733429Y-41039429D01*
X134693180Y-41125744D01*
X134694634Y-41178964D01*
X134706150Y-41210605D01*
X134739245Y-41252308D01*
X134760824Y-41262371D01*
X134814044Y-41260917D01*
X134845685Y-41249400D01*
X134887388Y-41216305D01*
X134927638Y-41129990D01*
X134969341Y-41096895D01*
X135000982Y-41085378D01*
X135054202Y-41083924D01*
X135140517Y-41124174D01*
X135173612Y-41165877D01*
X135185129Y-41197518D01*
X135186583Y-41250738D01*
X135146333Y-41337053D01*
X135104630Y-41370148D01*
X135072989Y-41381665D01*
X135019769Y-41383119D01*
X134933454Y-41342869D01*
X134900359Y-41301166D01*
X134888842Y-41269525D01*
X134887388Y-41216305D01*
G04 #@! TO.C,D7*
X140104448Y-31189121D02*
X139705130Y-30888213D01*
X139633485Y-30983289D01*
X139609514Y-31054663D01*
X139618886Y-31121351D01*
X139642587Y-31169024D01*
X139704319Y-31245355D01*
X139761364Y-31288342D01*
X139851754Y-31326643D01*
X139904113Y-31336285D01*
X139970801Y-31326913D01*
X140032803Y-31284196D01*
X140104448Y-31189121D01*
X139432880Y-31249501D02*
X139232275Y-31515713D01*
X139760553Y-31645484D01*
G04 #@! TO.C,D5*
X167769047Y-118226190D02*
X167769047Y-117726190D01*
X167650000Y-117726190D01*
X167578571Y-117750000D01*
X167530952Y-117797619D01*
X167507142Y-117845238D01*
X167483333Y-117940476D01*
X167483333Y-118011904D01*
X167507142Y-118107142D01*
X167530952Y-118154761D01*
X167578571Y-118202380D01*
X167650000Y-118226190D01*
X167769047Y-118226190D01*
X167030952Y-117726190D02*
X167269047Y-117726190D01*
X167292857Y-117964285D01*
X167269047Y-117940476D01*
X167221428Y-117916666D01*
X167102380Y-117916666D01*
X167054761Y-117940476D01*
X167030952Y-117964285D01*
X167007142Y-118011904D01*
X167007142Y-118130952D01*
X167030952Y-118178571D01*
X167054761Y-118202380D01*
X167102380Y-118226190D01*
X167221428Y-118226190D01*
X167269047Y-118202380D01*
X167292857Y-118178571D01*
G04 #@! TO.C,D4*
X167769047Y-124026190D02*
X167769047Y-123526190D01*
X167650000Y-123526190D01*
X167578571Y-123550000D01*
X167530952Y-123597619D01*
X167507142Y-123645238D01*
X167483333Y-123740476D01*
X167483333Y-123811904D01*
X167507142Y-123907142D01*
X167530952Y-123954761D01*
X167578571Y-124002380D01*
X167650000Y-124026190D01*
X167769047Y-124026190D01*
X167054761Y-123692857D02*
X167054761Y-124026190D01*
X167173809Y-123502380D02*
X167292857Y-123859523D01*
X166983333Y-123859523D01*
G04 #@! TO.C,D3*
X167769047Y-127626190D02*
X167769047Y-127126190D01*
X167650000Y-127126190D01*
X167578571Y-127150000D01*
X167530952Y-127197619D01*
X167507142Y-127245238D01*
X167483333Y-127340476D01*
X167483333Y-127411904D01*
X167507142Y-127507142D01*
X167530952Y-127554761D01*
X167578571Y-127602380D01*
X167650000Y-127626190D01*
X167769047Y-127626190D01*
X167316666Y-127126190D02*
X167007142Y-127126190D01*
X167173809Y-127316666D01*
X167102380Y-127316666D01*
X167054761Y-127340476D01*
X167030952Y-127364285D01*
X167007142Y-127411904D01*
X167007142Y-127530952D01*
X167030952Y-127578571D01*
X167054761Y-127602380D01*
X167102380Y-127626190D01*
X167245238Y-127626190D01*
X167292857Y-127602380D01*
X167316666Y-127578571D01*
G04 #@! TO.C,D2*
X118369047Y-102526190D02*
X118369047Y-102026190D01*
X118250000Y-102026190D01*
X118178571Y-102050000D01*
X118130952Y-102097619D01*
X118107142Y-102145238D01*
X118083333Y-102240476D01*
X118083333Y-102311904D01*
X118107142Y-102407142D01*
X118130952Y-102454761D01*
X118178571Y-102502380D01*
X118250000Y-102526190D01*
X118369047Y-102526190D01*
X117892857Y-102073809D02*
X117869047Y-102050000D01*
X117821428Y-102026190D01*
X117702380Y-102026190D01*
X117654761Y-102050000D01*
X117630952Y-102073809D01*
X117607142Y-102121428D01*
X117607142Y-102169047D01*
X117630952Y-102240476D01*
X117916666Y-102526190D01*
X117607142Y-102526190D01*
G04 #@! TO.C,D1*
X181869047Y-113326190D02*
X181869047Y-112826190D01*
X181750000Y-112826190D01*
X181678571Y-112850000D01*
X181630952Y-112897619D01*
X181607142Y-112945238D01*
X181583333Y-113040476D01*
X181583333Y-113111904D01*
X181607142Y-113207142D01*
X181630952Y-113254761D01*
X181678571Y-113302380D01*
X181750000Y-113326190D01*
X181869047Y-113326190D01*
X181107142Y-113326190D02*
X181392857Y-113326190D01*
X181250000Y-113326190D02*
X181250000Y-112826190D01*
X181297619Y-112897619D01*
X181345238Y-112945238D01*
X181392857Y-112969047D01*
G04 #@! TO.C,C28*
X92121428Y-78578571D02*
X92145238Y-78602380D01*
X92216666Y-78626190D01*
X92264285Y-78626190D01*
X92335714Y-78602380D01*
X92383333Y-78554761D01*
X92407142Y-78507142D01*
X92430952Y-78411904D01*
X92430952Y-78340476D01*
X92407142Y-78245238D01*
X92383333Y-78197619D01*
X92335714Y-78150000D01*
X92264285Y-78126190D01*
X92216666Y-78126190D01*
X92145238Y-78150000D01*
X92121428Y-78173809D01*
X91930952Y-78173809D02*
X91907142Y-78150000D01*
X91859523Y-78126190D01*
X91740476Y-78126190D01*
X91692857Y-78150000D01*
X91669047Y-78173809D01*
X91645238Y-78221428D01*
X91645238Y-78269047D01*
X91669047Y-78340476D01*
X91954761Y-78626190D01*
X91645238Y-78626190D01*
X91359523Y-78340476D02*
X91407142Y-78316666D01*
X91430952Y-78292857D01*
X91454761Y-78245238D01*
X91454761Y-78221428D01*
X91430952Y-78173809D01*
X91407142Y-78150000D01*
X91359523Y-78126190D01*
X91264285Y-78126190D01*
X91216666Y-78150000D01*
X91192857Y-78173809D01*
X91169047Y-78221428D01*
X91169047Y-78245238D01*
X91192857Y-78292857D01*
X91216666Y-78316666D01*
X91264285Y-78340476D01*
X91359523Y-78340476D01*
X91407142Y-78364285D01*
X91430952Y-78388095D01*
X91454761Y-78435714D01*
X91454761Y-78530952D01*
X91430952Y-78578571D01*
X91407142Y-78602380D01*
X91359523Y-78626190D01*
X91264285Y-78626190D01*
X91216666Y-78602380D01*
X91192857Y-78578571D01*
X91169047Y-78530952D01*
X91169047Y-78435714D01*
X91192857Y-78388095D01*
X91216666Y-78364285D01*
X91264285Y-78340476D01*
G04 #@! TO.C,C27*
X111621428Y-88278571D02*
X111645238Y-88302380D01*
X111716666Y-88326190D01*
X111764285Y-88326190D01*
X111835714Y-88302380D01*
X111883333Y-88254761D01*
X111907142Y-88207142D01*
X111930952Y-88111904D01*
X111930952Y-88040476D01*
X111907142Y-87945238D01*
X111883333Y-87897619D01*
X111835714Y-87850000D01*
X111764285Y-87826190D01*
X111716666Y-87826190D01*
X111645238Y-87850000D01*
X111621428Y-87873809D01*
X111430952Y-87873809D02*
X111407142Y-87850000D01*
X111359523Y-87826190D01*
X111240476Y-87826190D01*
X111192857Y-87850000D01*
X111169047Y-87873809D01*
X111145238Y-87921428D01*
X111145238Y-87969047D01*
X111169047Y-88040476D01*
X111454761Y-88326190D01*
X111145238Y-88326190D01*
X110978571Y-87826190D02*
X110645238Y-87826190D01*
X110859523Y-88326190D01*
G04 #@! TO.C,C26*
X98021428Y-77378571D02*
X98045238Y-77402380D01*
X98116666Y-77426190D01*
X98164285Y-77426190D01*
X98235714Y-77402380D01*
X98283333Y-77354761D01*
X98307142Y-77307142D01*
X98330952Y-77211904D01*
X98330952Y-77140476D01*
X98307142Y-77045238D01*
X98283333Y-76997619D01*
X98235714Y-76950000D01*
X98164285Y-76926190D01*
X98116666Y-76926190D01*
X98045238Y-76950000D01*
X98021428Y-76973809D01*
X97830952Y-76973809D02*
X97807142Y-76950000D01*
X97759523Y-76926190D01*
X97640476Y-76926190D01*
X97592857Y-76950000D01*
X97569047Y-76973809D01*
X97545238Y-77021428D01*
X97545238Y-77069047D01*
X97569047Y-77140476D01*
X97854761Y-77426190D01*
X97545238Y-77426190D01*
X97116666Y-76926190D02*
X97211904Y-76926190D01*
X97259523Y-76950000D01*
X97283333Y-76973809D01*
X97330952Y-77045238D01*
X97354761Y-77140476D01*
X97354761Y-77330952D01*
X97330952Y-77378571D01*
X97307142Y-77402380D01*
X97259523Y-77426190D01*
X97164285Y-77426190D01*
X97116666Y-77402380D01*
X97092857Y-77378571D01*
X97069047Y-77330952D01*
X97069047Y-77211904D01*
X97092857Y-77164285D01*
X97116666Y-77140476D01*
X97164285Y-77116666D01*
X97259523Y-77116666D01*
X97307142Y-77140476D01*
X97330952Y-77164285D01*
X97354761Y-77211904D01*
G04 #@! TO.C,C25*
X53021428Y-45178571D02*
X53045238Y-45202380D01*
X53116666Y-45226190D01*
X53164285Y-45226190D01*
X53235714Y-45202380D01*
X53283333Y-45154761D01*
X53307142Y-45107142D01*
X53330952Y-45011904D01*
X53330952Y-44940476D01*
X53307142Y-44845238D01*
X53283333Y-44797619D01*
X53235714Y-44750000D01*
X53164285Y-44726190D01*
X53116666Y-44726190D01*
X53045238Y-44750000D01*
X53021428Y-44773809D01*
X52830952Y-44773809D02*
X52807142Y-44750000D01*
X52759523Y-44726190D01*
X52640476Y-44726190D01*
X52592857Y-44750000D01*
X52569047Y-44773809D01*
X52545238Y-44821428D01*
X52545238Y-44869047D01*
X52569047Y-44940476D01*
X52854761Y-45226190D01*
X52545238Y-45226190D01*
X52092857Y-44726190D02*
X52330952Y-44726190D01*
X52354761Y-44964285D01*
X52330952Y-44940476D01*
X52283333Y-44916666D01*
X52164285Y-44916666D01*
X52116666Y-44940476D01*
X52092857Y-44964285D01*
X52069047Y-45011904D01*
X52069047Y-45130952D01*
X52092857Y-45178571D01*
X52116666Y-45202380D01*
X52164285Y-45226190D01*
X52283333Y-45226190D01*
X52330952Y-45202380D01*
X52354761Y-45178571D01*
G04 #@! TO.C,C24*
X62021428Y-45178571D02*
X62045238Y-45202380D01*
X62116666Y-45226190D01*
X62164285Y-45226190D01*
X62235714Y-45202380D01*
X62283333Y-45154761D01*
X62307142Y-45107142D01*
X62330952Y-45011904D01*
X62330952Y-44940476D01*
X62307142Y-44845238D01*
X62283333Y-44797619D01*
X62235714Y-44750000D01*
X62164285Y-44726190D01*
X62116666Y-44726190D01*
X62045238Y-44750000D01*
X62021428Y-44773809D01*
X61830952Y-44773809D02*
X61807142Y-44750000D01*
X61759523Y-44726190D01*
X61640476Y-44726190D01*
X61592857Y-44750000D01*
X61569047Y-44773809D01*
X61545238Y-44821428D01*
X61545238Y-44869047D01*
X61569047Y-44940476D01*
X61854761Y-45226190D01*
X61545238Y-45226190D01*
X61116666Y-44892857D02*
X61116666Y-45226190D01*
X61235714Y-44702380D02*
X61354761Y-45059523D01*
X61045238Y-45059523D01*
G04 #@! TO.C,C23*
X142321428Y-62778571D02*
X142345238Y-62802380D01*
X142416666Y-62826190D01*
X142464285Y-62826190D01*
X142535714Y-62802380D01*
X142583333Y-62754761D01*
X142607142Y-62707142D01*
X142630952Y-62611904D01*
X142630952Y-62540476D01*
X142607142Y-62445238D01*
X142583333Y-62397619D01*
X142535714Y-62350000D01*
X142464285Y-62326190D01*
X142416666Y-62326190D01*
X142345238Y-62350000D01*
X142321428Y-62373809D01*
X142130952Y-62373809D02*
X142107142Y-62350000D01*
X142059523Y-62326190D01*
X141940476Y-62326190D01*
X141892857Y-62350000D01*
X141869047Y-62373809D01*
X141845238Y-62421428D01*
X141845238Y-62469047D01*
X141869047Y-62540476D01*
X142154761Y-62826190D01*
X141845238Y-62826190D01*
X141678571Y-62326190D02*
X141369047Y-62326190D01*
X141535714Y-62516666D01*
X141464285Y-62516666D01*
X141416666Y-62540476D01*
X141392857Y-62564285D01*
X141369047Y-62611904D01*
X141369047Y-62730952D01*
X141392857Y-62778571D01*
X141416666Y-62802380D01*
X141464285Y-62826190D01*
X141607142Y-62826190D01*
X141654761Y-62802380D01*
X141678571Y-62778571D01*
G04 #@! TO.C,C22*
X71021428Y-45178571D02*
X71045238Y-45202380D01*
X71116666Y-45226190D01*
X71164285Y-45226190D01*
X71235714Y-45202380D01*
X71283333Y-45154761D01*
X71307142Y-45107142D01*
X71330952Y-45011904D01*
X71330952Y-44940476D01*
X71307142Y-44845238D01*
X71283333Y-44797619D01*
X71235714Y-44750000D01*
X71164285Y-44726190D01*
X71116666Y-44726190D01*
X71045238Y-44750000D01*
X71021428Y-44773809D01*
X70830952Y-44773809D02*
X70807142Y-44750000D01*
X70759523Y-44726190D01*
X70640476Y-44726190D01*
X70592857Y-44750000D01*
X70569047Y-44773809D01*
X70545238Y-44821428D01*
X70545238Y-44869047D01*
X70569047Y-44940476D01*
X70854761Y-45226190D01*
X70545238Y-45226190D01*
X70354761Y-44773809D02*
X70330952Y-44750000D01*
X70283333Y-44726190D01*
X70164285Y-44726190D01*
X70116666Y-44750000D01*
X70092857Y-44773809D01*
X70069047Y-44821428D01*
X70069047Y-44869047D01*
X70092857Y-44940476D01*
X70378571Y-45226190D01*
X70069047Y-45226190D01*
G04 #@! TO.C,C21*
X80021428Y-45178571D02*
X80045238Y-45202380D01*
X80116666Y-45226190D01*
X80164285Y-45226190D01*
X80235714Y-45202380D01*
X80283333Y-45154761D01*
X80307142Y-45107142D01*
X80330952Y-45011904D01*
X80330952Y-44940476D01*
X80307142Y-44845238D01*
X80283333Y-44797619D01*
X80235714Y-44750000D01*
X80164285Y-44726190D01*
X80116666Y-44726190D01*
X80045238Y-44750000D01*
X80021428Y-44773809D01*
X79830952Y-44773809D02*
X79807142Y-44750000D01*
X79759523Y-44726190D01*
X79640476Y-44726190D01*
X79592857Y-44750000D01*
X79569047Y-44773809D01*
X79545238Y-44821428D01*
X79545238Y-44869047D01*
X79569047Y-44940476D01*
X79854761Y-45226190D01*
X79545238Y-45226190D01*
X79069047Y-45226190D02*
X79354761Y-45226190D01*
X79211904Y-45226190D02*
X79211904Y-44726190D01*
X79259523Y-44797619D01*
X79307142Y-44845238D01*
X79354761Y-44869047D01*
G04 #@! TO.C,C20*
X120321428Y-76978571D02*
X120345238Y-77002380D01*
X120416666Y-77026190D01*
X120464285Y-77026190D01*
X120535714Y-77002380D01*
X120583333Y-76954761D01*
X120607142Y-76907142D01*
X120630952Y-76811904D01*
X120630952Y-76740476D01*
X120607142Y-76645238D01*
X120583333Y-76597619D01*
X120535714Y-76550000D01*
X120464285Y-76526190D01*
X120416666Y-76526190D01*
X120345238Y-76550000D01*
X120321428Y-76573809D01*
X120130952Y-76573809D02*
X120107142Y-76550000D01*
X120059523Y-76526190D01*
X119940476Y-76526190D01*
X119892857Y-76550000D01*
X119869047Y-76573809D01*
X119845238Y-76621428D01*
X119845238Y-76669047D01*
X119869047Y-76740476D01*
X120154761Y-77026190D01*
X119845238Y-77026190D01*
X119535714Y-76526190D02*
X119488095Y-76526190D01*
X119440476Y-76550000D01*
X119416666Y-76573809D01*
X119392857Y-76621428D01*
X119369047Y-76716666D01*
X119369047Y-76835714D01*
X119392857Y-76930952D01*
X119416666Y-76978571D01*
X119440476Y-77002380D01*
X119488095Y-77026190D01*
X119535714Y-77026190D01*
X119583333Y-77002380D01*
X119607142Y-76978571D01*
X119630952Y-76930952D01*
X119654761Y-76835714D01*
X119654761Y-76716666D01*
X119630952Y-76621428D01*
X119607142Y-76573809D01*
X119583333Y-76550000D01*
X119535714Y-76526190D01*
G04 #@! TO.C,C19*
X98021428Y-78978571D02*
X98045238Y-79002380D01*
X98116666Y-79026190D01*
X98164285Y-79026190D01*
X98235714Y-79002380D01*
X98283333Y-78954761D01*
X98307142Y-78907142D01*
X98330952Y-78811904D01*
X98330952Y-78740476D01*
X98307142Y-78645238D01*
X98283333Y-78597619D01*
X98235714Y-78550000D01*
X98164285Y-78526190D01*
X98116666Y-78526190D01*
X98045238Y-78550000D01*
X98021428Y-78573809D01*
X97545238Y-79026190D02*
X97830952Y-79026190D01*
X97688095Y-79026190D02*
X97688095Y-78526190D01*
X97735714Y-78597619D01*
X97783333Y-78645238D01*
X97830952Y-78669047D01*
X97307142Y-79026190D02*
X97211904Y-79026190D01*
X97164285Y-79002380D01*
X97140476Y-78978571D01*
X97092857Y-78907142D01*
X97069047Y-78811904D01*
X97069047Y-78621428D01*
X97092857Y-78573809D01*
X97116666Y-78550000D01*
X97164285Y-78526190D01*
X97259523Y-78526190D01*
X97307142Y-78550000D01*
X97330952Y-78573809D01*
X97354761Y-78621428D01*
X97354761Y-78740476D01*
X97330952Y-78788095D01*
X97307142Y-78811904D01*
X97259523Y-78835714D01*
X97164285Y-78835714D01*
X97116666Y-78811904D01*
X97092857Y-78788095D01*
X97069047Y-78740476D01*
G04 #@! TO.C,C18*
X98021428Y-80578571D02*
X98045238Y-80602380D01*
X98116666Y-80626190D01*
X98164285Y-80626190D01*
X98235714Y-80602380D01*
X98283333Y-80554761D01*
X98307142Y-80507142D01*
X98330952Y-80411904D01*
X98330952Y-80340476D01*
X98307142Y-80245238D01*
X98283333Y-80197619D01*
X98235714Y-80150000D01*
X98164285Y-80126190D01*
X98116666Y-80126190D01*
X98045238Y-80150000D01*
X98021428Y-80173809D01*
X97545238Y-80626190D02*
X97830952Y-80626190D01*
X97688095Y-80626190D02*
X97688095Y-80126190D01*
X97735714Y-80197619D01*
X97783333Y-80245238D01*
X97830952Y-80269047D01*
X97259523Y-80340476D02*
X97307142Y-80316666D01*
X97330952Y-80292857D01*
X97354761Y-80245238D01*
X97354761Y-80221428D01*
X97330952Y-80173809D01*
X97307142Y-80150000D01*
X97259523Y-80126190D01*
X97164285Y-80126190D01*
X97116666Y-80150000D01*
X97092857Y-80173809D01*
X97069047Y-80221428D01*
X97069047Y-80245238D01*
X97092857Y-80292857D01*
X97116666Y-80316666D01*
X97164285Y-80340476D01*
X97259523Y-80340476D01*
X97307142Y-80364285D01*
X97330952Y-80388095D01*
X97354761Y-80435714D01*
X97354761Y-80530952D01*
X97330952Y-80578571D01*
X97307142Y-80602380D01*
X97259523Y-80626190D01*
X97164285Y-80626190D01*
X97116666Y-80602380D01*
X97092857Y-80578571D01*
X97069047Y-80530952D01*
X97069047Y-80435714D01*
X97092857Y-80388095D01*
X97116666Y-80364285D01*
X97164285Y-80340476D01*
G04 #@! TO.C,C17*
X157321428Y-54978571D02*
X157345238Y-55002380D01*
X157416666Y-55026190D01*
X157464285Y-55026190D01*
X157535714Y-55002380D01*
X157583333Y-54954761D01*
X157607142Y-54907142D01*
X157630952Y-54811904D01*
X157630952Y-54740476D01*
X157607142Y-54645238D01*
X157583333Y-54597619D01*
X157535714Y-54550000D01*
X157464285Y-54526190D01*
X157416666Y-54526190D01*
X157345238Y-54550000D01*
X157321428Y-54573809D01*
X156845238Y-55026190D02*
X157130952Y-55026190D01*
X156988095Y-55026190D02*
X156988095Y-54526190D01*
X157035714Y-54597619D01*
X157083333Y-54645238D01*
X157130952Y-54669047D01*
X156678571Y-54526190D02*
X156345238Y-54526190D01*
X156559523Y-55026190D01*
G04 #@! TO.C,C16*
X159921428Y-54978571D02*
X159945238Y-55002380D01*
X160016666Y-55026190D01*
X160064285Y-55026190D01*
X160135714Y-55002380D01*
X160183333Y-54954761D01*
X160207142Y-54907142D01*
X160230952Y-54811904D01*
X160230952Y-54740476D01*
X160207142Y-54645238D01*
X160183333Y-54597619D01*
X160135714Y-54550000D01*
X160064285Y-54526190D01*
X160016666Y-54526190D01*
X159945238Y-54550000D01*
X159921428Y-54573809D01*
X159445238Y-55026190D02*
X159730952Y-55026190D01*
X159588095Y-55026190D02*
X159588095Y-54526190D01*
X159635714Y-54597619D01*
X159683333Y-54645238D01*
X159730952Y-54669047D01*
X159016666Y-54526190D02*
X159111904Y-54526190D01*
X159159523Y-54550000D01*
X159183333Y-54573809D01*
X159230952Y-54645238D01*
X159254761Y-54740476D01*
X159254761Y-54930952D01*
X159230952Y-54978571D01*
X159207142Y-55002380D01*
X159159523Y-55026190D01*
X159064285Y-55026190D01*
X159016666Y-55002380D01*
X158992857Y-54978571D01*
X158969047Y-54930952D01*
X158969047Y-54811904D01*
X158992857Y-54764285D01*
X159016666Y-54740476D01*
X159064285Y-54716666D01*
X159159523Y-54716666D01*
X159207142Y-54740476D01*
X159230952Y-54764285D01*
X159254761Y-54811904D01*
G04 #@! TO.C,C15*
X162521428Y-54978571D02*
X162545238Y-55002380D01*
X162616666Y-55026190D01*
X162664285Y-55026190D01*
X162735714Y-55002380D01*
X162783333Y-54954761D01*
X162807142Y-54907142D01*
X162830952Y-54811904D01*
X162830952Y-54740476D01*
X162807142Y-54645238D01*
X162783333Y-54597619D01*
X162735714Y-54550000D01*
X162664285Y-54526190D01*
X162616666Y-54526190D01*
X162545238Y-54550000D01*
X162521428Y-54573809D01*
X162045238Y-55026190D02*
X162330952Y-55026190D01*
X162188095Y-55026190D02*
X162188095Y-54526190D01*
X162235714Y-54597619D01*
X162283333Y-54645238D01*
X162330952Y-54669047D01*
X161592857Y-54526190D02*
X161830952Y-54526190D01*
X161854761Y-54764285D01*
X161830952Y-54740476D01*
X161783333Y-54716666D01*
X161664285Y-54716666D01*
X161616666Y-54740476D01*
X161592857Y-54764285D01*
X161569047Y-54811904D01*
X161569047Y-54930952D01*
X161592857Y-54978571D01*
X161616666Y-55002380D01*
X161664285Y-55026190D01*
X161783333Y-55026190D01*
X161830952Y-55002380D01*
X161854761Y-54978571D01*
G04 #@! TO.C,C14*
X165121428Y-54978571D02*
X165145238Y-55002380D01*
X165216666Y-55026190D01*
X165264285Y-55026190D01*
X165335714Y-55002380D01*
X165383333Y-54954761D01*
X165407142Y-54907142D01*
X165430952Y-54811904D01*
X165430952Y-54740476D01*
X165407142Y-54645238D01*
X165383333Y-54597619D01*
X165335714Y-54550000D01*
X165264285Y-54526190D01*
X165216666Y-54526190D01*
X165145238Y-54550000D01*
X165121428Y-54573809D01*
X164645238Y-55026190D02*
X164930952Y-55026190D01*
X164788095Y-55026190D02*
X164788095Y-54526190D01*
X164835714Y-54597619D01*
X164883333Y-54645238D01*
X164930952Y-54669047D01*
X164216666Y-54692857D02*
X164216666Y-55026190D01*
X164335714Y-54502380D02*
X164454761Y-54859523D01*
X164145238Y-54859523D01*
G04 #@! TO.C,C13*
X167721428Y-54978571D02*
X167745238Y-55002380D01*
X167816666Y-55026190D01*
X167864285Y-55026190D01*
X167935714Y-55002380D01*
X167983333Y-54954761D01*
X168007142Y-54907142D01*
X168030952Y-54811904D01*
X168030952Y-54740476D01*
X168007142Y-54645238D01*
X167983333Y-54597619D01*
X167935714Y-54550000D01*
X167864285Y-54526190D01*
X167816666Y-54526190D01*
X167745238Y-54550000D01*
X167721428Y-54573809D01*
X167245238Y-55026190D02*
X167530952Y-55026190D01*
X167388095Y-55026190D02*
X167388095Y-54526190D01*
X167435714Y-54597619D01*
X167483333Y-54645238D01*
X167530952Y-54669047D01*
X167078571Y-54526190D02*
X166769047Y-54526190D01*
X166935714Y-54716666D01*
X166864285Y-54716666D01*
X166816666Y-54740476D01*
X166792857Y-54764285D01*
X166769047Y-54811904D01*
X166769047Y-54930952D01*
X166792857Y-54978571D01*
X166816666Y-55002380D01*
X166864285Y-55026190D01*
X167007142Y-55026190D01*
X167054761Y-55002380D01*
X167078571Y-54978571D01*
G04 #@! TO.C,C12*
X170321428Y-54978571D02*
X170345238Y-55002380D01*
X170416666Y-55026190D01*
X170464285Y-55026190D01*
X170535714Y-55002380D01*
X170583333Y-54954761D01*
X170607142Y-54907142D01*
X170630952Y-54811904D01*
X170630952Y-54740476D01*
X170607142Y-54645238D01*
X170583333Y-54597619D01*
X170535714Y-54550000D01*
X170464285Y-54526190D01*
X170416666Y-54526190D01*
X170345238Y-54550000D01*
X170321428Y-54573809D01*
X169845238Y-55026190D02*
X170130952Y-55026190D01*
X169988095Y-55026190D02*
X169988095Y-54526190D01*
X170035714Y-54597619D01*
X170083333Y-54645238D01*
X170130952Y-54669047D01*
X169654761Y-54573809D02*
X169630952Y-54550000D01*
X169583333Y-54526190D01*
X169464285Y-54526190D01*
X169416666Y-54550000D01*
X169392857Y-54573809D01*
X169369047Y-54621428D01*
X169369047Y-54669047D01*
X169392857Y-54740476D01*
X169678571Y-55026190D01*
X169369047Y-55026190D01*
G04 #@! TO.C,C11*
X172921428Y-54978571D02*
X172945238Y-55002380D01*
X173016666Y-55026190D01*
X173064285Y-55026190D01*
X173135714Y-55002380D01*
X173183333Y-54954761D01*
X173207142Y-54907142D01*
X173230952Y-54811904D01*
X173230952Y-54740476D01*
X173207142Y-54645238D01*
X173183333Y-54597619D01*
X173135714Y-54550000D01*
X173064285Y-54526190D01*
X173016666Y-54526190D01*
X172945238Y-54550000D01*
X172921428Y-54573809D01*
X172445238Y-55026190D02*
X172730952Y-55026190D01*
X172588095Y-55026190D02*
X172588095Y-54526190D01*
X172635714Y-54597619D01*
X172683333Y-54645238D01*
X172730952Y-54669047D01*
X171969047Y-55026190D02*
X172254761Y-55026190D01*
X172111904Y-55026190D02*
X172111904Y-54526190D01*
X172159523Y-54597619D01*
X172207142Y-54645238D01*
X172254761Y-54669047D01*
G04 #@! TO.C,C10*
X175521428Y-54978571D02*
X175545238Y-55002380D01*
X175616666Y-55026190D01*
X175664285Y-55026190D01*
X175735714Y-55002380D01*
X175783333Y-54954761D01*
X175807142Y-54907142D01*
X175830952Y-54811904D01*
X175830952Y-54740476D01*
X175807142Y-54645238D01*
X175783333Y-54597619D01*
X175735714Y-54550000D01*
X175664285Y-54526190D01*
X175616666Y-54526190D01*
X175545238Y-54550000D01*
X175521428Y-54573809D01*
X175045238Y-55026190D02*
X175330952Y-55026190D01*
X175188095Y-55026190D02*
X175188095Y-54526190D01*
X175235714Y-54597619D01*
X175283333Y-54645238D01*
X175330952Y-54669047D01*
X174735714Y-54526190D02*
X174688095Y-54526190D01*
X174640476Y-54550000D01*
X174616666Y-54573809D01*
X174592857Y-54621428D01*
X174569047Y-54716666D01*
X174569047Y-54835714D01*
X174592857Y-54930952D01*
X174616666Y-54978571D01*
X174640476Y-55002380D01*
X174688095Y-55026190D01*
X174735714Y-55026190D01*
X174783333Y-55002380D01*
X174807142Y-54978571D01*
X174830952Y-54930952D01*
X174854761Y-54835714D01*
X174854761Y-54716666D01*
X174830952Y-54621428D01*
X174807142Y-54573809D01*
X174783333Y-54550000D01*
X174735714Y-54526190D01*
G04 #@! TO.C,C9*
X179783333Y-57678571D02*
X179807142Y-57702380D01*
X179878571Y-57726190D01*
X179926190Y-57726190D01*
X179997619Y-57702380D01*
X180045238Y-57654761D01*
X180069047Y-57607142D01*
X180092857Y-57511904D01*
X180092857Y-57440476D01*
X180069047Y-57345238D01*
X180045238Y-57297619D01*
X179997619Y-57250000D01*
X179926190Y-57226190D01*
X179878571Y-57226190D01*
X179807142Y-57250000D01*
X179783333Y-57273809D01*
X179545238Y-57726190D02*
X179450000Y-57726190D01*
X179402380Y-57702380D01*
X179378571Y-57678571D01*
X179330952Y-57607142D01*
X179307142Y-57511904D01*
X179307142Y-57321428D01*
X179330952Y-57273809D01*
X179354761Y-57250000D01*
X179402380Y-57226190D01*
X179497619Y-57226190D01*
X179545238Y-57250000D01*
X179569047Y-57273809D01*
X179592857Y-57321428D01*
X179592857Y-57440476D01*
X179569047Y-57488095D01*
X179545238Y-57511904D01*
X179497619Y-57535714D01*
X179402380Y-57535714D01*
X179354761Y-57511904D01*
X179330952Y-57488095D01*
X179307142Y-57440476D01*
G04 #@! TO.C,C8*
X117883333Y-121278571D02*
X117907142Y-121302380D01*
X117978571Y-121326190D01*
X118026190Y-121326190D01*
X118097619Y-121302380D01*
X118145238Y-121254761D01*
X118169047Y-121207142D01*
X118192857Y-121111904D01*
X118192857Y-121040476D01*
X118169047Y-120945238D01*
X118145238Y-120897619D01*
X118097619Y-120850000D01*
X118026190Y-120826190D01*
X117978571Y-120826190D01*
X117907142Y-120850000D01*
X117883333Y-120873809D01*
X117597619Y-121040476D02*
X117645238Y-121016666D01*
X117669047Y-120992857D01*
X117692857Y-120945238D01*
X117692857Y-120921428D01*
X117669047Y-120873809D01*
X117645238Y-120850000D01*
X117597619Y-120826190D01*
X117502380Y-120826190D01*
X117454761Y-120850000D01*
X117430952Y-120873809D01*
X117407142Y-120921428D01*
X117407142Y-120945238D01*
X117430952Y-120992857D01*
X117454761Y-121016666D01*
X117502380Y-121040476D01*
X117597619Y-121040476D01*
X117645238Y-121064285D01*
X117669047Y-121088095D01*
X117692857Y-121135714D01*
X117692857Y-121230952D01*
X117669047Y-121278571D01*
X117645238Y-121302380D01*
X117597619Y-121326190D01*
X117502380Y-121326190D01*
X117454761Y-121302380D01*
X117430952Y-121278571D01*
X117407142Y-121230952D01*
X117407142Y-121135714D01*
X117430952Y-121088095D01*
X117454761Y-121064285D01*
X117502380Y-121040476D01*
G04 #@! TO.C,C7*
X126683333Y-118878571D02*
X126707142Y-118902380D01*
X126778571Y-118926190D01*
X126826190Y-118926190D01*
X126897619Y-118902380D01*
X126945238Y-118854761D01*
X126969047Y-118807142D01*
X126992857Y-118711904D01*
X126992857Y-118640476D01*
X126969047Y-118545238D01*
X126945238Y-118497619D01*
X126897619Y-118450000D01*
X126826190Y-118426190D01*
X126778571Y-118426190D01*
X126707142Y-118450000D01*
X126683333Y-118473809D01*
X126516666Y-118426190D02*
X126183333Y-118426190D01*
X126397619Y-118926190D01*
G04 #@! TO.C,C6*
X121283333Y-103878571D02*
X121307142Y-103902380D01*
X121378571Y-103926190D01*
X121426190Y-103926190D01*
X121497619Y-103902380D01*
X121545238Y-103854761D01*
X121569047Y-103807142D01*
X121592857Y-103711904D01*
X121592857Y-103640476D01*
X121569047Y-103545238D01*
X121545238Y-103497619D01*
X121497619Y-103450000D01*
X121426190Y-103426190D01*
X121378571Y-103426190D01*
X121307142Y-103450000D01*
X121283333Y-103473809D01*
X120854761Y-103426190D02*
X120950000Y-103426190D01*
X120997619Y-103450000D01*
X121021428Y-103473809D01*
X121069047Y-103545238D01*
X121092857Y-103640476D01*
X121092857Y-103830952D01*
X121069047Y-103878571D01*
X121045238Y-103902380D01*
X120997619Y-103926190D01*
X120902380Y-103926190D01*
X120854761Y-103902380D01*
X120830952Y-103878571D01*
X120807142Y-103830952D01*
X120807142Y-103711904D01*
X120830952Y-103664285D01*
X120854761Y-103640476D01*
X120902380Y-103616666D01*
X120997619Y-103616666D01*
X121045238Y-103640476D01*
X121069047Y-103664285D01*
X121092857Y-103711904D01*
G04 #@! TO.C,C5*
X176683333Y-113778571D02*
X176707142Y-113802380D01*
X176778571Y-113826190D01*
X176826190Y-113826190D01*
X176897619Y-113802380D01*
X176945238Y-113754761D01*
X176969047Y-113707142D01*
X176992857Y-113611904D01*
X176992857Y-113540476D01*
X176969047Y-113445238D01*
X176945238Y-113397619D01*
X176897619Y-113350000D01*
X176826190Y-113326190D01*
X176778571Y-113326190D01*
X176707142Y-113350000D01*
X176683333Y-113373809D01*
X176230952Y-113326190D02*
X176469047Y-113326190D01*
X176492857Y-113564285D01*
X176469047Y-113540476D01*
X176421428Y-113516666D01*
X176302380Y-113516666D01*
X176254761Y-113540476D01*
X176230952Y-113564285D01*
X176207142Y-113611904D01*
X176207142Y-113730952D01*
X176230952Y-113778571D01*
X176254761Y-113802380D01*
X176302380Y-113826190D01*
X176421428Y-113826190D01*
X176469047Y-113802380D01*
X176492857Y-113778571D01*
G04 #@! TO.C,C4*
X171283333Y-115978571D02*
X171307142Y-116002380D01*
X171378571Y-116026190D01*
X171426190Y-116026190D01*
X171497619Y-116002380D01*
X171545238Y-115954761D01*
X171569047Y-115907142D01*
X171592857Y-115811904D01*
X171592857Y-115740476D01*
X171569047Y-115645238D01*
X171545238Y-115597619D01*
X171497619Y-115550000D01*
X171426190Y-115526190D01*
X171378571Y-115526190D01*
X171307142Y-115550000D01*
X171283333Y-115573809D01*
X170854761Y-115692857D02*
X170854761Y-116026190D01*
X170973809Y-115502380D02*
X171092857Y-115859523D01*
X170783333Y-115859523D01*
G04 #@! TO.C,C3*
X81683333Y-110178571D02*
X81707142Y-110202380D01*
X81778571Y-110226190D01*
X81826190Y-110226190D01*
X81897619Y-110202380D01*
X81945238Y-110154761D01*
X81969047Y-110107142D01*
X81992857Y-110011904D01*
X81992857Y-109940476D01*
X81969047Y-109845238D01*
X81945238Y-109797619D01*
X81897619Y-109750000D01*
X81826190Y-109726190D01*
X81778571Y-109726190D01*
X81707142Y-109750000D01*
X81683333Y-109773809D01*
X81516666Y-109726190D02*
X81207142Y-109726190D01*
X81373809Y-109916666D01*
X81302380Y-109916666D01*
X81254761Y-109940476D01*
X81230952Y-109964285D01*
X81207142Y-110011904D01*
X81207142Y-110130952D01*
X81230952Y-110178571D01*
X81254761Y-110202380D01*
X81302380Y-110226190D01*
X81445238Y-110226190D01*
X81492857Y-110202380D01*
X81516666Y-110178571D01*
G04 #@! TO.C,C2*
X117883333Y-117778571D02*
X117907142Y-117802380D01*
X117978571Y-117826190D01*
X118026190Y-117826190D01*
X118097619Y-117802380D01*
X118145238Y-117754761D01*
X118169047Y-117707142D01*
X118192857Y-117611904D01*
X118192857Y-117540476D01*
X118169047Y-117445238D01*
X118145238Y-117397619D01*
X118097619Y-117350000D01*
X118026190Y-117326190D01*
X117978571Y-117326190D01*
X117907142Y-117350000D01*
X117883333Y-117373809D01*
X117692857Y-117373809D02*
X117669047Y-117350000D01*
X117621428Y-117326190D01*
X117502380Y-117326190D01*
X117454761Y-117350000D01*
X117430952Y-117373809D01*
X117407142Y-117421428D01*
X117407142Y-117469047D01*
X117430952Y-117540476D01*
X117716666Y-117826190D01*
X117407142Y-117826190D01*
G04 #@! TO.C,C1*
X124383333Y-118878571D02*
X124407142Y-118902380D01*
X124478571Y-118926190D01*
X124526190Y-118926190D01*
X124597619Y-118902380D01*
X124645238Y-118854761D01*
X124669047Y-118807142D01*
X124692857Y-118711904D01*
X124692857Y-118640476D01*
X124669047Y-118545238D01*
X124645238Y-118497619D01*
X124597619Y-118450000D01*
X124526190Y-118426190D01*
X124478571Y-118426190D01*
X124407142Y-118450000D01*
X124383333Y-118473809D01*
X123907142Y-118926190D02*
X124192857Y-118926190D01*
X124050000Y-118926190D02*
X124050000Y-118426190D01*
X124097619Y-118497619D01*
X124145238Y-118545238D01*
X124192857Y-118569047D01*
G04 #@! TD*
M02*
