  0
SECTION
  2
HEADER
  9
$ACADVER
  1
AC1014
  9
$HANDSEED
  5
FFFF
  9
$MEASUREMENT
 70
     1
  0
ENDSEC
  0
SECTION
  2
TABLES
  0
TABLE
  2
VPORT
  5
8
330
0
100
AcDbSymbolTable
 70
     4
  0
VPORT
  5
2E
330
8
100
AcDbSymbolTableRecord
100
AcDbViewportTableRecord
  2
*ACTIVE
 70
     0
 10
0.0
 20
0.0
 11
1.0
 21
1.0
 12
210.0
 22
148.5
 13
0.0
 23
0.0
 14
10.0
 24
10.0
 15
10.0
 25
10.0
 16
0.0
 26
0.0
 36
1.0
 17
0.0
 27
0.0
 37
0.0
 40
341.0
 41
1.24
 42
50.0
 43
0.0
 44
0.0
 50
0.0
 51
0.0
 71
     0
 72
   100
 73
     1
 74
     3
 75
     0
 76
     0
 77
     0
 78
     0
  0
ENDTAB
  0
TABLE
  2
LTYPE
  5
5
330
0
100
AcDbSymbolTable
 70
     1
  0
LTYPE
  5
14
330
5
100
AcDbSymbolTableRecord
100
AcDbLinetypeTableRecord
  2
BYBLOCK
 70
     0
  3

 72
    65
 73
     0
 40
0.0
  0
LTYPE
  5
15
330
5
100
AcDbSymbolTableRecord
100
AcDbLinetypeTableRecord
  2
BYLAYER
 70
     0
  3

 72
    65
 73
     0
 40
0.0
  0
LTYPE
  5
16
330
5
100
AcDbSymbolTableRecord
100
AcDbLinetypeTableRecord
  2
CONTINUOUS
 70
     0
  3
Solid line
 72
    65
 73
     0
 40
0.0
  0
ENDTAB
  0
TABLE
  2
LAYER
  5
2
100
AcDbSymbolTable
 70
2
  0
LAYER
  5
50
100
AcDbSymbolTableRecord
100
AcDbLayerTableRecord
  2
0
 70
0
  6
CONTINUOUS
  0
LAYER
  5
51
100
AcDbSymbolTableRecord
100
AcDbLayerTableRecord
  2
Ebene_1
 70
0
  6
CONTINUOUS
  0
ENDTAB
  0
TABLE
  2
STYLE
  5
3
330
0
100
AcDbSymbolTable
 70
     1
  0
STYLE
  5
11
330
3
100
AcDbSymbolTableRecord
100
AcDbTextStyleTableRecord
  2
STANDARD
 70
     0
 40
0.0
 41
1.0
 50
0.0
 71
     0
 42
2.5
  3
txt
  4

  0
ENDTAB
  0
TABLE
  2
VIEW
  5
6
330
0
100
AcDbSymbolTable
 70
     0
  0
ENDTAB
  0
TABLE
  2
UCS
  5
7
330
0
100
AcDbSymbolTable
 70
     0
  0
ENDTAB
  0
TABLE
  2
APPID
  5
9
330
0
100
AcDbSymbolTable
 70
     2
  0
APPID
  5
12
330
9
100
AcDbSymbolTableRecord
100
AcDbRegAppTableRecord
  2
ACAD
 70
     0
  0
ENDTAB
  0
TABLE
  2
DIMSTYLE
  5
A
330
0
100
AcDbSymbolTable
 70
     1
  0
DIMSTYLE
105
27
330
A
100
AcDbSymbolTableRecord
100
AcDbDimStyleTableRecord
  2
ISO-25
 70
     0
  3

  4

  5

  6

  7

 40
1.0
 41
2.5
 42
0.625
 43
3.75
 44
1.25
 45
0.0
 46
0.0
 47
0.0
 48
0.0
140
2.5
141
2.5
142
0.0
143
0.03937007874016
144
1.0
145
0.0
146
1.0
147
0.625
 71
     0
 72
     0
 73
     0
 74
     0
 75
     0
 76
     0
 77
     1
 78
     8
170
     0
171
     3
172
     1
173
     0
174
     0
175
     0
176
     0
177
     0
178
     0
270
     2
271
     2
272
     2
273
     2
274
     3
340
11
275
     0
280
     0
281
     0
282
     0
283
     0
284
     8
285
     0
286
     0
287
     3
288
     0
  0
ENDTAB
  0
TABLE
  2
BLOCK_RECORD
  5
1
330
0
100
AcDbSymbolTable
 70
     1
  0
BLOCK_RECORD
  5
1F
330
1
100
AcDbSymbolTableRecord
100
AcDbBlockTableRecord
  2
*MODEL_SPACE
  0
BLOCK_RECORD
  5
1B
330
1
100
AcDbSymbolTableRecord
100
AcDbBlockTableRecord
  2
*PAPER_SPACE
  0
ENDTAB
  0
ENDSEC
  0
SECTION
  2
BLOCKS
  0
BLOCK
  5
20
330
1F
100
AcDbEntity
  8
0
100
AcDbBlockBegin
  2
*MODEL_SPACE
 70
     0
 10
0.0
 20
0.0
 30
0.0
  3
*MODEL_SPACE
  1

  0
ENDBLK
  5
21
330
1F
100
AcDbEntity
  8
0
100
AcDbBlockEnd
  0
BLOCK
  5
1C
330
1B
100
AcDbEntity
 67
     1
  8
0
100
AcDbBlockBegin
  2
*PAPER_SPACE
  1

  0
ENDBLK
  5
1D
330
1B
100
AcDbEntity
 67
     1
  8
0
100
AcDbBlockEnd
  0
ENDSEC
  0
SECTION
  2
ENTITIES
  0
SPLINE
  5
100
100
AcDbEntity
  8
Ebene_1
 62
7
100
AcDbSpline
 70
8
 71
3
 72
8
 73
4
 74
0
 40
0
 40
0
 40
0
 40
0
 40
1
 40
1
 40
1
 40
1
 10
78.062006
 20
19.797448
 30
0.0
 10
78.856544
 20
19.797397
 30
0.0
 10
79.500628
 20
19.153310
 30
0.0
 10
79.500679
 20
18.358775
 30
0.0
  0
SPLINE
  5
101
100
AcDbEntity
  8
Ebene_1
 62
7
100
AcDbSpline
 70
8
 71
3
 72
8
 73
4
 74
0
 40
0
 40
0
 40
0
 40
0
 40
1
 40
1
 40
1
 40
1
 10
79.500679
 20
18.358775
 30
0.0
 10
79.500628
 20
17.564241
 30
0.0
 10
78.856544
 20
16.920153
 30
0.0
 10
78.062006
 20
16.920102
 30
0.0
  0
SPLINE
  5
102
100
AcDbEntity
  8
Ebene_1
 62
7
100
AcDbSpline
 70
8
 71
3
 72
8
 73
4
 74
0
 40
0
 40
0
 40
0
 40
0
 40
1
 40
1
 40
1
 40
1
 10
78.062006
 20
16.920102
 30
0.0
 10
77.580228
 20
16.920385
 30
0.0
 10
77.130597
 20
17.161927
 30
0.0
 10
76.864216
 20
17.563371
 30
0.0
  0
LWPOLYLINE
  5
103
100
AcDbEntity
  8
Ebene_1
 62
7
100
AcDbPolyline
 90
49
 70
1
 10
73.260924
 20
22.426193
 30
0.0
 10
70.425471
 20
19.590190
 30
0.0
 10
67.099815
 20
19.590190
 30
0.0
 10
65.164121
 20
21.971440
 30
0.0
 10
62.981860
 20
20.850267
 30
0.0
 10
58.943655
 20
22.120267
 30
0.0
 10
56.738243
 20
18.921016
 30
0.0
 10
54.469992
 20
18.047891
 30
0.0
 10
50.582822
 20
18.774393
 30
0.0
 10
46.411777
 20
17.370447
 30
0.0
 10
41.090895
 20
14.233479
 30
0.0
 10
38.550348
 20
13.284837
 30
0.0
 10
34.530882
 20
11.336844
 30
0.0
 10
30.100214
 20
11.911761
 30
0.0
 10
27.059159
 20
8.635336
 30
0.0
 10
23.767852
 20
8.199326
 30
0.0
 10
19.912652
 20
7.762765
 30
0.0
 10
17.372104
 20
6.813572
 30
0.0
 10
13.624388
 20
4.942196
 30
0.0
 10
10.072909
 20
3.418086
 30
0.0
 10
5.549084
 20
3.351939
 30
0.0
 10
2.990895
 20
1.540645
 30
0.0
 10
0.211667
 20
1.787039
 30
0.0
 10
-0.000000
 20
1.405046
 30
0.0
 10
2.985934
 20
-0.000000
 30
0.0
 10
6.122901
 20
1.807433
 30
0.0
 10
9.322706
 20
1.288189
 30
0.0
 10
12.686772
 20
2.280378
 30
0.0
 10
16.247070
 20
3.619830
 30
0.0
 10
18.599658
 20
4.035998
 30
0.0
 10
22.267443
 20
3.940637
 30
0.0
 10
25.195499
 20
3.345877
 30
0.0
 10
27.399259
 20
4.604850
 30
0.0
 10
31.179493
 20
4.171597
 30
0.0
 10
33.177649
 20
5.520972
 30
0.0
 10
33.791703
 20
5.970210
 30
0.0
 10
36.299735
 20
6.896255
 30
0.0
 10
38.652317
 20
7.312973
 30
0.0
 10
43.598375
 20
9.384989
 30
0.0
 10
47.582006
 20
10.256460
 30
0.0
 10
51.281211
 20
8.997487
 30
0.0
 10
53.362050
 20
9.338137
 30
0.0
 10
55.380049
 20
12.005468
 30
0.0
 10
60.706993
 20
13.432564
 30
0.0
 10
65.164121
 20
9.860689
 30
0.0
 10
67.296010
 20
13.186723
 30
0.0
 10
77.622138
 20
13.186723
 30
0.0
 10
86.861610
 20
22.426193
 30
0.0
 10
73.260924
 20
22.426193
 30
0.0
  0
SPLINE
  5
104
100
AcDbEntity
  8
Ebene_1
 62
7
100
AcDbSpline
 70
8
 71
3
 72
8
 73
4
 74
0
 40
0
 40
0
 40
0
 40
0
 40
1
 40
1
 40
1
 40
1
 10
73.461014
 20
15.444501
 30
0.0
 10
73.328713
 20
15.312184
 30
0.0
 10
73.149277
 20
15.237832
 30
0.0
 10
72.962166
 20
15.237795
 30
0.0
  0
LWPOLYLINE
  5
105
100
AcDbEntity
  8
Ebene_1
 62
7
100
AcDbPolyline
 90
3
 70
1
 10
76.864216
 20
17.563371
 30
0.0
 10
75.579887
 20
17.563371
 30
0.0
 10
73.461014
 20
15.444501
 30
0.0
  0
SPLINE
  5
106
100
AcDbEntity
  8
Ebene_1
 62
7
100
AcDbSpline
 70
8
 71
3
 72
8
 73
4
 74
0
 40
0
 40
0
 40
0
 40
0
 40
1
 40
1
 40
1
 40
1
 10
74.788889
 20
18.767777
 30
0.0
 10
74.921189
 20
18.900094
 30
0.0
 10
75.100629
 20
18.974446
 30
0.0
 10
75.287742
 20
18.974483
 30
0.0
  0
LWPOLYLINE
  5
107
100
AcDbEntity
  8
Ebene_1
 62
7
100
AcDbPolyline
 90
5
 70
1
 10
72.962166
 20
15.237795
 30
0.0
 10
69.738658
 20
15.237795
 30
0.0
 10
69.738658
 20
16.648907
 30
0.0
 10
72.670021
 20
16.648907
 30
0.0
 10
74.788889
 20
18.767777
 30
0.0
  0
SPLINE
  5
108
100
AcDbEntity
  8
Ebene_1
 62
7
100
AcDbSpline
 70
8
 71
3
 72
8
 73
4
 74
0
 40
0
 40
0
 40
0
 40
0
 40
1
 40
1
 40
1
 40
1
 10
76.763347
 20
18.974483
 30
0.0
 10
77.001082
 20
19.476488
 30
0.0
 10
77.506556
 20
19.796808
 30
0.0
 10
78.062006
 20
19.797448
 30
0.0
  0
LWPOLYLINE
  5
109
100
AcDbEntity
  8
Ebene_1
 62
7
100
AcDbPolyline
 90
2
 70
1
 10
75.287742
 20
18.974483
 30
0.0
 10
76.763347
 20
18.974483
 30
0.0
  0
LWPOLYLINE
  5
10a
100
AcDbEntity
  8
Ebene_1
 62
7
100
AcDbPolyline
 90
2
 70
1
 10
78.062006
 20
19.797448
 30
0.0
 10
78.062006
 20
19.797448
 30
0.0
  0
ENDSEC
  0
SECTION
  2
OBJECTS
  0
DICTIONARY
  5
C
330
0
100
AcDbDictionary
  3
ACAD_GROUP
350
D
  3
ACAD_MLINESTYLE
350
17
  0
DICTIONARY
  5
D
330
C
100
AcDbDictionary
  0
DICTIONARY
  5
1A
330
C
100
AcDbDictionary
  0
DICTIONARY
  5
17
330
C
100
AcDbDictionary
  3
STANDARD
350
18
  0
DICTIONARY
  5
19
330
C
100
AcDbDictionary
  0
ENDSEC
  0
EOF
