  0
SECTION
  2
HEADER
  9
$ACADVER
  1
AC1014
  9
$HANDSEED
  5
FFFF
  9
$MEASUREMENT
 70
     1
  0
ENDSEC
  0
SECTION
  2
TABLES
  0
TABLE
  2
VPORT
  5
8
330
0
100
AcDbSymbolTable
 70
     4
  0
VPORT
  5
2E
330
8
100
AcDbSymbolTableRecord
100
AcDbViewportTableRecord
  2
*ACTIVE
 70
     0
 10
0.0
 20
0.0
 11
1.0
 21
1.0
 12
210.0
 22
148.5
 13
0.0
 23
0.0
 14
10.0
 24
10.0
 15
10.0
 25
10.0
 16
0.0
 26
0.0
 36
1.0
 17
0.0
 27
0.0
 37
0.0
 40
341.0
 41
1.24
 42
50.0
 43
0.0
 44
0.0
 50
0.0
 51
0.0
 71
     0
 72
   100
 73
     1
 74
     3
 75
     0
 76
     0
 77
     0
 78
     0
  0
ENDTAB
  0
TABLE
  2
LTYPE
  5
5
330
0
100
AcDbSymbolTable
 70
     1
  0
LTYPE
  5
14
330
5
100
AcDbSymbolTableRecord
100
AcDbLinetypeTableRecord
  2
BYBLOCK
 70
     0
  3

 72
    65
 73
     0
 40
0.0
  0
LTYPE
  5
15
330
5
100
AcDbSymbolTableRecord
100
AcDbLinetypeTableRecord
  2
BYLAYER
 70
     0
  3

 72
    65
 73
     0
 40
0.0
  0
LTYPE
  5
16
330
5
100
AcDbSymbolTableRecord
100
AcDbLinetypeTableRecord
  2
CONTINUOUS
 70
     0
  3
Solid line
 72
    65
 73
     0
 40
0.0
  0
ENDTAB
  0
TABLE
  2
LAYER
  5
2
100
AcDbSymbolTable
 70
2
  0
LAYER
  5
50
100
AcDbSymbolTableRecord
100
AcDbLayerTableRecord
  2
0
 70
0
  6
CONTINUOUS
  0
LAYER
  5
51
100
AcDbSymbolTableRecord
100
AcDbLayerTableRecord
  2
Ebene_1
 70
0
  6
CONTINUOUS
  0
ENDTAB
  0
TABLE
  2
STYLE
  5
3
330
0
100
AcDbSymbolTable
 70
     1
  0
STYLE
  5
11
330
3
100
AcDbSymbolTableRecord
100
AcDbTextStyleTableRecord
  2
STANDARD
 70
     0
 40
0.0
 41
1.0
 50
0.0
 71
     0
 42
2.5
  3
txt
  4

  0
ENDTAB
  0
TABLE
  2
VIEW
  5
6
330
0
100
AcDbSymbolTable
 70
     0
  0
ENDTAB
  0
TABLE
  2
UCS
  5
7
330
0
100
AcDbSymbolTable
 70
     0
  0
ENDTAB
  0
TABLE
  2
APPID
  5
9
330
0
100
AcDbSymbolTable
 70
     2
  0
APPID
  5
12
330
9
100
AcDbSymbolTableRecord
100
AcDbRegAppTableRecord
  2
ACAD
 70
     0
  0
ENDTAB
  0
TABLE
  2
DIMSTYLE
  5
A
330
0
100
AcDbSymbolTable
 70
     1
  0
DIMSTYLE
105
27
330
A
100
AcDbSymbolTableRecord
100
AcDbDimStyleTableRecord
  2
ISO-25
 70
     0
  3

  4

  5

  6

  7

 40
1.0
 41
2.5
 42
0.625
 43
3.75
 44
1.25
 45
0.0
 46
0.0
 47
0.0
 48
0.0
140
2.5
141
2.5
142
0.0
143
0.03937007874016
144
1.0
145
0.0
146
1.0
147
0.625
 71
     0
 72
     0
 73
     0
 74
     0
 75
     0
 76
     0
 77
     1
 78
     8
170
     0
171
     3
172
     1
173
     0
174
     0
175
     0
176
     0
177
     0
178
     0
270
     2
271
     2
272
     2
273
     2
274
     3
340
11
275
     0
280
     0
281
     0
282
     0
283
     0
284
     8
285
     0
286
     0
287
     3
288
     0
  0
ENDTAB
  0
TABLE
  2
BLOCK_RECORD
  5
1
330
0
100
AcDbSymbolTable
 70
     1
  0
BLOCK_RECORD
  5
1F
330
1
100
AcDbSymbolTableRecord
100
AcDbBlockTableRecord
  2
*MODEL_SPACE
  0
BLOCK_RECORD
  5
1B
330
1
100
AcDbSymbolTableRecord
100
AcDbBlockTableRecord
  2
*PAPER_SPACE
  0
ENDTAB
  0
ENDSEC
  0
SECTION
  2
BLOCKS
  0
BLOCK
  5
20
330
1F
100
AcDbEntity
  8
0
100
AcDbBlockBegin
  2
*MODEL_SPACE
 70
     0
 10
0.0
 20
0.0
 30
0.0
  3
*MODEL_SPACE
  1

  0
ENDBLK
  5
21
330
1F
100
AcDbEntity
  8
0
100
AcDbBlockEnd
  0
BLOCK
  5
1C
330
1B
100
AcDbEntity
 67
     1
  8
0
100
AcDbBlockBegin
  2
*PAPER_SPACE
  1

  0
ENDBLK
  5
1D
330
1B
100
AcDbEntity
 67
     1
  8
0
100
AcDbBlockEnd
  0
ENDSEC
  0
SECTION
  2
ENTITIES
  0
LWPOLYLINE
  5
100
100
AcDbEntity
  8
Ebene_1
 62
7
100
AcDbPolyline
 90
220
 70
1
 10
22.656602
 20
99.999825
 30
0.0
 10
20.009115
 20
96.975859
 30
0.0
 10
18.177425
 20
97.580540
 30
0.0
 10
16.734344
 20
96.291247
 30
0.0
 10
16.341330
 20
94.289233
 30
0.0
 10
14.335455
 20
95.777515
 30
0.0
 10
12.419432
 20
95.827124
 30
0.0
 10
10.586641
 20
96.438974
 30
0.0
 10
9.442871
 20
98.237590
 30
0.0
 10
6.635530
 20
98.873693
 30
0.0
 10
4.356806
 20
96.084542
 30
0.0
 10
2.791906
 20
96.185967
 30
0.0
 10
2.177852
 20
93.458555
 30
0.0
 10
0.906749
 20
92.574403
 30
0.0
 10
1.437019
 20
90.259851
 30
0.0
 10
-0.000000
 20
88.553290
 30
0.0
 10
-0.000000
 20
85.862806
 30
0.0
 10
2.521811
 20
86.232672
 30
0.0
 10
4.715095
 20
83.846461
 30
0.0
 10
7.805208
 20
82.924830
 30
0.0
 10
9.898724
 20
81.796492
 30
0.0
 10
12.988287
 20
80.874858
 30
0.0
 10
14.659020
 20
78.700316
 30
0.0
 10
17.804254
 20
78.668897
 30
0.0
 10
19.947930
 20
76.912173
 30
0.0
 10
22.839053
 20
76.631055
 30
0.0
 10
24.972809
 20
74.358392
 30
0.0
 10
25.505833
 20
71.721929
 30
0.0
 10
29.524195
 20
71.891705
 30
0.0
 10
32.447289
 20
68.297780
 30
0.0
 10
35.013748
 20
67.587816
 30
0.0
 10
38.782958
 20
66.086857
 30
0.0
 10
41.299257
 20
66.005828
 30
0.0
 10
44.093367
 20
65.137665
 30
0.0
 10
44.021708
 20
64.645430
 30
0.0
 10
41.299257
 20
64.876939
 30
0.0
 10
38.782958
 20
64.393524
 30
0.0
 10
35.013748
 20
65.330039
 30
0.0
 10
32.447289
 20
65.475558
 30
0.0
 10
29.524195
 20
68.505039
 30
0.0
 10
27.898660
 20
68.215098
 30
0.0
 10
26.330453
 20
67.935082
 30
0.0
 10
25.382361
 20
67.765859
 30
0.0
 10
22.826376
 20
70.951332
 30
0.0
 10
19.947930
 20
71.832173
 30
0.0
 10
17.804254
 20
73.024452
 30
0.0
 10
14.659020
 20
72.491427
 30
0.0
 10
12.988287
 20
74.101525
 30
0.0
 10
9.898724
 20
74.458714
 30
0.0
 10
7.805208
 20
75.022608
 30
0.0
 10
4.715095
 20
75.379794
 30
0.0
 10
2.521811
 20
77.201561
 30
0.0
 10
-0.000000
 20
76.407811
 30
0.0
 10
-0.000000
 20
73.144066
 30
0.0
 10
2.430859
 20
67.436232
 30
0.0
 10
1.979414
 20
59.713706
 30
0.0
 10
0.257968
 20
57.702320
 30
0.0
 10
1.797513
 20
52.162608
 30
0.0
 10
0.526412
 20
48.783107
 30
0.0
 10
1.353786
 20
39.987364
 30
0.0
 10
0.397428
 20
32.473197
 30
0.0
 10
2.113912
 20
29.490020
 30
0.0
 10
-0.000000
 20
25.050532
 30
0.0
 10
-0.000000
 20
22.732672
 30
0.0
 10
2.341011
 20
21.349123
 30
0.0
 10
3.843624
 20
22.421234
 30
0.0
 10
10.927292
 20
20.773102
 30
0.0
 10
15.189841
 20
23.438228
 30
0.0
 10
19.235208
 20
26.514560
 30
0.0
 10
25.214241
 20
28.985658
 30
0.0
 10
27.760857
 20
31.382893
 30
0.0
 10
28.257503
 20
30.863650
 30
0.0
 10
25.214241
 20
27.139637
 30
0.0
 10
19.235208
 20
23.745805
 30
0.0
 10
15.189841
 20
19.747289
 30
0.0
 10
10.927292
 20
16.159429
 30
0.0
 10
3.843624
 20
16.884277
 30
0.0
 10
-0.000000
 20
13.418235
 30
0.0
 10
-0.000000
 20
7.828361
 30
0.0
 10
0.860448
 20
5.701775
 30
0.0
 10
0.723194
 20
4.107109
 30
0.0
 10
2.560396
 20
3.839218
 30
0.0
 10
4.162778
 20
4.307749
 30
0.0
 10
4.486343
 20
2.787500
 30
0.0
 10
4.280738
 20
1.532382
 30
0.0
 10
5.768467
 20
1.309691
 30
0.0
 10
6.939249
 20
0.000002
 30
0.0
 10
143.397554
 20
0.000002
 30
0.0
 10
145.303658
 20
2.742299
 30
0.0
 10
148.963177
 20
1.871378
 30
0.0
 10
151.055589
 20
2.757734
 30
0.0
 10
153.396600
 20
2.086353
 30
0.0
 10
154.465407
 20
6.535761
 30
0.0
 10
156.512068
 20
4.967554
 30
0.0
 10
158.387855
 20
6.529699
 30
0.0
 10
160.000160
 20
7.088081
 30
0.0
 10
160.000160
 20
22.191378
 30
0.0
 10
155.543033
 20
25.763253
 30
0.0
 10
150.216088
 20
24.336157
 30
0.0
 10
148.198089
 20
21.668827
 30
0.0
 10
146.117251
 20
21.328176
 30
0.0
 10
142.418046
 20
22.587150
 30
0.0
 10
138.434411
 20
21.715679
 30
0.0
 10
133.488357
 20
19.643663
 30
0.0
 10
131.135772
 20
19.226944
 30
0.0
 10
128.627742
 20
18.300900
 30
0.0
 10
128.013689
 20
17.851661
 30
0.0
 10
126.015533
 20
16.502286
 30
0.0
 10
122.235299
 20
16.935540
 30
0.0
 10
120.031538
 20
15.676566
 30
0.0
 10
117.103483
 20
16.271327
 30
0.0
 10
113.435697
 20
16.366687
 30
0.0
 10
111.083110
 20
15.950519
 30
0.0
 10
107.522812
 20
14.611067
 30
0.0
 10
104.158745
 20
13.618878
 30
0.0
 10
100.958941
 20
14.138122
 30
0.0
 10
97.821973
 20
12.330689
 30
0.0
 10
94.836039
 20
13.735735
 30
0.0
 10
95.047706
 20
14.117729
 30
0.0
 10
97.826934
 20
13.871335
 30
0.0
 10
100.385124
 20
15.682628
 30
0.0
 10
104.908948
 20
15.748776
 30
0.0
 10
108.460427
 20
17.272886
 30
0.0
 10
112.208141
 20
19.144262
 30
0.0
 10
114.748691
 20
20.093454
 30
0.0
 10
118.603892
 20
20.530015
 30
0.0
 10
121.895198
 20
20.966026
 30
0.0
 10
124.936253
 20
24.242451
 30
0.0
 10
129.366922
 20
23.667533
 30
0.0
 10
133.386384
 20
25.615527
 30
0.0
 10
135.926934
 20
26.564169
 30
0.0
 10
141.247817
 20
29.701137
 30
0.0
 10
145.418861
 20
31.105082
 30
0.0
 10
149.306032
 20
30.378580
 30
0.0
 10
151.574283
 20
31.251705
 30
0.0
 10
153.779694
 20
34.450957
 30
0.0
 10
157.817899
 20
33.180957
 30
0.0
 10
160.000160
 20
34.302130
 30
0.0
 10
160.000160
 20
38.157330
 30
0.0
 10
159.259877
 20
48.727433
 30
0.0
 10
159.935666
 20
51.393663
 30
0.0
 10
158.868514
 20
53.998153
 30
0.0
 10
160.000160
 20
59.931435
 30
0.0
 10
158.097364
 20
77.266605
 30
0.0
 10
160.000160
 20
82.339990
 30
0.0
 10
160.000160
 20
86.901847
 30
0.0
 10
158.736222
 20
90.030545
 30
0.0
 10
156.690661
 20
91.012261
 30
0.0
 10
155.725484
 20
94.671777
 30
0.0
 10
154.854566
 20
96.292351
 30
0.0
 10
153.197611
 20
96.514491
 30
0.0
 10
152.231330
 20
97.938832
 30
0.0
 10
149.308236
 20
98.216643
 30
0.0
 10
147.154638
 20
98.756283
 30
0.0
 10
144.696770
 20
97.742047
 30
0.0
 10
142.139681
 20
99.999825
 30
0.0
 10
132.216706
 20
98.953619
 30
0.0
 10
122.575399
 20
99.999825
 30
0.0
 10
120.080047
 20
99.999825
 30
0.0
 10
119.522768
 20
98.832901
 30
0.0
 10
117.341057
 20
96.671036
 30
0.0
 10
113.654530
 20
94.725797
 30
0.0
 10
111.857567
 20
92.667559
 30
0.0
 10
112.402168
 20
89.583511
 30
0.0
 10
110.567724
 20
86.894681
 30
0.0
 10
110.327945
 20
84.321057
 30
0.0
 10
107.443987
 20
82.035720
 30
0.0
 10
106.978210
 20
81.648765
 30
0.0
 10
106.963873
 20
80.502237
 30
0.0
 10
104.434346
 20
78.866782
 30
0.0
 10
103.050794
 20
75.266245
 30
0.0
 10
100.097384
 20
72.897672
 30
0.0
 10
97.716684
 20
70.068835
 30
0.0
 10
97.252011
 20
70.422716
 30
0.0
 10
98.968495
 20
72.897672
 30
0.0
 10
101.357461
 20
75.266245
 30
0.0
 10
102.176569
 20
78.866782
 30
0.0
 10
103.393102
 20
80.302698
 30
0.0
 10
103.385369
 20
82.040128
 30
0.0
 10
103.891935
 20
82.817343
 30
0.0
 10
104.383070
 20
85.417976
 30
0.0
 10
106.616593
 20
86.894681
 30
0.0
 10
107.886593
 20
89.583511
 30
0.0
 10
106.777547
 20
92.667559
 30
0.0
 10
108.010065
 20
94.725797
 30
0.0
 10
111.132149
 20
96.671036
 30
0.0
 10
112.749965
 20
98.832901
 30
0.0
 10
113.129221
 20
99.999825
 30
0.0
 10
110.018714
 20
99.999825
 30
0.0
 10
104.787130
 20
99.327343
 30
0.0
 10
94.920926
 20
99.999825
 30
0.0
 10
82.680641
 20
97.577235
 30
0.0
 10
80.421209
 20
98.654308
 30
0.0
 10
76.833899
 20
98.654308
 30
0.0
 10
69.434385
 20
99.999825
 30
0.0
 10
64.386356
 20
99.999825
 30
0.0
 10
63.859396
 20
97.672042
 30
0.0
 10
65.701006
 20
94.802415
 30
0.0
 10
64.591960
 20
90.649010
 30
0.0
 10
65.555484
 20
87.937029
 30
0.0
 10
65.680610
 20
85.103233
 30
0.0
 10
65.486582
 20
82.508663
 30
0.0
 10
65.215383
 20
78.477073
 30
0.0
 10
64.980566
 20
76.161417
 30
0.0
 10
65.585800
 20
74.177595
 30
0.0
 10
65.110103
 20
73.962068
 30
0.0
 10
63.863254
 20
75.999913
 30
0.0
 10
63.539689
 20
78.233986
 30
0.0
 10
63.251955
 20
82.185098
 30
0.0
 10
62.887603
 20
84.698639
 30
0.0
 10
62.203544
 20
87.451409
 30
0.0
 10
60.681639
 20
90.082358
 30
0.0
 10
61.232302
 20
94.154737
 30
0.0
 10
58.930427
 20
99.999825
 30
0.0
 10
51.870463
 20
99.999825
 30
0.0
 10
48.431983
 20
99.102999
 30
0.0
 10
34.605299
 20
99.999825
 30
0.0
 10
26.533300
 20
99.028032
 30
0.0
 10
22.656602
 20
99.999825
 30
0.0
 10
22.656602
 20
99.999825
 30
0.0
  0
ENDSEC
  0
SECTION
  2
OBJECTS
  0
DICTIONARY
  5
C
330
0
100
AcDbDictionary
  3
ACAD_GROUP
350
D
  3
ACAD_MLINESTYLE
350
17
  0
DICTIONARY
  5
D
330
C
100
AcDbDictionary
  0
DICTIONARY
  5
1A
330
C
100
AcDbDictionary
  0
DICTIONARY
  5
17
330
C
100
AcDbDictionary
  3
STANDARD
350
18
  0
DICTIONARY
  5
19
330
C
100
AcDbDictionary
  0
ENDSEC
  0
EOF
